<?xml version="1.0" standalone="no"?>
<!DOCTYPE svg PUBLIC "-//W3C//DTD SVG 20010904//EN"
 "http://www.w3.org/TR/2001/REC-SVG-20010904/DTD/svg10.dtd">
<svg version="1.0" xmlns="http://www.w3.org/2000/svg"
 width="640.000000pt" height="400.000000pt" viewBox="0 0 640.000000 400.000000"
 preserveAspectRatio="xMidYMid meet">
<metadata>
Created by potrace 1.16, written by Peter Selinger 2001-2019
</metadata>
<g transform="translate(0.000000,400.000000) scale(0.100000,-0.100000)"
fill="#000000" stroke="none">
<path d="M2760 3887 l-53 -19 7 -132 7 -132 -38 -43 c-37 -41 -42 -44 -94 -45
-52 -1 -54 -2 -57 -30 -2 -18 -11 -30 -23 -33 -15 -4 -19 -14 -19 -47 0 -37 4
-43 34 -60 22 -12 44 -16 60 -12 34 8 96 64 96 85 0 10 9 26 20 36 20 18 20
17 20 -92 0 -86 3 -112 14 -116 10 -4 14 -24 13 -74 0 -42 6 -82 16 -105 15
-37 15 -38 -4 -38 -29 0 -71 -46 -67 -73 4 -32 75 -53 137 -41 42 8 46 12 49
42 2 18 -6 68 -17 112 -15 58 -18 86 -11 105 12 30 9 30 71 4 l49 -21 0 -63
c0 -41 7 -80 20 -110 11 -26 20 -48 20 -50 0 -1 -11 -6 -25 -9 -27 -7 -60 -59
-51 -81 13 -34 123 -40 173 -9 24 15 21 38 -17 149 -25 72 -19 137 13 160 12
8 23 11 27 6 3 -4 20 -11 38 -14 25 -5 37 -2 52 13 24 24 40 82 38 140 -1 25
7 74 17 110 24 86 17 113 -51 175 l-54 50 0 67 0 67 -46 27 c-49 29 -161 74
-254 103 -56 18 -58 17 -110 -2z m182 -48 c42 -15 103 -41 134 -57 l58 -29
-32 -17 c-31 -16 -33 -16 -109 23 -43 21 -113 51 -155 66 -43 15 -78 29 -78
32 0 2 10 8 23 13 28 11 62 5 159 -31z m-125 -24 c38 -14 107 -44 156 -67 l87
-41 0 -211 c0 -116 -3 -241 -6 -277 l-7 -67 -101 43 c-55 23 -123 49 -151 58
l-50 17 -2 232 c-1 128 -5 257 -8 286 -4 33 -3 52 4 52 6 0 41 -11 78 -25z
m327 -107 c10 -39 7 -56 -11 -60 -13 -2 3 -23 61 -80 87 -84 85 -78 49 -193
-9 -27 -16 -79 -17 -117 -1 -52 -5 -71 -20 -85 -18 -17 -19 -17 -11 2 4 11 9
31 12 45 3 20 0 18 -16 -12 -19 -33 -41 -57 -41 -44 0 3 9 20 20 38 31 52 23
66 -11 19 -39 -55 -49 -46 -14 13 28 47 25 58 -7 29 -11 -10 -18 -12 -18 -4 0
10 12 23 52 53 9 7 23 43 31 80 13 57 13 70 1 87 -19 26 -81 64 -97 58 -7 -2
0 -10 17 -18 l28 -13 -7 -95 c-6 -73 -12 -101 -28 -123 -17 -22 -19 -33 -11
-46 6 -9 8 -24 3 -32 -4 -8 -10 -23 -13 -32 -3 -10 -11 -18 -17 -18 -9 0 -10
24 -5 92 3 50 6 173 6 273 0 179 0 182 23 193 31 15 34 15 41 -10z m-309 -507
c-16 -42 -15 -73 4 -143 29 -102 28 -114 -11 -122 -40 -8 -94 2 -108 19 -19
22 25 59 61 51 34 -7 35 -6 9 62 -19 49 -27 151 -14 165 3 3 19 1 35 -5 22 -8
28 -15 24 -27z m200 -63 c16 -7 24 -17 21 -27 -2 -9 -7 -26 -10 -37 -4 -13 6
-55 24 -103 45 -122 42 -131 -45 -131 -57 0 -75 8 -68 28 9 26 34 42 64 42
l28 0 -29 63 c-22 46 -30 77 -30 120 0 60 4 64 45 45z"/>
<path d="M5014 3756 c-42 -19 -44 -23 -33 -83 9 -47 7 -56 -15 -92 -16 -25
-28 -62 -32 -98 -4 -37 -15 -71 -31 -94 -15 -23 -26 -57 -30 -90 -5 -50 -3
-56 24 -81 24 -23 33 -26 63 -19 30 6 35 11 38 39 6 58 22 23 22 -47 0 -47 5
-72 14 -80 12 -10 12 -19 -2 -61 -14 -43 -14 -57 -2 -102 7 -29 15 -58 17 -64
2 -7 -9 -16 -26 -22 -56 -20 -65 -78 -15 -100 51 -24 155 -9 168 23 2 7 -9 50
-25 96 -20 58 -28 94 -24 117 l6 32 41 -28 c38 -26 41 -32 43 -78 2 -35 11
-64 33 -101 23 -39 28 -53 17 -53 -23 0 -55 -37 -55 -65 0 -31 26 -45 83 -45
58 0 113 36 109 71 -1 13 -20 55 -42 93 -54 94 -52 126 10 126 49 0 76 90 45
150 -14 27 -13 32 15 85 36 69 36 76 6 162 -14 37 -28 94 -31 126 -7 55 -10
60 -77 122 -90 83 -226 175 -258 175 -14 -1 -39 -7 -56 -14z m157 -69 c47 -34
112 -85 144 -114 l57 -52 -41 -12 -41 -12 -49 46 c-26 25 -90 76 -141 113
l-93 68 29 13 c16 7 34 12 39 12 6 0 49 -27 96 -62z m-46 -73 c39 -29 89 -70
111 -91 41 -38 42 -40 49 -126 4 -48 6 -130 3 -182 -4 -104 -19 -137 -39 -91
-8 16 -18 25 -26 22 -8 -3 -18 5 -25 20 -6 13 -17 23 -24 20 -6 -2 -17 7 -23
21 -6 13 -17 23 -24 20 -6 -2 -19 9 -28 25 -14 26 -17 28 -29 14 -11 -14 -11
-16 2 -11 10 4 19 -4 28 -24 6 -16 17 -28 24 -25 7 3 18 -7 24 -21 7 -14 16
-23 22 -20 5 3 16 -5 25 -19 10 -14 22 -23 31 -19 8 3 14 1 14 -3 0 -5 3 -18
6 -29 8 -31 -30 -30 -44 1 -7 14 -17 21 -25 18 -10 -3 -17 4 -21 21 -5 19 -12
25 -22 21 -10 -4 -19 4 -27 22 -11 26 -37 33 -37 11 0 -6 5 -7 10 -4 6 4 15
-7 21 -25 9 -23 14 -28 24 -20 9 8 16 3 25 -19 7 -19 17 -28 26 -24 8 3 18 -5
25 -21 7 -15 17 -25 23 -23 14 5 46 -47 46 -73 0 -11 -2 -20 -5 -20 -3 0 -38
27 -78 61 -39 34 -88 73 -108 87 l-36 26 -6 171 c-6 153 -18 288 -32 369 l-5
28 28 -17 c15 -10 59 -42 97 -71z m-131 -162 c-12 -54 -13 -65 0 -85 8 -12 17
-33 20 -47 l7 -25 -20 23 c-19 22 -20 22 -26 2 -4 -11 -4 -34 0 -50 4 -16 3
-35 -1 -42 -5 -8 -12 6 -20 37 l-12 50 -1 -48 c-1 -62 -20 -53 -22 11 l-2 47
-7 -40 -7 -40 -2 43 c-1 43 21 102 39 102 6 0 9 3 8 8 -5 19 16 130 30 157
l16 30 7 -35 c5 -22 2 -59 -7 -98z m386 15 c0 -18 13 -72 29 -120 l30 -87 -36
-70 c-33 -64 -35 -71 -20 -88 25 -27 30 -67 14 -99 l-16 -28 5 45 c4 44 4 44
-8 15 -20 -47 -36 -70 -43 -63 -4 3 1 20 10 38 9 17 14 37 12 43 -3 7 -8 4
-12 -8 -10 -25 -35 -55 -47 -55 -5 0 -2 10 6 22 31 44 12 90 -22 56 -7 -7 -12
-8 -12 -4 0 4 18 29 41 54 44 51 79 111 79 138 0 19 -51 116 -58 110 -2 -3 7
-29 21 -58 l24 -53 -31 -62 c-17 -34 -34 -62 -39 -62 -4 -1 -4 43 -1 97 3 53
2 132 -3 175 l-9 77 30 9 c51 15 56 13 56 -22z m-277 -453 c-13 -40 -13 -46
16 -120 17 -44 31 -84 31 -91 0 -33 -98 -45 -138 -17 -22 15 -22 17 -6 35 10
12 30 19 52 19 28 0 33 3 27 18 -43 111 -46 133 -30 183 16 49 17 49 39 32 22
-17 23 -19 9 -59z m187 -104 c0 -9 20 -49 45 -90 24 -41 45 -83 45 -92 0 -42
-140 -67 -148 -27 -4 23 25 49 54 49 13 0 24 2 24 5 0 2 -16 33 -35 68 -19 35
-35 77 -35 94 0 30 1 31 25 20 14 -7 25 -19 25 -27z"/>
<path d="M3730 3274 c-48 -34 -62 -56 -55 -91 5 -28 1 -35 -35 -64 -59 -47
-79 -98 -85 -210 -2 -52 -7 -117 -11 -146 -5 -47 -3 -55 20 -78 25 -25 33 -27
141 -29 l40 -1 2 -56 c1 -31 8 -80 17 -109 16 -55 12 -69 -21 -70 -20 0 -43
-30 -43 -55 0 -37 40 -59 95 -53 97 11 113 48 74 173 -14 47 -18 79 -14 107
l7 40 47 -7 c25 -4 47 -8 49 -10 2 -2 3 -22 4 -46 0 -24 11 -72 23 -105 l23
-62 -24 -11 c-28 -12 -47 -55 -39 -82 13 -40 104 -36 149 6 32 30 33 55 1 139
-32 85 -34 152 -4 161 14 5 31 0 50 -14 36 -27 99 -28 122 -3 17 19 22 44 11
55 -14 13 -9 106 8 179 23 94 16 116 -66 205 l-56 61 0 71 c0 39 -2 71 -5 71
-2 0 -60 9 -127 19 -200 32 -269 35 -298 15z m235 -29 c55 -8 113 -18 130 -21
l29 -6 -26 -23 -26 -22 -93 18 c-52 10 -133 22 -182 25 -84 7 -87 8 -71 26 22
23 98 24 239 3z m-31 -66 c66 -10 122 -22 125 -25 10 -9 20 -323 14 -426 l-6
-97 -51 5 c-70 8 -224 33 -266 44 l-35 10 -2 82 c-1 46 -5 162 -9 259 l-6 176
58 -4 c33 -2 113 -13 178 -24z m196 -59 c-7 -4 16 -39 64 -95 84 -98 88 -111
60 -205 -9 -32 -13 -67 -9 -88 4 -20 1 -47 -6 -64 -9 -23 -10 -31 0 -37 9 -6
8 -11 -3 -20 -21 -18 -36 -5 -36 30 0 19 -4 28 -11 23 -6 -4 -9 -19 -5 -36 5
-27 4 -29 -9 -18 -11 9 -14 22 -9 43 4 20 3 27 -5 23 -6 -4 -11 -16 -11 -27 0
-11 -4 -18 -9 -14 -9 5 -4 34 14 78 4 10 4 17 -1 16 -19 -3 -34 1 -34 11 0 6
15 10 34 10 29 0 36 4 45 31 16 47 13 121 -6 149 -24 37 -65 80 -76 80 -6 0
-2 -9 7 -19 15 -17 17 -35 14 -122 -2 -70 -7 -104 -15 -107 -16 -5 -17 -39 -1
-44 13 -5 -2 -60 -19 -65 -8 -3 -12 73 -15 249 l-4 253 26 22 25 21 3 -35 c2
-20 -2 -39 -8 -43z m-444 -34 c4 -18 -1 -34 -19 -58 -14 -18 -31 -54 -37 -79
-15 -58 -10 -125 9 -121 20 4 61 -26 61 -44 0 -13 -3 -14 -15 -4 -37 30 -49
-39 -13 -77 20 -22 21 -23 2 -23 -29 0 -41 12 -53 50 l-11 35 3 -42 c3 -48
-11 -43 -23 9 l-8 33 -1 -35 c-1 -26 -4 -31 -11 -20 -14 21 -12 61 3 90 9 16
12 48 9 90 -5 82 10 141 49 185 37 41 47 43 55 11z m146 -494 c-3 -35 4 -81
19 -132 12 -43 19 -85 16 -93 -8 -21 -78 -41 -112 -33 -55 14 -37 66 23 68 37
1 38 4 12 86 -33 105 -26 165 19 160 25 -3 26 -5 23 -56z m214 -14 c-5 -34 0
-61 24 -127 17 -46 28 -91 25 -101 -7 -23 -65 -53 -95 -49 -19 3 -26 11 -28
32 -3 23 2 30 32 42 l35 15 -24 65 c-14 38 -25 87 -25 115 0 49 0 50 31 50 31
0 31 0 25 -42z"/>
<path d="M1707 3158 l-59 -31 7 -54 c6 -53 6 -54 -38 -103 -46 -51 -67 -108
-67 -180 0 -16 -11 -46 -25 -66 -37 -54 -34 -104 7 -134 40 -30 85 -30 109 -2
27 34 32 27 24 -38 -7 -58 -6 -59 19 -66 21 -5 26 -12 25 -38 -1 -17 -4 -42
-8 -56 -4 -14 -4 -32 0 -40 10 -22 33 -104 31 -112 -1 -5 4 -8 11 -8 6 -1 -6
-7 -27 -15 -41 -15 -52 -26 -62 -63 -8 -30 12 -51 57 -58 42 -7 112 10 135 33
21 21 14 88 -16 172 -20 54 -21 61 -7 107 16 53 15 52 95 39 l32 -6 0 -78 c0
-63 5 -87 25 -127 29 -58 29 -54 11 -54 -7 0 -25 -9 -40 -21 -33 -26 -37 -83
-7 -99 32 -16 84 -12 131 13 40 19 45 26 48 60 2 26 -7 60 -31 112 l-34 76 16
59 c9 32 27 70 40 84 l24 25 16 -21 c14 -17 24 -19 57 -14 22 4 53 18 70 31
25 20 29 30 28 68 0 24 -8 55 -17 68 -12 16 -17 44 -17 91 0 81 -21 147 -66
210 -28 39 -34 59 -40 123 -6 70 -9 77 -33 86 -46 18 -158 38 -243 44 -46 4
-92 8 -103 10 -11 2 -46 -10 -78 -27z m313 -24 c100 -21 110 -27 78 -48 -23
-15 -31 -15 -101 0 -42 8 -125 21 -184 28 l-108 12 30 17 c25 15 45 17 120 12
50 -3 124 -13 165 -21z m-120 -50 c52 -8 112 -19 133 -25 l37 -10 0 -113 c0
-109 -19 -478 -25 -484 -3 -4 -345 54 -349 59 -2 2 -6 138 -9 301 l-5 298 61
-6 c34 -3 105 -12 157 -20z m240 -45 c0 -47 -1 -50 -17 -38 -10 8 -1 -8 20
-36 82 -109 91 -132 97 -235 4 -68 10 -102 23 -120 9 -13 16 -40 16 -60 -1
-21 -3 -27 -6 -15 -9 38 -23 40 -23 3 0 -20 -4 -39 -9 -42 -5 -4 -7 3 -4 13 3
11 0 28 -6 38 -9 15 -10 14 -11 -14 0 -33 -25 -67 -41 -57 -5 3 -3 15 6 27 18
26 18 37 4 74 l-11 28 -24 -28 c-22 -26 -24 -27 -24 -7 0 12 14 36 32 53 27
27 33 41 36 89 4 51 1 63 -27 107 -18 27 -39 55 -48 63 -14 12 -14 10 0 -19
21 -40 23 -167 3 -243 -8 -30 -12 -68 -9 -85 4 -26 0 -34 -22 -49 l-28 -18 8
118 c4 66 8 198 10 294 3 166 4 175 25 192 12 10 24 18 26 18 2 0 4 -23 4 -51z
m-470 -94 c0 -20 -9 -48 -20 -63 -11 -15 -25 -53 -30 -84 -10 -54 -10 -58 15
-82 14 -14 25 -37 25 -51 0 -30 -16 -33 -23 -4 -8 29 -31 19 -35 -14 -3 -22 0
-26 14 -20 22 8 15 -16 -9 -31 -24 -15 -39 9 -31 49 4 20 3 27 -4 20 -6 -5
-12 -21 -15 -35 -3 -17 -5 -13 -6 15 -2 40 -2 40 -16 15 -14 -24 -14 -24 -15
-3 0 12 11 34 24 50 17 20 26 47 31 93 4 36 11 75 16 88 10 27 61 92 72 92 4
0 7 -16 7 -35z m127 -471 l21 -6 -18 -52 -18 -52 29 -85 c35 -105 36 -124 4
-145 -29 -19 -120 -23 -137 -6 -20 20 22 66 64 70 l35 3 -23 65 c-23 63 -31
144 -18 192 6 22 22 26 61 16z m251 -49 c3 -3 0 -30 -7 -60 -12 -53 -11 -57
23 -134 47 -104 47 -117 -6 -141 -69 -31 -118 -25 -118 16 0 26 34 54 67 54
29 0 29 1 -4 69 -17 36 -28 79 -31 118 -6 84 0 97 40 89 17 -3 34 -8 36 -11z"/>
<path d="M5752 2588 c-40 -19 -43 -24 -39 -52 3 -17 13 -87 22 -155 l17 -124
-29 -41 c-25 -36 -35 -42 -75 -46 -52 -6 -78 -24 -78 -51 0 -13 7 -19 23 -19
21 -1 21 -1 -5 -15 -52 -29 -42 -85 21 -111 27 -11 33 -10 58 9 40 31 62 58
69 87 16 62 31 33 33 -67 1 -36 6 -55 17 -61 14 -8 14 -12 0 -47 -20 -48 -20
-77 3 -142 17 -52 17 -53 -1 -53 -23 0 -68 -43 -68 -64 0 -24 54 -46 110 -46
99 0 109 25 60 148 -25 64 -27 77 -16 102 l12 29 39 -32 c36 -28 40 -36 37
-70 -2 -27 5 -53 28 -95 20 -37 27 -58 19 -61 -27 -9 -50 -43 -47 -69 6 -53
86 -64 157 -21 41 25 40 47 -8 130 -22 37 -42 77 -45 87 -9 27 18 52 57 52 18
0 39 6 48 13 28 21 50 76 48 120 -1 23 6 71 16 106 20 74 17 83 -56 171 -30
37 -38 56 -43 105 -6 59 -7 62 -76 126 -75 72 -225 179 -250 179 -8 0 -35 -10
-58 -22z m130 -46 c77 -51 219 -173 213 -183 -3 -4 -21 -13 -40 -19 -34 -11
-37 -10 -78 30 -23 23 -84 73 -136 112 -86 65 -92 73 -75 85 29 21 55 15 116
-25z m-5 -109 c126 -100 130 -105 142 -203 12 -93 15 -321 5 -392 l-6 -45
-113 90 -112 89 -7 132 c-6 118 -26 305 -43 395 l-6 35 31 -20 c17 -10 66 -47
109 -81z m235 -128 c2 -19 0 -36 -4 -37 -4 -2 19 -39 52 -82 67 -88 71 -107
41 -185 -12 -33 -15 -54 -9 -65 18 -32 -23 -126 -53 -126 -6 0 -1 12 10 26 33
41 25 51 -12 16 -18 -18 -37 -32 -42 -32 -6 0 3 11 18 25 15 14 27 31 27 37 0
6 -10 2 -23 -10 -38 -36 -54 -26 -19 11 40 41 42 60 6 47 -42 -16 -51 -11 -16
10 18 11 39 20 47 20 20 0 35 41 35 94 0 36 -6 47 -45 86 -24 24 -47 41 -50
39 -2 -3 9 -18 25 -34 27 -26 30 -34 30 -96 l0 -67 -38 -20 -39 -20 -7 146
c-3 81 -9 164 -12 184 -6 35 -4 38 27 52 47 20 46 20 51 -19z m-262 -400 c10
-12 10 -24 1 -58 -11 -39 -10 -49 18 -120 35 -88 37 -102 15 -111 -30 -12
-110 -6 -130 9 -19 15 -19 15 5 35 13 11 37 20 53 20 25 0 29 3 23 18 -38 93
-45 126 -34 166 17 62 25 69 49 41z m190 -165 c0 -9 20 -49 45 -90 24 -41 45
-81 45 -87 0 -38 -141 -58 -148 -22 -4 23 25 49 54 49 13 0 24 2 24 4 0 2 -16
30 -35 62 -24 39 -35 70 -35 96 l0 39 25 -18 c13 -10 25 -25 25 -33z"/>
<path d="M4453 2408 l-43 -22 0 -61 c0 -49 -4 -66 -20 -80 -48 -43 -79 -110
-93 -198 -9 -55 -21 -95 -33 -108 -12 -14 -18 -36 -19 -71 0 -43 4 -53 25 -69
51 -37 76 -35 120 11 l40 42 0 -31 c0 -18 6 -34 14 -37 11 -4 13 -22 9 -82 -4
-57 -1 -87 10 -115 20 -46 16 -58 -25 -77 -42 -20 -57 -63 -32 -92 16 -17 28
-19 82 -16 50 3 67 9 88 29 l25 25 -18 80 c-19 85 -22 169 -6 185 6 6 27 4 59
-9 l49 -18 -3 -45 c-4 -62 5 -101 33 -144 26 -37 25 -55 0 -55 -19 0 -55 -48
-55 -74 0 -12 5 -27 12 -34 32 -32 158 4 179 52 8 17 6 36 -11 82 -53 145 -52
164 10 206 l40 28 0 140 c0 78 4 140 9 140 5 0 17 -21 27 -46 15 -40 16 -50 4
-78 -21 -51 -24 -110 -6 -125 9 -8 16 -22 16 -33 0 -10 8 -21 18 -24 9 -3 25
-10 35 -15 18 -10 64 8 84 33 32 40 21 128 -21 167 -16 15 -26 38 -30 73 -10
76 -28 109 -79 151 l-47 38 0 73 c0 47 -5 77 -12 83 -34 26 -288 121 -368 137
-15 3 -42 -4 -67 -16z m179 -42 c57 -19 132 -48 168 -64 l65 -29 -31 -16 c-31
-16 -34 -15 -130 27 -55 24 -130 53 -169 66 -82 26 -84 28 -65 40 25 16 56 11
162 -24z m-80 -42 c56 -20 136 -51 176 -69 l72 -34 -1 -253 c0 -139 -3 -260
-7 -269 -6 -15 -27 -9 -167 43 -88 33 -161 61 -162 62 -2 1 -7 112 -13 247 -6
134 -13 259 -16 277 -2 17 -1 32 5 32 5 0 56 -16 113 -36z m318 -120 c0 -37
-3 -45 -15 -40 -27 10 -16 -4 59 -77 73 -71 74 -73 87 -145 7 -43 18 -76 26
-79 34 -13 56 -107 34 -142 -6 -10 -8 -1 -4 26 3 22 1 43 -5 47 -5 3 -12 -14
-15 -40 -5 -45 -20 -74 -33 -61 -4 4 -2 12 3 19 16 20 22 61 13 83 -8 17 -9
16 -9 -8 -1 -36 -29 -90 -42 -81 -7 4 -5 12 5 23 27 30 17 103 -10 80 -8 -6
-14 -18 -14 -25 0 -8 -5 -14 -11 -14 -15 0 -3 59 16 80 13 14 14 26 4 71 -9
43 -20 63 -55 97 -25 23 -52 42 -62 42 -14 0 -13 -4 7 -19 24 -18 24 -19 19
-170 -5 -133 -8 -154 -24 -166 -11 -8 -21 -15 -24 -15 -3 0 -4 120 -3 267 2
240 4 269 20 280 28 21 33 15 33 -33z m-441 -23 c1 -13 -10 -36 -24 -53 -25
-29 -55 -113 -55 -154 0 -12 7 -25 15 -28 9 -3 23 -22 31 -41 18 -44 7 -69
-13 -31 -19 35 -37 28 -41 -15 -2 -23 0 -30 6 -20 7 9 11 10 17 2 11 -19 -2
-41 -25 -41 -16 0 -20 6 -20 35 0 19 -4 35 -10 35 -5 0 -10 -15 -10 -32 0 -24
-3 -29 -9 -18 -6 8 -7 28 -4 45 6 34 -11 25 -20 -10 -4 -16 -5 -15 -6 6 0 14
9 42 22 61 15 21 28 64 36 113 15 89 20 102 65 162 33 43 44 39 45 -16z m98
-421 c29 -11 29 -11 19 -61 -7 -36 -7 -65 3 -107 23 -105 25 -137 7 -151 -23
-19 -112 -27 -130 -12 -31 26 8 71 61 71 18 0 33 2 33 4 0 2 -12 35 -26 72
-21 56 -25 79 -20 123 6 49 12 71 20 71 2 0 16 -5 33 -10z m226 -85 c34 -14
35 -16 27 -51 -7 -30 -2 -52 26 -126 38 -99 38 -105 -20 -132 -43 -20 -95 -21
-102 -1 -9 23 22 63 56 70 16 4 30 11 30 16 0 5 -13 33 -30 62 -24 44 -30 65
-30 115 0 34 2 62 4 62 2 0 19 -7 39 -15z"/>
<path d="M2626 2362 c-36 -25 -38 -29 -32 -68 4 -33 1 -48 -14 -67 -11 -14
-33 -54 -50 -89 -25 -53 -30 -75 -30 -138 0 -41 4 -90 9 -107 5 -18 11 -54 12
-80 3 -36 10 -54 29 -72 30 -29 84 -53 102 -46 10 4 12 -5 10 -37 -2 -27 5
-70 21 -115 l24 -73 -24 0 c-32 0 -75 -44 -71 -72 5 -34 44 -50 107 -44 36 3
61 12 74 25 20 20 20 20 1 128 -17 94 -22 180 -12 187 2 1 29 0 61 -2 l57 -4
2 -59 c1 -77 2 -83 8 -89 8 -8 40 -80 40 -90 0 -6 -7 -10 -15 -10 -25 0 -65
-50 -65 -81 0 -51 62 -64 137 -29 59 26 63 51 31 175 -29 111 -28 166 3 162
10 -2 21 -6 25 -10 10 -9 67 4 86 20 12 11 16 31 16 76 -1 45 7 81 26 130 44
115 31 191 -55 299 -24 31 -29 46 -29 95 0 32 -4 64 -8 71 -11 17 -221 42
-342 41 -85 -1 -99 -4 -134 -27z m269 -2 c54 -6 114 -13 133 -16 33 -6 33 -7
15 -25 -17 -17 -24 -18 -148 -4 -71 8 -156 15 -187 15 -58 0 -73 10 -40 29 22
13 99 13 227 1z m10 -64 l110 -11 3 -233 c2 -195 0 -237 -13 -255 -20 -29 -19
-64 2 -76 35 -19 3 -22 -123 -11 -153 13 -177 17 -169 30 3 5 8 25 10 45 5 35
-2 44 -20 26 -6 -6 -22 -4 -40 4 l-30 13 28 1 c20 1 30 8 37 26 11 29 22 31
40 10 12 -14 15 -14 30 0 15 14 19 13 35 -5 17 -19 19 -19 38 -3 18 17 20 17
37 -5 l19 -22 16 22 16 23 19 -25 c11 -14 20 -20 19 -15 0 6 -9 21 -20 34
l-20 24 -16 -23 -16 -23 -18 24 c-17 23 -19 23 -36 7 -16 -17 -18 -17 -39 3
l-22 21 -12 -23 -12 -22 -19 24 c-17 22 -19 23 -35 7 -13 -13 -22 -14 -39 -6
-24 11 -22 -6 -41 326 l-7 113 89 -7 c49 -3 139 -12 199 -18z m166 -55 c-5 -4
11 -31 36 -61 25 -30 57 -79 71 -109 29 -63 26 -108 -13 -200 -14 -33 -25 -72
-25 -85 0 -14 -7 -29 -15 -33 -10 -6 -11 -13 -5 -23 8 -13 10 -13 10 -1 0 11
3 12 11 4 8 -8 8 -17 -1 -33 -15 -28 -32 -21 -47 21 l-12 34 0 -39 c-1 -45
-10 -42 -21 6 l-8 33 -1 -35 c-1 -30 -3 -33 -13 -16 -7 13 -7 29 0 52 11 37
-4 38 -17 1 -5 -12 -10 -16 -14 -10 -10 16 37 68 73 83 24 10 33 23 46 66 8
30 16 66 16 82 1 34 -26 94 -54 119 -21 18 -21 18 -9 -4 12 -24 14 -85 5 -185
-5 -53 -10 -67 -25 -71 -18 -5 -19 5 -19 225 0 208 2 232 18 244 15 11 17 9
20 -23 2 -20 -1 -39 -7 -42z m-480 -162 c-16 -26 -21 -51 -21 -102 0 -86 11
-107 53 -107 18 0 39 -5 47 -10 11 -7 6 -10 -22 -10 -20 0 -39 -4 -42 -9 -8
-12 24 -37 67 -51 20 -6 37 -14 37 -17 0 -6 -56 2 -85 13 -14 5 -17 4 -10 -4
6 -6 28 -18 50 -26 27 -10 33 -15 19 -15 -12 -1 -38 6 -58 14 -45 19 -47 11
-3 -15 37 -23 20 -27 -23 -5 -49 25 -57 51 -76 236 -8 75 6 130 53 208 l28 46
3 -56 c2 -44 -2 -65 -17 -90z m161 -415 c-2 -22 6 -89 17 -149 16 -79 18 -111
10 -121 -24 -30 -149 -25 -149 6 0 21 41 50 70 50 36 0 36 4 6 101 -18 53 -23
88 -19 118 6 40 7 42 37 39 30 -3 31 -5 28 -44z m240 -26 c-2 -30 6 -81 23
-139 14 -50 25 -101 23 -112 -4 -28 -84 -63 -122 -53 -50 12 -16 86 39 86 23
0 25 3 19 28 -4 15 -18 55 -31 90 -12 34 -23 83 -23 108 l0 45 38 -3 37 -3 -3
-47z"/>
<path d="M395 2136 c-71 -17 -135 -55 -162 -96 -13 -19 -41 -54 -62 -76 -31
-33 -41 -52 -45 -90 -4 -27 -13 -79 -21 -115 -19 -83 -19 -145 -1 -230 24
-114 84 -203 144 -215 18 -4 34 -15 41 -30 7 -17 19 -24 39 -24 21 0 32 -7 40
-25 10 -22 7 -32 -22 -78 -49 -76 -63 -129 -43 -160 21 -33 80 -59 124 -55 30
2 38 8 43 28 10 38 -9 81 -41 94 l-27 11 40 60 c34 51 39 65 36 105 l-3 45 37
3 c35 3 37 2 44 -35 4 -21 2 -56 -5 -83 -7 -25 -15 -75 -18 -112 l-6 -67 34
-20 c43 -27 118 -28 149 -3 17 14 20 23 15 45 -8 30 -39 57 -67 57 -27 0 -28
12 -8 79 11 34 18 74 15 87 -3 13 -7 35 -10 48 -4 21 -1 25 22 28 27 3 28 6
31 61 2 31 7 57 12 57 13 0 60 52 60 66 0 6 10 19 21 30 34 31 79 116 79 152
0 25 -10 44 -44 80 -41 45 -43 48 -30 77 22 50 17 100 -16 162 -45 83 -77 121
-117 138 -43 18 -205 19 -278 1z m270 -24 c16 -9 2 -11 -75 -12 -177 0 -262
-39 -309 -140 -24 -51 -28 -56 -51 -50 -26 7 -27 14 -6 64 32 77 88 116 199
142 71 15 212 14 242 -4z m1 -49 c13 -14 14 -18 3 -21 -8 -3 -33 -13 -56 -23
-23 -11 -55 -19 -71 -19 -16 0 -70 -7 -121 -16 -51 -9 -95 -14 -97 -11 -11 11
23 49 61 67 79 39 251 53 281 23z m73 -58 c51 -26 69 -112 36 -175 -17 -33
-39 -39 -49 -14 -3 9 -6 39 -6 68 0 51 -2 55 -40 81 -44 30 -49 41 -22 48 33
9 53 7 81 -8z m-81 -44 c12 -11 22 -22 22 -25 0 -3 -24 -6 -52 -6 -29 -1 -100
-9 -156 -18 l-104 -18 -9 24 c-5 14 -8 26 -6 28 8 8 176 32 227 33 40 0 61 -5
78 -18z m-307 -84 c5 -89 -35 -147 -101 -147 -30 0 -76 26 -84 47 -6 14 -5 16
5 6 7 -7 28 -13 46 -13 38 0 53 21 53 73 0 19 7 52 16 73 l16 39 24 -28 c13
-16 25 -38 25 -50z m349 -44 c0 -102 -9 -163 -22 -163 -6 0 -19 12 -30 26
l-20 25 -22 -20 c-21 -20 -23 -20 -39 -4 -16 16 -18 16 -33 -5 -15 -22 -17
-23 -36 -5 -19 17 -20 17 -37 -6 -15 -20 -19 -21 -30 -7 -19 22 -26 20 -46
-11 l-18 -28 21 19 c18 15 24 17 37 6 13 -11 19 -10 35 5 19 17 21 17 39 1 18
-16 20 -16 35 5 13 19 18 20 31 9 23 -19 18 -30 -16 -30 -23 0 -32 -5 -36 -21
-4 -13 -11 -18 -21 -14 -8 3 -23 -2 -33 -11 -18 -16 -20 -16 -38 0 -19 17 -20
17 -31 -3 -11 -22 -44 -28 -55 -11 -3 5 2 24 11 42 12 23 18 63 20 130 1 54 5
102 8 107 9 14 195 45 299 50 l27 1 0 -87z m102 -70 c51 -56 61 -79 48 -117
-6 -19 -28 -54 -49 -78 -21 -23 -41 -53 -45 -64 -4 -12 -16 -30 -27 -40 -19
-17 -20 -17 -13 1 7 18 6 18 -16 2 -14 -9 -29 -17 -34 -17 -6 0 0 7 12 16 30
21 28 38 -3 18 -14 -9 -32 -13 -45 -9 -32 10 -23 25 15 25 39 0 58 23 48 58
-4 16 -1 22 10 22 9 0 19 -4 22 -10 13 -21 35 -9 55 30 28 54 25 81 -10 115
-39 38 -39 69 1 74 3 1 17 -11 31 -26z m-638 -15 c12 -13 30 -27 39 -33 12 -8
17 -27 18 -85 1 -41 -2 -83 -6 -93 -4 -10 -1 -27 9 -42 10 -15 16 -45 16 -78
0 -29 5 -58 12 -65 21 -21 -7 -14 -36 9 -71 56 -119 253 -91 377 8 38 11 39
39 10z m130 -75 c-3 -27 -7 -54 -10 -60 -8 -27 138 -85 159 -64 6 6 19 11 28
11 15 0 17 -6 12 -34 -5 -29 -2 -35 18 -42 13 -4 32 -7 42 -5 24 3 21 -16 -3
-24 -13 -4 -31 0 -45 9 -31 20 -33 3 -3 -18 12 -9 18 -16 12 -16 -5 0 -20 8
-34 17 -22 16 -23 16 -17 -3 5 -14 0 -11 -18 9 -14 15 -25 34 -25 41 0 8 -12
17 -27 20 -105 25 -134 38 -143 62 -15 37 -1 132 19 137 39 11 41 8 35 -40z
m380 -97 c-15 -62 -19 -67 -39 -62 -14 4 -28 0 -35 -9 -11 -13 -9 -20 14 -44
22 -23 25 -32 17 -53 -8 -20 -18 -26 -57 -32 -73 -10 -94 -8 -94 9 0 8 15 21
33 28 47 21 73 53 57 72 -8 9 -21 13 -36 9 -29 -7 -30 5 -11 81 l13 50 75 11
c41 6 75 9 77 8 2 -1 -5 -32 -14 -68z m-285 -83 c3 -2 -3 -18 -14 -36 l-18
-32 22 19 c21 19 22 19 51 -9 28 -27 29 -30 13 -47 -15 -16 -18 -17 -25 -3 -5
8 -14 15 -21 15 -13 -1 -53 -50 -40 -50 5 0 14 9 21 21 13 20 14 20 32 4 10
-9 23 -14 28 -11 6 3 12 0 15 -8 4 -11 21 -11 91 -1 90 12 102 17 108 50 7 39
33 23 36 -22 3 -37 0 -43 -20 -47 -23 -5 -227 -34 -305 -43 l-43 -6 0 105 c0
58 3 108 6 111 7 6 54 -1 63 -10z m245 -214 c10 -52 7 -83 -14 -144 -27 -79
-26 -85 13 -85 36 0 61 -15 70 -42 13 -36 -69 -51 -123 -23 -37 19 -39 48 -11
156 15 57 18 83 11 114 -13 56 -13 55 19 55 24 0 29 -5 35 -31z m-182 -34 c6
-25 1 -41 -32 -99 -46 -79 -49 -96 -17 -96 32 0 47 -18 47 -57 0 -31 -2 -33
-32 -33 -36 0 -97 32 -99 52 -3 34 6 58 43 121 39 67 42 85 23 130 -7 16 -3
18 25 15 28 -2 35 -8 42 -33z"/>
<path d="M1431 1444 c-27 -22 -31 -33 -31 -73 0 -42 -4 -51 -41 -86 -71 -69
-81 -90 -90 -180 -7 -63 -15 -92 -34 -121 -27 -39 -34 -109 -15 -144 35 -66
173 -53 143 13 -10 21 -8 23 11 23 33 -1 34 53 1 92 -25 30 -26 33 -16 103 7
50 16 79 30 93 25 24 21 50 30 -204 l6 -185 38 -3 c37 -3 37 -3 31 -40 -3 -22
1 -64 10 -100 9 -34 14 -68 10 -74 -4 -7 -3 -8 4 -4 7 4 12 2 12 -3 0 -6 -9
-11 -19 -11 -27 0 -61 -46 -61 -82 0 -58 92 -59 160 -1 35 29 35 36 8 173 -6
31 -8 72 -4 93 l7 37 52 0 52 0 -3 -47 c-2 -33 4 -70 21 -116 l25 -68 -23 -9
c-55 -21 -75 -103 -30 -120 41 -16 124 8 154 44 13 15 22 86 11 86 -9 0 -40
132 -40 169 0 25 10 44 39 76 l38 42 8 166 c4 92 10 167 14 167 14 0 30 -48
37 -108 6 -55 4 -61 -20 -85 -32 -32 -36 -99 -8 -133 36 -45 125 -34 153 17
12 24 4 83 -15 114 -7 11 -16 62 -19 114 -7 106 -26 144 -104 208 -43 35 -43
36 -43 103 l0 67 -107 11 c-60 7 -163 12 -230 12 -116 0 -123 -1 -152 -26z
m336 -5 c62 -7 113 -16 113 -20 0 -4 -9 -14 -20 -22 -14 -10 -35 -11 -82 -6
-35 5 -125 11 -201 15 -133 7 -137 8 -121 26 14 15 32 18 107 18 50 0 142 -5
204 -11z m-162 -53 c61 -3 138 -9 173 -12 l62 -7 0 -300 0 -300 -42 7 c-24 3
-111 9 -194 13 l-152 6 -7 161 c-3 89 -10 222 -15 296 -5 74 -7 137 -4 141 2
4 19 6 37 4 17 -2 82 -7 142 -9z m295 -20 c0 -19 -5 -36 -12 -38 -6 -2 19 -33
56 -69 37 -35 74 -75 81 -89 7 -14 16 -68 20 -120 4 -52 14 -104 21 -115 16
-23 19 -91 4 -100 -5 -3 -10 2 -11 12 0 15 -2 14 -9 -3 -15 -37 -30 -38 -24
-2 l5 33 -16 -28 c-18 -32 -31 -31 -54 2 -14 23 -14 23 6 17 23 -8 41 20 23
38 -7 7 -10 5 -10 -8 0 -9 -4 -14 -10 -11 -18 11 -10 43 16 62 l26 19 -14 89
c-13 88 -14 90 -56 122 -24 18 -51 33 -60 33 -14 0 -14 -2 2 -13 16 -11 17
-30 14 -190 -3 -152 -5 -179 -20 -194 -17 -16 -18 -3 -18 273 0 212 3 293 12
302 20 20 28 14 28 -22z m-524 -185 c-32 -33 -35 -43 -42 -111 -6 -71 -5 -78
20 -114 14 -21 26 -44 25 -50 0 -6 -7 -1 -16 12 -8 12 -22 22 -30 22 -16 0
-15 -35 2 -89 6 -18 5 -23 -6 -19 -8 2 -22 27 -32 54 l-17 49 4 -40 c2 -22 7
-49 11 -60 7 -18 6 -19 -9 -4 -9 8 -20 35 -25 60 l-9 44 -2 -50 c-2 -49 -2
-49 -12 -18 -13 40 -5 73 27 111 20 24 25 41 25 89 0 83 12 115 67 178 l48 54
3 -41 c3 -35 -1 -46 -32 -77z m221 -415 c1 -1 -2 -19 -7 -41 -6 -28 -4 -64 11
-133 15 -74 16 -98 7 -109 -20 -24 -65 -43 -103 -43 -29 0 -35 4 -35 22 0 27
27 58 52 58 29 0 31 21 9 106 -18 71 -19 97 -5 142 3 10 13 12 36 7 18 -4 34
-8 35 -9z m219 -66 c0 -30 10 -87 22 -126 30 -96 28 -110 -10 -134 -43 -26
-118 -28 -118 -2 0 27 27 59 55 66 30 8 31 16 6 81 -20 52 -25 86 -23 143 2
31 4 33 35 30 32 -3 32 -3 33 -58z"/>
<path d="M5145 1426 c-65 -30 -68 -34 -54 -109 l13 -68 -46 -47 c-62 -64 -68
-79 -68 -172 0 -67 -4 -87 -20 -107 -28 -36 -27 -96 2 -123 25 -23 74 -39 100
-32 25 6 32 34 12 49 -9 6 -14 18 -11 25 4 10 6 10 6 1 1 -7 10 -13 20 -13 11
0 22 6 24 13 3 6 6 -10 6 -37 1 -29 7 -56 16 -66 14 -15 14 -21 0 -53 -20 -49
-19 -86 5 -149 11 -29 20 -54 20 -55 0 0 -13 -6 -29 -11 -16 -6 -37 -22 -47
-37 -16 -25 -16 -27 3 -47 28 -27 98 -35 146 -15 43 19 44 22 17 136 -17 69
-18 89 -9 116 l12 32 51 -35 52 -35 -2 -68 c0 -37 3 -67 8 -66 4 1 19 -17 33
-41 25 -40 25 -42 6 -42 -23 0 -61 -44 -61 -71 0 -10 9 -23 19 -29 29 -15 108
-12 143 6 28 15 30 19 26 58 -3 24 -17 69 -32 101 -30 65 -33 108 -10 127 51
42 52 45 59 137 4 50 11 91 16 91 5 0 24 14 44 31 51 45 49 85 -10 173 -40 58
-47 78 -55 144 -9 73 -12 79 -52 115 -71 63 -279 187 -313 186 -5 0 -23 -6
-40 -13z m108 -42 c62 -32 167 -99 220 -142 l38 -31 -30 -15 c-44 -23 -55 -21
-121 32 -32 27 -100 72 -151 102 -88 52 -90 54 -67 66 34 19 53 17 111 -12z
m-54 -69 c42 -24 107 -68 146 -98 81 -62 80 -60 91 -255 l7 -122 -34 6 c-19 4
-46 15 -60 25 -25 17 -30 18 -68 4 -23 -8 -41 -11 -41 -6 0 4 -6 15 -13 25
-12 16 -14 16 -26 2 -12 -14 -12 -16 2 -10 12 4 20 -2 27 -22 8 -20 14 -24 22
-16 9 9 16 4 30 -18 10 -17 18 -38 18 -48 -1 -15 -2 -15 -16 3 -12 17 -16 18
-24 5 -7 -11 -11 -8 -21 13 -14 32 -22 33 -40 10 -12 -16 -12 -17 2 -6 13 11
18 9 28 -13 7 -17 17 -24 27 -20 9 4 19 -3 26 -19 6 -14 19 -25 29 -25 10 0
23 -9 29 -21 9 -16 14 -18 26 -8 8 6 14 7 14 2 0 -5 7 -18 15 -29 14 -18 15
-17 6 7 -9 24 -7 27 16 32 25 5 25 4 19 -41 -3 -24 -6 -57 -6 -73 0 -27 -2
-26 -130 62 -71 50 -132 95 -136 100 -3 5 -7 78 -10 162 -3 135 -25 352 -41
414 -3 13 -2 23 3 23 4 0 41 -20 83 -45z m-79 -128 c0 -22 -8 -41 -21 -53 -32
-28 -49 -76 -49 -139 0 -41 4 -57 15 -62 9 -3 22 -18 30 -34 18 -33 18 -39 5
-39 -5 0 -10 6 -10 14 0 15 -24 28 -34 19 -11 -11 -6 -79 7 -92 10 -10 8 -12
-8 -9 -14 2 -21 12 -23 36 -4 39 -19 42 -25 5 -3 -22 -4 -19 -6 12 -2 40 -2
40 -16 15 -13 -22 -14 -23 -15 -5 0 11 9 35 20 53 14 23 20 50 20 96 0 35 3
78 6 95 6 31 77 121 95 121 5 0 9 -15 9 -33z m404 -28 c3 -17 6 -41 6 -52 0
-20 0 -20 -15 -1 -8 10 -15 14 -15 8 0 -6 29 -55 65 -109 36 -53 65 -103 65
-112 0 -26 -20 -52 -52 -69 -50 -26 -148 -55 -160 -48 -7 5 -9 -1 -4 -20 6
-23 4 -27 -11 -24 -9 2 -20 14 -24 28 -7 25 -7 25 -8 -3 -1 -34 -22 -32 -32 4
-5 16 -7 18 -8 7 -1 -20 -21 -25 -21 -5 1 61 37 83 105 65 42 -11 45 -11 99
25 56 37 56 38 42 65 -15 28 -66 81 -66 68 0 -5 11 -21 25 -38 34 -40 32 -53
-12 -83 l-38 -25 -12 137 c-6 76 -12 147 -12 159 -1 14 10 26 32 37 43 21 44
21 51 -14z m-305 -465 l28 -16 -16 -43 c-14 -40 -14 -50 2 -117 25 -107 25
-110 -3 -125 -28 -15 -96 -11 -113 6 -21 21 6 46 52 49 22 2 41 5 41 7 0 1
-13 35 -30 73 -16 39 -30 78 -30 86 0 18 30 96 37 96 3 0 17 -7 32 -16z m201
-138 c6 -8 18 -12 26 -9 12 4 14 0 9 -19 -4 -16 6 -52 29 -107 20 -45 36 -91
36 -100 0 -23 -40 -41 -91 -41 -69 0 -66 60 4 70 l35 5 -39 64 c-29 49 -39 75
-39 108 0 45 9 53 30 29z"/>
<path d="M3486 1366 c-23 -31 -27 -43 -21 -74 5 -31 2 -42 -15 -57 -12 -11
-38 -42 -58 -70 -20 -27 -39 -52 -42 -55 -3 -3 -6 -39 -7 -80 -1 -41 -5 -98
-8 -127 -6 -44 -3 -57 15 -83 18 -26 28 -30 66 -30 24 0 44 5 44 10 0 6 7 10
15 10 10 0 15 -10 15 -29 0 -25 6 -31 34 -41 33 -10 34 -13 25 -43 -17 -59
-11 -110 19 -158 l28 -44 -28 -23 c-38 -32 -40 -89 -3 -98 43 -11 92 5 120 37
28 35 28 40 -13 132 -22 52 -24 62 -13 97 6 22 14 40 17 40 2 0 26 -11 53 -25
l49 -24 4 -69 c3 -60 8 -74 37 -111 l34 -43 -26 -21 c-34 -28 -44 -69 -22 -91
38 -38 148 -4 161 50 7 27 -8 65 -57 144 -29 47 -20 81 26 109 31 18 35 25 36
63 1 24 4 34 6 23 6 -23 23 -37 40 -30 7 2 11 -6 10 -22 -2 -23 3 -28 33 -35
43 -9 98 16 107 50 10 42 -5 96 -35 123 -26 24 -30 34 -34 103 -5 72 -8 80
-60 159 -45 68 -56 93 -63 142 -4 33 -12 66 -18 73 -33 41 -283 136 -390 148
-52 6 -53 6 -81 -30z m159 -12 c112 -26 286 -101 285 -122 0 -4 -8 -17 -18
-30 l-17 -23 -78 40 c-70 37 -171 72 -286 101 l-43 11 22 24 c15 16 31 23 44
20 12 -2 53 -12 91 -21z m5 -86 c102 -33 199 -77 218 -101 16 -19 32 -157 32
-272 -1 -89 -15 -273 -22 -281 -2 -2 -51 21 -109 50 -57 29 -137 64 -177 77
l-72 23 0 80 c-1 82 -14 287 -26 405 l-7 63 34 -7 c19 -4 77 -21 129 -37z
m-199 -142 c-25 -26 -32 -43 -37 -93 l-7 -61 47 -20 c55 -25 59 -35 11 -26
-30 5 -35 4 -35 -14 0 -10 10 -31 21 -46 32 -41 12 -46 -22 -6 -32 39 -40 27
-9 -13 11 -14 20 -29 20 -33 0 -13 -39 28 -45 47 -4 11 -11 19 -16 19 -5 0 -2
-17 6 -37 15 -36 15 -36 -5 -18 -28 25 -36 79 -16 110 12 18 14 38 10 83 -7
66 -2 79 60 160 l41 53 3 -37 c3 -30 -2 -43 -27 -68z m561 -99 c48 -75 57 -97
63 -152 3 -35 4 -69 0 -75 -3 -5 12 -27 34 -48 41 -39 51 -71 31 -102 -7 -11
-10 -6 -10 22 0 20 -4 39 -8 42 -4 2 -6 -10 -4 -27 2 -19 -3 -40 -13 -52 -15
-19 -16 -18 -10 20 3 22 1 47 -5 55 -7 11 -10 6 -10 -21 0 -19 -7 -44 -15 -55
-13 -17 -14 -15 -9 27 8 56 -10 74 -38 39 -24 -29 -23 -14 2 43 16 36 19 57
14 101 -8 62 -52 149 -87 167 -22 12 -22 12 -3 -9 18 -20 19 -34 13 -179 -3
-87 -9 -168 -13 -180 -5 -19 -32 -39 -40 -30 -2 2 1 66 7 143 7 100 7 177 -1
273 -11 133 -11 134 12 158 l23 25 5 -49 c4 -36 20 -70 62 -136z m-369 -327
c4 -3 0 -26 -8 -51 -15 -45 -15 -47 15 -110 35 -75 37 -99 10 -124 -27 -25
-93 -26 -98 -2 -5 23 25 57 50 57 26 0 23 12 -17 74 -39 61 -39 64 -24 135 10
49 11 50 37 39 15 -7 30 -15 35 -18z m227 -155 c0 -35 9 -58 40 -106 45 -70
48 -88 21 -113 -26 -24 -93 -32 -108 -15 -16 21 2 57 32 65 33 8 32 20 -10 78
-30 43 -35 57 -35 108 l0 59 30 -16 c27 -14 30 -21 30 -60z"/>
</g>
</svg>
