<?xml version="1.0" standalone="no"?>
<!DOCTYPE svg PUBLIC "-//W3C//DTD SVG 20010904//EN"
 "http://www.w3.org/TR/2001/REC-SVG-20010904/DTD/svg10.dtd">
<svg version="1.0" xmlns="http://www.w3.org/2000/svg"
 width="512.000000pt" height="512.000000pt" viewBox="0 0 512.000000 512.000000"
 preserveAspectRatio="xMidYMid meet">
<metadata>
Created by potrace 1.16, written by Peter Selinger 2001-2019
</metadata>
<g transform="translate(0.000000,512.000000) scale(0.100000,-0.100000)"
fill="#000000" stroke="none">
<path d="M3742 5094 c-28 -14 -69 -46 -91 -70 -70 -80 -71 -88 -71 -536 l0
-398 -55 0 c-106 0 -155 -28 -305 -176 l-135 -132 -76 38 c-41 21 -117 53
-167 70 l-92 33 0 191 c0 179 -2 194 -24 241 -34 73 -69 110 -138 144 l-61 31
-261 0 c-252 0 -263 -1 -311 -24 -73 -34 -110 -69 -144 -138 l-31 -61 0 -192
0 -192 -92 -33 c-50 -17 -126 -49 -168 -70 l-77 -39 -124 125 c-154 155 -197
179 -314 179 -124 0 -150 -17 -347 -213 -196 -197 -213 -223 -213 -347 0 -117
24 -160 179 -314 l125 -124 -39 -77 c-21 -42 -53 -118 -70 -168 l-33 -92 -192
0 -192 0 -61 -31 c-69 -34 -104 -71 -138 -144 -23 -48 -24 -59 -24 -310 0
-251 1 -262 24 -310 34 -73 69 -110 138 -144 l61 -31 192 0 192 0 33 -92 c17
-50 49 -126 70 -168 l39 -77 -125 -124 c-155 -154 -179 -197 -179 -314 0 -124
17 -150 213 -347 197 -196 223 -213 347 -213 117 0 160 24 314 179 l124 125
77 -39 c42 -21 118 -53 168 -70 l92 -33 0 -192 0 -192 31 -61 c34 -69 71 -104
144 -138 48 -23 59 -24 310 -24 251 0 262 1 310 24 73 34 110 69 144 138 l31
61 0 192 0 192 92 33 c50 17 126 49 168 70 l77 39 124 -125 c154 -155 197
-179 314 -179 124 0 150 17 347 213 196 197 213 223 213 347 0 117 -24 160
-179 314 l-125 124 39 77 c21 42 53 118 70 168 l33 92 192 0 192 0 61 31 c69
34 104 71 138 144 23 48 24 59 24 307 0 143 -4 268 -10 282 l-10 26 198 0
c186 0 200 1 247 24 61 29 117 86 144 146 20 44 21 63 21 798 l0 752 -21 21
c-17 17 -29 20 -58 15 -76 -12 -71 38 -71 -770 0 -797 3 -762 -63 -810 -28
-21 -40 -21 -545 -24 -477 -2 -520 -1 -551 15 -68 35 -75 56 -81 231 -3 93
-10 165 -17 178 -6 11 -82 67 -167 124 l-156 103 152 102 c84 56 160 110 168
120 13 15 16 108 20 651 5 620 5 633 26 661 47 64 37 63 594 63 557 0 547 1
594 -63 19 -25 22 -47 26 -184 5 -148 6 -156 29 -174 30 -25 76 -24 101 1 18
18 20 33 20 188 0 155 -2 171 -24 217 -29 61 -86 117 -146 144 -43 20 -64 21
-601 21 l-555 0 -52 -26z m-1216 -740 c67 -49 69 -56 74 -282 3 -140 9 -214
18 -229 21 -38 73 -69 171 -102 52 -18 131 -51 174 -73 85 -42 144 -51 189
-28 12 7 84 72 159 145 141 139 162 152 235 143 l29 -3 3 -122 3 -122 -180
-121 c-99 -66 -185 -128 -191 -139 -13 -24 -13 -77 -1 -100 5 -9 91 -71 190
-137 l181 -119 0 -121 c0 -164 15 -210 88 -284 86 -86 106 -90 403 -90 l247 0
26 -30 c35 -42 38 -66 34 -302 -3 -190 -5 -209 -24 -234 -49 -67 -56 -69 -282
-74 -140 -3 -214 -9 -229 -18 -38 -21 -69 -73 -102 -171 -18 -52 -50 -129 -71
-170 -75 -151 -71 -163 104 -341 74 -74 139 -148 145 -163 14 -37 14 -92 0
-120 -16 -31 -299 -316 -331 -333 -32 -17 -86 -18 -125 -3 -15 5 -86 68 -158
138 -71 71 -141 134 -153 141 -45 23 -104 14 -189 -28 -44 -23 -127 -57 -184
-77 -100 -35 -138 -58 -162 -100 -8 -13 -14 -97 -17 -227 -5 -226 -7 -233 -74
-282 -25 -19 -43 -21 -247 -24 -207 -3 -223 -2 -264 18 -32 16 -49 33 -64 64
-19 38 -21 61 -21 224 0 248 -10 268 -155 317 -44 15 -127 49 -185 77 -110 52
-165 62 -212 38 -12 -7 -84 -72 -159 -146 -79 -78 -147 -136 -163 -140 -15 -3
-48 -4 -73 -1 -44 5 -53 12 -210 170 -158 157 -165 166 -170 210 -3 25 -2 58
1 73 4 16 62 84 140 163 74 75 139 147 146 159 24 47 14 102 -38 212 -28 58
-62 139 -76 180 -52 152 -69 160 -315 160 -166 0 -189 2 -227 21 -31 15 -48
32 -63 63 -19 39 -21 61 -21 251 0 190 2 212 21 251 15 31 32 48 63 63 38 19
61 21 227 21 246 0 263 8 315 160 14 41 48 122 76 180 52 110 62 165 38 212
-7 12 -72 84 -146 159 -78 79 -136 147 -140 163 -3 15 -4 48 -1 73 5 44 12 53
170 210 157 158 166 165 210 170 25 3 58 2 73 -1 16 -4 84 -62 163 -140 75
-74 147 -139 159 -146 47 -24 102 -14 212 39 58 27 135 59 172 71 156 50 168
73 168 319 0 166 2 189 21 227 14 30 32 49 62 63 40 20 55 21 264 19 206 -3
224 -4 249 -24z"/>
<path d="M2067 3475 c-458 -77 -831 -402 -972 -845 -14 -45 -25 -92 -25 -106
0 -34 42 -74 78 -74 39 0 67 33 87 105 84 292 281 534 541 664 398 198 904
124 1231 -182 319 -298 419 -817 234 -1213 -119 -253 -339 -455 -606 -558
-132 -50 -238 -69 -385 -69 -171 1 -285 27 -439 100 l-74 35 140 140 c134 134
140 139 167 128 16 -6 122 -10 264 -10 203 0 242 3 275 18 48 22 375 345 393
389 11 24 14 93 14 278 l0 246 -24 24 c-29 29 -66 40 -103 30 -18 -4 -109 -88
-251 -231 -123 -123 -229 -224 -235 -224 -7 0 -64 52 -127 115 l-115 115 228
228 c150 150 230 237 236 257 13 48 -7 97 -49 117 -30 15 -65 18 -243 18 -124
0 -227 -5 -255 -12 -42 -10 -67 -31 -220 -182 -96 -94 -183 -188 -194 -209
-18 -36 -19 -57 -17 -314 l2 -275 -135 -135 -136 -136 -25 44 c-47 80 -97 227
-113 332 -20 124 -26 141 -58 162 -32 21 -71 10 -99 -27 -18 -24 -19 -32 -7
-114 22 -160 81 -332 157 -458 302 -505 883 -724 1430 -541 522 175 853 623
853 1155 0 538 -347 1012 -861 1175 -169 53 -390 69 -562 40z m126 -847 c-99
-101 -186 -194 -193 -207 -15 -30 -15 -113 1 -143 20 -39 262 -279 301 -299
45 -23 108 -24 151 -3 18 9 112 96 210 192 l177 176 0 -139 0 -140 -157 -157
-158 -158 -220 0 -221 0 -157 158 -157 158 0 214 0 214 157 158 157 158 145 0
146 0 -182 -182z m-440 -1060 l-147 -147 -35 29 c-20 15 -56 49 -81 74 l-44
46 149 150 150 150 77 -77 78 -78 -147 -147z"/>
<path d="M3961 4584 c-23 -29 -24 -36 -15 -72 12 -44 49 -52 238 -52 107 0
185 4 199 11 47 21 56 80 19 122 -13 15 -37 17 -218 17 l-203 0 -20 -26z"/>
<path d="M3961 4344 c-23 -29 -24 -36 -15 -72 14 -49 37 -52 398 -52 224 0
343 4 359 11 47 21 56 80 19 122 -14 16 -45 17 -378 17 l-363 0 -20 -26z"/>
<path d="M3961 4104 c-23 -29 -24 -36 -15 -72 14 -49 37 -52 398 -52 224 0
343 4 359 11 47 21 56 80 19 122 -14 16 -45 17 -378 17 l-363 0 -20 -26z"/>
<path d="M3955 3642 c-69 -43 -70 -47 -73 -360 -3 -269 -2 -285 17 -326 14
-27 35 -50 60 -64 38 -21 47 -22 391 -22 389 0 398 1 443 64 21 30 22 40 25
311 2 174 -1 293 -7 315 -6 20 -24 49 -41 65 l-31 30 -377 3 c-354 2 -379 1
-407 -16z m715 -377 l0 -245 -315 0 -315 0 0 245 0 245 315 0 315 0 0 -245z"/>
</g>
</svg>
