<?xml version="1.0" standalone="no"?>
<!DOCTYPE svg PUBLIC "-//W3C//DTD SVG 20010904//EN"
 "http://www.w3.org/TR/2001/REC-SVG-20010904/DTD/svg10.dtd">
<svg version="1.0" xmlns="http://www.w3.org/2000/svg"
 width="640.000000pt" height="400.000000pt" viewBox="0 0 640.000000 400.000000"
 preserveAspectRatio="xMidYMid meet">
<metadata>
Created by potrace 1.16, written by Peter Selinger 2001-2019
</metadata>
<g transform="translate(0.000000,400.000000) scale(0.100000,-0.100000)"
fill="#000000" stroke="none">
<path d="M3397 3916 c-20 -25 -51 -53 -67 -63 -38 -22 -38 -42 0 -49 17 -4 30
-10 30 -15 0 -5 -24 -27 -52 -50 -29 -23 -53 -47 -53 -53 0 -6 18 -13 39 -16
l40 -5 -35 -30 c-19 -17 -50 -37 -67 -44 -18 -8 -31 -19 -29 -25 6 -18 68 -35
134 -35 l62 -1 3 -32 c3 -31 5 -33 43 -33 39 0 40 1 38 33 l-2 32 57 1 c62 1
133 18 139 34 2 6 -12 19 -31 29 -19 10 -46 31 -61 46 l-27 28 41 7 c23 4 41
10 41 15 0 5 -15 17 -32 28 -18 12 -46 34 -62 51 -27 28 -28 31 -10 31 11 0
28 6 38 13 15 11 13 15 -26 45 -24 17 -56 48 -71 67 -15 19 -31 35 -35 35 -4
0 -24 -20 -45 -44z m126 -100 c-18 -5 -33 -13 -33 -17 0 -4 25 -29 56 -56 l56
-48 -43 -5 -43 -5 33 -37 c18 -21 49 -47 69 -60 l36 -22 -29 -7 c-36 -10 -354
-10 -380 0 -18 7 -15 10 21 29 22 11 56 38 74 59 l34 38 -46 3 -45 3 59 57 60
57 -37 9 -37 8 56 57 56 57 58 -56 57 -55 -32 -9z"/>
<path d="M4368 3868 c-32 -32 -58 -61 -58 -63 0 -3 12 -10 28 -16 l27 -10 -30
-27 c-17 -15 -41 -35 -55 -44 -21 -15 -23 -19 -10 -27 8 -6 26 -11 39 -11 l24
0 -22 -24 c-12 -13 -38 -32 -57 -42 -19 -10 -33 -23 -31 -29 5 -13 82 -33 134
-34 38 -1 42 -4 45 -28 3 -25 7 -28 38 -28 31 0 35 3 38 28 3 25 7 27 50 28
55 1 125 20 125 34 0 5 -16 18 -34 28 -19 10 -45 30 -59 43 l-25 24 38 0 c49
0 47 17 -8 58 -51 37 -55 49 -20 62 33 13 32 20 -10 48 -19 13 -46 39 -60 58
-14 19 -31 33 -38 32 -7 -1 -38 -28 -69 -60z m162 -60 c0 -4 -11 -8 -25 -8
-14 0 -25 -4 -25 -9 0 -4 22 -29 50 -55 l49 -46 -41 0 c-40 0 -40 0 -26 -22 8
-13 36 -39 61 -58 42 -31 45 -35 26 -42 -27 -10 -325 -5 -336 5 -4 5 1 13 12
19 11 6 38 30 60 52 l39 41 -38 3 -39 3 54 52 54 51 -32 4 c-18 2 -33 5 -33 7
0 2 21 26 48 53 l47 49 48 -46 c26 -25 47 -49 47 -53z"/>
<path d="M1826 3804 c-46 -43 -56 -58 -45 -65 8 -5 21 -9 29 -9 16 -1 -46 -64
-70 -72 -21 -7 -2 -28 26 -28 35 0 30 -13 -18 -46 -24 -15 -45 -30 -47 -31
-14 -10 27 -28 86 -37 57 -10 68 -15 68 -31 0 -16 7 -20 35 -20 29 0 36 4 38
23 3 17 10 22 33 22 47 0 119 21 119 35 0 7 -13 18 -29 25 -16 6 -39 22 -52
36 l-22 24 36 0 c20 0 37 3 37 6 0 3 -21 25 -47 49 -28 26 -42 44 -33 45 8 0
21 4 29 9 11 7 2 21 -44 63 -32 29 -60 54 -64 55 -3 1 -33 -23 -65 -53z m129
-58 c-11 -6 -22 -11 -24 -13 -3 -2 15 -24 40 -50 l44 -46 -32 6 c-18 4 -33 3
-33 -1 0 -17 32 -52 66 -73 34 -21 36 -23 16 -30 -24 -9 -207 -11 -266 -2
l-38 5 51 45 c55 48 65 69 27 59 -39 -10 -36 3 11 47 l45 41 -30 8 -31 8 46
43 45 43 41 -41 c39 -37 41 -41 22 -49z"/>
<path d="M990 3811 c0 -5 10 -16 23 -24 30 -22 2 -22 -48 -1 -64 27 -166 -6
-249 -81 -35 -31 -40 -42 -48 -97 l-8 -62 55 -53 c56 -54 72 -61 106 -43 14 8
19 8 17 -1 -2 -6 28 -28 65 -49 38 -20 80 -52 95 -70 21 -25 36 -32 67 -35 22
-1 51 -7 65 -12 16 -7 35 -7 52 -1 18 6 34 6 47 -2 26 -13 44 -4 38 20 -3 13
15 27 84 60 49 24 90 49 93 55 6 17 -17 110 -32 128 -8 9 -23 19 -34 22 -34
12 -158 86 -158 96 0 6 6 6 13 2 8 -4 399 -231 870 -503 l857 -495 0 -35 c0
-57 -77 -144 -165 -186 -38 -19 -85 -34 -103 -34 -37 0 -92 -45 -92 -75 0 -10
-5 -13 -12 -9 -8 5 -9 2 -5 -10 9 -24 -19 -32 -42 -12 -10 9 -34 16 -54 16
-71 0 -137 -89 -123 -165 8 -39 47 -75 83 -75 59 0 140 78 135 130 -3 29 15
44 38 30 18 -11 92 32 108 64 9 17 38 37 90 62 42 20 94 52 116 72 l39 37 -6
-132 -6 -132 38 -30 c22 -17 44 -31 50 -31 27 0 22 -50 -14 -131 -20 -45 -35
-92 -33 -103 4 -28 62 -56 116 -56 76 0 101 55 45 100 -13 10 -28 20 -34 22
-6 2 -1 24 11 52 17 36 21 63 18 112 l-3 65 43 24 43 24 9 -25 c15 -38 13 -49
-25 -131 -46 -100 -45 -109 12 -135 71 -31 152 -16 153 30 0 15 -48 66 -69 73
-11 4 -10 13 6 44 30 59 34 88 22 145 -9 43 -9 53 4 63 13 10 17 40 19 155 3
138 4 143 23 137 78 -25 98 -16 119 54 13 45 15 47 155 128 79 46 145 83 147
83 2 0 4 -6 4 -13 0 -7 -27 -26 -60 -42 -81 -39 -100 -58 -100 -101 0 -19 -5
-44 -10 -55 -16 -29 20 -57 140 -108 81 -34 110 -42 139 -37 40 7 49 7 87 5
25 -1 74 34 74 55 1 18 165 89 188 82 22 -7 82 36 82 59 0 8 9 16 19 20 11 3
31 15 45 26 23 18 25 25 19 67 -3 26 -13 55 -22 65 -18 21 -195 115 -260 138
l-44 15 646 373 c356 205 647 378 647 383 0 6 -9 8 -20 5 -10 -3 -347 -194
-749 -426 -401 -232 -736 -421 -745 -421 -9 0 -16 -4 -16 -9 0 -9 -289 -181
-303 -181 -4 0 -7 10 -7 23 0 14 11 28 30 39 25 14 30 23 30 56 0 30 -7 48
-30 72 -39 42 -38 64 5 101 87 77 59 209 -46 209 -116 0 -176 -185 -77 -236
34 -18 36 -48 7 -99 -15 -24 -20 -46 -17 -68 6 -38 -22 -169 -38 -174 -6 -2
-23 6 -37 17 -24 19 -27 29 -27 78 0 57 0 57 -42 80 -24 12 -47 22 -52 22 -11
0 -296 -159 -318 -178 -15 -12 -109 40 -875 482 -655 378 -859 500 -861 515
-4 26 -36 44 -62 36 -17 -5 -57 8 -70 24 -7 8 -79 41 -90 41 -6 0 -10 -4 -10
-9z m78 -63 c-3 -7 -14 -17 -26 -23 -12 -5 -22 -13 -22 -17 0 -5 -8 -8 -17 -8
-17 0 -53 -28 -53 -41 0 -5 6 -6 13 -3 8 3 20 -2 27 -11 14 -17 30 -20 30 -5
0 6 -5 9 -11 8 -6 -2 -14 3 -16 10 -3 6 1 12 7 12 7 0 20 8 29 18 22 25 144
62 165 50 11 -6 16 -23 16 -56 0 -27 6 -54 13 -61 10 -11 9 -13 -5 -8 -10 4
-18 3 -18 -2 0 -5 -21 -16 -46 -26 -25 -10 -62 -31 -81 -48 -26 -23 -37 -27
-46 -18 -8 8 -9 16 -1 29 10 15 7 17 -27 17 -39 0 -41 -9 -4 -18 18 -4 18 -5
-2 -6 -13 0 -28 8 -35 19 -7 11 -20 20 -30 20 -9 0 -20 5 -24 12 -5 7 -3 8 7
3 12 -8 12 -6 0 8 -12 15 -11 17 6 17 10 0 26 -9 36 -20 9 -11 28 -20 42 -20
19 0 25 5 24 23 0 21 -1 21 -9 2 -6 -15 -9 -16 -9 -4 -1 9 -10 24 -21 34 -18
17 -20 17 -14 2 3 -9 2 -17 -4 -17 -18 0 -22 44 -5 62 10 11 12 18 4 18 -6 0
-17 -11 -23 -25 -10 -23 -44 -43 -55 -32 -24 25 98 103 146 93 14 -3 20 -3 13
0 -16 7 -6 24 14 24 9 0 14 -6 12 -12z m340 -259 c-3 -16 -1 -29 4 -29 4 0 8
-7 8 -16 0 -14 -229 -134 -257 -134 -9 0 -13 17 -13 50 l0 50 122 59 c67 33
126 57 131 54 5 -3 7 -18 5 -34z m2203 -250 c18 -18 21 -30 16 -72 -3 -41 -10
-56 -36 -79 -62 -55 -137 -27 -135 51 2 49 18 78 57 101 41 26 72 25 98 -1z
m554 -210 c59 -18 65 -22 53 -37 -11 -13 -11 -14 1 -8 7 5 16 4 20 -1 3 -6 26
-20 50 -33 32 -16 40 -24 31 -30 -9 -5 -24 -1 -41 11 -29 20 -39 23 -39 11 0
-4 14 -13 30 -20 17 -8 30 -20 30 -28 0 -7 -13 -20 -30 -29 -29 -15 -30 -15
-31 7 -1 19 -3 18 -8 -6 -7 -33 -28 -46 -33 -20 -3 16 -4 16 -18 -1 -9 -11
-10 -16 -2 -11 6 4 12 3 12 -3 0 -6 -9 -15 -20 -21 -18 -10 -24 -7 -21 12 0 4
-7 4 -16 1 -11 -4 -13 -8 -5 -11 17 -5 15 -15 -7 -29 -18 -12 -19 -10 -16 30
6 56 -2 76 -31 87 -22 9 -24 15 -24 68 0 56 11 82 36 82 7 0 42 -9 79 -21z
m-221 -100 c14 -7 23 -15 21 -20 -3 -4 4 -5 14 -2 24 6 61 -13 61 -32 0 -8 5
-15 11 -15 5 0 7 5 4 10 -9 15 5 12 22 -5 20 -21 9 -95 -15 -95 -13 0 -14 2
-4 9 10 6 4 12 -20 24 -20 10 -26 17 -15 17 9 0 17 5 17 11 0 6 7 8 18 4 13
-5 14 -3 6 5 -8 8 -18 9 -30 2 -11 -5 -28 -9 -39 -7 -40 4 -85 18 -85 25 0 4
-12 6 -27 4 -16 -2 -20 -1 -9 2 11 4 26 12 34 20 7 8 18 12 23 9 5 -4 9 -1 9
4 0 14 -6 14 -40 -4 -34 -18 -41 -4 -13 27 19 21 24 22 57 7z m-622 -91 c-6
-6 -71 -46 -144 -88 -131 -77 -133 -77 -161 -62 -15 9 -26 20 -25 24 2 5 66
44 143 87 135 75 141 77 169 63 20 -10 25 -17 18 -24z m632 -19 c31 -12 56
-25 56 -28 0 -4 -29 -21 -64 -38 -64 -32 -89 -64 -68 -85 13 -13 80 -28 84
-18 4 9 123 70 138 70 5 0 10 -20 10 -45 0 -47 -14 -60 -25 -24 -5 16 -14 19
-38 17 -27 -2 -36 -11 -55 -48 -23 -47 -59 -70 -74 -48 -6 10 -8 10 -8 -1 0
-9 -8 -11 -27 -7 -24 5 -25 5 -9 -5 10 -7 35 -9 60 -5 38 6 40 5 22 -9 -11 -8
-29 -15 -39 -15 -22 0 -196 72 -233 97 -52 34 -19 26 66 -15 50 -25 94 -42 97
-38 3 3 -15 14 -41 25 -35 15 -46 26 -47 43 l-1 23 -6 -22 -7 -23 -31 19 c-32
20 -50 66 -33 87 5 6 5 14 1 19 -4 4 5 5 19 2 19 -5 31 -1 45 14 20 22 120 78
141 79 6 0 36 -10 67 -21z m-599 -366 l-7 -112 -143 -81 c-79 -44 -146 -80
-149 -80 -3 0 -6 108 -6 239 l0 240 148 85 147 85 8 -132 c5 -73 5 -182 2
-244z m-338 215 c23 -21 23 -24 23 -255 0 -128 -4 -233 -8 -233 -5 0 -18 10
-30 23 -20 21 -20 30 -16 166 3 82 9 151 16 158 6 7 6 13 1 13 -5 0 -33 -28
-62 -61 -64 -72 -111 -97 -142 -76 -18 13 -17 15 24 31 41 15 100 76 160 166
19 27 22 44 7 35 -6 -4 -10 7 -10 24 0 37 6 38 37 9z m-476 -389 c18 -18 20
-30 16 -67 -4 -37 -12 -53 -41 -79 -21 -19 -46 -33 -61 -33 -33 0 -75 42 -75
74 0 96 103 163 161 105z m786 -6 c14 -51 6 -107 -20 -160 -33 -64 -33 -71 -3
-66 26 5 66 -26 66 -52 0 -35 -143 -25 -157 11 -3 8 11 52 32 96 37 77 38 83
26 126 -6 25 -10 46 -9 47 10 8 44 24 50 25 4 0 11 -12 15 -27z m-187 -143 c0
-45 -7 -71 -30 -115 -16 -31 -30 -59 -30 -61 0 -2 13 -1 29 2 22 5 32 1 50
-21 16 -21 18 -31 10 -41 -23 -28 -133 -12 -146 21 -3 9 9 48 28 88 32 71 40
116 25 149 -6 12 0 20 21 31 15 8 31 13 35 10 5 -2 8 -30 8 -63z"/>
<path d="M3513 3225 c-13 -9 -28 -33 -34 -55 -10 -33 -9 -43 5 -65 30 -45 97
-29 122 31 32 76 -29 134 -93 89z"/>
<path d="M2426 2249 c-69 -81 10 -174 85 -100 31 31 38 75 19 112 -17 32 -73
25 -104 -12z"/>
<path d="M2469 3780 c-17 -21 -49 -51 -71 -66 -21 -15 -37 -32 -35 -37 2 -6
18 -16 37 -22 l34 -11 -53 -42 c-29 -23 -60 -46 -69 -52 -15 -8 -15 -11 -2
-20 8 -5 30 -10 49 -10 l35 0 -30 -31 c-16 -17 -46 -40 -67 -50 -21 -11 -37
-25 -35 -31 7 -20 70 -36 140 -37 l67 -1 -2 -32 c-2 -32 -1 -33 46 -36 l47 -3
0 35 0 36 65 0 c64 0 150 25 140 40 -3 5 -24 18 -48 29 -24 12 -56 34 -72 51
l-29 30 47 0 c25 0 48 4 52 9 3 6 -14 23 -37 39 -24 17 -53 41 -66 55 l-24 25
31 7 c17 4 33 10 36 15 5 9 -133 150 -147 150 -4 0 -21 -18 -39 -40z m99 -40
c34 -34 62 -63 62 -65 0 -3 -16 -5 -35 -5 -19 0 -35 -4 -35 -8 0 -5 27 -34 59
-65 62 -59 63 -73 5 -63 -19 4 -34 4 -34 0 0 -19 56 -76 97 -101 44 -26 45
-27 22 -36 -26 -9 -98 -13 -169 -8 -25 1 -79 2 -120 1 -41 0 -88 3 -105 8
l-29 8 46 32 c25 17 58 46 73 64 l28 33 -46 3 -47 3 60 56 c33 30 60 59 60 64
0 5 -16 9 -35 9 -19 0 -35 2 -35 4 0 1 26 30 58 63 31 33 57 61 57 62 1 0 29
-26 63 -59z"/>
<path d="M3896 3675 c-25 -30 -60 -62 -76 -72 -46 -27 -35 -53 23 -53 19 0 16
-6 -23 -43 -25 -23 -56 -50 -70 -59 -21 -15 -23 -19 -10 -27 8 -6 30 -11 49
-11 l35 0 -30 -31 c-16 -17 -48 -42 -71 -56 -24 -14 -43 -28 -43 -32 0 -13 73
-32 148 -38 l72 -6 0 -33 c0 -34 1 -34 45 -34 44 0 45 0 45 34 l0 33 78 6 c80
6 142 22 142 38 0 5 -21 20 -47 33 -27 13 -61 38 -77 55 l-30 31 47 0 c25 0
48 4 51 8 3 5 -22 31 -56 58 -67 53 -81 74 -50 74 11 0 27 3 36 6 18 7 22 34
5 34 -7 0 -42 31 -79 69 l-67 70 -47 -54z m138 -109 c-19 -5 -34 -13 -34 -16
0 -4 27 -32 59 -63 33 -31 55 -59 50 -63 -5 -3 -28 -3 -51 1 l-41 7 21 -28
c29 -41 61 -69 106 -91 l40 -20 -35 -11 c-38 -13 -392 -10 -422 3 -14 6 -10
12 25 34 24 15 59 45 77 67 l35 39 -55 6 c-29 3 -49 6 -42 7 14 2 123 101 123
112 0 4 -16 11 -36 14 l-35 7 62 63 63 63 62 -61 61 -61 -33 -9z"/>
<path d="M2975 3396 c-33 -34 -71 -70 -85 -79 -24 -16 -25 -17 -6 -32 11 -8
31 -15 45 -15 24 0 22 -4 -29 -53 -30 -30 -64 -58 -74 -64 -31 -17 -8 -33 47
-33 l51 0 -33 -34 c-18 -18 -58 -46 -89 -61 -52 -26 -54 -28 -37 -41 30 -22
85 -34 158 -34 l67 0 0 -41 0 -40 48 3 c46 3 47 4 50 39 l3 36 77 6 c91 6 152
23 152 41 0 7 -18 21 -39 31 -21 9 -56 35 -77 56 l-38 39 29 0 c37 0 75 10 75
19 0 4 -27 26 -61 51 -80 58 -89 76 -44 84 42 8 55 25 29 39 -10 5 -50 41 -87
78 -38 38 -69 69 -70 69 -1 -1 -29 -29 -62 -64z m133 -35 l71 -69 -47 -7 -47
-7 73 -69 73 -68 -51 -3 -51 -3 32 -38 c17 -21 54 -53 81 -72 l51 -34 -39 -10
c-49 -13 -408 -13 -441 0 -25 9 -24 10 33 48 52 33 104 87 104 107 0 4 -16 4
-36 1 -65 -11 -67 1 -8 55 30 28 59 59 65 69 8 16 5 19 -31 25 -22 4 -40 9
-40 13 0 3 16 17 35 31 19 14 48 42 65 63 17 20 32 37 34 37 2 0 35 -31 74
-69z"/>
<path d="M327 3250 c-18 -14 -33 -18 -56 -14 -39 8 -73 -13 -91 -55 l-12 -31
-53 30 c-29 16 -58 30 -64 30 -26 0 -7 -21 46 -51 86 -48 85 -46 52 -79 -24
-23 -29 -37 -29 -77 0 -54 27 -107 59 -118 17 -5 21 -15 21 -46 0 -55 34 -89
90 -89 l40 0 -1 -79 c-1 -43 1 -83 5 -90 8 -13 75 -15 95 -2 11 7 12 26 7 94
l-7 85 37 7 c42 7 94 54 94 83 0 11 6 22 13 25 18 7 97 -42 97 -60 0 -8 -16
-29 -35 -47 -30 -29 -35 -40 -35 -79 0 -60 16 -94 52 -109 20 -9 28 -20 28
-38 0 -52 61 -100 127 -100 l28 0 0 -92 0 -93 34 -3 c19 -2 45 -1 58 3 24 6
24 7 17 88 l-6 83 40 12 c39 12 92 61 92 85 0 7 12 19 28 27 26 16 30 14 110
-33 81 -47 95 -67 47 -67 -13 0 -29 -6 -35 -12 -6 -7 -22 -26 -36 -42 -23 -26
-25 -36 -22 -92 3 -60 2 -64 -19 -64 -12 0 -28 -6 -35 -14 -8 -7 -24 -16 -36
-20 -12 -4 -32 -28 -46 -56 -22 -43 -24 -56 -17 -101 5 -28 13 -54 18 -58 6
-3 13 -16 17 -28 4 -14 18 -26 34 -29 15 -4 33 -12 41 -18 21 -16 132 -17 158
0 47 30 53 22 52 -78 -2 -79 1 -93 17 -105 21 -15 63 -9 77 10 4 7 6 51 4 99
-3 86 6 111 30 87 13 -13 121 1 138 17 7 8 20 14 27 14 20 0 78 65 78 87 0 10
5 24 11 30 7 7 9 29 4 60 -8 56 -60 126 -97 129 -44 4 -66 16 -77 41 l-12 25
33 -19 c18 -11 160 -93 315 -182 156 -90 281 -167 278 -171 -3 -5 -77 -50
-164 -99 -151 -87 -160 -91 -203 -85 -59 8 -88 -7 -88 -46 0 -42 -48 -72 -93
-59 -51 15 -61 11 -85 -31 -12 -22 -27 -40 -32 -40 -6 0 -10 -6 -10 -13 0 -7
-44 -40 -97 -74 -77 -47 -945 -551 -1280 -742 -35 -20 -63 -42 -63 -50 0 -8 6
-11 15 -7 12 4 1073 614 1229 707 l39 23 -7 -52 c-6 -47 -5 -52 18 -67 49 -32
202 -89 236 -87 145 6 162 11 175 52 9 28 153 103 193 101 22 -1 38 5 52 21
43 49 69 74 95 92 26 17 27 22 21 70 -7 60 -8 62 -144 128 l-102 51 172 99
c94 55 178 96 186 93 10 -4 12 0 8 11 -3 8 -6 18 -6 20 0 2 -6 4 -13 4 -7 0
-167 89 -355 198 -235 136 -347 206 -355 222 -7 14 -21 26 -31 28 -10 2 -27
13 -38 24 -13 13 -27 18 -41 14 -15 -4 -57 15 -137 60 l-115 65 4 45 c2 36 -1
50 -19 69 -14 15 -18 25 -11 30 18 10 13 67 -9 103 -13 21 -31 35 -51 39 -18
3 -34 14 -39 27 -30 79 -160 86 -200 12 -8 -16 -21 -21 -50 -21 -24 0 -46 -8
-60 -20 -22 -19 -22 -19 -58 1 -33 20 -36 25 -34 61 2 27 -3 47 -17 64 -17 23
-19 31 -9 62 24 78 -25 152 -98 149 -19 -1 -34 3 -34 8 0 20 -41 50 -69 50
-15 0 -40 -9 -54 -20z m93 -10 c11 -11 20 -27 20 -35 0 -12 8 -14 39 -9 34 5
43 3 65 -19 20 -21 26 -36 26 -72 0 -26 -5 -55 -10 -65 -8 -15 -5 -24 15 -44
33 -33 32 -62 -5 -96 -16 -15 -30 -35 -30 -43 0 -42 -43 -77 -95 -77 -23 0
-25 4 -25 39 0 33 6 45 38 71 l37 32 -34 -7 c-28 -6 -33 -5 -28 8 3 9 20 50
38 92 17 42 29 78 26 81 -2 3 -24 -26 -48 -63 l-43 -68 -8 59 c-4 32 -9 61
-11 63 -3 2 -10 -24 -16 -57 -7 -33 -14 -60 -17 -60 -2 0 -19 33 -36 72 -37
82 -46 73 -24 -22 8 -35 14 -66 12 -68 -2 -2 -18 4 -35 12 -47 25 -48 19 -5
-26 58 -61 74 -88 74 -125 0 -26 -5 -36 -25 -43 -54 -20 -98 19 -97 85 0 37
-3 45 -18 45 -23 0 -57 41 -65 81 -9 39 10 83 40 97 20 9 22 16 18 55 -4 36
-1 49 16 66 22 22 75 29 86 11 4 -6 18 2 35 20 33 35 62 38 90 10z m-60 -310
c6 0 10 9 10 20 0 11 5 20 10 20 6 0 10 -9 10 -20 0 -25 8 -25 27 -2 11 14 11
10 -1 -20 -14 -36 -13 -42 7 -39 4 1 0 -10 -9 -24 -15 -22 -15 -37 -5 -133 16
-150 17 -142 -24 -142 l-35 0 0 137 c0 131 -1 137 -26 170 -14 19 -20 32 -12
31 9 -2 12 7 11 32 l-2 35 14 -32 c8 -18 20 -33 25 -33z m610 1 c14 -10 26
-30 28 -44 3 -22 9 -26 40 -29 32 -3 40 -8 56 -42 18 -37 18 -41 3 -68 -15
-27 -15 -29 8 -53 15 -14 25 -36 25 -53 0 -36 -34 -82 -61 -82 -13 0 -19 -7
-19 -21 0 -31 -17 -57 -50 -74 -46 -24 -67 -19 -75 14 -8 36 2 55 54 106 47
45 52 59 15 44 -15 -5 -29 -7 -32 -5 -2 3 6 30 18 61 12 31 21 58 18 60 -2 3
-23 -20 -45 -51 l-41 -56 -6 46 c-3 25 -9 67 -13 94 l-7 47 -8 -60 c-5 -33
-11 -75 -14 -94 l-5 -33 -35 53 c-38 58 -38 57 -18 -41 6 -29 6 -29 -27 -20
-18 5 -34 8 -36 7 -1 -2 20 -24 47 -50 44 -42 50 -52 50 -88 l0 -42 -46 6
c-59 6 -96 39 -92 82 3 26 -1 31 -27 40 -19 6 -37 24 -50 47 -18 34 -19 40 -5
80 12 34 22 45 47 52 29 9 31 12 26 43 -10 58 43 92 98 63 15 -8 19 -7 19 4 0
8 11 28 25 45 38 44 84 48 135 12z m-71 -314 c5 -5 19 4 31 20 22 28 22 28 15
3 -4 -14 -10 -31 -13 -39 -4 -11 -1 -13 13 -8 14 6 11 -1 -10 -29 -27 -35 -27
-38 -21 -133 4 -53 9 -110 12 -127 5 -26 2 -32 -15 -37 -12 -3 -30 -3 -41 0
-19 5 -20 11 -13 134 l6 129 -33 42 c-19 23 -28 38 -22 34 21 -13 32 3 22 32
-10 25 -9 26 5 8 8 -11 15 -23 15 -28 0 -4 7 -8 15 -8 11 0 15 13 17 48 1 47
1 47 5 7 3 -22 8 -44 12 -48z m489 -167 c26 0 35 -4 39 -19 3 -12 11 -17 19
-14 18 7 46 -16 40 -32 -2 -6 5 -17 16 -24 16 -10 17 -15 7 -27 -10 -12 -8
-17 7 -29 16 -12 17 -17 7 -34 -16 -26 -17 -39 -1 -23 13 13 51 16 62 5 4 -5
18 -8 29 -8 13 0 26 -9 32 -22 5 -12 18 -24 28 -27 16 -4 19 -11 14 -35 -4
-18 -2 -31 3 -31 13 0 13 -37 0 -45 -6 -4 -10 -16 -8 -28 2 -15 -4 -25 -19
-32 -13 -5 -23 -18 -23 -27 0 -17 -11 -23 -34 -19 -4 1 -14 -6 -21 -15 -9 -13
-20 -15 -43 -11 -17 4 -34 2 -37 -3 -8 -13 -45 -13 -45 1 0 6 -8 8 -19 4 -14
-4 -20 1 -25 20 -8 33 -5 37 60 86 61 44 72 75 25 64 -23 -5 -29 -2 -34 15 -7
29 -25 17 -35 -23 -9 -34 -36 -48 -45 -23 -4 9 0 31 8 50 22 53 20 68 -10 60
-20 -5 -25 -2 -25 12 0 11 -5 26 -10 34 -27 41 -36 -66 -13 -157 9 -37 -26
-28 -64 17 -35 40 -59 45 -48 9 5 -15 1 -19 -21 -19 -23 0 -25 -2 -13 -16 8
-9 43 -31 79 -48 59 -28 65 -34 65 -61 0 -26 -4 -30 -27 -30 -15 0 -33 -6 -39
-12 -16 -16 -55 -17 -65 -2 -4 8 -9 8 -17 0 -16 -16 -43 -13 -62 5 -9 9 -19
14 -22 11 -11 -11 -43 13 -43 32 0 11 -7 22 -16 25 -10 4 -14 16 -13 33 2 16
0 34 -5 41 -9 15 1 52 15 52 5 0 9 9 9 19 0 21 38 54 52 45 4 -3 8 0 8 6 0 18
52 32 77 21 26 -12 30 -5 8 19 -8 9 -15 39 -16 70 -2 45 1 56 19 68 12 8 22
20 22 28 0 16 37 37 50 29 6 -4 18 1 27 10 10 11 24 14 37 10 12 -4 36 -6 54
-5z m-32 -279 c4 -11 7 -11 21 0 15 12 16 12 9 -6 -13 -35 -17 -80 -7 -94 16
-24 57 -5 68 31 7 19 11 25 12 14 1 -14 6 -17 26 -12 14 4 25 5 25 2 0 -2 -25
-21 -56 -42 l-57 -39 7 -137 c7 -131 6 -137 -14 -143 -39 -12 -43 1 -37 129 4
67 3 126 -1 133 -4 7 -37 26 -72 42 -36 17 -57 30 -46 31 14 0 17 5 13 23 l-6
22 19 -23 c10 -12 20 -27 22 -32 2 -5 18 -13 37 -16 l34 -7 -6 89 c-3 49 -4
80 -1 69 3 -11 7 -26 10 -34z m465 -417 c70 -21 79 -29 79 -73 0 -20 -6 -43
-12 -50 -11 -10 -10 -11 5 -6 9 4 17 13 17 21 0 11 5 11 25 2 34 -16 31 -41
-7 -61 -18 -10 -52 -29 -75 -42 -24 -14 -43 -23 -43 -20 0 3 -10 -3 -22 -15
-27 -25 -38 -17 -13 10 13 14 14 19 4 15 -11 -4 -14 4 -14 31 0 31 -5 40 -30
54 -16 9 -30 22 -29 28 1 7 2 33 3 58 1 42 3 45 24 40 12 -3 16 -3 9 0 -14 7
-6 24 12 24 7 0 37 -7 67 -16z m-209 -220 c26 -9 50 -20 53 -24 3 -5 -17 -21
-45 -35 -56 -28 -90 -58 -90 -78 0 -26 93 -51 102 -28 3 8 121 71 133 71 3 0
5 -21 4 -47 0 -47 -1 -47 -16 -25 -30 43 -92 14 -107 -50 -7 -29 -44 -47 -67
-32 -8 4 -9 3 -5 -4 10 -16 -9 -15 -47 2 -18 7 -63 26 -100 42 -37 15 -71 32
-75 38 -10 17 -13 49 -7 74 4 18 10 22 26 17 13 -5 25 -1 33 10 6 9 34 29 61
45 28 16 46 30 40 30 -14 0 -75 -37 -103 -63 -15 -14 -25 -18 -33 -10 -14 14
111 79 158 81 21 0 59 -6 85 -14z"/>
<path d="M6084 3065 c-234 -135 -254 -145 -278 -134 -20 10 -35 9 -68 0 -76
-23 -90 -31 -100 -59 -9 -23 -17 -28 -46 -28 -28 0 -41 -7 -64 -34 -16 -19
-32 -47 -35 -62 -4 -23 -30 -41 -145 -109 -77 -44 -162 -92 -189 -105 -26 -14
-51 -28 -53 -33 -3 -4 -28 -6 -55 -3 -63 6 -134 -26 -153 -68 -7 -16 -20 -31
-30 -33 -10 -3 -26 -19 -35 -35 -13 -22 -91 -72 -315 -202 -165 -95 -308 -174
-319 -177 -11 -3 -18 -10 -16 -16 2 -6 57 -41 123 -79 110 -63 143 -88 114
-88 -6 0 -25 7 -42 16 -60 31 -175 -4 -261 -79 -35 -30 -39 -39 -44 -94 l-6
-61 50 -51 c40 -40 57 -51 82 -51 39 0 163 -70 208 -117 25 -27 38 -33 66 -31
19 1 41 -3 49 -9 7 -6 44 -11 83 -10 60 2 70 5 70 20 0 12 26 31 85 60 l85 42
-3 45 c-4 82 -6 84 -114 145 -118 67 -113 63 -105 71 3 3 388 -215 856 -486
468 -270 858 -493 866 -496 9 -4 15 0 15 7 0 8 -389 239 -865 513 -642 371
-865 504 -865 517 0 23 -31 40 -69 37 -20 -1 -38 6 -54 20 -13 12 -28 22 -35
22 -15 0 -225 123 -226 133 -1 4 123 79 274 167 l275 158 8 -29 c5 -21 3 -36
-8 -52 -28 -40 -12 -124 25 -134 11 -3 20 -13 20 -22 0 -39 81 -95 129 -89 18
1 38 -6 59 -24 17 -14 49 -29 72 -33 22 -4 40 -10 40 -13 0 -4 -7 -47 -15 -97
-29 -175 -24 -185 92 -185 110 0 113 2 113 70 0 32 -7 94 -15 137 -8 43 -15
79 -15 79 0 1 21 5 47 9 60 9 128 41 152 71 10 13 24 24 30 24 46 0 103 62
106 115 2 16 8 42 15 57 18 38 4 95 -31 130 -18 19 -29 40 -29 58 0 35 -46 86
-86 96 -16 4 -37 17 -46 29 -27 34 -72 48 -133 42 -34 -3 -59 -1 -70 6 -13 11
3 23 109 84 69 39 127 68 130 65 3 -3 6 -14 6 -24 0 -10 11 -30 24 -43 14 -14
26 -35 28 -47 2 -12 18 -33 37 -45 28 -19 47 -23 110 -23 43 0 81 4 87 10 6 6
10 -29 9 -103 l0 -112 40 0 40 0 -2 100 -3 100 98 0 c118 1 144 7 177 43 21
22 25 37 25 85 0 48 -4 62 -25 83 -16 16 -25 36 -25 57 0 18 -5 38 -11 44 -5
5 -18 25 -27 43 -21 42 -89 69 -129 51 -19 -9 -27 -8 -40 5 -14 13 -14 17 -2
25 8 5 112 65 232 135 198 115 240 144 205 144 -7 0 -126 -66 -264 -145z
m-269 -155 c3 -6 17 -7 30 -4 29 7 62 -9 70 -35 6 -20 6 -20 26 0 17 17 28 20
57 14 43 -8 72 -31 72 -57 0 -10 6 -21 14 -24 21 -8 26 -40 10 -61 -18 -25
-17 -33 4 -33 27 0 48 -29 55 -74 8 -50 -22 -104 -61 -111 -15 -3 -48 -10 -74
-16 -30 -7 -53 -7 -64 -1 -9 5 -25 7 -34 5 -10 -3 -28 0 -40 7 -29 16 -14 33
69 75 71 37 66 43 -17 21 -29 -7 -52 -10 -52 -6 0 3 15 32 34 63 43 70 31 74
-22 7 l-39 -49 -7 37 c-3 20 -6 49 -6 65 0 51 -18 27 -25 -34 l-7 -61 -44 43
c-24 23 -46 41 -48 38 -3 -2 8 -24 25 -48 16 -24 27 -46 25 -48 -2 -2 -21 3
-41 11 -69 29 -70 16 -3 -29 77 -52 83 -58 63 -75 -20 -17 -157 -18 -163 -2
-2 7 -12 12 -22 12 -21 0 -33 25 -25 51 4 13 1 19 -8 19 -33 0 -59 52 -60 122
0 41 48 98 83 98 16 0 32 -4 35 -10 11 -18 22 -10 18 13 -6 31 25 67 67 77 50
12 98 12 105 0z m-550 -403 c15 -12 23 -12 46 0 46 23 139 -13 139 -54 0 -8
11 -13 29 -13 56 0 113 -69 91 -111 -8 -14 -7 -19 3 -19 44 0 84 -104 54 -138
-9 -10 -14 -27 -11 -39 12 -43 -45 -113 -93 -113 -12 0 -24 -8 -28 -19 -8 -26
-96 -71 -155 -78 -49 -6 -50 -5 -50 20 0 21 16 37 80 84 81 58 96 75 60 66
-15 -4 -20 0 -20 16 0 30 -18 26 -26 -5 -6 -22 -52 -54 -78 -54 -2 0 10 36 26
79 24 64 36 82 59 91 15 7 34 18 40 26 9 12 6 13 -19 8 -28 -6 -29 -5 -25 22
5 28 4 27 -22 -10 -25 -35 -29 -37 -40 -23 -19 27 -26 20 -19 -21 5 -32 0 -49
-26 -95 -18 -32 -33 -57 -35 -57 -2 0 -14 29 -29 64 l-25 65 19 57 c26 76 21
87 -15 33 l-28 -44 -23 65 -22 65 -1 -46 c-1 -45 -2 -46 -28 -41 l-27 5 30
-39 c28 -36 81 -180 71 -191 -8 -8 -81 34 -106 61 -29 31 -46 34 -31 7 15 -30
13 -34 -20 -27 -49 9 -34 -6 53 -55 81 -45 82 -46 85 -89 l3 -43 -41 6 c-51 7
-90 31 -90 57 0 21 -15 27 -25 10 -22 -35 -127 15 -135 65 -3 17 -12 31 -20
33 -28 7 -40 25 -40 63 0 26 7 44 21 58 13 12 17 21 10 26 -18 10 -12 78 9
113 18 29 30 37 53 33 4 0 7 5 7 13 0 8 12 28 26 45 33 39 96 58 141 42 28
-11 34 -9 57 14 20 20 35 25 74 25 26 0 56 -6 67 -13z m-111 -270 c4 -17 7
-18 21 -7 14 11 15 10 7 -11 -7 -18 -2 -41 22 -98 17 -40 35 -74 40 -75 5 0
28 35 52 79 24 44 44 77 44 73 0 -4 -14 -42 -30 -84 -17 -42 -28 -79 -25 -82
10 -10 87 22 101 42 10 14 14 16 14 6 0 -8 -22 -30 -49 -48 -90 -61 -88 -53
-62 -205 33 -193 32 -185 15 -191 -9 -3 -49 -6 -90 -6 -57 0 -76 4 -80 15 -3
8 3 82 15 165 12 83 21 160 21 171 0 13 -19 32 -58 57 -33 21 -57 43 -54 50 3
11 7 10 21 -1 23 -19 100 -51 107 -44 8 8 -35 157 -56 193 -17 30 -17 31 0 27
10 -3 21 -14 24 -26z m-611 -468 c26 9 41 9 57 1 22 -12 23 -16 14 -84 -7 -46
-8 -48 -63 -72 -31 -14 -66 -36 -79 -50 -19 -20 -27 -22 -43 -13 -16 8 -18 13
-8 25 9 11 8 14 -4 14 -8 0 -17 -4 -19 -9 -1 -5 -14 -3 -28 5 l-25 15 25 -5
c21 -5 21 -4 -5 8 -16 8 -33 12 -36 10 -12 -7 -20 29 -9 40 6 6 17 3 32 -11
13 -11 33 -24 44 -27 18 -6 21 -3 17 17 -3 13 -14 29 -25 36 -11 7 -17 8 -14
2 4 -5 1 -13 -5 -16 -19 -12 -22 3 -5 27 9 12 16 19 16 15 0 -4 9 -3 20 3 16
9 20 8 20 -6 0 -11 -5 -14 -17 -10 -16 6 -16 6 0 -12 9 -10 18 -25 19 -33 1
-8 4 10 7 40 5 50 9 55 37 65 20 7 29 16 27 26 -4 12 -3 12 5 1 8 -11 16 -11
45 -2z m268 -211 c0 -2 3 -24 5 -49 5 -40 3 -47 -18 -60 -27 -17 -223 -109
-232 -109 -3 0 -6 8 -6 18 0 12 -2 14 -8 4 -15 -23 -38 -3 -50 44 -9 33 -20
50 -42 62 -33 19 -34 21 -21 40 6 11 15 10 44 -4 21 -10 37 -21 37 -26 0 -11
-11 -9 -40 7 -14 8 -29 14 -35 14 -5 0 16 -14 49 -30 56 -29 58 -32 53 -62 -6
-32 3 -18 17 25 6 19 243 140 247 126z"/>
<path d="M5028 3028 c-39 -22 -55 -48 -18 -28 17 9 20 8 20 -10 0 -24 3 -24
-49 -5 -48 17 -91 4 -91 -26 0 -10 -9 -21 -20 -24 -11 -3 -20 -11 -20 -16 0
-6 7 -6 19 1 27 14 31 13 31 -9 0 -13 -30 -35 -105 -76 -112 -61 -114 -63
-118 -156 -2 -33 1 -35 85 -79 60 -31 88 -51 90 -65 2 -12 9 -18 18 -16 8 3
40 6 70 7 113 5 143 14 180 51 49 50 162 113 201 113 26 0 43 11 86 56 39 41
52 61 49 77 -3 12 -7 38 -10 57 -15 92 -220 190 -305 145 -34 -17 -68 -13 -73
10 -2 11 -11 10 -40 -7z m52 -38 c0 -5 -5 -10 -11 -12 -6 -2 7 -4 28 -4 49 0
112 -31 126 -61 19 -43 -20 -41 -43 3 -7 13 -18 24 -23 24 -6 0 -2 -9 7 -19
12 -13 15 -27 11 -41 -7 -23 -32 -22 -27 1 6 22 -35 -20 -41 -43 -5 -17 -2
-19 21 -13 15 3 35 16 44 28 13 17 20 19 28 10 12 -11 1 -46 -13 -44 -19 3
-28 0 -23 -7 2 -4 -18 -20 -45 -35 -27 -15 -49 -22 -49 -16 0 5 -4 8 -9 5 -5
-3 -12 1 -15 9 -3 9 -35 29 -71 45 -64 29 -65 30 -67 70 -1 22 -2 48 -2 58 -1
9 5 16 12 15 6 -2 11 3 10 10 -4 16 5 15 84 -7 39 -11 65 -23 61 -29 -3 -6 -1
-7 5 -3 7 4 12 -9 14 -38 l3 -44 18 24 c14 19 15 23 2 18 -10 -4 -15 0 -15 10
0 15 2 15 31 1 17 -9 34 -14 37 -10 10 10 -32 44 -73 58 -28 10 -41 21 -43 35
-3 16 1 20 12 16 9 -3 16 -10 16 -14z m-208 -296 c83 -42 87 -45 97 -86 l11
-43 -5 42 -5 43 57 29 c32 17 54 30 48 30 -5 0 -21 -6 -35 -14 -29 -16 -40
-18 -40 -7 0 5 16 16 37 26 29 14 38 15 44 4 13 -20 11 -24 -16 -36 -14 -7
-29 -22 -34 -34 -12 -29 -25 -81 -23 -91 4 -17 -46 -30 -78 -19 -17 6 -36 10
-43 8 -7 -1 -8 -1 -4 2 5 2 -36 26 -92 52 l-100 48 9 33 c5 17 7 35 4 40 -2 4
4 12 13 18 10 6 12 11 6 11 -7 0 -13 4 -13 9 0 12 45 -6 162 -65z"/>
<path d="M1755 2716 c-22 -7 -90 -39 -151 -70 -118 -60 -124 -65 -124 -138 0
-29 6 -41 26 -55 26 -17 55 -45 88 -84 9 -11 29 -19 46 -19 47 0 187 -74 205
-109 16 -32 37 -42 81 -40 16 1 42 -3 57 -10 23 -9 39 -7 88 9 93 32 197 81
203 96 3 7 -1 41 -8 75 -14 68 -20 75 -109 120 -32 16 -55 34 -52 38 3 5 -9
23 -25 41 -36 39 -39 56 -5 34 15 -10 25 -12 25 -5 0 6 -18 20 -40 31 -22 11
-40 16 -40 12 0 -5 -15 -13 -32 -19 -25 -7 -41 -6 -65 6 -28 12 -33 20 -33 49
l0 34 35 -22 c19 -12 35 -17 35 -11 0 19 -64 45 -115 48 -27 1 -68 -4 -90 -11z
m111 -10 c8 -8 14 -33 14 -55 0 -33 3 -39 16 -34 9 3 4 -7 -12 -22 -15 -15
-37 -28 -49 -29 -16 -1 -20 -6 -17 -23 3 -15 -1 -23 -9 -23 -9 0 -10 -3 -3 -8
13 -8 29 -66 17 -60 -4 2 -24 12 -43 21 -32 16 -98 54 -145 84 -20 13 -20 13
4 33 33 28 39 25 44 -17 2 -25 4 -15 5 27 1 36 6 71 11 78 9 16 84 40 124 41
16 1 35 -5 43 -13z m179 -126 c9 -16 13 -30 11 -30 -14 0 -56 24 -56 32 0 5
-4 6 -10 3 -5 -3 -10 -11 -10 -17 0 -6 3 -8 7 -5 3 4 16 1 28 -7 11 -7 30 -16
40 -20 12 -3 9 -4 -7 -2 -16 2 -28 0 -28 -4 0 -4 -20 -13 -45 -20 -36 -10 -51
-10 -73 -1 l-27 13 20 -23 c18 -20 18 -22 3 -16 -13 5 -18 1 -18 -12 0 -24
-26 -35 -34 -15 -11 30 -6 82 8 87 8 3 17 1 20 -6 2 -7 5 -4 5 6 1 20 12 22
31 5 12 -11 12 -10 2 4 -15 19 -10 24 41 33 20 4 40 11 43 16 11 18 34 8 49
-21z m-326 -92 c67 -38 66 -36 58 -44 -3 -4 -31 8 -61 25 -59 33 -83 41 -50
16 12 -9 14 -14 6 -15 -15 0 -6 -20 9 -20 6 0 7 5 4 10 -9 14 -1 13 40 -7 19
-9 35 -23 35 -30 0 -7 11 -13 26 -13 25 0 25 -2 18 -42 -4 -24 -7 -48 -7 -55
0 -7 -24 0 -59 18 -32 16 -56 34 -53 38 2 5 -2 14 -10 21 -8 7 -15 21 -15 32
0 11 -5 28 -11 39 -9 19 -4 59 8 59 3 0 31 -14 62 -32z m446 -23 c48 -27 64
-40 54 -46 -9 -5 -22 0 -39 15 -31 29 -100 70 -106 64 -2 -3 19 -17 46 -32 28
-15 56 -36 63 -47 8 -13 19 -17 37 -13 25 5 25 5 5 -11 -20 -17 -20 -17 3 -10
17 5 22 2 22 -12 0 -40 -13 -62 -43 -73 -18 -7 -50 -21 -72 -31 l-40 -19 -7
22 c-6 22 -6 22 -7 -3 -1 -19 -8 -28 -23 -33 -40 -10 -48 -7 -48 22 0 15 6 34
13 42 10 12 9 12 -5 1 -10 -7 -18 -26 -18 -42 0 -33 0 -32 -34 -19 -17 6 -26
17 -26 31 0 21 -50 79 -69 79 -6 0 -19 -9 -28 -20 -23 -26 -33 -25 -33 4 0 48
20 84 51 91 24 5 44 -2 106 -39 71 -42 75 -46 52 -54 -19 -8 -40 -2 -101 29
-43 22 -81 39 -85 39 -5 -1 23 -17 60 -36 37 -19 66 -38 63 -42 -2 -4 8 -7 22
-6 15 1 32 3 38 3 5 1 18 7 28 14 29 21 7 49 -71 93 l-67 37 59 23 c78 29 118
25 200 -21z"/>
<path d="M427 2090 c-30 -23 -62 -117 -53 -153 5 -20 1 -26 -17 -31 -12 -3
-39 -22 -59 -41 -34 -32 -38 -42 -38 -85 0 -36 6 -56 24 -77 12 -15 28 -38 35
-50 6 -12 27 -27 46 -34 26 -10 35 -19 34 -34 -7 -85 13 -118 79 -129 l42 -6
0 -85 c0 -94 7 -105 72 -105 51 0 58 13 58 115 l0 91 48 13 c78 23 101 39 127
91 27 52 32 102 15 146 -8 21 -7 32 6 53 20 30 27 128 13 182 -14 57 -43 85
-104 105 -46 14 -63 15 -93 6 -32 -10 -39 -9 -52 7 -23 29 -55 41 -108 41 -34
0 -57 -6 -75 -20z m151 -17 c13 -8 27 -25 32 -39 l10 -25 26 20 c31 24 54 26
105 8 73 -25 96 -65 98 -162 0 -61 -25 -125 -50 -125 -6 0 -1 -12 10 -26 51
-65 -7 -214 -84 -214 -12 0 -25 -4 -30 -9 -6 -5 -20 -12 -32 -16 -21 -6 -23
-3 -23 26 0 26 10 44 48 82 50 52 51 51 -25 31 -22 -6 -22 -4 12 97 20 57 34
107 32 112 -1 5 -25 -31 -52 -79 -28 -51 -51 -82 -54 -73 -2 8 -19 70 -38 139
l-33 125 5 -95 c3 -52 8 -117 12 -144 l6 -48 -69 46 c-37 25 -70 44 -72 41 -2
-2 26 -41 63 -86 57 -71 66 -87 61 -112 -3 -16 -6 -41 -6 -54 0 -24 -2 -24
-42 -18 -50 8 -70 21 -67 44 1 9 -1 24 -6 34 -4 10 -3 29 4 43 15 34 15 34
-17 34 -35 0 -72 25 -72 49 0 10 -9 21 -19 24 -23 6 -45 74 -34 103 3 11 22
34 41 52 29 28 42 33 69 30 37 -4 39 -2 18 26 -17 23 -20 72 -5 81 6 3 10 16
10 29 0 23 32 59 60 68 23 8 82 -3 108 -19z m23 -433 c5 0 16 14 24 31 23 43
28 31 10 -21 -18 -51 -13 -62 23 -49 26 9 26 8 -6 -18 l-33 -28 7 -138 7 -138
-44 3 -44 3 3 153 4 152 -44 52 c-42 51 -40 53 14 16 43 -29 49 -24 43 40 l-5
57 16 -57 c9 -32 20 -58 25 -58z"/>
<path d="M5880 2000 c-35 -9 -80 -50 -80 -74 0 -8 -17 -16 -39 -20 -55 -9 -83
-46 -79 -106 2 -40 -1 -49 -30 -77 -29 -28 -32 -37 -32 -88 0 -49 4 -60 29
-86 16 -16 39 -29 50 -29 18 0 21 -6 21 -39 0 -67 61 -121 137 -121 l38 0 -3
-96 c-3 -59 0 -100 7 -107 14 -14 99 -13 114 2 8 8 11 42 9 106 l-3 95 31 0
c60 0 120 48 120 96 0 15 8 24 25 28 14 4 34 21 45 39 21 34 27 111 10 122 -6
4 -3 16 10 32 38 48 19 154 -34 188 -16 11 -26 27 -26 41 0 13 -12 37 -27 54
-35 38 -87 52 -136 35 -19 -6 -41 -9 -48 -5 -26 14 -74 18 -109 10z m108 -33
c13 -14 18 -13 43 5 54 40 149 -10 149 -78 0 -25 5 -33 24 -38 30 -7 56 -61
56 -114 0 -43 -19 -72 -48 -72 -15 -1 -16 -2 -1 -13 9 -7 21 -22 28 -35 23
-43 -20 -122 -65 -122 -19 0 -23 -5 -22 -32 2 -45 -48 -88 -102 -88 l-40 0 0
65 0 65 81 85 c45 47 78 85 74 85 -4 0 -32 -14 -62 -31 -30 -17 -56 -30 -58
-27 -2 2 7 53 20 113 13 60 22 111 20 114 -4 3 -65 -123 -65 -134 0 -12 -32
-76 -36 -72 -3 3 -16 53 -29 112 -12 58 -26 109 -30 113 -4 4 -5 -46 -3 -111
1 -64 1 -117 -2 -117 -3 1 -27 30 -53 66 -27 36 -51 64 -53 61 -2 -2 16 -48
40 -103 25 -54 44 -99 43 -101 -2 -1 -25 4 -52 13 -61 18 -81 13 -38 -10 18
-9 49 -30 68 -47 31 -28 35 -37 35 -80 0 -43 -3 -51 -24 -59 -25 -9 -65 -2
-105 19 -32 18 -53 66 -45 106 6 33 5 35 -21 35 -14 0 -35 4 -45 10 -24 13
-43 72 -35 110 7 32 57 80 82 80 14 0 14 3 -2 20 -47 52 2 138 72 127 31 -5
33 -4 33 22 0 27 28 62 60 74 25 10 92 0 108 -16z m-13 -366 c9 -8 21 11 40
62 23 60 30 54 16 -14 -6 -28 -9 -54 -7 -56 2 -3 19 3 38 12 l33 17 -41 -43
c-64 -67 -65 -73 -59 -222 3 -72 8 -144 10 -159 3 -21 -1 -27 -20 -32 -14 -4
-37 -3 -51 0 l-27 7 7 121 c4 67 9 137 12 156 5 31 1 40 -28 69 l-33 34 28 -7
c31 -7 34 2 12 44 -9 17 -20 42 -26 57 l-10 28 25 -30 c14 -16 25 -33 26 -37
0 -5 5 -8 10 -8 6 0 10 30 11 68 l1 67 14 -64 c8 -36 16 -67 19 -70z"/>
<path d="M2889 1736 c-21 -12 -33 -13 -63 -4 -31 10 -39 9 -47 -3 -5 -8 -7
-20 -4 -28 4 -11 -2 -12 -27 -6 -18 5 -46 9 -63 9 -16 1 -36 5 -42 9 -8 5 -13
4 -13 -2 0 -6 4 -11 9 -11 22 0 -5 -54 -37 -73 -19 -12 -30 -23 -24 -25 6 -2
22 4 35 13 15 10 28 12 31 6 6 -10 -14 -24 -126 -85 -36 -20 -70 -42 -76 -49
-5 -7 -13 -38 -16 -69 l-7 -57 90 -46 c66 -33 89 -49 85 -60 -8 -19 19 -30 42
-17 11 6 27 6 46 0 21 -7 38 -6 61 3 17 7 42 12 55 10 29 -3 68 22 77 49 3 11
11 20 18 20 6 0 41 18 78 40 44 26 80 40 103 40 19 0 38 5 41 10 4 6 16 8 28
4 20 -6 21 -5 7 11 -13 15 -11 20 19 44 30 25 32 30 27 71 -2 25 -5 53 -5 62
-1 23 -67 84 -121 113 -59 30 -146 40 -181 21z m-143 -53 c49 -15 54 -15 78 1
17 11 32 13 43 8 10 -5 35 -17 57 -28 36 -17 66 -57 53 -70 -3 -3 -14 -1 -25
5 -15 8 -22 8 -26 -2 -3 -6 -5 -3 -5 8 2 35 -1 45 -12 45 -8 0 -7 -6 2 -17 9
-11 3 -9 -15 5 -16 12 -36 22 -45 23 -12 0 -11 2 4 9 l20 9 -20 0 c-11 0 -26
-3 -33 -8 -11 -7 -11 -9 2 -14 12 -5 16 -21 17 -59 1 -29 4 -44 6 -33 3 11 13
25 22 32 15 12 14 13 -1 7 -13 -4 -18 -1 -18 10 0 13 4 15 19 7 10 -6 22 -7
27 -3 5 4 -1 -5 -13 -19 -45 -50 -15 -83 34 -37 17 16 26 19 34 11 12 -12 4
-47 -8 -40 -5 3 -21 -1 -38 -9 -16 -8 -22 -12 -12 -9 11 3 16 1 11 -6 -4 -6
-19 -8 -36 -5 -24 5 -28 3 -20 -7 8 -9 6 -16 -9 -25 -16 -10 -22 -9 -40 12
-12 13 -47 36 -79 50 l-58 26 -7 56 c-4 37 -3 60 5 70 16 18 22 18 86 -3z
m-141 -267 l100 -51 0 -58 c0 -42 3 -56 13 -52 35 14 44 15 20 0 -26 -15 -31
-14 -90 11 -76 32 -218 103 -218 108 0 3 56 -22 124 -55 68 -32 130 -59 137
-59 8 0 -24 18 -71 39 -170 76 -170 76 -168 121 1 22 5 40 10 40 5 0 6 5 2 11
-11 18 31 2 141 -55z"/>
<path d="M3435 1535 c-21 -24 -42 -42 -46 -39 -5 3 -14 2 -20 -2 -8 -5 -8 -9
1 -14 8 -5 2 -13 -19 -26 -17 -10 -31 -22 -31 -26 0 -4 18 -12 41 -18 45 -12
43 -22 -13 -61 l-28 -20 -61 37 c-49 29 -65 35 -78 26 -28 -19 -567 -331 -583
-337 -10 -4 -31 12 -62 47 l-46 52 -47 -50 c-27 -28 -61 -60 -78 -71 l-30 -22
28 -10 c16 -6 36 -11 44 -11 22 0 -14 -38 -71 -77 -22 -15 -43 -31 -46 -34 -3
-4 -88 -55 -190 -114 -102 -59 -189 -110 -193 -112 -5 -3 -33 20 -63 51 l-53
57 -60 -60 c-32 -34 -64 -61 -70 -61 -25 0 -9 -29 19 -35 17 -4 30 -11 30 -16
0 -5 -26 -28 -58 -52 -32 -23 -57 -47 -55 -52 1 -6 -111 -75 -249 -155 -225
-130 -284 -170 -249 -170 6 0 129 68 273 151 144 84 271 154 282 157 19 5 19
3 -4 -22 -14 -16 -44 -39 -68 -53 -23 -14 -40 -29 -37 -34 9 -13 76 -29 128
-29 l47 0 0 -35 c0 -35 0 -35 45 -35 45 0 45 0 45 34 l0 35 74 -1 c81 0 146
16 146 36 0 7 -18 21 -39 31 -22 9 -52 30 -67 46 l-28 29 35 0 c41 0 73 18 49
27 -8 3 -36 26 -63 51 l-48 46 33 11 c18 6 32 15 31 20 -2 16 386 235 415 235
l26 0 -30 -31 c-16 -17 -46 -40 -66 -50 -21 -11 -38 -23 -38 -28 0 -15 53 -32
117 -38 l63 -6 0 -34 c0 -34 0 -34 43 -31 40 3 42 5 45 38 l3 35 67 -3 c69 -3
153 15 159 34 2 6 -14 19 -36 29 -22 9 -54 32 -72 49 l-32 31 47 3 c47 3 64
25 28 36 -10 3 -37 26 -61 50 l-43 43 36 7 c36 7 46 19 26 31 -10 6 526 323
562 333 9 2 35 -6 58 -19 36 -21 39 -25 25 -36 -24 -17 -11 -30 36 -38 l41 -7
-27 -28 c-15 -16 -47 -39 -71 -52 -24 -12 -43 -27 -41 -33 6 -17 79 -33 149
-34 l67 -1 3 -37 c3 -37 4 -38 43 -38 39 0 40 1 43 38 l3 37 62 0 c59 0 67 -3
231 -97 l169 -97 -47 -41 c-25 -23 -43 -44 -39 -48 3 -4 21 -7 40 -7 18 0 33
-4 33 -10 0 -10 -74 -63 -103 -73 -49 -18 27 -55 115 -56 43 -1 47 -3 50 -28
3 -25 7 -28 46 -31 40 -3 42 -2 42 26 0 29 1 29 65 35 36 4 81 14 99 22 34 16
34 16 119 -32 77 -44 84 -50 66 -61 -26 -17 -24 -31 9 -43 l27 -11 -52 -48
c-29 -27 -53 -51 -53 -54 0 -3 19 -9 42 -12 l41 -7 -29 -24 c-16 -13 -46 -33
-67 -44 -21 -11 -35 -24 -32 -29 9 -15 76 -30 133 -30 51 0 52 -1 52 -29 0
-32 20 -42 63 -34 22 4 25 10 22 34 -4 29 -3 29 53 30 60 0 123 17 129 34 2 6
-12 19 -31 29 -19 10 -46 31 -61 46 l-27 28 46 3 c43 4 59 -4 293 -140 256
-148 289 -165 281 -140 -2 8 -152 99 -333 204 -309 178 -327 190 -296 196 17
4 33 8 35 10 2 2 -27 34 -65 70 l-69 66 -32 -39 -33 -38 -153 87 c-140 81
-150 89 -127 97 24 9 35 26 17 26 -12 0 -102 71 -102 81 0 4 14 10 30 14 17 4
30 8 30 10 0 2 -30 34 -67 70 l-68 66 -35 -41 c-19 -22 -48 -49 -65 -60 l-29
-19 -66 36 c-36 20 -94 53 -129 74 l-64 37 29 15 28 15 -50 25 c-27 14 -65 42
-84 63 -19 20 -29 34 -22 30 15 -9 94 3 90 13 -2 5 -27 28 -57 52 -30 24 -56
49 -58 56 -2 6 12 16 31 23 43 14 44 21 9 42 -16 9 -46 35 -67 57 -39 40 -39
41 -20 56 10 8 14 15 7 15 -6 0 -15 -5 -18 -10 -5 -8 -11 -8 -19 -1 -9 7 -23
-2 -51 -34z m165 -111 c0 -2 -16 -4 -35 -4 -19 0 -35 -5 -35 -11 0 -6 27 -38
60 -70 l61 -59 -46 0 c-25 0 -45 -4 -45 -8 0 -14 84 -89 120 -107 l35 -18 -25
-10 c-24 -9 -66 -11 -220 -10 -36 0 -83 0 -105 0 -86 -1 -144 22 -95 38 21 7
120 100 120 113 0 4 -20 6 -45 4 -25 -2 -45 0 -45 4 0 5 16 20 36 33 37 26 84
77 84 92 0 5 -13 9 -28 9 -16 0 -31 3 -34 6 -3 3 22 33 56 67 l61 62 63 -63
c34 -35 62 -66 62 -68z m-1051 -354 l61 -59 -35 -7 c-19 -3 -35 -10 -35 -14 0
-4 25 -31 55 -59 30 -29 55 -55 55 -58 0 -3 -20 -3 -45 0 -42 6 -45 5 -36 -12
14 -26 85 -88 110 -96 31 -9 26 -23 -11 -30 -50 -8 -375 -1 -385 9 -4 4 1 13
12 20 11 6 43 34 70 61 l50 50 -48 3 -47 3 49 39 c28 22 55 48 60 59 9 16 6
20 -24 25 l-35 7 58 58 c31 32 58 59 58 60 1 0 29 -26 63 -59z m1618 -112 c-6
-4 -20 -8 -30 -8 -27 0 -6 -32 50 -75 l46 -35 -42 0 c-22 0 -41 -4 -41 -9 0
-12 99 -101 113 -101 7 0 7 -4 -1 -12 -14 -14 -263 -23 -342 -12 l-45 6 25 17
c40 26 90 72 101 93 9 17 7 18 -31 12 -22 -4 -40 -4 -40 -1 0 4 23 27 50 53
28 26 50 50 50 54 0 4 -14 10 -30 14 l-31 6 53 54 53 53 52 -50 c37 -36 49
-53 40 -59z m-2319 -278 l61 -60 -34 0 c-50 0 -45 -19 20 -78 l55 -51 -45 -3
-46 -3 32 -38 c17 -21 49 -47 72 -58 37 -20 39 -22 21 -33 -24 -14 -362 -14
-388 1 -16 9 -15 12 17 32 20 12 50 38 68 59 l33 37 -49 5 -49 5 43 29 c43 30
81 71 81 87 0 5 -16 9 -35 9 l-36 0 58 59 c32 32 58 59 58 60 1 0 29 -26 63
-59z m2834 -92 c-2 -5 -14 -8 -28 -8 -35 0 -30 -11 26 -64 28 -26 50 -49 50
-52 0 -4 -16 -4 -35 -2 -19 2 -35 1 -35 -3 0 -15 52 -69 87 -90 l37 -23 -29
-7 c-38 -11 -337 -10 -354 0 -11 7 -9 11 10 21 31 16 99 81 99 95 0 6 -16 9
-42 7 l-42 -5 57 53 c31 28 57 56 57 61 0 5 -13 9 -30 9 -16 0 -30 2 -30 5 0
3 23 29 52 58 l51 52 51 -50 c28 -27 50 -53 48 -57z"/>
<path d="M3048 988 c-43 -42 -78 -80 -78 -83 0 -2 18 -8 41 -11 l40 -7 -47
-48 c-27 -27 -56 -52 -66 -55 -35 -11 -19 -33 29 -40 l47 -7 -43 -38 c-23 -21
-58 -44 -77 -51 -19 -6 -34 -16 -34 -21 0 -19 78 -40 153 -41 l78 -1 -3 -35
-3 -35 48 -3 47 -3 0 38 0 39 68 1 c69 1 143 20 149 38 1 6 -20 24 -48 40 -28
17 -60 41 -71 55 l-20 25 43 5 c51 6 60 23 22 44 -37 20 -111 89 -98 92 6 1
22 5 38 8 37 8 34 26 -8 55 -20 13 -54 46 -76 73 -23 26 -44 47 -47 46 -4 -1
-42 -37 -84 -80z m151 -11 c34 -32 61 -60 61 -62 0 -2 -16 -7 -35 -11 -19 -3
-35 -9 -35 -13 0 -9 78 -83 109 -104 l24 -16 -27 -7 c-14 -3 -37 -3 -51 0 -14
4 -25 2 -25 -2 0 -11 95 -101 130 -123 l25 -17 -55 -10 c-71 -13 -379 -10
-404 4 -16 10 -13 14 27 37 42 25 107 89 107 106 0 4 -23 6 -52 3 l-52 -5 69
68 70 68 -43 9 -42 9 62 63 c35 34 66 62 70 62 3 -1 34 -27 67 -59z"/>
<path d="M5148 833 c26 -18 29 -33 5 -33 -20 0 -227 -95 -264 -121 -20 -14
-28 -30 -32 -66 -6 -59 -4 -65 38 -89 19 -11 44 -35 57 -54 18 -27 31 -36 58
-38 41 -3 200 -82 200 -99 0 -6 14 -23 32 -38 22 -19 38 -25 55 -20 13 3 41 0
62 -6 43 -13 63 -8 204 51 78 32 109 62 88 83 -6 6 -11 28 -11 49 0 46 -17 64
-99 110 -38 21 -61 39 -61 51 0 9 -7 17 -15 17 -8 0 -15 5 -15 11 0 6 9 8 23
4 25 -8 19 -1 -34 37 -31 23 -41 25 -74 18 -57 -13 -105 13 -105 56 0 30 -5
35 -60 63 -65 33 -89 40 -52 14z m90 -45 c7 -7 12 -38 12 -70 0 -53 -2 -59
-24 -68 -28 -10 -40 -40 -31 -71 5 -15 4 -19 -5 -14 -9 6 -9 3 -1 -14 10 -18
9 -20 -6 -14 -10 4 -21 11 -25 17 -4 6 -12 12 -18 12 -5 1 -14 2 -20 3 -5 0
-11 13 -11 29 -2 24 -2 24 -6 4 -4 -19 -7 -21 -19 -11 -8 6 -15 23 -15 38 -2
23 -2 24 -6 4 -4 -22 -6 -22 -34 -8 -37 20 -37 40 1 57 17 7 30 16 30 21 0 4
-14 0 -31 -8 -17 -9 -38 -15 -47 -13 -12 3 -2 12 28 27 25 13 51 32 58 42 14
20 89 47 133 48 14 1 30 -4 37 -11z m187 -144 c9 -20 15 -37 13 -38 -1 -1 -28
-8 -58 -14 -55 -11 -90 -11 -121 3 -10 3 -20 2 -24 -4 -3 -7 0 -8 9 -5 9 3 16
1 16 -4 0 -6 8 -12 18 -15 12 -3 8 -8 -16 -17 -25 -9 -30 -15 -20 -21 10 -7 9
-9 -4 -9 -24 0 -35 74 -15 95 17 17 31 20 22 5 -3 -5 -2 -10 3 -10 5 0 12 8
15 18 4 17 15 22 85 38 8 1 16 5 20 8 16 16 41 3 57 -30z m113 -105 c34 -18
62 -37 62 -41 0 -12 -28 -9 -36 3 -9 14 -95 69 -108 69 -6 0 13 -14 42 -31 29
-17 57 -39 62 -49 6 -12 18 -16 37 -14 15 2 22 1 15 -2 -10 -5 -10 -8 2 -18
23 -17 9 -64 -25 -81 -36 -19 -37 -19 -42 8 -4 19 -4 18 -6 -5 0 -16 -2 -28
-4 -28 -1 0 -33 -11 -71 -25 -54 -20 -71 -22 -78 -13 -6 10 -8 10 -8 1 0 -9
-8 -9 -29 -2 -20 7 -30 19 -35 39 -12 64 -87 96 -106 45 -5 -14 -11 -25 -13
-25 -2 0 -4 23 -6 50 -1 33 2 50 10 50 16 0 129 -63 129 -72 0 -11 44 -10 75
2 44 17 29 48 -43 93 -34 22 -65 38 -67 35 -3 -2 22 -19 55 -38 32 -18 61 -39
64 -47 7 -16 -11 -8 -93 44 -52 34 -53 35 -32 49 73 52 159 53 249 3z"/>
<path d="M3665 704 c-21 -25 -55 -57 -77 -71 -45 -30 -45 -42 1 -58 l33 -11
-29 -29 c-15 -17 -44 -42 -63 -57 -29 -23 -32 -29 -20 -37 8 -6 31 -11 50 -11
l35 -1 -43 -39 c-24 -22 -59 -45 -78 -52 -19 -7 -33 -17 -31 -23 6 -18 80 -37
149 -37 l67 -1 3 -36 c2 -29 7 -37 27 -39 12 -2 33 -1 45 2 19 5 21 11 18 41
l-4 35 73 1 c73 1 140 17 146 35 2 5 -17 20 -41 32 -24 13 -56 36 -71 52 l-26
28 45 6 c47 7 63 29 28 40 -9 3 -40 25 -67 49 l-49 44 37 7 c20 4 37 11 37 16
0 7 -149 160 -156 160 -1 0 -18 -21 -39 -46z m103 -44 c34 -34 62 -63 62 -65
0 -3 -16 -5 -35 -5 -19 0 -35 -5 -35 -11 0 -12 99 -109 112 -109 4 0 8 -4 8
-9 0 -6 -21 -11 -46 -13 l-46 -3 52 -52 c29 -29 61 -55 71 -58 32 -11 21 -23
-28 -33 -62 -12 -363 -9 -386 4 -15 9 -10 15 35 44 28 19 63 50 76 68 l25 32
-52 0 -52 0 60 56 c71 65 76 84 26 84 -19 0 -35 2 -35 4 0 3 120 124 125 126
1 0 29 -27 63 -60z"/>
<path d="M2647 616 c-20 -25 -51 -53 -67 -63 -39 -22 -38 -40 2 -48 l32 -7
-45 -43 c-24 -23 -51 -44 -59 -48 -23 -8 7 -27 44 -27 l30 0 -29 -30 c-16 -17
-44 -35 -62 -42 -69 -25 -17 -58 93 -58 l62 0 -4 -30 c-4 -25 -1 -30 20 -36
43 -10 61 -2 64 34 3 32 4 32 55 32 65 0 127 17 127 34 0 8 -13 19 -29 26 -16
6 -41 24 -56 39 l-26 29 35 6 c20 4 36 11 36 16 0 5 -19 22 -43 39 -67 45 -73
57 -37 64 39 8 38 26 -5 57 -19 14 -47 42 -62 62 -15 21 -30 38 -33 38 -3 0
-22 -20 -43 -44z m142 -88 c1 -5 -12 -8 -29 -8 -16 0 -30 -4 -30 -9 0 -5 25
-32 56 -60 l56 -51 -42 0 c-42 0 -42 0 -28 -22 8 -13 36 -39 61 -58 39 -29 44
-36 30 -44 -23 -13 -289 -16 -336 -4 l-39 9 44 28 c25 16 55 41 67 57 l23 29
-40 3 -41 3 50 48 c27 26 49 53 49 59 0 7 -14 12 -31 12 l-31 0 54 54 53 54
51 -47 c29 -25 52 -49 53 -53z"/>
</g>
</svg>
