<?xml version="1.0" standalone="no"?>
<!DOCTYPE svg PUBLIC "-//W3C//DTD SVG 20010904//EN"
 "http://www.w3.org/TR/2001/REC-SVG-20010904/DTD/svg10.dtd">
<svg version="1.0" xmlns="http://www.w3.org/2000/svg"
 width="640.000000pt" height="400.000000pt" viewBox="0 0 640.000000 400.000000"
 preserveAspectRatio="xMidYMid meet">

<g transform="translate(0.000000,400.000000) scale(0.100000,-0.100000)"
fill="#000000" stroke="none">
<path d="M2855 3708 c-138 -11 -336 -36 -344 -44 -3 -3 -8 -69 -10 -147 l-3
-142 -77 -80 c-88 -92 -151 -170 -186 -230 -43 -73 -48 -128 -29 -346 l17
-196 -31 -39 c-70 -88 -98 -217 -60 -276 16 -24 76 -58 158 -89 52 -19 110
-17 126 6 21 29 17 44 -16 63 -17 9 -33 27 -37 40 -5 22 11 130 22 140 9 10
34 -20 40 -49 9 -38 30 -59 54 -52 29 7 41 52 30 105 -15 68 -51 114 -117 154
-7 4 -32 248 -32 317 0 73 2 82 32 121 43 55 90 106 100 106 4 0 8 -54 8 -120
0 -135 15 -394 34 -603 l13 -138 75 -77 76 -77 21 -95 c38 -171 48 -252 38
-290 -5 -19 -34 -87 -64 -150 -70 -146 -93 -213 -96 -272 -2 -40 3 -51 28 -79
80 -85 292 -124 383 -69 35 22 45 58 30 119 -19 75 -97 131 -182 131 -15 0
-26 3 -24 8 41 78 100 210 115 253 19 58 25 235 11 355 l-7 61 127 7 c70 3
159 9 198 12 l71 6 26 -93 c14 -52 32 -123 39 -158 l12 -63 -62 -185 c-66
-192 -86 -299 -63 -340 39 -74 311 -120 409 -69 41 21 46 34 38 91 -13 82 -93
146 -188 149 -39 1 -47 4 -42 16 37 83 96 281 101 337 5 60 -17 266 -33 307
-4 10 11 15 59 20 l65 7 1 492 c0 271 4 505 8 520 l8 28 55 -47 c104 -89 103
-86 104 -306 1 -152 -2 -192 -12 -196 -30 -10 -82 -66 -106 -114 -41 -83 -33
-159 19 -172 15 -4 25 -14 25 -24 0 -58 84 -121 135 -102 15 6 36 10 47 10 29
0 101 36 124 61 15 17 19 37 19 103 -1 82 -20 140 -64 190 -14 15 -17 56 -21
275 -5 239 -6 259 -27 301 -28 55 -124 166 -218 249 l-70 62 0 81 0 82 -130
78 -130 77 -255 -1 c-140 0 -304 -5 -365 -10z m719 -68 c59 -34 108 -65 110
-69 2 -3 -156 -6 -352 -6 -285 -1 -385 -4 -494 -19 l-137 -18 -81 62 c-45 34
-80 63 -78 65 6 6 274 36 403 45 72 4 218 7 327 6 l196 -3 106 -63z m-962 -62
l81 -63 -6 -175 c-7 -202 6 -594 32 -1001 10 -156 17 -285 16 -287 -2 -2 -41
34 -89 80 l-85 83 -15 175 c-9 96 -21 295 -28 443 l-12 267 35 37 34 36 -32
-22 c-33 -23 -168 -175 -190 -214 -17 -30 -16 -87 4 -267 l17 -155 30 -15 c65
-32 121 -177 81 -210 -15 -12 -19 -12 -31 5 -8 10 -14 26 -14 35 0 18 -35 60
-51 60 -18 0 -39 -69 -39 -130 0 -57 2 -62 30 -78 32 -18 37 -31 18 -50 -20
-20 -65 -14 -95 12 -24 21 -29 34 -35 93 l-6 68 2 -81 c2 -75 1 -81 -16 -76
-10 2 -28 16 -39 31 -18 22 -20 35 -15 82 3 31 8 64 11 75 6 18 6 18 -6 -1 -7
-11 -16 -51 -19 -90 l-5 -70 -23 35 c-39 62 -22 161 43 251 l38 51 -9 136
c-15 239 -12 341 13 387 39 73 116 168 233 284 98 98 130 136 67 83 -9 -8 -20
-13 -22 -10 -6 6 6 248 12 248 2 0 40 -28 85 -62z m1106 -33 c3 -3 -1 -103 -8
-223 -7 -119 -14 -446 -16 -727 l-4 -510 -137 -8 c-76 -4 -286 -16 -467 -27
-182 -11 -331 -19 -332 -17 -1 1 -12 153 -24 337 -23 356 -37 1024 -23 1100
l8 45 90 13 c156 22 361 31 639 26 148 -2 271 -6 274 -9z m171 -310 c141 -150
151 -181 151 -502 l0 -202 30 -43 c62 -89 72 -221 21 -272 l-21 -20 -1 69 c-1
39 -5 81 -9 95 -4 14 -6 -10 -3 -57 6 -77 5 -82 -20 -107 -31 -30 -64 -36 -51
-8 4 9 9 46 10 82 l2 65 -8 -62 c-11 -75 -23 -101 -54 -109 -55 -14 -131 69
-106 116 15 28 58 27 70 -2 7 -18 9 -13 9 27 0 28 -5 63 -12 79 l-12 28 -25
-20 c-13 -10 -29 -37 -35 -58 -13 -46 -42 -53 -63 -14 -11 20 -12 34 -3 65 17
63 66 133 107 152 l36 18 -4 205 c-4 238 0 228 -108 317 l-70 58 0 70 c0 39 3
94 6 122 l7 53 37 -30 c21 -16 74 -68 119 -115z m0 -888 c8 -33 7 -34 -20 -33
-33 1 -37 19 -13 54 19 27 23 25 33 -21z m-305 -391 c30 -196 18 -295 -64
-500 -16 -42 -30 -80 -30 -84 0 -4 28 -7 63 -7 104 -1 177 -63 177 -150 0 -54
-23 -67 -129 -73 -124 -7 -237 24 -285 77 -17 19 -18 27 -7 92 6 39 39 152 72
251 l61 181 -27 116 c-15 64 -34 133 -41 153 -15 44 -14 45 112 47 l81 1 17
-104z m-642 13 c3 -30 6 -109 7 -176 1 -140 -14 -195 -100 -364 -27 -52 -49
-97 -49 -100 0 -2 29 -4 64 -4 50 0 71 -5 92 -21 45 -33 67 -70 72 -122 4 -46
2 -51 -24 -68 -44 -29 -189 -26 -269 6 -74 29 -125 77 -125 117 0 50 29 133
98 278 63 131 67 144 66 205 -1 54 -27 205 -49 285 -6 19 -1 20 102 19 l108
-1 7 -54z"/>
<path d="M3402 3454 c-30 -24 -50 -44 -45 -44 4 0 31 20 58 45 65 57 56 57
-13 -1z"/>
<path d="M2931 3466 c10 -9 89 -46 89 -41 0 5 -75 45 -86 45 -4 0 -5 -2 -3 -4z"/>
<path d="M3470 3343 c0 -5 -18 -28 -39 -53 l-39 -45 -42 48 c-23 26 -45 47
-50 47 -4 0 -25 -23 -46 -51 l-39 -51 -48 54 c-28 31 -51 48 -55 42 -4 -6 -23
-32 -42 -58 l-35 -48 -25 33 c-14 18 -33 42 -42 53 l-17 21 -26 -30 c-46 -55
-67 -91 -26 -45 22 25 41 48 41 53 0 19 20 3 51 -43 19 -27 37 -50 40 -50 4 0
25 25 48 55 l42 55 41 -47 c22 -27 44 -49 49 -51 4 -2 25 20 45 47 21 28 41
51 45 51 4 0 26 -23 50 -51 l42 -51 22 29 c13 15 32 39 43 53 l21 25 48 -45
48 -45 -50 53 c-51 54 -55 57 -55 45z"/>
<path d="M3448 3133 c12 -2 30 -2 40 0 9 3 -1 5 -23 4 -22 0 -30 -2 -17 -4z"/>
<path d="M3343 3123 c15 -2 37 -2 50 0 12 2 0 4 -28 4 -27 0 -38 -2 -22 -4z"/>
<path d="M3198 3113 c17 -2 47 -2 65 0 17 2 3 4 -33 4 -36 0 -50 -2 -32 -4z"/>
<path d="M2928 3103 c34 -2 90 -2 125 0 34 2 6 3 -63 3 -69 0 -97 -1 -62 -3z"/>
<path d="M3468 2983 c23 -2 61 -2 85 0 23 2 4 4 -43 4 -47 0 -66 -2 -42 -4z"/>
<path d="M3267 2973 c18 -2 50 -2 70 0 21 2 7 4 -32 4 -38 0 -55 -2 -38 -4z"/>
<path d="M3108 2963 c18 -2 45 -2 60 0 15 2 0 4 -33 4 -33 0 -45 -2 -27 -4z"/>
<path d="M3593 2915 c0 -33 2 -45 4 -27 2 18 2 45 0 60 -2 15 -4 0 -4 -33z"/>
<path d="M3000 2943 c0 -11 3 -14 8 -7 4 6 14 14 22 17 10 4 8 6 -7 6 -16 1
-23 -5 -23 -16z"/>
<path d="M2889 2950 c-5 -51 -5 -160 1 -160 14 0 24 140 11 153 -6 6 -11 9
-12 7z"/>
<path d="M3568 2823 c7 -3 16 -2 19 1 4 3 -2 6 -13 5 -11 0 -14 -3 -6 -6z"/>
<path d="M2930 2804 c0 -8 5 -12 10 -9 6 3 10 10 10 16 0 5 -4 9 -10 9 -5 0
-10 -7 -10 -16z"/>
<path d="M3000 2808 c0 -16 10 -18 83 -16 l82 2 -75 3 c-43 3 -78 9 -82 16 -5
8 -8 6 -8 -5z"/>
<path d="M3438 2813 c18 -2 45 -2 60 0 15 2 0 4 -33 4 -33 0 -45 -2 -27 -4z"/>
<path d="M3257 2803 c18 -2 50 -2 70 0 21 2 7 4 -32 4 -38 0 -55 -2 -38 -4z"/>
<path d="M3553 2693 c9 -2 23 -2 30 0 6 3 -1 5 -18 5 -16 0 -22 -2 -12 -5z"/>
<path d="M3348 2683 c23 -2 61 -2 85 0 23 2 4 4 -43 4 -47 0 -66 -2 -42 -4z"/>
<path d="M3153 2673 c20 -2 54 -2 75 0 20 2 3 4 -38 4 -41 0 -58 -2 -37 -4z"/>
<path d="M3000 2585 c0 -47 3 -85 8 -85 4 0 6 36 4 79 l-3 80 33 4 33 4 -37 1
-38 2 0 -85z"/>
<path d="M3593 2625 c0 -27 2 -38 4 -22 2 15 2 37 0 50 -2 12 -4 0 -4 -28z"/>
<path d="M2828 2639 c-10 -5 -18 -17 -18 -25 0 -14 2 -14 16 0 19 19 44 21 44
4 0 -7 -14 -33 -30 -58 -41 -62 -40 -74 8 -65 20 3 42 11 47 17 7 7 0 9 -22 5
-18 -4 -33 -4 -33 -2 0 3 12 27 27 53 37 67 17 104 -39 71z"/>
<path d="M3540 2530 l-45 -7 48 -1 c26 -1 47 3 47 8 0 6 -1 9 -2 8 -2 0 -23
-4 -48 -8z"/>
<path d="M2930 2504 c0 -8 5 -12 10 -9 6 3 10 10 10 16 0 5 -4 9 -10 9 -5 0
-10 -7 -10 -16z"/>
<path d="M3353 2513 c20 -2 54 -2 75 0 20 2 3 4 -38 4 -41 0 -58 -2 -37 -4z"/>
<path d="M3083 2503 c31 -2 83 -2 115 0 31 2 5 3 -58 3 -63 0 -89 -1 -57 -3z"/>
<path d="M3468 2393 c23 -2 61 -2 85 0 23 2 4 4 -43 4 -47 0 -66 -2 -42 -4z"/>
<path d="M3248 2383 c23 -2 61 -2 85 0 23 2 4 4 -43 4 -47 0 -66 -2 -42 -4z"/>
<path d="M3047 2373 c18 -2 50 -2 70 0 21 2 7 4 -32 4 -38 0 -55 -2 -38 -4z"/>
<path d="M2839 2330 c-23 -21 -18 -22 26 -4 24 10 17 -13 -10 -34 -34 -27 -32
-32 10 -25 22 3 35 2 35 -5 0 -15 -26 -40 -51 -47 -15 -5 -18 -10 -11 -17 15
-15 59 15 75 49 9 21 8 27 -4 37 -9 6 -16 22 -15 36 1 32 -24 37 -55 10z"/>
<path d="M3590 2296 c0 -44 -4 -55 -17 -59 -14 -4 -12 -5 5 -6 20 -1 22 3 22
59 0 33 -2 60 -5 60 -3 0 -5 -24 -5 -54z"/>
<path d="M3438 2223 c18 -2 45 -2 60 0 15 2 0 4 -33 4 -33 0 -45 -2 -27 -4z"/>
<path d="M2930 2210 c0 -5 5 -10 10 -10 6 0 10 5 10 10 0 6 -4 10 -10 10 -5 0
-10 -4 -10 -10z"/>
<path d="M3000 2208 c0 -4 24 -7 53 -7 54 1 49 5 -15 11 -21 2 -38 0 -38 -4z"/>
<path d="M3233 2213 c26 -2 67 -2 90 0 23 2 2 3 -48 3 -49 0 -68 -1 -42 -3z"/>
<path d="M4953 3347 c-61 -23 -114 -45 -118 -49 -3 -3 3 -150 15 -327 15 -243
18 -327 9 -344 -6 -12 -77 -88 -156 -168 l-146 -147 -33 14 c-38 16 -131 18
-168 4 -30 -11 -49 -44 -41 -70 6 -19 49 -36 104 -42 39 -5 36 -26 -6 -38 -21
-6 -74 -14 -118 -18 l-80 -7 -3 -33 c-2 -23 2 -38 14 -46 12 -9 14 -15 6 -20
-7 -4 -12 -20 -12 -36 0 -32 23 -50 64 -50 19 0 26 -5 26 -19 0 -41 75 -42
156 -1 83 41 163 125 179 187 11 44 22 56 121 140 l109 92 8 -102 c4 -56 6
-198 5 -315 l-3 -212 33 -11 33 -11 -8 -67 c-4 -36 -8 -109 -7 -161 1 -87 5
-109 52 -249 29 -84 52 -157 52 -160 0 -4 -26 -6 -57 -3 -106 6 -193 -62 -193
-154 0 -35 5 -47 30 -67 42 -36 120 -51 237 -45 71 3 112 11 147 26 l49 22 -6
83 c-3 55 -20 134 -52 242 -61 207 -64 241 -35 355 13 49 28 90 33 90 5 0 68
-27 140 -61 73 -33 144 -66 159 -72 l28 -11 -1 -131 c-1 -168 16 -235 135
-507 l16 -38 -29 6 c-68 14 -166 -37 -200 -103 -18 -35 -14 -98 8 -117 68 -62
298 -60 406 3 57 32 46 107 -55 366 -33 85 -62 172 -66 193 -3 21 4 79 15 136
12 54 21 100 21 102 0 9 119 78 146 84 27 6 32 4 41 -21 13 -33 37 -37 70 -14
20 14 22 14 28 -5 15 -48 81 -8 123 75 40 82 54 231 29 305 -12 32 -10 43 21
118 79 199 103 372 62 439 -23 38 -82 99 -203 208 l-87 80 -7 178 -6 177 -56
34 c-90 54 -247 130 -371 179 -135 53 -453 157 -478 156 -9 0 -67 -19 -129
-42z m332 -34 c179 -58 269 -92 400 -150 97 -43 265 -134 265 -143 0 -4 -43
-28 -96 -53 l-95 -47 -138 70 c-177 88 -351 161 -573 240 -98 35 -176 65 -174
67 15 15 205 80 221 76 11 -3 97 -30 190 -60z m-278 -84 c214 -74 375 -140
569 -234 l171 -83 6 -84 c17 -208 4 -1012 -21 -1340 l-7 -88 -165 81 c-215
105 -413 190 -548 235 l-109 36 -6 416 c-3 230 -13 518 -21 642 -24 366 -29
470 -23 470 3 0 72 -23 154 -51z m966 -296 c8 -82 9 -243 2 -243 -3 0 -19 15
-35 33 -16 17 -30 27 -30 20 0 -14 70 -86 228 -232 148 -137 167 -168 158
-261 -7 -76 -42 -205 -86 -310 -29 -71 -30 -78 -18 -120 18 -67 13 -185 -11
-255 -24 -69 -70 -130 -97 -130 -29 0 -28 29 5 99 17 35 31 70 30 77 0 8 -11
-10 -25 -40 -36 -79 -70 -121 -100 -121 -20 0 -24 5 -24 28 0 15 12 44 26 63
30 40 59 94 68 129 4 14 -9 -4 -29 -40 -61 -108 -114 -152 -143 -117 -15 17 4
57 77 156 33 46 61 89 61 94 0 6 -6 3 -12 -6 -19 -25 -110 -87 -120 -81 -32
20 30 121 101 164 23 14 48 30 56 35 18 13 70 213 83 320 11 92 11 91 -78 160
-62 48 -150 95 -177 95 -10 0 9 -13 41 -27 l59 -27 -6 -274 -6 -274 -36 -39
c-43 -48 -70 -102 -62 -123 9 -23 36 -31 58 -17 25 15 24 4 -5 -33 -37 -50
-57 -94 -54 -123 3 -23 -6 -32 -60 -66 -34 -22 -64 -38 -66 -36 -2 2 3 123 11
269 16 286 22 1106 10 1181 l-8 46 98 46 c54 25 101 46 104 46 3 1 9 -29 12
-66z m-1094 -459 l1 -81 -77 -63 c-43 -35 -95 -79 -116 -99 -32 -30 -39 -33
-48 -21 -7 11 -8 7 -3 -13 4 -17 0 -45 -10 -72 -39 -101 -234 -223 -290 -182
-27 20 -14 34 60 68 35 15 64 30 64 33 0 5 -97 -30 -122 -44 -28 -16 -95 -12
-102 5 -14 36 32 64 109 66 17 0 39 4 50 9 12 5 -15 6 -65 3 -73 -5 -87 -3
-100 12 -27 33 -1 49 91 56 48 3 98 13 116 22 18 10 40 17 49 17 10 0 3 9 -20
25 -23 16 -51 25 -75 25 -75 0 -83 56 -11 79 43 14 106 8 162 -14 19 -7 146
102 258 221 76 81 77 80 79 -52z m1195 -151 l58 -46 -6 -61 c-4 -34 -21 -120
-38 -192 -31 -129 -32 -132 -66 -148 -19 -9 -35 -16 -37 -14 -5 7 19 508 24
508 3 0 32 -21 65 -47z m-1000 -644 c48 -17 88 -34 90 -38 3 -4 -7 -49 -21
-101 -30 -113 -26 -153 32 -340 37 -120 65 -251 65 -302 0 -24 -6 -32 -35 -44
-105 -43 -297 -38 -367 10 -29 20 -33 27 -31 64 2 51 31 94 77 116 38 18 127
21 156 6 10 -6 21 -7 23 -3 3 5 -20 82 -51 173 l-57 165 0 135 c0 135 7 190
25 190 5 0 47 -14 94 -31z m573 -256 c54 -27 99 -48 101 -49 1 0 -7 -46 -19
-102 l-20 -101 29 -83 c16 -46 49 -132 72 -192 23 -60 48 -141 57 -180 l14
-71 -26 -22 c-79 -68 -327 -77 -398 -14 -15 12 -17 24 -12 56 13 86 96 142
195 133 27 -3 50 -3 50 0 0 3 -27 70 -60 150 -75 179 -100 273 -100 371 0 73
9 151 16 151 2 0 48 -21 101 -47z"/>
<path d="M5105 3078 c27 -32 51 -58 53 -58 8 0 -38 57 -69 85 -21 19 -15 9 16
-27z"/>
<path d="M5039 2943 l-34 -38 37 34 c37 34 38 34 54 15 14 -18 15 -18 4 4 -14
30 -20 28 -61 -15z"/>
<path d="M5500 2925 c-19 -7 -28 -13 -20 -13 8 0 31 6 50 13 19 7 28 13 20 13
-8 0 -31 -6 -50 -13z"/>
<path d="M5137 2879 l28 -51 32 37 c18 21 35 36 36 34 2 -2 19 -31 37 -64 18
-33 35 -62 37 -64 2 -3 20 12 41 32 l38 37 34 -70 c19 -38 37 -70 40 -70 3 0
19 14 35 30 16 17 34 30 40 30 6 0 21 -18 34 -40 12 -22 25 -40 28 -40 4 0
-42 85 -54 99 -2 3 -21 -12 -42 -33 l-39 -39 -36 72 c-20 39 -40 71 -45 71 -5
0 -22 -17 -39 -37 l-29 -37 -37 67 c-21 37 -42 67 -47 67 -4 0 -18 -13 -31
-30 -12 -16 -25 -30 -30 -30 -4 0 -17 18 -28 40 -11 22 -23 40 -26 40 -3 0 7
-23 23 -51z"/>
<path d="M5060 2785 c0 -7 301 -157 306 -153 2 2 -66 38 -151 81 -85 42 -155
75 -155 72z"/>
<path d="M5606 2657 c3 -10 9 -15 12 -12 3 3 0 11 -7 18 -10 9 -11 8 -5 -6z"/>
<path d="M5445 2595 c39 -19 75 -34 80 -34 6 0 -23 16 -64 35 -40 19 -76 34
-80 33 -3 0 26 -16 64 -34z"/>
<path d="M5043 2532 c-1 -50 2 -71 7 -62 12 18 13 127 3 133 -5 3 -9 -29 -10
-71z"/>
<path d="M5140 2562 c0 -4 8 -8 18 -8 9 -1 26 -4 37 -8 13 -5 11 -2 -5 8 -27
17 -50 20 -50 8z"/>
<path d="M5550 2550 c8 -5 20 -10 25 -10 6 0 3 5 -5 10 -8 5 -19 10 -25 10 -5
0 -3 -5 5 -10z"/>
<path d="M5240 2525 c14 -8 30 -14 35 -14 6 0 -1 6 -15 14 -14 8 -29 14 -35
14 -5 0 1 -6 15 -14z"/>
<path d="M5180 2502 c0 -4 10 -9 22 -9 18 -2 20 0 8 7 -18 12 -30 13 -30 2z"/>
<path d="M5320 2490 c19 -11 40 -19 45 -19 6 0 -6 8 -25 19 -19 11 -39 19 -45
19 -5 0 6 -8 25 -19z"/>
<path d="M5242 2455 c-6 -14 -16 -25 -22 -25 -5 0 -10 -4 -10 -10 0 -5 4 -10
8 -10 10 0 46 60 40 66 -3 2 -10 -7 -16 -21z"/>
<path d="M5420 2445 c25 -13 50 -24 55 -24 6 0 -10 11 -35 24 -25 13 -49 24
-55 24 -5 0 10 -11 35 -24z"/>
<path d="M5080 2450 c0 -5 5 -10 10 -10 6 0 10 5 10 10 0 6 -4 10 -10 10 -5 0
-10 -4 -10 -10z"/>
<path d="M5297 2441 c4 -16 8 -17 18 -8 9 9 10 14 1 19 -19 13 -24 9 -19 -11z"/>
<path d="M5350 2430 c12 -7 13 -13 3 -27 -6 -10 -16 -17 -22 -16 -6 2 -8 -4
-5 -12 8 -20 9 -20 35 16 18 26 19 33 8 40 -8 5 -18 9 -24 9 -5 0 -3 -5 5 -10z"/>
<path d="M5140 2411 c0 -8 111 -64 115 -59 2 2 -23 17 -56 34 -32 17 -59 28
-59 25z"/>
<path d="M5540 2390 c30 -16 60 -29 65 -29 6 0 -15 13 -45 29 -30 16 -59 29
-65 29 -5 0 15 -13 45 -29z"/>
<path d="M5410 2395 c0 -9 6 -12 15 -9 8 4 15 7 15 9 0 2 -7 5 -15 9 -9 3 -15
0 -15 -9z"/>
<path d="M5464 2377 c16 -12 16 -14 -4 -40 -12 -15 -17 -27 -11 -27 6 0 18 14
27 31 13 26 14 33 2 40 -21 14 -34 10 -14 -4z"/>
<path d="M5520 2351 c0 -8 41 -23 47 -17 2 1 -8 8 -22 14 -14 6 -25 8 -25 3z"/>
<path d="M5642 2330 c0 -14 2 -19 5 -12 2 6 2 18 0 25 -3 6 -5 1 -5 -13z"/>
<path d="M5320 2320 c19 -11 40 -19 45 -19 6 0 -6 8 -25 19 -19 11 -39 19 -45
19 -5 0 6 -8 25 -19z"/>
<path d="M4980 2316 c0 -9 8 -12 25 -8 17 3 25 0 25 -10 0 -7 -11 -30 -25 -50
-30 -44 -31 -54 -6 -68 25 -13 51 -13 51 0 0 6 -9 10 -19 10 -31 0 -32 14 -6
51 25 33 25 65 1 81 -18 13 -46 9 -46 -6z"/>
<path d="M5585 2320 c3 -5 1 -19 -6 -32 -11 -21 -12 -21 -25 -3 -8 10 -14 14
-14 9 0 -6 6 -18 13 -28 13 -17 15 -16 35 15 20 33 21 49 1 49 -6 0 -7 -4 -4
-10z"/>
<path d="M5410 2280 c19 -11 40 -19 45 -19 6 0 -6 8 -25 19 -19 11 -39 19 -45
19 -5 0 6 -8 25 -19z"/>
<path d="M5140 2197 l0 -83 65 -32 c36 -18 69 -32 73 -32 4 1 -24 17 -61 36
l-68 35 3 80 c2 43 0 79 -4 79 -5 0 -8 -37 -8 -83z"/>
<path d="M5190 2255 c14 -8 30 -14 35 -14 6 0 -1 6 -15 14 -14 8 -29 14 -35
14 -5 0 1 -6 15 -14z"/>
<path d="M5490 2245 c14 -8 30 -14 35 -14 6 0 -1 6 -15 14 -14 8 -29 14 -35
14 -5 0 1 -6 15 -14z"/>
<path d="M5280 2215 c25 -13 50 -24 55 -24 6 0 -10 11 -35 24 -25 13 -49 24
-55 24 -5 0 10 -11 35 -24z"/>
<path d="M5570 2210 c19 -11 40 -19 45 -19 6 0 -6 8 -25 19 -19 11 -39 19 -45
19 -5 0 6 -8 25 -19z"/>
<path d="M5638 2205 c-3 -14 -1 -25 3 -25 5 0 9 11 9 25 0 14 -2 25 -4 25 -2
0 -6 -11 -8 -25z"/>
<path d="M5180 2199 c0 -5 4 -8 9 -4 10 6 61 -14 61 -25 0 -3 -9 -16 -20 -28
-12 -12 -16 -22 -11 -22 10 0 41 39 41 52 0 9 -54 38 -70 38 -5 0 -10 -5 -10
-11z"/>
<path d="M5390 2165 c25 -13 50 -24 55 -24 6 0 -10 11 -35 24 -25 13 -49 24
-55 24 -5 0 10 -11 35 -24z"/>
<path d="M5080 2156 c0 -9 5 -16 10 -16 6 0 10 4 10 9 0 6 -4 13 -10 16 -5 3
-10 -1 -10 -9z"/>
<path d="M5290 2160 c0 -6 7 -10 15 -10 8 0 15 2 15 4 0 2 -7 6 -15 10 -8 3
-15 1 -15 -4z"/>
<path d="M5356 2125 c7 -17 -14 -48 -27 -39 -5 3 -6 -3 -2 -12 6 -15 8 -15 25
6 20 25 23 46 8 55 -6 3 -7 -1 -4 -10z"/>
<path d="M5500 2115 c25 -13 50 -24 55 -24 6 0 -10 11 -35 24 -25 13 -49 24
-55 24 -5 0 10 -11 35 -24z"/>
<path d="M5411 2093 c0 -10 3 -13 5 -6 4 9 11 9 30 1 26 -12 29 -24 14 -48 -9
-13 -11 -13 -20 0 -5 8 -10 11 -10 5 0 -13 18 -41 22 -35 15 20 39 62 36 65
-6 5 -67 35 -73 35 -3 0 -5 -8 -4 -17z"/>
<path d="M5610 2065 c14 -7 28 -24 31 -37 7 -23 7 -23 8 3 1 18 -6 29 -24 37
-36 16 -46 14 -15 -3z"/>
<path d="M5530 2050 c8 -5 20 -10 25 -10 6 0 3 5 -5 10 -8 5 -19 10 -25 10 -5
0 -3 -5 5 -10z"/>
<path d="M5380 2000 c30 -16 60 -29 65 -29 6 0 -15 13 -45 29 -30 16 -59 29
-65 29 -5 0 15 -13 45 -29z"/>
<path d="M5582 2000 c-8 -17 -18 -27 -24 -24 -7 5 -8 2 -3 -6 6 -10 12 -8 27
9 10 13 18 29 18 37 0 21 -4 17 -18 -16z"/>
<path d="M4990 2010 c0 -5 11 -10 25 -10 32 0 32 -18 -1 -30 -30 -12 -23 -30
12 -30 17 0 24 -5 24 -20 0 -19 -10 -24 -39 -21 -19 3 -7 -23 13 -27 9 -2 23
2 31 8 17 15 20 56 4 66 -6 3 -9 14 -6 24 7 26 -11 50 -38 50 -14 0 -25 -4
-25 -10z"/>
<path d="M5140 1968 c0 -12 3 -17 8 -12 4 5 11 12 15 15 5 3 2 9 -7 12 -12 5
-16 0 -16 -15z"/>
<path d="M5200 1955 c14 -8 30 -14 35 -14 6 0 -1 6 -15 14 -14 8 -29 14 -35
14 -5 0 1 -6 15 -14z"/>
<path d="M5490 1950 c19 -11 40 -19 45 -19 6 0 -6 8 -25 19 -19 11 -39 19 -45
19 -5 0 6 -8 25 -19z"/>
<path d="M5180 1915 c0 -9 6 -12 15 -9 8 4 15 7 15 9 0 2 -7 5 -15 9 -9 3 -15
0 -15 -9z"/>
<path d="M5300 1910 c19 -11 40 -19 45 -19 6 0 -6 8 -25 19 -19 11 -39 19 -45
19 -5 0 6 -8 25 -19z"/>
<path d="M5642 1905 c0 -16 2 -22 5 -12 2 9 2 23 0 30 -3 6 -5 -1 -5 -18z"/>
<path d="M5590 1905 c14 -8 30 -14 35 -14 6 0 -1 6 -15 14 -14 8 -29 14 -35
14 -5 0 1 -6 15 -14z"/>
<path d="M5245 1890 c3 -9 -4 -25 -15 -37 -11 -12 -16 -24 -12 -27 5 -3 16 9
26 25 14 24 15 34 7 42 -9 9 -11 8 -6 -3z"/>
<path d="M5390 1870 c19 -11 40 -19 45 -19 6 0 -6 8 -25 19 -19 11 -39 19 -45
19 -5 0 6 -8 25 -19z"/>
<path d="M5080 1856 c0 -9 5 -16 10 -16 6 0 10 4 10 9 0 6 -4 13 -10 16 -5 3
-10 -1 -10 -9z"/>
<path d="M5305 1860 c27 -12 43 -12 25 0 -8 5 -22 9 -30 9 -10 0 -8 -3 5 -9z"/>
<path d="M5140 1836 c0 -8 4 -17 9 -20 5 -4 7 3 4 14 -6 23 -13 26 -13 6z"/>
<path d="M5356 1835 c7 -18 -14 -47 -27 -39 -5 3 -9 1 -9 -5 0 -21 19 -20 34
1 18 25 21 58 6 58 -5 0 -7 -7 -4 -15z"/>
<path d="M5510 1815 c25 -13 50 -24 55 -24 6 0 -10 11 -35 24 -25 13 -49 24
-55 24 -5 0 10 -11 35 -24z"/>
<path d="M5411 1803 c0 -11 3 -13 6 -6 3 10 11 9 34 -2 25 -14 27 -18 17 -35
-14 -22 -28 -26 -28 -8 0 6 -2 9 -5 6 -7 -7 5 -38 14 -38 8 0 45 60 39 64 -6
6 -67 36 -73 36 -3 0 -5 -8 -4 -17z"/>
<path d="M5260 1760 c41 -21 80 -39 85 -39 6 0 -24 18 -65 39 -41 21 -79 39
-85 39 -5 0 24 -18 65 -39z"/>
<path d="M5618 1768 c12 -6 23 -20 23 -32 1 -19 2 -20 6 -2 5 20 -20 47 -41
45 -6 0 -1 -5 12 -11z"/>
<path d="M5420 1685 c25 -13 50 -24 55 -24 6 0 -10 11 -35 24 -25 13 -49 24
-55 24 -5 0 10 -11 35 -24z"/>
<path d="M5510 1645 c14 -8 30 -14 35 -14 6 0 -1 6 -15 14 -14 8 -29 14 -35
14 -5 0 1 -6 15 -14z"/>
<path d="M5580 1615 c14 -8 30 -14 35 -14 6 0 -1 6 -15 14 -14 8 -29 14 -35
14 -5 0 1 -6 15 -14z"/>
<path d="M5635 1600 c-3 -5 -1 -10 4 -10 6 0 11 5 11 10 0 6 -2 10 -4 10 -3 0
-8 -4 -11 -10z"/>
<path d="M1150 3272 c-169 -72 -382 -183 -497 -257 -144 -94 -253 -178 -258
-200 -3 -11 -12 -76 -20 -144 l-15 -123 -65 -75 c-162 -185 -239 -357 -219
-491 10 -67 46 -175 94 -278 36 -78 39 -92 29 -116 -11 -27 -9 -55 6 -90 5
-14 2 -18 -12 -18 -29 0 -43 -20 -43 -62 0 -70 50 -133 96 -122 13 3 33 -2 48
-12 22 -14 31 -15 52 -5 33 15 80 2 154 -42 50 -30 55 -38 72 -92 10 -33 25
-99 34 -146 l16 -86 -100 -194 c-55 -107 -107 -218 -116 -248 -14 -49 -14 -57
1 -88 47 -100 289 -144 407 -75 29 17 31 22 31 75 -1 92 -57 149 -156 157
l-59 5 61 85 c80 112 125 190 145 251 17 51 17 100 -2 319 l-6 75 143 87 144
88 19 -23 c25 -30 84 -149 107 -214 21 -61 22 -53 -56 -293 -30 -91 -58 -196
-63 -234 -8 -64 -7 -70 15 -96 37 -44 111 -65 228 -65 82 1 107 4 140 22 61
32 79 56 71 96 -16 87 -90 142 -192 142 l-60 0 67 140 c37 77 74 165 83 197
21 69 12 111 -63 326 -28 79 -51 145 -51 147 0 2 16 13 35 25 l35 22 -6 166
c-9 241 26 865 50 889 4 4 34 -20 67 -54 74 -74 78 -88 79 -305 l0 -157 -44
-20 c-52 -22 -89 -82 -85 -134 2 -18 -3 -42 -9 -54 -17 -30 -15 -61 7 -110 21
-46 45 -63 90 -63 16 0 33 -5 37 -11 13 -22 151 10 176 41 47 58 49 193 3 285
l-27 55 17 200 c20 235 17 261 -49 360 -24 36 -84 108 -134 161 l-91 95 23
110 c22 100 22 110 7 121 -33 26 -214 113 -234 113 -12 0 -83 -26 -157 -58z
m316 -29 l65 -38 -43 -19 c-295 -132 -526 -262 -711 -402 -100 -75 -102 -76
-139 -65 -20 6 -79 32 -129 58 l-93 46 35 29 c56 48 277 192 386 252 115 63
185 96 352 166 l115 48 48 -19 c27 -11 78 -36 114 -56z m58 -120 c-22 -94 -63
-348 -79 -493 -26 -233 -35 -416 -35 -702 l0 -277 -42 -29 c-24 -16 -162 -101
-308 -189 -146 -88 -297 -180 -336 -206 l-72 -46 -6 52 c-31 271 -32 984 -2
1217 30 233 31 236 95 287 84 66 273 192 389 257 115 65 368 185 393 185 15 1
15 -5 3 -56z m87 -271 c52 -54 111 -127 132 -162 34 -59 37 -71 37 -141 0 -42
-7 -147 -15 -233 -15 -151 -14 -159 3 -184 30 -43 42 -90 42 -164 0 -76 -18
-131 -48 -147 -31 -17 -44 -14 -34 7 5 9 12 35 15 57 l6 40 -17 -47 c-28 -76
-69 -106 -110 -80 -9 7 -8 13 8 27 19 17 46 92 37 101 -3 3 -8 -8 -11 -23 -32
-129 -166 -105 -166 30 0 41 12 54 30 32 7 -8 21 -15 32 -15 14 0 18 -5 14
-15 -3 -8 -1 -15 3 -15 13 0 31 58 30 94 -1 28 -2 28 -12 -11 -11 -47 -26 -54
-57 -23 -32 32 -27 91 10 134 17 19 44 37 60 41 26 6 29 11 36 62 4 31 4 122
0 202 -8 167 -8 166 -102 256 l-63 60 16 108 c9 59 20 107 23 107 4 0 50 -44
101 -98z m-991 -142 c49 -19 50 -20 40 -65 -20 -89 -40 -285 -51 -489 -10
-205 -4 -484 18 -864 l6 -113 -101 57 -101 57 24 29 c14 16 25 38 25 48 0 11
8 23 18 29 26 15 23 113 -7 173 -18 38 -32 52 -75 73 l-53 26 -6 127 c-4 70
-7 190 -7 268 l0 141 36 49 35 49 -46 -49 c-57 -61 -125 -192 -125 -242 0 -47
32 -172 70 -272 28 -71 35 -81 70 -97 76 -34 111 -95 109 -189 l-1 -51 -14 59
c-8 32 -21 68 -29 79 -19 27 -19 19 0 -26 23 -56 20 -137 -8 -178 -12 -19 -33
-35 -46 -37 -21 -3 -22 -2 -8 20 20 32 29 90 19 119 -8 19 -10 12 -14 -38 -5
-70 -33 -113 -74 -113 -34 0 -37 14 -13 59 11 22 23 60 25 83 l4 43 -13 -45
c-26 -87 -60 -126 -101 -116 -49 12 -82 102 -53 141 13 16 18 18 41 7 18 -8
24 -17 20 -29 -5 -16 -4 -16 10 1 21 27 20 43 -4 56 -33 17 -43 56 -24 91 14
29 13 33 -30 127 -91 200 -113 309 -81 417 37 130 109 238 259 395 100 103
118 128 44 61 -22 -20 -28 -21 -28 -9 0 17 17 151 26 205 l5 32 87 -43 c48
-23 103 -49 122 -56z m-282 -857 l-3 -108 -27 85 c-16 48 -33 111 -38 142 -10
51 -8 61 15 114 45 102 50 100 53 -19 1 -59 1 -155 0 -214z m1129 -645 c7 -59
-15 -123 -103 -300 -69 -137 -77 -166 -45 -148 11 5 42 10 69 10 91 0 172 -66
172 -142 0 -99 -302 -125 -406 -34 l-27 23 12 73 c6 40 38 155 71 256 33 101
60 195 60 209 0 36 -53 170 -95 239 -19 32 -35 61 -35 65 0 3 46 34 103 68
l102 61 58 -166 c32 -92 61 -188 64 -214z m-641 -134 c7 -168 7 -171 -18 -226
-27 -59 -102 -175 -174 -269 -46 -60 -47 -74 -7 -58 56 21 147 -7 178 -55 20
-31 35 -90 28 -115 -13 -51 -168 -76 -279 -46 -70 19 -144 75 -144 109 0 41
48 153 133 311 104 193 102 185 63 351 -15 58 -26 107 -26 110 0 2 15 -3 33
-12 l33 -16 79 51 c43 28 82 48 87 43 4 -4 11 -84 14 -178z"/>
<path d="M1252 2978 c-14 -18 -53 -98 -48 -98 2 0 18 25 34 55 30 54 34 67 14
43z"/>
<path d="M1280 2810 c0 -5 5 -10 12 -10 6 0 23 -10 37 -22 21 -19 20 -17 -3
10 -30 32 -46 40 -46 22z"/>
<path d="M1240 2720 l-24 -50 -32 31 c-20 19 -34 27 -38 20 -4 -6 -2 -11 5
-11 7 0 25 -12 40 -26 l27 -26 27 52 c14 29 25 54 22 56 -2 2 -14 -19 -27 -46z"/>
<path d="M878 2733 c6 -2 18 -2 25 0 6 3 1 5 -13 5 -14 0 -19 -2 -12 -5z"/>
<path d="M928 2723 c6 -2 18 -2 25 0 6 3 1 5 -13 5 -14 0 -19 -2 -12 -5z"/>
<path d="M1089 2619 l-21 -41 -29 28 c-16 15 -31 26 -33 23 -9 -10 -36 -69
-32 -69 3 0 13 14 22 31 l16 31 29 -28 c16 -15 31 -26 33 -23 9 10 46 89 41
89 -2 0 -14 -19 -26 -41z"/>
<path d="M1167 2510 c-133 -88 -190 -128 -147 -105 40 22 300 195 300 200 0 7
10 13 -153 -95z"/>
<path d="M865 2529 c-5 -7 -4 -10 2 -6 6 4 21 -5 33 -18 30 -31 34 -31 48 3
12 27 12 27 -5 4 l-16 -23 -27 26 c-20 20 -30 23 -35 14z"/>
<path d="M820 2450 c-17 -33 -28 -60 -25 -60 2 0 18 27 35 60 17 33 28 60 25
60 -2 0 -18 -27 -35 -60z"/>
<path d="M1243 2412 c-50 -31 -95 -61 -100 -66 -8 -9 3 -3 121 68 33 19 63 33
68 30 4 -3 8 2 8 10 0 9 -1 16 -2 15 -2 0 -44 -26 -95 -57z"/>
<path d="M957 2376 c-48 -29 -61 -43 -22 -23 31 16 74 46 65 46 -3 0 -22 -10
-43 -23z"/>
<path d="M1239 2363 c-13 -16 -12 -17 3 -4 10 7 25 11 33 7 8 -3 15 -1 15 4 0
17 -37 11 -51 -7z"/>
<path d="M868 2324 c-38 -20 -36 -28 2 -9 17 9 30 18 30 20 0 7 -1 6 -32 -11z"/>
<path d="M1093 2319 c-35 -22 -46 -37 -15 -20 22 13 58 40 52 41 -3 0 -20 -10
-37 -21z"/>
<path d="M1221 2313 c-1 -16 5 -23 17 -23 11 0 27 10 38 23 19 22 19 22 -2 5
-11 -10 -26 -18 -32 -18 -6 0 -13 8 -15 18 -4 13 -5 11 -6 -5z"/>
<path d="M1139 2303 c-13 -16 -12 -17 3 -5 9 8 22 11 28 7 5 -3 10 -1 10 4 0
17 -26 13 -41 -6z"/>
<path d="M1315 2295 c-11 -11 -31 -28 -45 -38 -25 -18 -25 -18 5 -2 45 25 67
43 64 52 -2 4 -13 -1 -24 -12z"/>
<path d="M1013 2269 c-35 -22 -46 -37 -15 -20 22 13 58 40 52 41 -3 0 -20 -10
-37 -21z"/>
<path d="M1040 2249 c-12 -8 -10 -9 7 -4 18 5 22 1 26 -22 l5 -28 -2 29 c-1
33 -13 41 -36 25z"/>
<path d="M1110 2247 c0 -26 29 -33 48 -11 16 17 16 17 -2 4 -16 -13 -20 -12
-32 5 -13 17 -14 17 -14 2z"/>
<path d="M912 2205 c-38 -26 -52 -41 -51 -58 l2 -22 4 22 c2 12 25 35 54 53
42 28 57 40 46 40 -1 0 -26 -16 -55 -35z"/>
<path d="M1015 2219 c-4 -6 -5 -12 -2 -15 2 -3 7 2 10 11 7 17 1 20 -8 4z"/>
<path d="M1173 2199 c-35 -22 -46 -37 -15 -20 22 13 58 40 52 41 -3 0 -20 -10
-37 -21z"/>
<path d="M1054 2179 c-3 -6 -15 -9 -25 -6 -11 3 -19 1 -19 -4 0 -15 36 -10 50
6 7 8 10 15 7 15 -3 0 -9 -5 -13 -11z"/>
<path d="M920 2163 c-12 -15 -12 -16 0 -5 21 18 38 15 43 -10 5 -20 5 -20 4 2
-2 30 -29 38 -47 13z"/>
<path d="M1093 2149 c-35 -22 -46 -37 -15 -20 22 13 58 40 52 41 -3 0 -20 -10
-37 -21z"/>
<path d="M1314 2158 c-4 -6 -3 -8 4 -4 6 3 13 -2 15 -11 4 -14 5 -13 6 5 1 23
-13 30 -25 10z"/>
<path d="M1220 2104 c-41 -25 -79 -51 -85 -57 -5 -6 1 -4 15 4 127 77 150 91
150 95 0 6 -1 6 -80 -42z"/>
<path d="M901 2118 c-1 -21 4 -28 17 -28 11 0 13 3 6 8 -7 4 -14 16 -17 27 -4
15 -5 14 -6 -7z"/>
<path d="M1013 2099 c-35 -22 -46 -37 -15 -20 22 13 58 40 52 41 -3 0 -20 -10
-37 -21z"/>
<path d="M774 2032 c-1 -67 0 -71 7 -32 10 59 11 110 2 110 -5 0 -9 -35 -9
-78z"/>
<path d="M1244 2068 l-19 -23 22 18 c12 11 27 16 32 12 6 -3 11 -1 11 4 0 19
-26 12 -46 -11z"/>
<path d="M944 2054 c-18 -14 -18 -15 4 -4 12 6 22 13 22 15 0 8 -5 6 -26 -11z"/>
<path d="M861 2027 c-1 -27 -1 -27 29 -12 17 9 30 18 30 21 0 2 -9 0 -19 -6
-26 -13 -29 -13 -34 8 -3 10 -5 6 -6 -11z"/>
<path d="M1329 2022 c-3 -20 -2 -29 4 -23 5 5 7 19 5 32 -3 20 -5 19 -9 -9z"/>
<path d="M1094 2024 c-18 -14 -18 -15 4 -4 12 6 22 13 22 15 0 8 -5 6 -26 -11z"/>
<path d="M1221 2017 c-1 -23 27 -34 42 -16 7 8 8 11 3 7 -17 -13 -34 -9 -39
10 -4 16 -5 16 -6 -1z"/>
<path d="M1150 2016 c0 -2 7 -6 15 -10 8 -3 15 -1 15 4 0 6 -7 10 -15 10 -8 0
-15 -2 -15 -4z"/>
<path d="M806 1994 c-4 -9 -4 -19 -1 -22 2 -3 7 3 11 12 4 9 4 19 1 22 -2 3
-7 -3 -11 -12z"/>
<path d="M1015 1979 c-27 -17 -54 -36 -60 -42 -11 -11 58 28 96 55 40 28 17
20 -36 -13z"/>
<path d="M1238 1947 c-61 -39 -106 -73 -68 -52 41 23 140 87 140 91 0 6 -2 6
-72 -39z"/>
<path d="M1030 1943 c-12 -15 -12 -16 0 -5 20 17 29 15 40 -10 10 -23 10 -23
7 2 -3 30 -29 37 -47 13z"/>
<path d="M1110 1955 c0 -26 17 -37 39 -26 11 7 21 14 21 17 0 2 -9 0 -19 -6
-16 -8 -22 -6 -30 7 -6 10 -10 14 -11 8z"/>
<path d="M897 1905 l-37 -26 0 -85 c0 -82 1 -84 20 -74 23 13 27 22 5 14 -13
-5 -15 6 -15 69 0 75 0 75 35 97 19 12 35 24 35 26 0 7 -4 5 -43 -21z"/>
<path d="M930 1879 c-13 -9 -13 -10 1 -6 9 3 22 0 29 -6 10 -9 12 -9 8 2 -6
20 -20 23 -38 10z"/>
<path d="M1032 1821 c-94 -57 -156 -99 -117 -79 34 17 235 140 235 144 0 6 2
7 -118 -65z"/>
<path d="M1010 1870 c0 -6 7 -10 15 -10 8 0 15 2 15 4 0 2 -7 6 -15 10 -8 3
-15 1 -15 -4z"/>
<path d="M1326 1872 c-2 -4 -1 -14 5 -22 7 -12 9 -10 9 8 0 23 -5 28 -14 14z"/>
<path d="M1284 1844 c-18 -14 -18 -15 4 -4 12 6 22 13 22 15 0 8 -5 6 -26 -11z"/>
<path d="M940 1815 c-7 -9 -19 -14 -27 -11 -7 3 -13 1 -13 -4 0 -17 26 -11 45
10 10 11 16 20 13 20 -3 0 -11 -7 -18 -15z"/>
<path d="M1234 1814 c-18 -14 -18 -15 4 -4 12 6 22 13 22 15 0 8 -5 6 -26 -11z"/>
<path d="M732 1777 c-12 -13 -22 -27 -22 -31 0 -5 9 2 19 15 31 39 34 16 6
-57 -14 -37 -24 -72 -22 -77 1 -5 17 3 35 18 18 15 30 30 27 33 -2 3 -14 -3
-25 -13 -25 -23 -25 -18 0 45 33 83 25 113 -18 67z"/>
<path d="M1155 1769 c-27 -17 -54 -36 -60 -42 -11 -11 58 28 96 55 40 28 17
20 -36 -13z"/>
<path d="M1144 1719 c-5 -8 -3 -9 6 -4 8 5 18 1 27 -11 14 -19 15 -19 11 1 -4
23 -33 32 -44 14z"/>
<path d="M1043 1699 c-35 -22 -46 -37 -15 -20 22 13 58 40 52 41 -3 0 -20 -10
-37 -21z"/>
<path d="M806 1695 c-3 -8 -1 -15 4 -15 6 0 10 7 10 15 0 8 -2 15 -4 15 -2 0
-6 -7 -10 -15z"/>
<path d="M1292 1686 c-44 -31 -55 -45 -17 -21 52 32 70 45 60 45 -6 -1 -25
-11 -43 -24z"/>
<path d="M1113 1661 c3 -31 17 -36 42 -16 19 16 19 16 -3 5 -19 -9 -24 -8 -32
12 l-10 23 3 -24z"/>
<path d="M963 1649 c-35 -22 -46 -37 -15 -20 22 13 58 40 52 41 -3 0 -20 -10
-37 -21z"/>
<path d="M1056 1663 c7 -4 14 -17 17 -28 5 -16 5 -15 4 4 -1 14 -9 26 -17 28
-10 3 -11 2 -4 -4z"/>
<path d="M1195 1624 c-51 -34 -69 -52 -29 -29 35 20 82 54 74 55 -3 0 -23 -12
-45 -26z"/>
<path d="M888 1602 c-21 -13 -28 -24 -27 -47 2 -27 2 -27 6 -5 2 14 16 35 31
47 32 27 28 29 -10 5z"/>
<path d="M919 1583 c-13 -15 -12 -15 9 -2 20 12 24 12 32 -1 8 -13 10 -12 10
3 0 22 -33 23 -51 0z"/>
<path d="M1010 1578 c0 -14 18 -17 34 -5 14 11 13 12 -9 12 -14 0 -25 -3 -25
-7z"/>
<path d="M1075 1549 c-27 -17 -54 -36 -60 -42 -11 -11 58 28 96 55 40 28 17
20 -36 -13z"/>
<path d="M944 1529 c-3 -6 -15 -9 -25 -6 -11 3 -19 1 -19 -3 0 -19 19 -19 41
0 13 11 21 19 17 20 -4 0 -10 -5 -14 -11z"/>
<path d="M741 1484 c-27 -34 -28 -54 -1 -23 23 29 28 5 5 -25 -21 -28 -19 -42
3 -23 39 36 44 9 7 -39 -28 -37 -33 -53 -9 -33 33 28 61 119 35 119 -4 0 -6
11 -3 25 6 33 -11 32 -37 -1z"/>
<path d="M974 1484 c-18 -14 -18 -15 4 -4 12 6 22 13 22 15 0 8 -5 6 -26 -11z"/>
<path d="M861 1442 l-1 -34 38 23 c50 30 67 48 19 21 -47 -27 -45 -27 -50 1
-3 15 -5 12 -6 -11z"/>
<path d="M806 1401 c-4 -7 -5 -15 -2 -18 9 -9 19 4 14 18 -4 11 -6 11 -12 0z"/>
</g>
</svg>
