<?xml version="1.0" standalone="no"?>
<!DOCTYPE svg PUBLIC "-//W3C//DTD SVG 20010904//EN"
 "http://www.w3.org/TR/2001/REC-SVG-20010904/DTD/svg10.dtd">
<svg version="1.0" xmlns="http://www.w3.org/2000/svg"
 width="640.000000pt" height="400.000000pt" viewBox="0 0 640.000000 400.000000"
 preserveAspectRatio="xMidYMid meet">

<g transform="translate(0.000000,400.000000) scale(0.100000,-0.100000)"
fill="#000000" stroke="none">
<path d="M2370 3921 c-36 -21 -324 -187 -640 -368 -539 -310 -1280 -740 -1289
-749 -2 -2 -4 -43 -3 -90 0 -78 2 -89 22 -104 l21 -16 0 -605 c0 -554 8 -863
24 -914 5 -17 -21 -35 -199 -138 -113 -65 -215 -127 -228 -138 l-23 -20 35 17
c19 9 124 68 233 131 l199 115 33 -34 c19 -18 153 -98 299 -178 l266 -144 0
-88 c0 -99 15 -80 -137 -179 -51 -33 -93 -66 -93 -74 0 -29 23 -26 73 8 29 19
57 37 63 40 6 4 36 -7 67 -24 l55 -30 7 -64 c8 -68 17 -84 39 -66 10 8 11 26
4 72 -4 34 -7 63 -6 65 2 1 20 16 41 33 l39 30 49 -25 c28 -13 54 -22 59 -19
27 17 3 39 -89 84 -55 26 -106 53 -115 60 -12 10 -16 32 -16 82 0 38 2 69 5
69 6 0 794 -425 1032 -556 l153 -84 37 15 c81 34 637 345 1050 588 l112 66 24
-42 c14 -23 34 -51 46 -61 25 -23 27 -36 5 -36 -28 0 -74 -56 -74 -90 0 -26 6
-33 37 -47 45 -18 108 -12 170 18 64 31 63 37 -57 226 -30 49 -32 55 -20 84
12 28 33 45 116 93 l30 18 65 -67 c70 -72 78 -85 57 -85 -25 0 -58 -45 -58
-78 0 -40 27 -56 97 -56 57 0 91 21 119 76 29 55 19 78 -57 143 -85 72 -91 82
-79 126 9 30 29 46 191 144 99 61 185 115 190 122 7 8 -36 35 -151 95 -132 68
-162 87 -166 108 -17 81 -72 237 -111 313 l-45 87 -77 0 -76 0 -99 -70 c-54
-39 -103 -70 -108 -70 -10 0 -469 250 -720 392 -150 85 -209 132 -221 177 -3
13 78 64 356 225 411 237 392 232 438 136 37 -78 47 -84 121 -76 56 5 65 3
115 -25 49 -28 54 -34 51 -63 l-3 -31 56 0 c47 0 68 -7 127 -40 l72 -40 0
-106 c0 -69 -4 -110 -12 -121 -7 -8 -47 -37 -88 -63 -113 -71 -140 -93 -134
-110 9 -23 23 -19 85 25 l58 40 56 -27 c35 -18 57 -35 60 -48 2 -11 7 -42 12
-70 5 -34 13 -50 23 -50 12 0 15 15 15 72 0 71 1 73 37 103 l38 31 49 -26 c49
-27 71 -27 71 0 0 7 -52 39 -115 69 l-115 56 0 101 0 101 33 -20 c121 -74
2326 -1342 2342 -1348 14 -5 17 -4 10 4 -6 6 -544 319 -1195 696 l-1185 684
-3 136 c-2 89 1 136 8 136 19 0 50 64 50 103 0 30 7 43 34 68 50 43 57 98 22
167 -29 57 -63 87 -109 98 -26 5 -52 -4 -162 -59 -71 -36 -139 -68 -150 -71
-20 -6 -20 -6 -1 9 11 8 17 18 13 21 -9 10 -148 44 -176 44 -27 -1 -102 -46
-108 -66 -4 -12 61 -43 135 -65 37 -11 44 -10 55 5 10 13 12 2 12 -64 0 -44
-3 -80 -6 -80 -4 0 -14 18 -23 40 -9 22 -19 40 -23 40 -5 0 -39 -27 -76 -60
-38 -33 -73 -60 -78 -60 -5 0 -21 7 -34 16 l-25 16 0 649 c0 423 -3 649 -10
649 -6 0 -11 -229 -12 -651 l-3 -652 -345 -200 c-190 -110 -352 -202 -361
-204 -13 -4 -17 7 -22 54 -12 112 -20 780 -12 1064 l7 286 29 17 c29 17 29 18
29 110 l0 92 -73 42 c-40 23 -80 42 -88 42 -7 -1 -43 -18 -79 -39z m147 -11
c28 -16 54 -33 56 -37 7 -11 -950 -571 -1642 -963 l-323 -183 -64 34 c-35 19
-64 37 -64 41 0 7 448 269 1085 635 220 127 506 291 635 366 129 74 242 136
250 136 8 0 38 -13 67 -29z m54 -220 c-35 -25 -671 -410 -921 -555 -267 -157
-701 -399 -901 -504 l-135 -71 0 75 1 74 260 147 c417 234 1623 935 1690 981
19 13 20 11 23 -59 3 -63 0 -74 -17 -88z m-44 -402 c-8 -421 5 -1006 24 -1058
25 -70 60 -109 143 -159 73 -44 441 -248 690 -383 54 -29 99 -57 100 -62 0 -5
-27 -25 -62 -44 -56 -30 -63 -37 -58 -58 7 -27 3 -29 -25 -14 -11 6 -25 7 -32
3 -6 -4 -45 -13 -86 -19 -77 -11 -75 -11 -206 30 -27 9 -60 16 -73 16 -48 0
-94 -85 -77 -140 4 -14 26 -31 58 -45 64 -28 86 -51 85 -91 -1 -45 19 -73 68
-94 l44 -19 -85 -133 c-47 -73 -89 -140 -93 -148 -4 -8 -20 -37 -36 -63 -16
-26 -26 -51 -23 -54 4 -3 21 18 38 46 18 28 35 51 38 51 4 0 12 15 19 32 6 18
22 46 34 61 21 25 30 28 112 34 l88 6 -5 -74 c-3 -41 -8 -135 -11 -209 -6
-152 8 -151 19 1 9 136 23 256 31 270 4 8 174 -23 193 -35 7 -5 21 -25 30 -45
26 -55 62 -111 72 -111 8 0 -28 88 -41 100 -3 3 -32 51 -64 108 l-58 103 24
22 c13 12 36 39 52 59 16 21 32 38 36 38 12 0 49 -145 61 -241 6 -46 16 -94
21 -106 8 -16 7 -32 -6 -63 -9 -22 -16 -51 -16 -65 0 -20 -18 -35 -117 -93
-373 -220 -951 -544 -1039 -583 l-42 -19 -243 133 c-134 73 -403 218 -596 322
l-353 190 0 146 0 147 73 84 74 84 7 84 c4 47 13 114 20 148 l13 64 -43 84
c-24 46 -50 108 -59 139 l-16 55 -63 0 c-35 0 -90 3 -122 6 l-59 6 -109 -117
-108 -116 -20 -143 -20 -143 69 -134 68 -134 128 -24 127 -23 0 -95 0 -95
-115 62 c-63 33 -186 100 -272 149 -204 113 -212 123 -224 283 -12 173 -11
1368 1 1368 6 0 29 -9 51 -21 l40 -20 232 124 c436 234 937 523 1407 811 157
96 287 175 289 175 2 1 1 -158 -2 -351z m1490 -352 c59 -64 66 -160 14 -194
l-23 -16 6 49 c9 61 -11 98 -41 79 -19 -12 -20 -33 -7 -108 6 -34 3 -42 -17
-57 -35 -27 -41 -23 -34 24 4 35 0 52 -27 102 -32 57 -35 60 -75 63 -49 4 -51
-2 -21 -55 l21 -38 -39 38 c-22 20 -46 37 -54 37 -24 1 16 28 115 77 105 52
133 51 182 -1z m-426 -39 l28 -12 -40 -34 -40 -33 -62 22 c-34 12 -66 26 -71
30 -5 5 6 18 25 30 27 17 43 20 83 15 27 -3 61 -11 77 -18z m282 -99 c23 -45
27 -64 22 -90 -8 -33 -8 -32 -48 52 -23 47 -43 89 -45 93 -2 5 6 7 19 5 18 -2
32 -18 52 -60z m-127 20 c102 -90 97 -250 -8 -247 l-33 1 35 8 c45 11 70 43
70 89 -1 135 -158 226 -205 119 -12 -28 -14 -30 -15 -10 0 13 11 34 25 47 36
37 84 34 131 -7z m-7 -31 c30 -28 51 -77 51 -118 0 -99 -124 -89 -165 13 -41
105 36 176 114 105z m255 17 c3 -8 2 -12 -4 -9 -6 3 -10 10 -10 16 0 14 7 11
14 -7z m-3464 -57 c51 -30 55 -36 61 -77 7 -47 1 -110 -10 -110 -4 0 -32 16
-63 35 -43 27 -57 42 -62 66 -11 58 -5 119 13 119 4 0 31 -15 61 -33z m3329
-64 c8 -27 7 -39 -1 -45 -16 -9 -14 -11 -20 44 -6 55 6 55 21 1z m138 -5 c-2
-13 -4 -5 -4 17 -1 22 1 32 4 23 2 -10 2 -28 0 -40z m-457 -2 c10 -24 30 -63
45 -86 14 -23 25 -43 23 -45 -10 -9 -116 -35 -144 -35 -27 0 -38 7 -59 37 -14
21 -25 43 -25 49 0 10 125 124 136 124 3 0 13 -20 24 -44z m416 -62 c-9 -13
-23 -24 -31 -24 -16 0 -43 42 -29 47 5 2 23 11 39 21 29 18 30 18 33 0 2 -11
-4 -30 -12 -44z m20 -19 c-11 -16 -26 -25 -43 -25 -27 0 -63 25 -63 44 0 6 7
0 16 -12 20 -29 58 -28 81 2 23 31 31 24 9 -9z m-270 -39 c34 -13 35 -15 13
-15 -21 -1 -28 -8 -38 -41 -6 -22 -14 -40 -18 -40 -10 0 -83 44 -83 50 0 3 14
11 31 17 l31 12 -21 30 c-31 43 -26 55 12 27 19 -14 51 -32 73 -40z m157 40
c4 -10 -5 -18 -25 -25 -41 -15 -41 -15 -22 14 18 28 39 33 47 11z m35 -38 c12
-12 18 -238 6 -238 -6 0 -92 48 -111 62 -8 6 -1 25 23 65 18 31 38 71 44 89
12 37 19 41 38 22z m-64 -30 c-3 -13 -18 -44 -33 -71 -25 -45 -60 -67 -108
-67 -16 0 -15 44 1 90 11 31 19 37 72 51 79 22 76 22 68 -3z m93 -325 c-1 -65
-3 -14 -3 112 0 127 2 180 3 118 2 -62 2 -165 0 -230z m19 -162 c-10 -16 -36
-13 -36 3 0 17 21 27 34 16 4 -5 5 -13 2 -19z m138 -53 c43 -22 76 -41 74 -43
-2 -2 -49 18 -103 46 -55 27 -89 47 -75 43 14 -4 60 -24 104 -46z m-199 34
c-27 -23 -187 -123 -191 -120 -5 6 177 128 191 128 5 0 5 -3 0 -8z m74 -112
c7 -47 14 -95 17 -107 2 -13 1 -23 -4 -23 -4 0 -14 44 -20 98 -7 53 -15 108
-18 122 -4 18 -3 21 4 10 5 -8 15 -53 21 -100z m-39 90 c0 -5 -9 -10 -21 -10
-11 0 -17 5 -14 10 3 6 13 10 21 10 8 0 14 -4 14 -10z m70 0 c0 -5 -4 -10 -9
-10 -6 0 -13 5 -16 10 -3 6 1 10 9 10 9 0 16 -4 16 -10z m-70 -27 c0 -5 3 -18
6 -31 l7 -23 -46 22 c-25 12 -44 26 -41 31 6 10 74 11 74 1z m95 -18 c-38 -31
-45 -31 -45 0 0 22 4 25 38 25 l37 -1 -30 -24z m-178 -200 c7 -5 -183 -139
-255 -180 -81 -46 -85 -47 -135 -39 l-51 9 105 63 c57 35 133 85 169 112 62
46 67 48 115 43 28 -3 51 -7 52 -8z m86 -102 c71 -154 104 -284 114 -451 l6
-103 -29 -30 c-46 -49 -141 -113 -242 -164 -52 -26 -95 -45 -96 -43 -2 2 -10
64 -19 138 -24 200 -54 306 -143 505 -2 6 27 28 66 48 75 41 210 134 250 173
13 13 30 24 36 24 6 0 31 -44 57 -97z m-2759 47 l38 0 -83 -88 c-47 -48 -111
-123 -143 -166 -32 -42 -59 -76 -61 -74 -1 2 2 39 6 83 9 81 29 161 55 224
l14 34 68 -6 c37 -4 84 -7 106 -7z m130 -195 c14 -27 24 -50 22 -53 -3 -2 -59
-15 -126 -29 -67 -13 -153 -35 -191 -48 -38 -12 -69 -21 -69 -18 0 17 106 149
188 234 l95 100 27 -69 c15 -39 39 -91 54 -117z m-354 107 c-10 -31 -23 -100
-29 -152 -13 -106 -19 -130 -31 -130 -4 0 -36 -20 -69 -45 l-62 -46 6 33 c6
39 25 169 25 181 0 4 19 -16 43 -44 23 -29 49 -55 57 -57 8 -3 -4 16 -28 41
-76 84 -77 83 19 186 45 50 84 91 85 91 1 0 -6 -26 -16 -58z m2065 -149 c-14
-19 -27 -50 -31 -69 -3 -19 -8 -34 -11 -34 -2 0 -22 9 -43 20 -45 23 -51 49
-25 100 22 43 41 50 91 33 l42 -14 -23 -36z m448 52 c32 -5 40 -13 61 -53 64
-126 119 -341 132 -517 7 -90 6 -93 -39 -76 -22 8 -26 18 -32 73 -4 35 -20
116 -37 180 -23 94 -27 122 -18 139 27 49 -2 25 -60 -50 -80 -107 -96 -117
-146 -96 -21 8 -60 29 -87 46 -39 24 -57 29 -82 25 -38 -7 -76 5 -105 34 -27
27 -26 45 2 26 33 -24 45 -19 20 7 -31 33 -27 52 4 20 14 -14 28 -22 32 -18 4
4 -1 13 -11 20 -20 15 -41 80 -31 96 8 14 24 -8 24 -35 0 -26 29 -56 53 -56
17 0 19 5 14 35 -3 19 -2 35 3 35 11 0 40 -53 40 -73 0 -15 69 -64 124 -88 26
-12 30 -11 48 11 24 30 88 154 99 193 7 24 6 27 -6 17 -13 -10 -18 -6 -31 26
-9 22 -23 52 -31 67 -13 27 -13 28 4 24 10 -3 35 -8 56 -12z m-86 -47 c71 -76
82 -118 33 -118 -29 0 -30 2 -30 46 0 51 -14 84 -35 84 -7 0 -17 5 -20 10 -15
24 24 7 52 -22z m-243 2 c13 -13 -21 -61 -54 -73 -15 -6 -36 -23 -46 -39 -24
-36 -34 -36 -34 1 0 39 16 81 43 109 17 18 29 22 52 18 16 -4 34 -11 39 -16z
m199 -9 c5 -5 -19 -31 -63 -66 -66 -54 -72 -57 -88 -42 -15 16 -15 17 1 17 24
0 87 42 87 58 0 7 -5 23 -11 34 -11 20 -9 21 26 15 21 -4 42 -10 48 -16z
m-128 -1 c-3 -5 -10 -10 -16 -10 -5 0 -9 5 -9 10 0 6 7 10 16 10 8 0 12 -4 9
-10z m45 -22 c0 -11 -29 -37 -42 -38 -14 0 -9 23 8 41 17 19 34 17 34 -3z
m-1929 -81 c-5 -34 -13 -95 -17 -136 -7 -72 -8 -76 -60 -132 -30 -32 -70 -81
-90 -109 -20 -27 -40 -47 -45 -44 -33 20 -191 355 -176 371 3 2 23 -7 44 -20
89 -57 269 -137 303 -137 8 0 -28 18 -80 38 -86 34 -203 96 -255 135 -18 14
-14 17 67 42 109 34 312 74 316 63 2 -5 -1 -37 -7 -71z m1863 67 c9 -24 7 -34
-6 -34 -23 0 -39 16 -32 33 8 21 30 22 38 1z m175 -16 c-1 -24 -3 -27 -6 -10
-2 12 -8 20 -13 17 -4 -3 -3 -19 3 -36 12 -30 10 -33 -33 -71 l-45 -40 -3 33
c-3 28 2 38 35 65 21 19 34 33 28 33 -5 0 -25 -13 -42 -29 -27 -24 -33 -37
-33 -70 0 -46 -16 -53 -31 -13 -8 21 -6 30 8 44 21 20 127 108 131 109 1 0 1
-15 1 -32z m-214 -36 c-3 -3 -11 0 -18 7 -9 10 -8 11 6 5 10 -3 15 -9 12 -12z
m215 -39 c-11 -17 -11 -17 -6 0 3 10 6 24 7 30 0 9 2 9 5 0 3 -7 0 -20 -6 -30z
m-224 -30 c-12 -12 -29 15 -21 34 7 17 8 16 18 -5 5 -12 7 -25 3 -29z m258
-32 c-39 -72 -50 -80 -77 -52 l-22 22 54 50 c67 62 86 54 45 -20z m806 -15
l141 -73 -78 -50 c-108 -68 -250 -153 -257 -153 -10 0 15 54 35 76 25 27 33
97 22 197 -5 42 -8 77 -7 77 2 0 66 -33 144 -74z m-3316 -7 c-9 -35 -17 -103
-17 -151 -1 -50 -5 -82 -10 -75 -4 7 -28 52 -53 101 l-45 88 23 25 c26 28 109
85 115 79 2 -2 -3 -32 -13 -67z m2456 68 c0 -2 -15 -16 -32 -33 l-33 -29 29
33 c28 30 36 37 36 29z m-2400 -74 c26 -78 95 -221 133 -278 15 -21 25 -40 24
-41 -5 -5 -203 38 -211 46 -19 19 8 340 29 340 1 0 12 -30 25 -67z m2290 -164
c0 -37 -5 -71 -10 -74 -16 -10 -160 -19 -160 -10 0 16 74 131 98 152 21 17 29
19 49 10 21 -9 23 -17 23 -78z m100 16 c37 -13 50 -25 73 -67 16 -27 26 -52
23 -55 -3 -3 -41 0 -86 8 l-80 13 0 32 c0 17 -3 46 -7 64 -7 37 -12 37 77 5z
m639 -160 l-20 -70 81 -76 c85 -80 92 -96 65 -149 -21 -41 -68 -64 -119 -57
-64 9 -82 58 -33 92 24 17 51 20 42 5 -3 -5 0 -10 8 -10 38 0 21 32 -54 102
-73 69 -79 77 -79 113 1 38 4 42 63 81 34 23 63 40 64 40 1 -1 -7 -33 -18 -71z
m-2812 -302 c-1 -59 -3 -13 -3 102 0 116 2 164 3 108 2 -56 2 -151 0 -210z
m2683 260 c0 -15 -65 -63 -85 -63 -12 0 36 55 58 67 28 16 27 16 27 -4z m-117
-70 c-31 -39 -63 -95 -63 -110 0 -5 29 -55 65 -113 36 -58 65 -112 65 -122 0
-42 -147 -76 -194 -44 -17 11 -23 22 -19 34 11 32 46 62 80 68 l33 6 -51 61
c-71 85 -74 97 -49 179 l21 68 38 -6 c25 -4 48 -1 67 9 16 8 31 14 33 12 2 -2
-10 -21 -26 -42z m-2557 -324 c8 -14 -18 -31 -30 -19 -9 9 0 30 14 30 5 0 12
-5 16 -11z m134 -69 c52 -27 92 -49 88 -49 -7 -1 -188 86 -196 94 -15 15 23
-1 108 -45z m-190 36 c0 -7 -191 -129 -195 -124 -3 2 37 32 88 66 84 56 107
69 107 58z m74 -130 c9 -60 14 -111 12 -114 -5 -4 -10 19 -26 133 -6 39 -13
79 -16 90 -4 14 -3 17 4 10 6 -5 18 -59 26 -119z m-44 104 c0 -5 -9 -10 -21
-10 -11 0 -17 5 -14 10 3 6 13 10 21 10 8 0 14 -4 14 -10z m70 6 c0 -11 -19
-15 -25 -6 -3 5 1 10 9 10 9 0 16 -2 16 -4z m-62 -59 l3 -28 -40 23 c-51 29
-52 40 -3 36 32 -3 37 -7 40 -31z m89 8 c-36 -32 -47 -31 -47 0 0 22 4 25 38
25 l37 -1 -28 -24z"/>
<path d="M2140 2542 c-95 -36 -246 -112 -317 -160 l-55 -36 4 -73 3 -73 -39 0
c-31 0 -45 -7 -72 -36 -19 -19 -34 -40 -34 -45 0 -21 -28 -7 -68 34 -43 44
-48 70 -15 90 7 4 13 25 13 47 0 45 -12 54 -81 63 -38 5 -52 2 -82 -19 -34
-22 -37 -29 -37 -70 0 -41 5 -50 48 -92 26 -26 67 -73 91 -104 75 -100 119
-111 215 -53 32 19 62 35 66 35 4 0 10 -44 14 -97 4 -54 13 -141 19 -193 l12
-94 40 -23 c27 -15 47 -37 66 -74 l26 -53 -34 -80 c-19 -44 -35 -96 -36 -115
-2 -29 3 -37 30 -53 36 -22 119 -26 152 -9 44 24 15 101 -37 101 -12 0 -22 2
-22 4 0 2 13 33 30 68 34 71 36 100 15 181 -8 32 -15 60 -15 62 0 5 136 75
145 75 9 0 65 -105 65 -123 0 -10 -13 -49 -30 -88 -58 -138 -48 -170 58 -176
70 -5 106 12 110 50 4 35 -11 54 -49 62 -16 4 -29 8 -29 10 0 1 14 33 31 69
36 77 35 116 -6 204 -13 28 -20 52 -15 52 6 0 10 38 10 85 l0 84 49 22 c27 11
59 31 71 44 46 49 11 192 -73 298 -29 37 -29 41 -23 112 l7 74 -38 17 c-64 27
-102 26 -183 -4z m153 -5 c28 -12 27 -13 -76 -55 -58 -24 -157 -72 -220 -107
-108 -61 -117 -64 -149 -53 -18 6 -37 14 -41 18 -16 14 226 144 356 190 61 22
92 23 130 7z m43 -69 c-3 -24 -10 -119 -16 -213 -10 -158 -12 -171 -33 -187
-25 -20 -36 -19 -51 5 -14 22 8 47 26 29 7 -7 17 -12 23 -12 5 0 -1 9 -15 20
-25 19 -25 19 -40 0 -8 -10 -27 -21 -42 -22 -15 -2 -36 -16 -48 -31 -17 -22
-25 -25 -40 -17 -15 8 -21 6 -29 -7 -25 -44 -28 -46 -50 -34 -18 10 -23 8 -41
-21 -26 -44 -26 -62 1 -20 23 36 23 36 48 23 14 -8 21 -4 35 20 21 36 34 37
46 4 14 -38 6 -47 -70 -79 -38 -16 -68 -32 -65 -34 2 -3 34 8 70 23 60 26 67
27 82 12 23 -23 9 -51 -21 -43 -19 5 -29 0 -44 -21 -17 -24 -22 -26 -37 -13
-14 12 -18 12 -26 -1 -22 -33 -30 -51 -25 -56 3 -3 11 6 17 21 10 22 17 26 39
21 21 -5 29 -1 40 19 11 21 16 23 33 14 16 -8 23 -7 31 4 11 15 86 14 86 -2 0
-16 -27 -29 -47 -24 -16 4 -25 -1 -33 -18 -17 -32 -16 -31 -39 -19 -18 10 -22
7 -36 -19 -14 -26 -18 -29 -36 -19 -11 6 -22 9 -23 7 -26 -40 -37 -61 -33 -65
3 -3 13 10 22 27 12 24 20 29 28 21 17 -17 33 -13 47 14 10 18 19 23 35 19 16
-4 26 2 39 20 14 22 20 24 36 16 16 -8 22 -6 36 16 14 20 23 24 43 20 22 -5
23 -4 8 4 -13 8 -15 18 -11 38 4 15 11 30 16 33 6 3 9 10 7 15 -1 5 5 10 14
12 15 3 17 -7 17 -72 0 -52 -4 -76 -12 -76 -7 0 -90 -38 -184 -85 -95 -47
-175 -85 -177 -85 -8 0 -31 376 -31 514 l-1 139 105 58 c95 53 302 148 324
149 4 0 6 -19 2 -42z m-903 -155 l-6 -28 27 30 c26 28 27 25 9 -22 -4 -11 4
-8 20 10 14 15 30 27 35 27 18 0 34 -29 27 -50 -8 -24 -21 -26 -29 -4 -3 8
-10 12 -16 9 -14 -8 -13 -45 1 -45 7 0 9 -10 4 -27 -5 -23 1 -33 52 -80 31
-29 60 -52 64 -51 4 2 22 23 41 48 31 42 38 45 85 48 38 2 56 9 73 27 13 14
18 25 12 25 -6 0 -14 -4 -17 -10 -15 -24 -25 -6 -25 46 0 49 2 55 18 49 9 -3
29 -9 43 -12 l27 -5 7 -162 c4 -88 13 -235 20 -326 7 -91 12 -166 10 -168 -5
-5 -63 26 -69 37 -6 9 -30 214 -39 329 -5 62 -5 63 26 79 19 10 27 18 19 21
-7 2 -55 -21 -105 -51 -51 -30 -101 -58 -112 -61 -30 -9 -79 26 -127 90 -24
32 -62 75 -85 97 -31 29 -43 48 -43 69 0 15 3 28 8 28 4 0 15 14 24 30 21 37
31 39 21 3z m956 -21 c40 -62 61 -124 61 -178 0 -37 -5 -46 -32 -67 -18 -14
-60 -34 -92 -46 -33 -12 -66 -31 -74 -42 -7 -10 -22 -19 -33 -19 -10 0 -19 -6
-19 -14 0 -9 7 -12 20 -9 11 3 20 1 20 -5 0 -15 -41 -22 -62 -11 -22 12 -23
27 -1 51 9 10 13 21 9 26 -4 4 -16 -3 -26 -15 -21 -26 -30 -29 -30 -10 0 8 11
24 25 37 29 27 27 37 -4 20 -13 -7 -21 -7 -21 -1 0 6 12 17 28 25 15 9 20 15
12 16 -13 0 -13 1 0 10 23 15 38 12 60 -10 19 -19 23 -20 54 -5 45 22 105 74
85 75 -28 0 -38 44 -32 134 3 48 9 86 13 86 5 0 22 -22 39 -48z m-69 -544 c36
-85 37 -117 1 -195 -42 -94 -42 -96 -2 -97 40 -1 62 -27 45 -53 -14 -22 -95
-29 -135 -12 -38 15 -37 31 6 135 19 46 35 92 35 101 0 9 -13 40 -30 70 -16
29 -30 56 -30 60 0 7 63 39 81 42 4 1 17 -23 29 -51z m-273 -195 c5 -45 1 -62
-31 -129 -20 -42 -36 -78 -36 -80 0 -2 18 -4 40 -4 33 0 42 -4 49 -22 14 -35
-11 -53 -68 -52 -53 0 -101 24 -101 50 0 8 16 53 35 100 19 46 35 91 35 100 0
8 -9 33 -21 55 -23 46 -24 43 28 75 l38 23 13 -32 c8 -17 16 -55 19 -84z"/>
<path d="M2231 2354 c-21 -35 -22 -35 -45 -21 -23 15 -24 14 -42 -19 -11 -20
-24 -32 -31 -29 -7 3 -20 8 -28 11 -10 4 -20 -5 -31 -29 -16 -34 -18 -35 -40
-20 -22 14 -24 13 -44 -19 -21 -35 -28 -67 -7 -35 33 51 34 52 50 38 20 -16
33 -8 53 31 14 28 17 29 33 14 24 -22 28 -21 47 17 22 43 21 43 44 22 19 -17
20 -16 41 19 24 41 25 42 53 19 15 -13 14 -10 -3 10 -14 15 -26 27 -27 27 -1
0 -12 -16 -23 -36z"/>
<path d="M2115 2209 c-88 -43 -156 -79 -152 -79 13 0 249 109 292 135 72 44
23 25 -140 -56z"/>
<path d="M2225 2190 c-17 -34 -19 -34 -45 -20 -16 9 -22 5 -35 -21 -11 -20
-21 -29 -31 -25 -8 3 -20 8 -28 12 -8 3 -18 -6 -26 -25 -12 -31 -33 -40 -45
-21 -11 18 -21 11 -38 -25 -23 -48 -21 -57 3 -17 22 35 29 38 49 20 11 -10 14
-10 18 -1 3 7 13 23 23 35 16 20 20 21 35 8 18 -15 21 -13 50 36 9 14 15 15
33 5 19 -10 23 -8 37 19 17 32 33 37 55 18 8 -7 6 -3 -4 10 -25 29 -32 28 -51
-8z"/>
<path d="M3855 1530 c-27 -22 -89 -63 -137 -91 -49 -29 -88 -54 -88 -56 0 -17
229 127 264 166 27 30 18 26 -39 -19z"/>
<path d="M3919 1262 c-36 -26 -98 -65 -138 -86 -39 -20 -71 -39 -71 -41 0 -18
183 87 245 140 57 49 40 43 -36 -13z"/>
<path d="M4769 3573 l-26 -16 -6 -300 c-9 -380 -9 -643 -1 -834 l7 -150 41
-25 c407 -251 714 -429 1069 -622 l197 -107 29 17 28 17 5 281 c3 155 3 443 0
641 l-5 360 -141 85 c-385 231 -1152 671 -1167 670 -2 0 -16 -8 -30 -17z m219
-107 c380 -211 1082 -624 1082 -637 0 -24 -30 -13 -137 52 -210 127 -631 372
-893 519 -140 78 -257 144 -259 146 -4 3 8 24 15 24 2 0 88 -47 192 -104z m54
-89 c258 -146 688 -395 899 -522 l97 -59 7 -202 c8 -220 3 -1029 -6 -1039 -16
-15 -820 444 -1268 724 -12 7 -15 69 -19 342 -4 293 5 909 13 909 2 0 126 -69
277 -153z m1052 -1469 c-5 -244 -10 -348 -18 -351 -15 -6 -16 1234 -1 1245 15
11 26 -491 19 -894z"/>
<path d="M5066 3224 c-10 -25 -7 -84 4 -84 6 0 10 7 10 15 0 21 19 19 26 -2
15 -45 17 -46 24 -8 5 22 4 47 -1 55 -7 13 -8 12 -9 -2 0 -20 -8 -22 -28 -10
-7 5 -10 16 -7 24 4 9 2 19 -3 22 -6 3 -13 -1 -16 -10z"/>
<path d="M5156 3174 c-10 -25 -7 -84 4 -84 6 0 10 23 10 50 0 52 -4 61 -14 34z"/>
<path d="M5195 3150 c-9 -15 22 -60 40 -60 8 0 15 -7 15 -15 0 -20 -19 -19
-43 3 -19 16 -20 16 -8 -5 13 -25 49 -39 63 -25 15 15 -1 52 -28 62 -25 10
-33 30 -11 30 7 0 18 -5 25 -12 9 -9 12 -9 12 0 0 12 -31 32 -49 32 -5 0 -13
-5 -16 -10z"/>
<path d="M4840 2975 l0 -175 53 -34 c51 -33 151 -86 162 -86 3 0 5 78 5 173 0
153 -2 176 -17 189 -26 22 -178 108 -191 108 -9 0 -12 -50 -12 -175z m113 109
c50 -29 81 -54 87 -70 13 -32 13 -301 1 -308 -13 -8 -169 82 -181 104 -11 20
-14 278 -4 304 3 9 9 16 13 16 3 0 41 -20 84 -46z"/>
<path d="M5303 3095 c15 -11 18 -21 12 -53 -3 -22 -2 -43 3 -46 5 -3 12 13 16
35 5 30 10 39 21 35 26 -10 16 4 -17 24 -38 23 -62 27 -35 5z"/>
<path d="M5377 3044 c-12 -13 -8 -59 9 -82 36 -52 84 1 53 57 -14 25 -48 39
-62 25z m51 -52 c-4 -33 -24 -39 -38 -13 -15 30 5 68 26 50 8 -7 14 -24 12
-37z"/>
<path d="M5476 2994 c-10 -25 -7 -84 4 -84 6 0 10 6 10 13 0 6 9 -3 20 -20 11
-18 25 -33 31 -33 6 0 1 12 -11 27 -18 23 -19 28 -5 35 24 14 18 42 -14 61
-26 15 -30 15 -35 1z m47 -29 c1 -5 -6 -11 -15 -13 -11 -2 -18 3 -18 13 0 17
30 18 33 0z"/>
<path d="M5140 2802 l0 -177 48 -31 c55 -37 147 -84 162 -84 6 0 10 61 10 175
l0 175 -52 34 c-52 33 -152 86 -163 86 -3 0 -5 -80 -5 -178z m95 121 c119 -67
115 -58 115 -237 0 -85 -4 -157 -9 -160 -5 -3 -48 18 -97 48 l-89 53 -3 167
c-1 93 1 166 6 166 5 0 40 -17 77 -37z"/>
<path d="M5570 2893 c0 -41 3 -54 10 -43 13 20 13 100 0 100 -6 0 -10 -26 -10
-57z"/>
<path d="M5627 2899 c-16 -25 -20 -42 -18 -69 1 -12 3 -12 9 -2 10 15 42 5 42
-13 0 -8 5 -17 10 -20 16 -10 1 96 -15 114 -11 11 -16 9 -28 -10z m31 -43 c-2
-10 -8 -13 -16 -7 -7 4 -10 15 -6 25 8 21 28 6 22 -18z"/>
<path d="M5706 2831 c-8 -50 0 -70 31 -77 34 -9 41 3 8 16 -26 10 -27 13 -20
55 3 26 2 45 -3 45 -5 0 -12 -18 -16 -39z"/>
<path d="M5440 2626 l0 -173 38 -25 c94 -62 172 -100 177 -86 3 8 4 90 3 182
l-3 169 -93 53 c-51 30 -99 54 -107 54 -13 0 -15 -28 -15 -174z m148 92 l62
-40 0 -164 c0 -90 -2 -164 -5 -164 -10 0 -90 42 -142 76 l-53 34 0 158 c0 87
3 161 6 165 8 7 47 -12 132 -65z"/>
<path d="M4842 2513 l3 -178 95 -57 c52 -32 101 -58 108 -58 9 0 12 42 12 175
l0 175 -52 34 c-53 33 -152 86 -163 86 -3 0 -4 -80 -3 -177z m102 116 c114
-67 106 -49 106 -231 0 -116 -3 -158 -12 -158 -13 0 -144 75 -170 98 -16 13
-18 35 -18 174 0 116 3 158 12 158 6 0 44 -19 82 -41z"/>
<path d="M5740 2455 l0 -175 53 -34 c51 -33 151 -86 162 -86 3 0 5 79 5 174
l0 175 -32 25 c-42 31 -161 96 -176 96 -9 0 -12 -48 -12 -175z m115 110 c43
-25 83 -51 87 -58 13 -21 10 -327 -4 -327 -13 0 -144 75 -170 98 -16 13 -18
35 -18 174 0 121 3 158 13 158 7 0 48 -20 92 -45z"/>
<path d="M5146 2513 c-3 -4 -6 -84 -6 -179 l0 -172 63 -40 c84 -53 143 -82
151 -75 3 4 6 84 6 180 l0 173 -52 34 c-75 47 -154 86 -162 79z m85 -49 c122
-64 119 -58 119 -237 0 -84 -3 -156 -6 -160 -8 -7 -68 22 -141 69 l-53 34 0
165 c0 91 3 165 6 165 3 0 37 -16 75 -36z"/>
<path d="M5440 2165 l0 -175 41 -25 c54 -35 164 -95 172 -95 4 0 7 80 7 178
l0 177 -58 36 c-66 42 -136 79 -152 79 -6 0 -10 -60 -10 -175z m99 120 c114
-61 106 -45 109 -216 2 -82 1 -156 -2 -165 -5 -12 -14 -10 -58 12 -29 15 -72
40 -95 56 l-43 29 0 159 c0 110 3 160 11 160 6 0 41 -16 78 -35z"/>
<path d="M5580 2092 c0 -12 19 -26 26 -19 2 2 -2 10 -11 17 -9 8 -15 8 -15 2z"/>
<path d="M5740 1995 l0 -174 43 -29 c60 -41 152 -92 166 -92 8 0 11 52 11 174
l0 175 -32 25 c-42 31 -161 96 -176 96 -9 0 -12 -48 -12 -175z m78 131 c26
-13 66 -38 90 -55 l42 -31 0 -160 c0 -112 -3 -160 -11 -160 -14 0 -113 55
-156 87 l-33 24 0 160 c0 103 4 159 10 159 6 0 32 -11 58 -24z"/>
<path d="M4403 2263 c-8 -3 -13 -25 -13 -61 l0 -56 21 23 c19 20 23 21 37 8
22 -23 8 -51 -23 -43 -41 10 -28 -7 26 -37 65 -36 79 -27 79 53 l0 59 -54 30
c-29 17 -55 31 -57 30 -2 0 -10 -3 -16 -6z m53 -54 c31 -18 34 -25 34 -66 0
-37 -3 -44 -16 -39 -9 3 -18 6 -22 6 -3 0 3 6 13 14 29 21 10 70 -28 74 -15 2
-27 9 -27 18 0 19 6 18 46 -7z"/>
<path d="M4621 1206 l-123 -123 100 -52 c55 -28 106 -51 114 -51 7 0 69 56
137 124 l124 124 -101 51 c-56 28 -107 51 -114 51 -8 0 -69 -56 -137 -124z
m252 61 l78 -41 -119 -119 -119 -119 -96 48 c-53 27 -97 51 -97 55 0 3 52 57
115 118 132 127 114 123 238 58z"/>
<path d="M5222 1204 c-59 -31 -119 -65 -135 -76 l-27 -20 21 -30 c12 -17 45
-55 74 -86 61 -66 40 -68 223 30 61 34 112 67 112 73 0 15 -138 165 -151 165
-5 0 -57 -25 -117 -56z m193 -31 l66 -77 -38 -23 c-21 -13 -81 -46 -135 -73
l-96 -50 -66 71 c-36 39 -66 75 -66 79 0 4 12 16 28 26 34 23 225 123 234 124
3 0 36 -35 73 -77z"/>
<path d="M5483 795 c3 -59 9 -110 12 -113 8 -8 153 -30 250 -38 l85 -7 0 64
c-1 79 -14 149 -30 159 -13 8 -137 26 -249 36 l-74 7 6 -108z m199 74 c54 -6
104 -16 113 -23 11 -8 17 -38 22 -105 l6 -94 -64 7 c-144 15 -237 29 -247 35
-6 4 -14 51 -18 105 l-7 99 49 -6 c27 -3 93 -11 146 -18z"/>
<path d="M5620 729 c0 -5 5 -7 10 -4 6 3 10 8 10 11 0 2 -4 4 -10 4 -5 0 -10
-5 -10 -11z"/>
<path d="M5095 855 c-89 -31 -145 -56 -145 -65 0 -15 44 -108 92 -192 l48 -86
38 10 c37 10 184 67 190 73 6 6 -108 230 -131 258 l-22 26 -70 -24z m115 -66
c23 -39 53 -96 67 -127 23 -53 23 -57 7 -69 -18 -13 -161 -63 -180 -63 -12 0
-131 213 -136 245 -2 16 11 25 82 52 47 18 93 32 102 33 11 0 32 -26 58 -71z"/>
<path d="M5079 653 c-13 -16 -12 -17 4 -4 9 7 17 15 17 17 0 8 -8 3 -21 -13z"/>
<path d="M4624 762 c-110 -64 -204 -126 -204 -133 0 -4 39 -37 86 -73 l86 -65
41 20 c63 32 257 153 257 161 0 14 -159 139 -177 137 -4 0 -44 -21 -89 -47z
m187 -34 l62 -51 -28 -22 c-44 -36 -229 -145 -244 -145 -15 0 -161 108 -161
119 0 8 92 67 195 126 89 50 82 51 176 -27z"/>
<path d="M6001 588 l-63 -10 5 -42 c3 -22 24 -98 47 -168 47 -147 30 -136 182
-117 59 8 88 16 88 24 0 18 -68 251 -85 292 -13 31 -17 33 -62 32 -26 -1 -77
-6 -112 -11z m165 -34 c21 -50 83 -268 78 -275 -2 -4 -47 -12 -100 -19 -80
-10 -98 -9 -105 1 -20 33 -96 296 -87 304 5 5 123 22 166 24 29 1 35 -3 48
-35z"/>
<path d="M5514 401 c-49 -27 -116 -65 -148 -86 l-57 -36 27 -47 c15 -26 42
-68 61 -94 l34 -48 42 21 c38 20 247 138 255 145 12 9 -99 194 -116 194 -4 0
-48 -22 -98 -49z m133 -13 c17 -24 40 -61 51 -84 l21 -41 -134 -76 c-74 -42
-139 -77 -145 -77 -10 0 -110 147 -110 161 0 15 249 158 276 159 6 0 24 -19
41 -42z"/>
<path d="M4639 320 c-44 -44 -79 -85 -79 -92 0 -13 34 -37 198 -141 l93 -58
39 31 c46 37 130 132 130 148 0 18 -268 192 -295 192 -4 0 -43 -36 -86 -80z
m206 -1 c55 -33 115 -73 134 -88 l34 -28 -63 -67 c-81 -86 -91 -91 -132 -70
-46 24 -248 155 -248 161 0 13 145 153 159 153 9 0 61 -27 116 -61z"/>
<path d="M4051 330 c-85 -22 -156 -42 -158 -44 -4 -4 10 -74 34 -163 13 -52
20 -63 37 -63 25 0 314 75 323 83 7 7 -11 103 -33 177 -10 35 -20 50 -32 50
-9 -1 -86 -19 -171 -40z m208 -73 c21 -82 22 -100 11 -107 -15 -9 -223 -65
-281 -75 l-36 -7 -22 79 c-33 122 -31 130 32 147 120 35 243 64 257 63 10 -2
23 -34 39 -100z"/>
</g>
</svg>
