<?xml version="1.0" standalone="no"?>
<!DOCTYPE svg PUBLIC "-//W3C//DTD SVG 20010904//EN"
 "http://www.w3.org/TR/2001/REC-SVG-20010904/DTD/svg10.dtd">
<svg version="1.0" xmlns="http://www.w3.org/2000/svg"
 width="640.000000pt" height="400.000000pt" viewBox="0 0 640.000000 400.000000"
 preserveAspectRatio="xMidYMid meet">
<metadata>
Created by potrace 1.16, written by Peter Selinger 2001-2019
</metadata>
<g transform="translate(0.000000,400.000000) scale(0.100000,-0.100000)"
fill="#000000" stroke="none">
<path d="M2506 3898 l-57 -29 7 -55 6 -55 -54 -57 c-45 -47 -58 -68 -73 -124
-10 -37 -25 -74 -34 -82 -15 -13 -16 -8 -17 62 -1 86 -15 141 -44 167 -12 11
-42 19 -84 22 l-65 6 -3 40 c-2 32 -10 46 -39 69 l-36 29 -114 -15 c-63 -8
-158 -25 -212 -37 l-99 -23 3 -72 c3 -72 3 -73 -38 -121 -90 -108 -98 -140
-60 -246 17 -47 21 -69 14 -85 -7 -15 -6 -30 1 -47 7 -15 8 -27 2 -30 -18 -11
-11 -43 12 -59 34 -24 82 -20 116 9 33 28 57 25 66 -8 11 -42 6 -70 -18 -92
-22 -20 -25 -30 -23 -91 2 -60 5 -71 32 -98 16 -17 28 -34 27 -38 -4 -15 93
-8 116 8 30 21 30 77 0 98 -19 13 -21 23 -18 83 1 37 2 89 2 115 -2 50 -2 49
64 63 29 6 32 4 38 -26 11 -55 7 -78 -15 -90 -20 -10 -21 -16 -15 -87 6 -65
11 -81 32 -99 14 -13 31 -23 39 -23 9 0 12 -7 9 -17 -5 -17 -5 -17 6 0 7 11
24 17 50 17 21 0 42 5 45 10 3 6 25 11 48 12 35 1 36 2 11 5 -26 3 -30 8 -27
27 5 22 -12 46 -43 64 -11 6 -16 35 -19 125 l-4 117 25 6 c14 4 29 16 33 27 6
15 9 4 14 -39 8 -74 42 -188 62 -204 21 -17 123 -24 172 -11 48 13 54 24 78
165 18 106 19 138 4 153 -9 9 -9 23 -2 52 11 41 7 87 -8 97 -15 9 -10 46 12
94 33 74 42 35 37 -161 -4 -165 -4 -168 17 -173 21 -5 22 -11 21 -128 -1 -119
-2 -124 -29 -152 -15 -16 -27 -37 -27 -47 0 -41 82 -63 144 -39 17 6 36 6 54
0 24 -9 25 -9 9 4 -13 10 -15 16 -7 21 7 4 10 22 8 44 -3 20 0 43 5 52 16 27
-4 83 -31 87 -26 4 -29 32 -10 94 l11 39 46 -7 c25 -4 49 -8 52 -10 3 -2 9
-60 13 -128 7 -118 6 -126 -14 -146 -12 -12 -20 -33 -20 -55 0 -29 5 -37 28
-46 35 -14 99 -4 141 22 29 17 32 24 30 59 -2 21 0 42 3 46 4 3 5 11 3 17 -2
7 -6 24 -9 40 -4 18 -13 27 -27 27 -30 0 -37 35 -22 104 11 45 22 67 44 86 28
24 30 31 39 132 5 60 14 127 20 150 7 23 8 57 4 77 -4 20 -10 90 -13 156 l-6
119 -58 18 c-55 16 -161 33 -273 41 -41 3 -62 -2 -108 -25z m315 -24 c41 -9
78 -19 82 -24 4 -4 -3 -14 -16 -23 -23 -15 -32 -14 -118 3 -51 11 -130 22
-176 26 -46 4 -83 10 -83 14 0 33 171 36 311 4z m-787 -29 c11 -8 18 -16 15
-18 -2 -2 -42 -9 -89 -16 -47 -6 -129 -22 -182 -34 l-97 -24 -27 22 c-15 12
-23 24 -18 27 8 5 173 39 244 51 59 10 136 6 154 -8z m693 -21 c44 -7 93 -18
108 -24 l27 -10 -4 -154 c-3 -147 -4 -156 -27 -180 -14 -14 -33 -26 -43 -26
-11 0 -33 -7 -49 -16 -17 -8 -33 -13 -37 -10 -3 3 -13 -1 -23 -10 -16 -14 -18
-14 -29 6 -11 20 -13 20 -29 6 -17 -15 -19 -15 -32 5 l-14 21 -20 -24 -20 -23
20 17 c20 16 21 16 33 -3 11 -17 16 -18 28 -8 12 10 18 9 31 -4 16 -15 18 -15
35 0 17 15 18 15 18 -6 0 -26 25 -38 45 -21 20 17 20 -8 -1 -35 -12 -17 -17
-18 -35 -7 -18 11 -23 11 -34 -4 -12 -16 -13 -16 -24 5 -12 21 -14 21 -30 7
-17 -15 -19 -15 -32 5 l-14 21 -20 -24 -20 -23 20 17 c20 16 21 16 34 -3 11
-19 14 -19 30 -5 15 14 18 13 30 -5 12 -20 13 -20 31 -4 18 16 18 16 14 -2 -3
-11 1 -24 8 -31 23 -18 99 -32 120 -21 15 8 18 6 18 -16 0 -14 -3 -25 -7 -25
-18 0 -334 58 -337 61 -2 2 -6 134 -10 293 l-6 289 83 -7 c45 -4 119 -14 164
-22z m202 -61 c-1 -38 2 -109 6 -158 8 -100 2 -122 -57 -197 -16 -21 -27 -42
-23 -48 9 -14 -13 -76 -32 -92 -15 -11 -16 -11 -10 5 17 43 17 50 1 25 -28
-41 -48 -45 -28 -5 l16 32 -30 -29 c-19 -17 -37 -26 -46 -23 -23 9 -20 27 4
27 18 0 50 44 50 70 0 14 -33 13 -48 -2 -7 -7 -12 -8 -12 -2 0 20 40 47 68 47
23 0 37 11 66 51 35 47 37 55 32 96 -4 25 -9 88 -13 141 -5 93 -5 97 18 113
13 9 27 16 32 16 4 0 7 -30 6 -67z m-859 -213 c0 -143 1 -263 2 -267 5 -15
-170 -58 -313 -77 l-46 -7 -7 38 c-3 21 -9 142 -13 270 l-6 231 41 11 c92 25
258 56 315 60 l27 1 0 -260z m-418 207 l26 -22 5 -263 c5 -257 4 -263 -14
-246 -22 20 -25 54 -6 73 10 10 8 15 -7 26 -14 11 -20 34 -26 117 -5 62 -5
107 1 113 5 5 9 13 9 18 0 17 -23 -7 -56 -59 -36 -56 -36 -57 -12 -151 9 -38
14 -42 44 -45 34 -3 49 -23 16 -22 -16 0 -16 -2 1 -38 12 -23 16 -45 12 -56
-7 -15 -8 -15 -13 3 -7 34 -23 42 -16 9 4 -21 1 -34 -9 -43 -14 -11 -16 -8
-15 18 1 17 -2 34 -5 38 -4 3 -7 -8 -7 -25 0 -37 -12 -47 -40 -32 -24 13 -26
30 -5 30 14 0 14 3 0 30 -10 20 -14 42 -9 64 4 23 -2 57 -17 103 -13 43 -19
80 -16 95 4 15 36 62 71 106 63 80 63 81 55 124 -13 69 -11 72 33 35z m547
-38 c44 -15 53 -39 62 -154 5 -55 11 -119 15 -143 8 -55 -6 -93 -16 -42 l-7
35 -2 -31 c0 -17 -7 -37 -15 -43 -12 -10 -14 -5 -10 31 3 37 2 39 -5 12 -11
-42 -19 -54 -38 -54 -11 0 -13 5 -7 18 13 28 10 85 -4 90 -7 2 -16 -5 -19 -17
-7 -29 -23 -27 -23 3 0 31 25 56 55 56 20 0 25 6 30 43 6 41 -17 128 -33 125
-4 0 -28 0 -54 1 l-48 1 0 40 0 40 44 0 c23 0 57 -5 75 -11z m242 -84 c-17
-19 -37 -58 -46 -87 -13 -46 -13 -53 0 -68 16 -18 21 -80 6 -80 -5 0 -11 9
-14 20 -3 11 -10 20 -16 20 -16 0 -25 -48 -12 -64 13 -16 5 -26 -22 -26 -17 0
-19 5 -14 38 5 25 3 32 -3 22 -5 -8 -10 -23 -10 -32 0 -10 -4 -18 -10 -18 -13
0 -13 12 0 44 6 17 6 26 0 26 -16 0 -11 18 10 38 12 11 31 54 45 97 19 61 33
87 67 122 l43 44 3 -31 c3 -23 -4 -40 -27 -65z m-258 -22 c20 -74 13 -113 -20
-113 -30 0 -53 -31 -53 -71 0 -21 5 -41 10 -44 15 -9 12 -44 -4 -60 -22 -23
-26 1 -26 161 l0 144 44 0 c34 0 46 -4 49 -17z m230 -380 c-3 -27 -13 -79 -22
-118 -18 -77 -25 -82 -113 -84 -77 -2 -93 9 -117 81 -22 69 -39 171 -22 131
12 -27 31 -30 37 -5 4 14 18 17 92 18 48 1 98 6 112 12 39 17 40 15 33 -35z"/>
<path d="M932 3865 c-109 -52 -227 -128 -247 -159 -24 -37 -47 -268 -43 -443
l3 -161 28 -26 c33 -31 40 -91 8 -81 -33 10 -51 -32 -68 -162 -4 -37 -2 -43
22 -59 39 -25 138 -31 170 -10 32 21 33 59 1 91 -20 20 -23 30 -17 57 5 19 13
43 19 55 7 12 12 42 12 68 0 43 2 47 47 76 44 27 49 28 60 12 21 -28 16 -61
-9 -65 -26 -4 -46 -53 -30 -78 6 -10 6 -22 0 -33 -5 -10 -8 -32 -6 -49 4 -42
35 -58 115 -58 51 0 67 4 90 24 24 21 26 26 15 50 -11 25 -11 26 23 26 76 0
93 23 114 160 18 117 19 135 6 160 -23 46 -33 88 -24 101 15 24 10 73 -11 107
-11 17 -24 32 -28 32 -5 0 -3 24 5 53 17 62 8 101 -37 169 -29 44 -30 49 -20
89 9 33 9 44 -2 51 -24 16 -87 48 -95 48 -4 0 -50 -21 -101 -45z m168 -14 c0
-3 -42 -27 -93 -53 -50 -26 -121 -68 -156 -94 l-63 -46 -39 18 c-22 9 -39 20
-39 24 0 13 153 108 239 149 83 38 85 39 118 23 18 -9 33 -18 33 -21z m10 -25
c0 -3 -7 -35 -16 -73 -9 -37 -23 -122 -33 -188 -15 -112 -18 -120 -40 -123
-16 -3 -21 0 -16 8 4 7 -11 0 -34 -15 -22 -15 -41 -30 -41 -32 0 -2 5 -1 10 2
6 3 10 2 10 -3 0 -6 -7 -12 -15 -16 -8 -3 -15 0 -15 6 0 9 -3 9 -12 0 -19 -19
-78 -15 -78 4 0 13 3 14 15 4 12 -10 17 -7 27 14 7 17 17 25 26 21 8 -3 21 4
29 15 8 12 21 19 28 16 7 -2 16 1 18 8 9 22 -32 11 -49 -13 -12 -16 -19 -19
-28 -12 -10 8 -16 4 -24 -14 -7 -16 -17 -23 -27 -19 -8 4 -17 -1 -21 -10 -11
-29 -31 -16 -44 29 -10 36 -10 61 0 126 l13 81 66 49 c36 27 104 69 151 94 82
43 100 50 100 41z m33 -128 c38 -59 42 -82 25 -145 l-16 -54 29 -29 c21 -20
29 -38 29 -62 l-1 -33 -13 30 -13 30 1 -39 c1 -22 -4 -41 -11 -43 -7 -3 -10 3
-6 16 3 10 0 28 -7 38 -10 16 -10 16 -5 -4 3 -12 1 -31 -5 -43 -12 -23 -40
-27 -40 -5 0 8 5 15 10 15 14 0 13 33 -1 47 -6 6 -17 9 -24 7 -24 -10 -27 16
-6 59 30 63 37 121 17 152 -12 18 -14 36 -10 65 4 22 9 40 13 40 4 0 19 -19
34 -42z m-398 -35 c31 -15 36 -21 31 -43 -15 -65 -17 -148 -7 -188 14 -50 36
-62 113 -62 42 0 56 5 85 30 43 38 84 40 112 4 12 -15 21 -36 21 -48 -1 -20
-1 -20 -15 -2 -13 17 -14 17 -12 -9 3 -38 -18 -43 -32 -8 -9 22 -10 23 -7 5 6
-31 -3 -52 -21 -52 -9 0 -13 6 -10 14 7 18 -16 39 -29 26 -5 -5 -52 -12 -104
-16 -88 -6 -97 -5 -122 16 -39 30 -61 113 -62 230 -1 83 5 120 19 120 2 0 21
-8 40 -17z m-20 -333 c12 -13 15 -44 15 -139 l0 -122 -30 16 c-17 9 -35 27
-40 41 -11 28 -13 268 -3 328 6 38 6 38 24 -35 11 -40 26 -80 34 -89z m80 -61
c-20 -37 -19 -52 1 -16 12 21 19 26 28 18 13 -11 26 -5 26 10 0 5 -7 6 -15 3
-8 -4 -15 -1 -15 5 0 6 10 10 23 10 12 -1 41 2 65 6 23 4 42 4 42 -1 0 -19
-17 -34 -32 -29 -11 4 -18 -1 -23 -15 -4 -14 -12 -19 -24 -15 -12 4 -21 -3
-30 -21 -9 -20 -14 -24 -25 -15 -10 9 -15 8 -19 -1 -3 -8 4 -14 18 -14 16 -1
27 7 35 25 7 15 14 21 17 14 7 -20 19 -15 32 14 16 35 29 18 23 -32 -4 -38 -8
-43 -87 -92 -46 -28 -86 -49 -89 -45 -8 7 -8 180 0 208 4 16 12 19 34 16 29
-4 29 -5 15 -33z m416 -163 c-19 -105 -29 -133 -54 -140 -32 -9 -140 -7 -155
2 -18 12 -49 98 -56 157 -3 28 -3 44 0 38 8 -17 31 -16 41 1 5 9 37 15 99 18
50 3 100 10 110 16 25 14 29 -10 15 -92z m-526 -216 c14 -5 23 -14 20 -20 -4
-6 5 -10 21 -10 29 0 74 -34 74 -57 0 -31 -88 -43 -145 -19 -28 12 -35 20 -35
43 0 24 23 73 35 73 2 0 16 -4 30 -10z"/>
<path d="M3535 3879 c-22 -10 -43 -20 -46 -21 -4 -2 -3 -37 1 -78 6 -63 4 -84
-14 -134 -19 -54 -25 -60 -66 -76 l-45 -17 -32 34 c-24 26 -39 34 -60 31 -25
-3 -28 -7 -27 -35 2 -25 -2 -33 -15 -33 -9 0 -27 -7 -40 -16 -20 -14 -22 -22
-17 -57 8 -49 50 -96 87 -97 25 0 83 36 105 66 7 8 41 23 76 33 l65 19 7 -82
c3 -44 6 -109 6 -142 0 -46 4 -63 15 -68 12 -4 15 -27 15 -115 0 -107 0 -109
-30 -141 -24 -25 -28 -36 -20 -51 13 -24 82 -42 134 -34 38 5 40 5 22 -10 -11
-8 -15 -15 -10 -15 6 0 21 11 33 24 17 18 22 34 20 63 -1 21 2 46 6 56 4 9 4
33 1 51 -5 26 -12 36 -29 38 -18 2 -22 9 -21 36 3 61 7 63 70 39 l57 -22 3
-60 c2 -33 5 -87 8 -120 3 -52 0 -64 -20 -88 -54 -65 26 -109 137 -75 44 13
54 33 39 73 -7 19 -7 31 0 40 18 21 -2 79 -28 83 -11 2 -24 11 -27 21 -9 28
12 104 32 118 56 41 53 26 53 260 0 120 -3 255 -7 300 -6 80 -7 83 -38 101
-66 40 -304 123 -345 121 -8 0 -33 -9 -55 -20z m245 -57 c31 -11 78 -31 105
-44 l49 -25 -33 -17 c-32 -17 -35 -17 -85 5 -28 12 -105 42 -171 65 l-120 42
34 15 c31 13 41 13 100 -4 36 -10 91 -27 121 -37z m-110 -39 c52 -20 116 -46
141 -59 46 -23 47 -24 54 -83 6 -48 3 -73 -15 -126 -24 -72 -32 -82 -50 -60
-10 12 -16 13 -28 3 -9 -8 -17 -9 -19 -3 -10 30 -22 40 -34 28 -9 -9 -16 -10
-26 -1 -11 8 -12 7 -7 -6 7 -19 16 -20 31 -5 7 7 15 2 27 -16 14 -21 20 -24
32 -14 19 16 31 3 17 -19 -11 -17 -42 -21 -78 -8 -15 5 -14 3 3 -5 27 -15 28
-26 2 -34 -21 -7 -35 0 -92 47 -23 18 -30 19 -43 8 -9 -7 -13 -21 -10 -31 4
-11 -1 -21 -14 -28 -18 -10 -20 -6 -25 77 -4 48 -11 146 -16 217 -14 181 -16
168 23 160 17 -4 75 -23 127 -42z m283 -135 c4 -64 2 -87 -9 -99 -8 -8 -26
-44 -40 -80 -33 -81 -33 -81 -109 -123 -34 -20 -77 -49 -94 -65 -36 -33 -96
-50 -114 -32 -8 8 -5 11 13 11 14 0 31 4 39 9 8 5 -4 7 -33 4 -31 -4 -46 -2
-46 6 0 6 13 11 29 11 17 0 32 4 35 9 3 4 -11 8 -32 7 -31 -1 -38 3 -40 21 -3
23 32 51 42 34 4 -5 0 -11 -6 -14 -7 -2 -10 -7 -6 -11 5 -6 42 7 57 20 2 2 -8
13 -22 25 -15 11 -27 25 -27 30 0 18 23 8 61 -25 33 -31 42 -34 68 -26 54 15
109 62 130 110 34 79 44 134 33 184 -9 44 -9 47 17 61 44 24 48 20 54 -67z
m-441 -120 c-4 -3 -38 -16 -76 -27 -40 -13 -79 -32 -92 -46 -31 -34 -41 -32
-61 15 -13 29 -24 40 -40 40 -12 0 -24 -4 -27 -9 -3 -4 7 -6 22 -3 18 3 24 1
17 -6 -10 -10 -30 -15 -52 -13 -21 2 -15 27 10 38 46 23 59 24 73 6 12 -16 13
-16 14 9 0 17 -7 31 -20 38 -23 12 -26 30 -5 30 8 0 27 -16 42 -35 15 -19 33
-35 40 -35 20 0 123 42 123 51 0 4 5 20 12 36 11 27 12 27 19 -27 4 -30 5 -58
1 -62z m443 -334 c-3 -18 -17 -39 -35 -53 l-30 -22 0 138 c0 133 1 141 32 218
l33 80 3 -165 c2 -91 0 -179 -3 -196z m-88 -71 c-2 -2 -45 12 -94 31 -50 19
-123 44 -162 56 -66 19 -71 23 -71 48 l1 27 23 -29 c21 -26 28 -28 67 -22 69
9 76 11 93 25 9 8 16 9 16 4 0 -5 6 -18 14 -28 11 -16 17 -17 29 -7 13 11 18
9 31 -10 9 -12 16 -18 16 -13 0 6 -7 19 -15 29 -12 16 -17 17 -30 6 -8 -7 -17
-11 -18 -9 -31 44 -38 62 -26 70 7 4 16 6 21 3 4 -3 29 12 55 32 l48 37 3
-123 c1 -67 1 -124 -1 -127z"/>
<path d="M4621 3837 c-40 -11 -119 -44 -175 -71 l-101 -51 -12 -60 c-22 -108
-36 -304 -31 -427 5 -113 7 -121 31 -142 41 -35 46 -106 7 -106 -23 0 -42 -24
-44 -57 -2 -16 -8 -38 -14 -50 -7 -12 -12 -30 -12 -41 0 -21 32 -54 58 -59 92
-20 142 -10 142 26 0 16 9 20 56 23 32 1 69 -2 83 -8 14 -6 48 -14 74 -18 90
-14 127 42 67 99 -25 24 -29 34 -25 69 2 23 4 44 4 49 2 15 58 6 106 -18 28
-14 65 -25 84 -25 19 0 64 -12 100 -26 63 -26 95 -27 157 -9 21 7 22 4 26
-155 3 -149 6 -164 24 -179 12 -10 21 -29 22 -48 0 -17 5 -48 10 -69 15 -63 8
-116 -15 -127 -21 -9 -43 -46 -43 -72 0 -8 -6 -15 -12 -15 -7 0 4 -9 25 -20
47 -25 116 -26 186 -1 29 10 49 20 43 22 -9 3 -19 76 -22 156 0 7 -11 24 -25
39 -24 26 -35 84 -16 84 4 0 6 10 4 23 -3 15 5 31 26 51 l30 29 7 -41 c3 -23
15 -49 25 -58 11 -9 19 -22 19 -27 0 -6 7 -19 17 -29 14 -15 14 -22 3 -46 -7
-15 -16 -41 -20 -57 -23 -97 143 -66 195 36 21 40 19 62 -10 89 -14 13 -25 31
-25 40 0 19 -47 66 -57 57 -15 -16 -33 18 -33 62 0 66 7 84 41 106 l29 20 -6
120 c-6 108 10 447 22 479 3 7 -15 21 -45 35 l-50 24 -63 -43 c-35 -24 -93
-67 -130 -97 -63 -52 -70 -54 -107 -48 l-40 7 2 51 c2 50 1 52 -25 55 -22 3
-30 -2 -37 -22 -9 -23 -12 -24 -47 -14 -53 14 -80 0 -87 -49 -14 -86 33 -157
91 -135 15 6 45 14 67 17 l40 6 -3 -66 -4 -67 -41 -19 c-53 -23 -81 -23 -134
0 -40 19 -41 21 -47 78 -4 32 -6 92 -6 135 1 44 -3 79 -9 83 -6 3 -11 14 -11
23 0 9 -6 28 -13 42 -11 21 -11 29 1 47 18 30 7 77 -24 102 -23 18 -24 24 -18
70 8 60 -9 93 -60 117 -25 12 -32 21 -29 38 3 16 -7 29 -44 54 -56 37 -54 37
-152 9z m159 -48 c0 -3 -33 -15 -72 -28 -40 -13 -114 -43 -163 -68 l-91 -45
-37 22 c-20 12 -37 26 -37 31 0 16 157 86 250 112 l84 25 33 -22 c18 -11 33
-23 33 -27z m6 -45 c-4 -14 -13 -60 -22 -102 -8 -42 -17 -87 -20 -99 -5 -27
-31 -30 -50 -5 -13 16 -15 16 -32 -7 -13 -16 -21 -20 -26 -12 -4 6 -12 8 -18
5 -7 -4 -4 -11 7 -17 15 -8 23 -5 37 14 15 18 21 20 28 10 5 -10 -6 -26 -36
-52 -50 -43 -110 -65 -131 -47 -17 14 -17 29 1 22 8 -3 21 4 29 16 9 13 17 17
22 11 9 -15 22 -14 28 2 8 21 -40 15 -56 -7 -10 -14 -16 -16 -21 -7 -6 9 -11
9 -21 1 -10 -8 -18 -3 -35 20 -19 27 -22 40 -16 83 6 59 11 63 108 113 60 30
199 83 222 84 4 0 5 -12 2 -26z m72 -40 c33 -25 34 -29 29 -73 -3 -25 -8 -53
-12 -62 -4 -12 1 -18 18 -23 24 -6 47 -43 47 -74 -1 -12 -6 -8 -16 11 -8 15
-17 27 -20 27 -2 0 0 -9 6 -19 13 -26 13 -34 -6 -57 -15 -18 -15 -18 -10 6 3
14 0 32 -5 40 -9 12 -10 12 -5 -3 7 -23 -10 -57 -29 -57 -18 0 -20 27 -2 33
18 7 -5 41 -32 45 -26 4 -26 4 -1 44 11 18 20 49 20 69 0 31 -4 38 -29 49 -18
7 -28 18 -25 26 2 8 6 21 9 29 6 22 23 19 63 -11z m-448 -46 c37 -22 39 -25
33 -58 -3 -19 -10 -38 -16 -41 -10 -7 48 -104 81 -133 20 -17 26 -17 67 -6 25
7 62 28 82 46 63 58 132 57 160 -2 16 -33 10 -62 -7 -34 -6 10 -9 5 -12 -16
-4 -34 -20 -35 -30 -2 -5 20 -6 18 -7 -9 -1 -40 -26 -45 -35 -7 -6 21 -10 24
-21 14 -8 -6 -19 -9 -24 -6 -6 4 -33 -5 -60 -20 -28 -14 -69 -28 -91 -31 -37
-5 -44 -3 -80 35 -21 23 -52 70 -69 104 -17 35 -31 57 -31 50 0 -7 14 -40 31
-74 l31 -61 -2 -166 c0 -91 -3 -167 -5 -170 -3 -2 -20 8 -39 22 -32 25 -35 31
-42 104 -11 113 22 483 42 483 3 0 23 -10 44 -22z m1200 -252 c0 -2 -34 -29
-76 -61 -42 -32 -108 -88 -147 -126 -38 -38 -75 -69 -81 -69 -6 0 -22 9 -36
20 l-25 20 69 63 c37 34 107 90 154 124 84 60 87 61 114 47 15 -8 28 -16 28
-18z m-926 -14 c8 -14 -5 -52 -16 -46 -5 3 -16 -4 -25 -15 -9 -14 -21 -20 -33
-16 -13 4 -20 0 -25 -15 -7 -23 -21 -26 -28 -7 -3 8 -11 4 -22 -11 -12 -17
-20 -20 -30 -12 -9 8 -17 4 -29 -14 -21 -32 -21 -48 0 -18 12 18 19 20 29 12
10 -9 16 -6 25 10 8 14 17 19 30 15 13 -4 22 1 30 15 9 17 14 19 25 10 11 -9
16 -7 25 9 6 12 15 21 19 21 10 0 3 -39 -11 -57 -5 -6 -5 -12 1 -15 6 -1 13
-21 17 -44 l6 -41 -124 -55 -123 -55 -3 121 c-2 67 0 141 3 165 l7 43 27 -26
c15 -14 33 -26 40 -26 7 0 9 -4 6 -10 -10 -17 6 -11 85 29 86 43 87 44 94 33z
m926 -133 c-6 -68 -10 -195 -9 -283 l3 -158 -36 -27 c-19 -14 -81 -67 -137
-116 -57 -50 -107 -91 -112 -93 -10 -4 -12 376 -2 481 6 67 7 69 67 131 59 60
226 199 233 192 2 -1 -2 -59 -7 -127z m-415 56 c0 -48 1 -49 35 -59 45 -12 45
-13 30 -32 -10 -11 -23 -14 -46 -9 -18 3 -35 1 -39 -5 -3 -5 -19 -10 -34 -10
-27 0 -28 2 -26 40 2 40 -16 80 -37 80 -6 0 -4 -8 5 -18 22 -24 21 -32 -1 -32
-23 0 -42 19 -42 42 0 14 8 18 34 18 48 0 66 -9 66 -34 1 -21 1 -21 15 -2 8
11 15 33 15 49 0 18 4 27 13 24 7 -2 12 -22 12 -52z m-239 -80 c-4 -25 -14
-57 -21 -72 -12 -23 -15 -24 -21 -10 -4 11 -17 17 -40 17 -39 0 -60 -30 -66
-95 -4 -38 -6 -40 -34 -37 -42 5 -52 17 -73 86 -21 70 -37 166 -21 129 11 -26
40 -31 40 -8 0 12 17 15 88 16 48 0 96 4 107 9 42 18 48 13 41 -35z m-61 -85
c4 -6 2 -17 -5 -25 -9 -11 -7 -16 9 -24 32 -17 41 -13 41 18 0 17 4 33 10 36
10 6 18 -20 22 -75 3 -30 9 -38 48 -57 24 -13 61 -23 82 -23 43 0 136 38 158
65 14 17 14 18 -7 6 -22 -11 -23 -10 -23 33 0 54 10 62 50 41 31 -16 31 -16
23 -73 -4 -31 -7 -155 -7 -274 1 -120 -2 -218 -5 -218 -3 0 -19 10 -35 23
l-29 23 -5 167 -5 167 24 9 c46 19 -8 11 -67 -9 -65 -23 -89 -21 -173 16 -29
13 -57 21 -63 18 -14 -9 -70 4 -92 21 -12 9 -20 30 -22 57 -2 24 -1 37 2 30 7
-15 64 -46 71 -38 3 3 -6 11 -21 17 -31 14 -46 57 -25 70 19 12 36 11 44 -1z
m-288 -74 c11 -37 7 -49 -19 -59 -10 -3 -19 -17 -20 -29 -3 -39 -5 -52 -13
-81 -4 -17 -3 -38 4 -53 10 -24 10 -24 -38 -24 -41 0 -50 4 -61 25 -12 22 -11
32 8 78 12 29 22 71 22 93 0 40 2 42 48 62 26 12 50 21 53 22 3 0 10 -15 16
-34z m1054 -572 l24 -25 -20 -37 c-37 -68 -135 -109 -150 -63 -9 28 14 69 47
83 15 7 28 17 28 22 0 11 30 46 40 46 3 0 17 -12 31 -26z m-257 -156 c15 -58
8 -76 -39 -93 -50 -20 -109 -15 -134 10 -14 14 -14 18 -1 43 12 21 24 28 53
30 20 2 49 10 65 18 37 19 49 18 56 -8z"/>
<path d="M3125 3080 c-24 -7 -34 -19 -48 -60 -10 -28 -24 -50 -32 -50 -17 0
-61 -44 -80 -80 -7 -14 -18 -48 -23 -75 -6 -28 -22 -81 -36 -118 -36 -94 -34
-130 14 -233 l40 -87 0 -198 0 -197 35 -22 c30 -18 35 -27 35 -59 0 -40 -38
-89 -60 -76 -18 11 -40 -15 -46 -56 -5 -26 -12 -39 -23 -40 -10 0 -11 -2 -3
-6 6 -2 12 -15 12 -27 0 -51 74 -106 144 -106 51 0 75 52 41 87 -8 8 -13 19
-10 24 4 5 2 9 -4 9 -14 0 0 37 33 87 13 21 27 59 31 86 l6 47 72 0 c57 0 76
-4 87 -17 57 -67 65 -107 26 -125 -24 -10 -25 -15 -25 -100 1 -49 3 -87 6 -85
2 3 20 -1 38 -9 35 -14 121 -19 150 -8 9 4 21 18 26 31 11 31 -4 61 -37 73
-26 10 -30 33 -25 131 2 32 -4 60 -18 88 -18 34 -19 42 -8 47 12 4 16 48 22
205 l7 199 54 107 c70 137 70 156 3 253 -56 82 -74 135 -43 124 15 -5 16 -4 4
4 -8 6 -17 9 -21 7 -3 -3 -12 14 -19 35 -7 22 -15 38 -17 36 -2 -2 -15 7 -28
20 -26 26 -45 31 -45 12 -1 -7 -9 11 -19 40 -10 30 -25 61 -34 69 -18 19 -137
27 -182 13z m154 -23 c27 -13 56 -86 70 -175 l8 -53 -31 8 c-45 12 -186 9
-223 -5 -33 -11 -33 -11 -33 21 0 86 36 137 96 137 42 0 79 -31 100 -85 11
-31 22 -45 35 -45 27 0 24 27 -10 86 -37 64 -83 89 -148 80 -33 -4 -44 -3 -41
7 8 21 51 37 103 37 28 0 61 -6 74 -13z m-229 -122 c0 -9 -8 -28 -17 -43 l-17
-27 23 20 24 20 -6 -34 c-4 -18 -7 -39 -7 -47 0 -7 -8 -14 -17 -16 -16 -3 -16
-5 3 -15 16 -9 26 -9 45 2 13 8 34 19 47 25 34 15 167 12 207 -4 l35 -15 -4
70 c-2 38 0 72 4 74 18 11 72 -73 85 -135 4 -19 29 -67 56 -106 27 -39 49 -82
48 -95 0 -13 -20 -62 -44 -109 l-44 -85 -2 55 c-1 53 -1 53 -10 20 -5 -19 -12
-143 -16 -275 l-8 -240 -65 -12 c-68 -13 -259 -17 -297 -7 -22 6 -23 12 -23
94 0 147 -14 173 -20 37 l-5 -117 -23 16 c-23 16 -23 18 -21 212 l1 197 -41
84 c-23 47 -41 96 -41 110 0 32 49 181 59 181 5 0 6 11 4 24 -8 39 51 156 79
156 4 0 8 -7 8 -15z"/>
<path d="M1945 2682 c-104 -48 -158 -78 -221 -125 l-61 -45 -12 -78 c-22 -146
-32 -328 -25 -432 5 -87 9 -104 26 -113 23 -13 41 -55 32 -81 -3 -10 -16 -23
-30 -28 -14 -6 -26 -20 -29 -37 -4 -15 -14 -50 -24 -78 -18 -50 -18 -50 4 -73
45 -48 171 -52 201 -7 16 25 5 71 -19 81 -15 5 -9 66 12 119 7 16 11 45 9 64
-3 32 1 37 49 68 l51 32 11 -31 c15 -43 14 -48 -9 -48 -25 0 -44 -43 -36 -82
3 -14 1 -40 -4 -57 -13 -48 -3 -68 43 -80 83 -23 184 16 174 67 -4 21 -1 23
24 20 15 -3 26 -1 24 3 -3 3 9 9 25 13 20 4 34 14 40 31 17 45 42 214 38 260
-2 25 0 45 4 45 5 0 8 -13 8 -30 0 -19 7 -33 19 -40 19 -10 19 -12 5 -47 -12
-27 -14 -55 -9 -117 l6 -81 -30 -17 c-22 -12 -31 -25 -31 -42 0 -29 42 -66 76
-66 13 0 24 -4 24 -9 0 -5 10 -7 23 -4 93 21 112 39 97 93 -11 39 -3 59 15 33
25 -37 25 -76 -1 -100 -31 -29 -33 -78 -3 -94 34 -17 153 -7 178 15 22 20 29
80 11 91 -5 3 -10 23 -10 44 0 42 -16 68 -45 73 -13 2 -21 12 -23 28 -2 20 6
30 38 50 23 14 43 36 47 49 9 37 -5 438 -19 521 l-13 75 -70 53 c-75 56 -232
142 -260 142 -10 0 -35 -10 -56 -22 -42 -24 -45 -34 -28 -107 9 -39 7 -46 -13
-68 l-22 -24 -23 43 c-17 33 -21 53 -17 88 6 44 5 46 -34 68 -51 28 -64 28
-137 -6z m119 -12 l30 -19 -49 -21 c-58 -25 -150 -80 -220 -130 -47 -35 -52
-36 -82 -24 -17 8 -34 18 -38 23 -3 6 16 26 42 46 50 37 256 145 276 145 7 0
25 -9 41 -20z m316 -32 c91 -48 190 -119 186 -133 -1 -5 -16 -17 -32 -27 l-29
-17 -68 53 c-38 29 -104 72 -148 95 -43 23 -79 44 -79 46 0 12 58 33 75 29 11
-4 54 -24 95 -46z m-301 -85 c-10 -43 -24 -122 -31 -175 -8 -69 -18 -104 -30
-118 -20 -21 -44 -28 -32 -9 3 6 -5 4 -19 -5 -14 -10 -27 -26 -30 -36 -3 -13
-13 -20 -29 -19 -12 0 -30 -1 -38 -2 -32 -5 -61 1 -55 12 4 6 13 8 21 5 9 -3
19 4 26 19 8 19 14 22 24 14 9 -8 16 -4 25 13 11 21 11 22 -4 10 -9 -8 -21
-11 -27 -7 -5 3 -15 -5 -22 -19 -8 -19 -14 -23 -24 -15 -9 8 -15 5 -24 -10
-15 -29 -26 -26 -39 10 -14 41 -14 101 0 173 12 55 15 59 78 104 67 48 217
131 237 132 8 0 5 -25 -7 -77z m216 36 c84 -48 192 -129 200 -147 3 -8 8 -38
11 -67 6 -45 3 -58 -15 -80 -18 -23 -22 -25 -27 -11 -4 10 -13 15 -21 12 -8
-3 -18 4 -25 19 -9 19 -14 22 -24 14 -10 -8 -16 -5 -25 15 -10 20 -15 23 -26
15 -7 -6 -13 -7 -13 -2 0 5 -6 17 -13 27 -12 17 -14 17 -28 -1 -12 -16 -12
-17 2 -6 13 11 18 9 27 -12 7 -15 17 -22 26 -19 9 3 17 -3 21 -16 4 -14 12
-19 24 -15 12 4 21 -3 30 -22 10 -21 14 -24 21 -13 7 12 10 12 16 -3 3 -9 0
-24 -7 -33 -12 -14 -14 -14 -25 0 -6 9 -18 14 -27 10 -10 -3 -18 2 -22 16 -4
13 -12 19 -21 16 -8 -3 -19 5 -27 20 -12 23 -15 24 -27 10 -11 -14 -10 -16 3
-11 10 4 18 -1 22 -15 4 -13 12 -19 21 -16 9 3 19 -4 26 -19 8 -18 14 -22 24
-14 8 7 14 6 19 -2 8 -11 -11 -29 -30 -29 -6 0 -22 8 -35 17 l-25 17 19 -22
c11 -12 15 -22 10 -23 -16 -1 -41 -7 -62 -14 -25 -7 -26 -7 -42 156 -6 63 -19
154 -29 202 -11 58 -13 87 -6 87 5 0 42 -18 80 -41z m-155 -119 l22 -59 -26
-57 -26 -56 25 -30 c28 -33 36 -69 11 -49 -12 10 -13 8 -9 -8 6 -22 -12 -29
-20 -8 -3 6 -6 -1 -7 -18 l-1 -30 -13 31 c-8 17 -27 40 -42 52 -19 14 -25 24
-18 29 6 5 24 33 39 63 26 51 27 57 15 103 -15 58 -6 124 14 107 8 -6 24 -37
36 -70z m-374 -24 c1 0 -4 -31 -11 -68 -14 -73 -4 -162 19 -186 9 -9 40 -14
85 -15 62 -1 73 2 86 20 8 12 32 27 52 34 35 11 38 10 65 -20 15 -17 28 -38
28 -46 0 -19 -10 -19 -24 0 -9 13 -11 10 -11 -16 0 -18 -6 -34 -12 -36 -8 -3
-13 5 -13 21 0 13 -4 27 -8 30 -5 3 -6 -9 -4 -26 6 -38 -20 -60 -29 -25 -3 12
-12 20 -20 19 -34 -9 -118 -16 -168 -16 -46 1 -58 5 -77 27 -40 47 -63 182
-50 291 l7 56 42 -21 c23 -12 43 -22 43 -23z m839 -92 c8 -71 15 -195 15 -277
0 -147 0 -148 -26 -172 -15 -14 -30 -25 -34 -25 -4 0 -10 75 -13 166 -6 164
-6 167 18 209 38 63 30 67 -11 5 -68 -105 -97 -121 -238 -140 -88 -11 -106
-21 -99 -52 5 -18 4 -19 -17 -8 -18 10 -21 18 -16 41 3 19 2 28 -4 24 -6 -3
-10 -18 -10 -31 0 -16 -5 -24 -12 -21 -8 2 -12 19 -11 38 l1 34 -13 -25 -14
-25 -1 31 c0 67 72 102 120 59 18 -17 25 -17 78 -5 102 22 129 38 177 102 46
61 52 74 36 80 -5 2 -12 22 -16 45 -6 41 -6 42 32 61 21 11 39 19 40 18 2 -1
10 -61 18 -132z m-935 -92 c0 -37 28 -118 46 -133 18 -15 21 -249 3 -249 -6 0
-24 9 -40 21 l-29 20 0 185 c0 116 4 184 10 184 6 0 10 -13 10 -28z m857 -379
c-2 -2 -60 34 -128 80 -112 75 -124 86 -124 112 0 27 3 30 35 32 19 0 45 4 58
8 14 5 22 3 22 -5 0 -7 7 -10 17 -6 9 4 20 1 25 -6 6 -9 7 -6 3 8 -6 22 17 40
36 28 5 -3 8 -1 7 4 -2 5 8 19 22 30 l25 20 3 -150 c1 -83 1 -152 -1 -155z
m-593 231 c12 -5 13 -10 5 -26 -8 -14 -14 -17 -23 -9 -10 8 -16 4 -25 -15 -9
-20 -15 -23 -25 -15 -10 8 -16 5 -25 -15 -8 -18 -16 -24 -29 -20 -13 5 -22 -1
-30 -19 -17 -37 -14 -45 4 -12 11 21 19 26 28 18 10 -8 16 -4 26 14 9 17 19
23 31 20 12 -4 20 1 24 15 3 11 10 20 15 20 14 0 21 -18 10 -25 -5 -3 -7 -18
-4 -34 5 -25 0 -31 -79 -79 -46 -29 -87 -52 -91 -52 -3 0 -6 52 -6 116 l0 116
27 -7 c36 -9 37 -9 23 -35 -6 -12 -9 -24 -7 -27 3 -2 8 5 12 17 5 15 12 19 25
15 13 -4 22 1 30 15 6 12 17 19 24 17 7 -3 19 -1 27 4 17 11 14 10 33 3z m281
-156 c-4 -29 -15 -82 -24 -118 l-16 -65 -46 -9 c-25 -5 -66 -6 -91 -2 -43 6
-47 10 -66 54 -22 51 -47 170 -38 180 3 3 6 -4 6 -15 0 -27 30 -40 36 -16 4
15 18 18 92 19 48 1 98 7 112 12 40 17 42 15 35 -40z m-210 -207 c52 -9 65
-18 65 -40 0 -26 -19 -39 -67 -47 -60 -9 -113 11 -113 42 0 44 18 67 48 59 15
-3 45 -9 67 -14z m615 -117 c0 -34 -48 -56 -112 -52 -69 4 -86 28 -44 64 17
15 37 24 47 21 11 -3 19 -1 19 3 0 5 12 13 28 18 22 8 30 6 45 -10 9 -11 17
-31 17 -44z"/>
<path d="M4014 2659 c-95 -8 -210 -30 -256 -48 l-28 -11 0 -202 c1 -112 5
-248 10 -303 8 -92 11 -102 38 -126 20 -18 33 -44 43 -85 17 -70 14 -94 -11
-94 -11 0 -23 -8 -28 -17 -14 -26 -12 -160 1 -171 18 -13 91 -32 125 -32 58 0
83 59 42 100 -20 20 -21 28 -14 146 4 68 10 126 13 128 3 2 27 6 52 10 l47 7
12 -50 c14 -60 7 -89 -23 -93 -19 -3 -22 -10 -25 -50 -2 -27 1 -48 6 -48 5 0
7 -14 4 -30 -3 -20 2 -37 12 -49 14 -15 14 -20 4 -25 -7 -3 -4 -5 7 -4 11 1
31 -4 44 -11 13 -7 21 -9 18 -4 -3 4 17 8 43 9 55 1 80 16 80 49 0 21 -41 75
-57 75 -4 0 -6 21 -4 47 1 27 3 83 3 126 0 71 2 78 22 83 21 5 21 8 18 189 -3
120 0 185 6 185 13 0 52 -80 52 -108 0 -11 -4 -23 -9 -26 -15 -10 -21 -64 -9
-96 8 -24 7 -37 -3 -56 -10 -20 -10 -41 0 -116 7 -51 20 -113 27 -139 12 -41
19 -49 51 -60 41 -13 156 -7 177 10 36 30 85 263 61 291 -20 24 -25 58 -9 64
19 7 18 66 -1 93 -8 12 -25 23 -36 25 -20 3 -17 8 26 56 26 28 52 52 57 52 8
0 9 -51 5 -166 l-7 -165 31 -11 c22 -8 28 -15 24 -27 -4 -9 -8 -65 -10 -125
-2 -76 -7 -111 -16 -117 -7 -4 -16 -6 -19 -4 -4 2 -7 -1 -8 -8 -1 -7 -4 -23
-7 -37 -8 -35 6 -51 52 -57 28 -4 54 1 88 16 59 26 65 26 65 1 0 -11 11 -27
26 -36 22 -15 32 -15 78 -5 71 16 87 35 91 110 4 76 -6 116 -28 115 -13 -1
-17 7 -17 35 0 29 7 42 35 66 34 29 35 32 44 136 5 59 14 116 19 126 7 12 9
79 5 186 l-6 166 -121 40 c-67 22 -148 45 -182 52 -60 12 -62 12 -97 -16 -36
-26 -37 -30 -37 -89 l0 -61 -43 -27 c-58 -37 -78 -60 -130 -151 -41 -72 -45
-76 -59 -60 -9 10 -24 47 -34 83 -15 53 -28 76 -72 122 l-55 58 7 55 6 55 -60
30 c-33 16 -61 29 -62 29 -2 -1 -44 -5 -94 -10z m131 -31 c14 -6 25 -14 25
-18 0 -4 -39 -11 -86 -15 -47 -4 -127 -15 -176 -25 -82 -17 -92 -18 -114 -3
-13 8 -22 19 -19 23 4 6 123 33 195 44 57 8 151 5 175 -6z m640 -19 c68 -16
225 -72 225 -80 0 -4 -11 -16 -25 -27 l-25 -20 -76 29 c-41 17 -114 40 -161
53 l-86 22 28 22 c19 15 35 20 54 16 14 -3 44 -10 66 -15z m-592 -306 c-3
-159 -7 -290 -9 -292 -5 -5 -336 -62 -340 -58 -2 2 -7 61 -10 131 l-7 127 51
-32 c50 -31 56 -39 53 -66 -1 -7 5 -13 13 -13 23 0 30 -20 15 -46 -11 -22 -14
-23 -30 -8 -20 18 -34 13 -50 -19 -9 -19 -8 -19 10 3 19 23 20 24 39 7 18 -17
20 -17 34 5 15 22 16 22 35 5 19 -16 21 -16 38 3 16 18 20 19 35 5 15 -14 19
-13 35 5 17 19 19 19 39 3 18 -15 18 -14 -2 7 l-22 24 -16 -23 c-12 -16 -19
-20 -27 -12 -7 7 -3 17 16 34 15 13 27 33 27 46 0 24 0 24 23 5 l22 -18 -21
23 c-18 20 -25 21 -43 11 -18 -9 -27 -8 -49 7 l-27 18 27 3 c50 6 35 52 -16
52 -20 0 -20 9 1 32 15 16 18 17 33 3 15 -14 19 -13 35 5 17 19 19 19 39 3 18
-15 18 -14 -2 7 l-22 24 -16 -22 c-15 -22 -17 -23 -35 -6 -19 17 -20 17 -35
-5 -15 -21 -17 -22 -36 -4 -19 17 -20 17 -37 -6 -15 -20 -19 -21 -30 -7 -7 8
-22 14 -34 13 -16 -1 -28 10 -49 48 -25 45 -28 59 -25 130 l2 79 45 13 c50 14
234 40 292 42 l38 1 -7 -287z m-405 251 c21 -14 23 -23 21 -93 -4 -109 24
-176 88 -214 48 -30 58 -32 108 -22 20 4 37 1 50 -10 l20 -16 -20 5 c-11 3
-27 1 -35 -4 -24 -15 27 -63 62 -58 19 3 28 0 28 -9 0 -23 -30 -27 -68 -9
l-37 16 28 -25 c31 -27 15 -35 -21 -9 -26 18 -29 12 -6 -11 27 -27 8 -27 -24
0 -16 14 -32 35 -36 48 -3 15 -20 30 -45 41 -100 46 -151 146 -151 298 0 48 3
88 8 88 4 0 18 -7 30 -16z m998 -25 c51 -16 108 -36 128 -44 l36 -15 0 -129
c0 -129 0 -130 -27 -151 -21 -16 -36 -20 -63 -16 -30 5 -32 4 -11 -4 18 -8 21
-14 13 -22 -13 -13 -42 6 -42 26 0 12 -119 60 -127 52 -2 -2 19 -12 47 -21 39
-13 48 -20 40 -30 -6 -7 -8 -21 -4 -31 5 -18 5 -18 -10 0 -13 16 -19 17 -28 8
-10 -10 -16 -8 -29 10 -15 19 -19 20 -33 9 -9 -8 -14 -16 -11 -19 2 -3 11 1
19 7 12 10 16 8 21 -8 5 -16 12 -20 31 -15 31 8 31 -6 -1 -36 -21 -20 -25 -21
-31 -7 -5 13 -9 14 -25 4 -10 -6 -19 -16 -19 -21 0 -4 7 -2 16 5 14 11 18 10
30 -6 8 -10 14 -25 14 -34 0 -8 7 -23 17 -33 22 -25 4 -23 -63 7 -49 22 -56
28 -50 47 3 13 6 132 6 266 l0 244 33 -7 c17 -3 73 -20 123 -36z m240 -73 c-3
-29 -1 -90 5 -134 14 -101 5 -121 -76 -178 -33 -23 -67 -55 -76 -71 -8 -15
-30 -35 -48 -45 -20 -10 -28 -19 -21 -23 17 -10 -5 -29 -24 -22 -21 8 -20 36
1 59 9 10 11 18 5 18 -6 0 -20 -12 -31 -27 -19 -26 -20 -27 -21 -6 0 12 12 31
26 42 31 24 19 29 -14 5 -12 -8 -22 -11 -22 -5 0 13 49 51 67 51 12 0 12 3 -1
16 -26 26 -7 36 24 13 l29 -22 58 40 c52 35 59 44 65 84 5 24 3 68 -2 98 -16
89 -13 113 18 138 15 12 31 22 36 23 5 0 6 -24 2 -54z m-701 -150 c13 -43 35
-90 47 -104 15 -16 19 -26 11 -29 -9 -3 -9 -12 -2 -29 12 -32 12 -44 -1 -44
-5 0 -10 8 -10 18 0 9 -5 24 -10 32 -8 11 -9 8 -4 -12 10 -43 -1 -61 -27 -48
-15 9 -18 15 -10 23 15 15 14 42 -4 57 -12 10 -16 8 -25 -15 -6 -15 -13 -25
-17 -22 -12 12 -4 69 11 86 14 16 14 23 1 69 -9 29 -29 67 -45 86 -21 23 -30
44 -30 67 l0 33 45 -44 c38 -37 50 -59 70 -124z m295 111 c0 -15 -16 -36 -46
-61 -44 -37 -104 -110 -104 -128 0 -4 11 -8 24 -8 31 0 56 -25 56 -56 0 -29
-16 -32 -23 -4 -3 11 -10 20 -16 20 -19 0 -25 -31 -14 -72 8 -30 7 -38 -3 -38
-16 0 -25 14 -35 54 -7 30 -7 30 -8 -9 -1 -44 -17 -38 -24 10 l-4 30 -2 -33
c-2 -47 -21 -30 -21 20 0 62 99 233 159 274 45 30 61 30 61 1z m-801 -320 c4
-67 6 -124 4 -126 -2 -3 -15 7 -29 21 -23 22 -27 37 -35 129 -4 57 -8 127 -8
154 l-1 50 31 -53 c27 -48 31 -65 38 -175z m530 -99 c30 -5 76 -8 102 -6 39 2
49 0 53 -14 6 -25 25 -22 37 5 17 40 0 -62 -22 -131 -17 -49 -27 -66 -48 -74
-29 -11 -148 -5 -162 9 -8 8 -31 107 -43 192 -6 39 -5 43 11 36 10 -3 42 -11
72 -17z"/>
<path d="M985 2511 c-55 -10 -126 -26 -157 -36 l-57 -18 -5 -76 c-4 -42 -11
-105 -17 -140 -7 -45 -6 -111 2 -230 11 -160 13 -167 40 -196 54 -58 60 -165
9 -165 -23 0 -29 -20 -29 -87 1 -28 -2 -56 -5 -62 -4 -5 4 -17 16 -25 21 -15
21 -16 2 -22 -55 -20 -200 -92 -210 -105 -11 -14 -24 -69 -29 -119 -1 -14 -8
-79 -15 -145 -7 -72 -9 -164 -6 -230 6 -102 8 -111 33 -131 19 -16 26 -32 27
-60 1 -32 -3 -40 -26 -52 -17 -8 -30 -24 -34 -40 -3 -15 -13 -41 -21 -58 -23
-45 -11 -74 44 -109 57 -35 76 -44 48 -21 -20 16 -20 17 5 15 88 -5 111 15 86
74 -15 37 -11 80 10 112 8 11 14 41 14 68 l0 48 53 24 52 23 12 -26 c18 -41
15 -62 -11 -71 -25 -10 -32 -34 -35 -116 -1 -46 1 -52 32 -72 50 -34 112 -39
167 -14 25 11 39 21 33 21 -7 0 -13 7 -13 16 0 8 -13 29 -29 45 -25 24 -29 36
-26 67 2 20 4 42 4 47 1 6 38 10 92 10 82 0 93 2 109 22 32 41 63 258 41 301
-25 50 -31 86 -17 100 12 12 16 10 28 -14 13 -28 16 -29 78 -26 35 2 69 7 75
12 6 5 27 5 50 0 54 -13 122 -12 146 0 27 15 24 2 -6 -26 -23 -21 -25 -30 -20
-70 6 -55 20 -84 40 -84 12 0 15 -15 15 -65 0 -49 4 -66 17 -73 13 -8 17 -26
18 -86 1 -42 -3 -76 -8 -76 -5 0 -7 -18 -4 -41 4 -28 1 -42 -8 -45 -7 -3 -19
-19 -26 -35 -10 -26 -10 -33 4 -46 21 -22 127 -30 167 -13 l30 12 -6 72 c-7
98 -12 116 -29 116 -16 0 -20 36 -9 77 l6 21 58 -20 58 -21 6 -81 c8 -122 6
-167 -8 -182 -9 -9 -48 -14 -117 -17 l-104 -3 103 -2 c101 -2 102 -2 102 -27
0 -35 31 -47 107 -42 80 6 97 19 83 66 -5 19 -7 45 -4 58 10 37 -4 73 -33 84
-25 9 -25 12 -20 65 4 38 12 61 24 69 63 46 58 19 58 292 -1 136 -4 273 -9
304 l-7 57 -78 35 c-42 20 -125 50 -183 68 l-106 32 -54 -20 -53 -21 3 -87 c3
-87 3 -88 -29 -122 -28 -28 -40 -33 -78 -33 -58 0 -67 6 -75 51 -8 44 -26 62
-58 57 -15 -2 -24 -11 -26 -25 -3 -20 -9 -23 -46 -23 -47 0 -72 -19 -62 -46 3
-8 -9 1 -28 20 -30 33 -33 40 -28 86 5 59 -11 91 -57 110 -22 9 -31 19 -31 36
0 14 -11 32 -30 46 -16 12 -30 27 -30 34 0 7 -12 26 -26 43 -22 27 -25 38 -20
74 4 23 9 74 12 114 l6 72 50 10 c70 16 74 15 85 -23 12 -39 -6 -96 -31 -96
-12 0 -15 -15 -15 -74 0 -46 5 -78 12 -84 20 -15 133 -31 164 -23 23 7 28 13
26 36 -1 15 -11 37 -22 49 -20 22 -24 48 -22 174 1 53 4 72 15 72 13 0 26 96
26 197 0 32 4 43 15 43 26 0 114 49 125 69 26 50 11 85 -90 209 -23 28 -26 40
-23 80 5 46 4 47 -40 75 -53 32 -95 34 -242 8z m215 -21 c30 -23 28 -24 -90
-41 -47 -6 -122 -22 -166 -34 l-81 -21 -29 22 c-15 13 -26 26 -23 29 10 9 162
45 234 54 107 13 128 12 155 -9z m46 -67 c-3 -16 -8 -62 -11 -103 -16 -209
-19 -217 -72 -164 l-25 25 -15 -21 c-12 -16 -18 -18 -29 -9 -18 15 -44 5 -44
-17 0 -16 -1 -16 -19 0 -18 16 -20 16 -35 -5 -12 -18 -18 -20 -30 -10 -18 15
-32 8 -46 -22 -10 -21 -10 -21 6 1 16 21 18 21 34 7 17 -15 19 -15 34 6 12 18
18 20 30 10 7 -6 18 -11 22 -10 21 4 34 -2 34 -15 0 -8 -23 -20 -57 -30 -39
-10 -45 -14 -20 -10 21 3 45 8 53 11 10 4 17 -2 21 -16 3 -11 12 -21 19 -21
15 0 19 -12 7 -23 -3 -4 -12 -2 -20 4 -10 9 -18 7 -34 -7 -17 -15 -22 -16 -29
-4 -7 12 -11 12 -27 -2 -13 -12 -23 -14 -36 -7 -10 6 -30 8 -46 4 -25 -5 -29
-2 -44 32 -15 33 -16 57 -8 192 6 109 13 156 22 162 31 19 264 66 332 68 37 1
38 0 33 -26z m-417 -22 c26 -19 27 -23 20 -68 -4 -26 -14 -82 -24 -124 l-16
-76 28 -74 28 -74 48 -5 c52 -5 68 -23 25 -28 -24 -3 -26 -6 -21 -36 3 -20 1
-36 -6 -40 -7 -5 -11 2 -12 16 -1 19 -2 18 -8 -6 -9 -42 -28 -44 -24 -4 l3 33
-11 -27 c-12 -31 -30 -35 -53 -12 -28 28 -15 48 13 22 12 -11 12 -9 6 7 -5 11
-9 38 -10 60 -1 22 -14 66 -30 98 -23 49 -26 67 -21 105 5 41 25 224 26 245 0
11 10 8 39 -12z m523 -178 c18 -34 21 -47 12 -60 -17 -28 -70 -60 -129 -79
-47 -14 -55 -20 -49 -36 5 -15 2 -19 -12 -16 -10 2 -21 14 -25 28 l-7 25 -1
-27 c-1 -34 -16 -37 -25 -5 -7 21 -7 21 -16 2 -7 -17 -9 -15 -9 12 -1 52 42
78 88 53 20 -10 87 18 116 50 16 18 16 21 -5 55 -12 19 -26 35 -31 35 -5 0 -9
21 -9 48 l1 47 39 -45 c22 -25 50 -64 62 -87z m-136 -219 c-3 -26 -6 -70 -6
-99 l0 -52 -67 -7 c-38 -4 -116 -17 -175 -30 l-108 -22 0 20 c0 14 12 26 33
36 20 9 33 24 35 38 3 22 5 23 22 7 17 -15 19 -15 34 6 13 19 17 20 31 9 15
-12 19 -11 34 9 15 20 19 21 30 7 17 -21 27 -20 36 2 5 13 4 14 -6 5 -10 -10
-16 -10 -30 3 -15 14 -18 13 -33 -7 -15 -22 -16 -23 -30 -4 -13 18 -14 17 -31
-9 -18 -27 -18 -27 -36 -7 -24 26 -24 31 1 31 12 0 26 12 35 31 15 29 18 30
34 15 17 -15 19 -15 33 6 14 20 17 21 32 9 14 -12 19 -12 25 -2 5 7 19 12 32
10 32 -3 59 10 59 27 0 8 5 14 11 14 8 0 10 -15 5 -46z m-239 -558 c21 -19 25
-26 13 -29 -84 -26 -159 -56 -227 -92 l-82 -42 -37 21 c-21 12 -39 26 -41 32
-7 21 260 131 324 133 12 1 35 -10 50 -23z m30 -73 c-4 -16 -13 -59 -21 -98
-9 -38 -16 -80 -16 -93 0 -34 -29 -40 -51 -11 l-18 24 -16 -22 c-9 -12 -22
-20 -29 -17 -8 3 -17 0 -22 -7 -4 -7 -3 -10 4 -5 6 3 14 1 18 -5 5 -8 13 -4
25 12 15 20 20 22 31 10 11 -11 11 -14 -1 -18 -7 -3 -21 -14 -30 -25 -39 -47
-142 -70 -149 -33 -4 16 -2 17 11 7 13 -11 18 -9 31 9 12 18 18 20 29 10 12
-9 16 -8 20 3 4 10 1 13 -9 9 -7 -3 -14 0 -14 6 0 18 -18 13 -24 -7 -10 -31
-63 -24 -87 10 -29 41 -19 120 19 147 64 44 239 118 286 120 15 1 17 -4 13
-26z m800 -19 c56 -18 124 -44 150 -58 l48 -24 -37 -18 -37 -17 -78 35 c-43
20 -117 48 -165 64 -49 15 -88 31 -88 34 0 12 55 27 80 23 14 -3 71 -20 127
-39z m-736 -7 c28 -19 35 -30 37 -63 2 -22 -1 -51 -6 -64 -8 -21 -4 -27 22
-45 21 -14 32 -30 34 -50 l2 -30 -15 25 c-15 23 -15 23 -10 3 7 -26 -2 -63
-15 -63 -4 0 -6 9 -3 19 3 11 0 28 -6 38 -10 16 -10 15 -6 -7 4 -18 0 -31 -14
-45 -27 -23 -38 -12 -21 20 11 20 11 27 0 40 -7 9 -19 14 -26 11 -19 -7 -25 6
-10 23 13 15 36 82 36 107 0 6 -13 17 -30 24 -31 13 -34 20 -24 58 8 28 13 28
55 -1z m621 -28 c51 -17 126 -46 166 -64 l72 -34 0 -60 c0 -50 -4 -65 -26 -91
-21 -24 -29 -28 -40 -19 -11 9 -18 8 -29 -1 -12 -10 -17 -7 -26 14 -13 29 -20
31 -36 15 -8 -8 -16 -4 -29 16 -16 25 -19 26 -30 10 -12 -16 -14 -16 -25 9
-14 31 -22 32 -40 9 -13 -16 -12 -17 3 -4 15 11 19 10 29 -13 13 -29 20 -31
36 -15 8 8 16 4 28 -15 14 -21 20 -24 32 -15 11 10 17 8 30 -10 11 -16 18 -20
26 -12 16 16 27 13 27 -7 0 -24 -43 -45 -59 -29 -8 8 -16 6 -29 -6 -30 -27
-69 -22 -87 13 -20 38 -19 54 1 17 13 -24 18 -26 31 -16 13 11 18 10 29 -6 8
-10 14 -15 14 -9 0 5 -6 17 -14 26 -10 14 -15 15 -25 5 -10 -9 -15 -8 -26 7
-19 25 -65 47 -85 41 -15 -5 -18 8 -24 112 -4 65 -10 128 -13 141 -7 30 6 29
119 -9z m-1061 -25 c37 -23 41 -28 35 -57 -3 -17 -11 -34 -17 -38 -7 -4 -1
-22 16 -50 41 -66 76 -99 104 -99 34 0 109 38 121 61 12 21 79 42 106 33 25
-9 53 -44 54 -66 0 -18 -15 -25 -23 -10 -2 4 -2 1 -1 -5 4 -17 -6 -43 -16 -43
-5 0 -13 12 -19 28 -10 24 -11 24 -7 3 5 -25 -8 -51 -26 -51 -6 0 -8 7 -5 15
15 36 -42 36 -120 -2 -98 -47 -138 -34 -203 67 -46 72 -62 127 -55 188 4 28 8
52 11 52 2 0 23 -12 45 -26z m1390 -196 c5 -84 6 -212 2 -284 l-6 -130 -33
-22 -34 -22 0 180 0 179 31 36 c54 61 19 38 -50 -34 l-66 -69 -69 -7 c-39 -4
-88 -16 -110 -26 -48 -22 -74 -23 -113 -7 l-28 11 30 7 c22 6 24 8 9 9 -12 0
-27 7 -33 15 -10 12 -6 14 26 11 21 -1 29 0 18 2 -47 11 -59 45 -24 64 15 8
24 8 32 0 8 -8 6 -11 -7 -11 -9 0 -14 -4 -11 -10 7 -11 48 -14 58 -3 4 3 -3
22 -15 41 -19 31 -20 34 -3 30 10 -1 31 -23 45 -48 31 -53 54 -59 135 -36 45
14 61 25 95 69 53 67 90 126 69 110 -21 -17 -29 -7 -29 37 0 31 5 39 33 52 17
9 34 14 36 12 2 -2 7 -72 12 -156z m-677 110 c9 -12 16 -35 16 -50 0 -30 8
-34 90 -41 40 -4 49 0 82 31 l37 35 7 -38 c6 -35 4 -41 -22 -62 -26 -22 -35
-24 -94 -17 -77 8 -104 8 -148 -2 -29 -6 -33 -4 -32 12 6 55 -1 83 -21 89 -11
4 -23 4 -27 1 -3 -4 4 -9 16 -13 22 -5 31 -23 11 -23 -20 0 -49 21 -49 35 0
10 11 15 34 15 46 0 66 -9 66 -29 1 -14 2 -13 11 3 8 13 8 25 0 43 -13 29 -14
33 -2 33 6 0 17 -10 25 -22z m-713 -337 l-3 -171 -39 28 c-38 27 -39 28 -41
97 -3 87 0 220 8 304 l6 63 36 -75 37 -75 -4 -171z m279 147 c0 -7 -7 -26 -15
-42 -8 -15 -15 -36 -15 -45 -1 -25 -36 -62 -53 -55 -8 3 -18 0 -23 -7 -4 -8
-3 -10 5 -5 6 4 18 3 25 -3 10 -8 16 -4 26 17 12 26 13 26 20 6 5 -11 10 -33
12 -48 3 -25 -3 -29 -106 -76 -162 -74 -146 -79 -145 42 1 57 4 129 8 161 6
58 6 58 26 40 11 -11 29 -22 40 -27 16 -6 17 -9 5 -16 -34 -22 11 -6 85 30 87
42 105 46 105 28z m1026 -375 c-2 -3 -58 16 -123 40 -65 25 -135 48 -156 52
-43 8 -57 31 -57 91 0 39 7 44 73 47 26 2 50 7 54 12 5 4 2 5 -4 1 -7 -4 -13
-2 -13 3 0 21 20 11 38 -19 17 -27 20 -28 35 -13 15 15 17 14 28 -10 13 -29
24 -34 35 -16 4 8 13 4 26 -12 l19 -24 -12 28 c-13 29 -20 32 -36 16 -7 -7
-15 -2 -27 16 -14 22 -20 24 -32 14 -12 -10 -17 -8 -29 7 -12 16 -11 20 2 28
15 8 70 4 108 -9 14 -4 12 -2 -5 9 -19 12 -21 15 -8 16 10 0 32 13 50 29 l33
29 3 -165 c1 -91 1 -168 -2 -170z m-771 151 c-9 -51 -23 -98 -31 -105 -18 -15
-102 -24 -148 -15 -31 6 -37 12 -54 59 -11 29 -23 75 -28 102 -7 47 -6 49 10
35 16 -12 19 -12 27 3 8 13 25 17 77 18 37 0 87 6 112 12 57 15 57 13 35 -109z"/>
<path d="M5303 1790 c-26 -8 -35 -20 -51 -63 -15 -40 -25 -53 -43 -55 -48 -7
-108 -92 -109 -153 0 -15 -18 -58 -40 -95 -25 -43 -40 -81 -40 -102 0 -18 16
-74 35 -124 20 -51 33 -99 30 -107 -4 -10 0 -9 15 4 21 19 22 52 3 101 -4 11
5 14 42 14 28 0 44 4 40 10 -3 6 -22 10 -41 10 -19 0 -34 4 -34 8 0 12 34 42
47 42 6 0 16 14 22 30 8 24 7 30 -4 30 -25 0 -28 39 -6 75 16 27 17 35 6 35
-23 0 -68 -105 -61 -141 4 -22 0 -39 -14 -59 -11 -16 -18 -36 -15 -47 3 -10
-4 2 -16 27 -35 76 -35 97 7 175 20 39 40 72 43 75 3 3 6 24 7 47 0 29 9 52
28 78 46 60 89 62 46 2 -19 -26 -20 -29 -3 -14 21 18 38 23 28 7 -3 -5 -7 -26
-9 -46 -1 -19 -8 -39 -15 -43 -10 -6 -8 -10 4 -15 12 -4 26 3 42 20 23 26 27
26 121 22 82 -3 102 -7 128 -27 23 -17 36 -21 49 -14 15 9 15 11 1 22 -19 16
-22 56 -3 45 10 -6 10 -4 0 7 -7 7 -13 20 -13 28 0 11 5 10 22 -5 23 -20 17
-3 -10 29 -11 12 -12 21 -5 28 24 24 97 -86 92 -140 -2 -14 14 -58 34 -98 20
-40 37 -85 37 -100 0 -16 -16 -64 -36 -108 l-35 -80 -4 -175 c-4 -198 -10
-236 -44 -259 l-24 -16 6 98 c4 53 3 97 -2 97 -5 0 -11 -43 -13 -96 -4 -67
-10 -99 -19 -105 -20 -12 -240 -11 -314 2 l-62 11 -7 156 c-4 86 -11 177 -15
202 -8 45 -9 45 -10 -20 0 -37 -6 -72 -13 -79 -9 -9 -9 -12 -1 -7 15 8 28
-125 20 -205 -6 -51 -4 -58 13 -64 18 -6 18 -7 -2 -40 -15 -26 -21 -57 -23
-121 l-4 -87 -48 -45 c-26 -25 -40 -43 -30 -39 11 4 17 2 17 -7 0 -30 76 -49
141 -35 65 14 86 38 71 85 -10 32 -9 36 11 44 12 5 16 9 10 9 -7 1 -13 10 -13
20 0 29 -11 51 -25 51 -19 0 -26 40 -10 69 7 14 24 36 37 48 20 19 31 20 96
16 l72 -6 0 -37 c0 -22 9 -51 23 -72 13 -18 26 -44 29 -55 5 -20 1 -22 -36
-26 -38 -3 -37 -4 12 -5 28 -1 52 -4 52 -7 0 -3 -9 -18 -21 -34 -29 -39 -23
-82 14 -94 41 -13 127 31 153 78 18 33 18 36 1 64 -9 16 -17 38 -17 48 0 30
-30 65 -51 60 -14 -4 -24 3 -34 23 -23 44 -19 59 25 99 36 32 40 43 50 106 5
39 10 131 10 205 0 132 0 135 37 220 20 47 37 99 37 117 0 17 -17 63 -37 102
-20 39 -37 84 -37 101 0 58 -59 143 -105 152 -14 2 -25 18 -35 51 -9 27 -23
53 -33 58 -25 14 -138 20 -174 9z m140 -21 c54 -15 50 -40 -5 -33 -71 9 -145
-47 -164 -123 -16 -62 26 -65 45 -3 15 49 62 90 105 90 42 0 76 -36 87 -92 13
-67 11 -81 -7 -74 -47 18 -156 27 -210 17 -32 -6 -59 -9 -62 -7 -8 9 27 158
45 189 26 44 88 58 166 36z"/>
<path d="M4226 1404 l-48 -26 6 -47 c6 -43 3 -54 -29 -106 -37 -62 -45 -117
-25 -170 9 -23 6 -32 -14 -56 -32 -38 -42 -84 -24 -112 12 -18 12 -26 1 -47
-7 -14 -13 -33 -13 -42 0 -10 -5 -18 -11 -18 -23 0 12 -253 40 -299 5 -7 31
-16 58 -18 49 -5 49 -5 45 -38 -3 -26 1 -36 20 -48 35 -23 90 -30 136 -18 52
14 76 37 67 65 -3 12 -10 48 -15 81 -6 42 -15 64 -30 75 -20 15 -20 19 -8 48
l13 32 51 -31 c50 -31 51 -34 47 -69 -3 -22 1 -48 10 -66 25 -48 24 -97 -1
-129 -27 -34 -28 -49 -2 -75 16 -16 33 -20 80 -20 107 0 151 44 116 116 -9 19
-16 44 -16 55 0 31 -19 59 -39 59 -39 0 -36 79 4 100 21 11 23 21 29 119 7
106 -4 286 -25 423 -13 86 -25 102 -124 163 -59 37 -235 126 -246 125 -2 -1
-26 -12 -53 -26z m138 -38 c82 -38 236 -133 236 -147 0 -9 -53 -39 -70 -39 -6
0 -35 18 -64 40 -29 22 -99 64 -156 94 l-103 54 29 16 c40 21 46 20 128 -18z
m41 -123 c103 -67 111 -76 125 -150 20 -104 -1 -214 -33 -172 -15 19 -57 20
-50 2 4 -10 9 -10 18 -3 12 10 25 4 25 -12 0 -13 -75 -9 -89 5 -11 10 -12 9
-6 -2 5 -9 3 -12 -6 -9 -8 3 -14 10 -14 16 0 19 -55 50 -77 44 -25 -6 -38 13
-38 55 0 17 -9 84 -21 150 -11 65 -23 133 -26 151 l-6 34 64 -32 c35 -18 96
-53 134 -77z m-186 -41 c1 -13 -7 -37 -16 -52 -16 -27 -16 -33 1 -92 10 -35
25 -71 33 -81 18 -19 10 -33 -21 -39 -25 -4 -46 -39 -28 -45 17 -6 15 -33 -3
-33 -19 0 -36 34 -29 57 5 15 4 15 -5 3 -5 -8 -8 -26 -5 -40 5 -24 5 -24 -10
-6 -19 23 -19 31 -6 57 16 30 3 22 -15 -8 l-16 -28 6 35 c3 19 17 47 31 61 24
25 25 31 15 60 -20 58 -14 111 20 165 28 43 33 47 40 29 4 -11 8 -31 8 -43z
m407 -58 c15 -120 -17 -271 -63 -301 -20 -13 -41 -15 -120 -10 -52 4 -102 12
-109 18 -10 8 -15 5 -20 -15 -9 -38 -34 -33 -35 7 -1 23 -3 26 -6 10 -6 -33
-33 -29 -33 5 0 20 -3 23 -10 12 -19 -30 -24 3 -5 38 16 30 27 38 58 43 20 3
35 4 33 2 -3 -3 10 -18 29 -34 29 -26 40 -29 98 -29 46 0 70 5 81 16 9 8 16
17 16 18 0 2 4 25 9 52 7 34 6 70 -3 117 l-13 68 36 19 c20 11 39 19 43 20 4
0 10 -25 14 -56z m24 -329 l0 -185 -32 -20 c-18 -11 -36 -20 -40 -20 -5 0 -8
54 -8 120 0 105 3 124 19 141 19 21 41 89 41 128 0 12 5 21 10 21 6 0 10 -68
10 -185z m-246 6 c3 -5 15 -7 25 -4 13 3 21 -2 26 -16 6 -21 25 -29 25 -11 0
6 -4 10 -10 10 -5 0 -10 5 -10 10 0 21 17 9 39 -27 12 -21 20 -29 16 -18 -19
54 -19 55 14 55 l31 0 0 -116 c0 -64 -4 -114 -8 -112 -4 2 -45 26 -90 53 -76
46 -82 52 -79 78 2 15 0 30 -5 33 -16 10 -8 26 11 21 13 -3 18 -1 14 9 -2 7
-11 10 -20 7 -16 -6 -35 15 -27 29 7 11 42 10 48 -1z m-181 -118 c73 -4 97 -9
97 -19 0 -23 30 -16 40 9 16 40 11 -7 -10 -88 -31 -121 -35 -125 -128 -125
-42 0 -83 4 -90 9 -12 7 -52 172 -52 215 0 15 5 17 23 11 12 -4 66 -9 120 -12z
m453 -329 c15 -35 14 -38 -4 -57 -21 -21 -95 -34 -136 -23 -19 5 -26 13 -26
31 0 29 41 60 70 52 13 -3 20 0 20 8 0 8 12 16 28 18 15 2 28 5 30 6 2 0 10
-15 18 -35z"/>
<path d="M3217 1389 c-48 -25 -53 -39 -38 -102 l11 -50 -40 -40 c-49 -46 -60
-72 -60 -138 0 -66 -16 -62 -24 7 -13 115 -43 144 -147 144 l-49 0 0 45 c0 41
-3 47 -40 71 -36 24 -45 25 -102 19 -78 -8 -318 -55 -337 -65 -11 -6 -14 -25
-12 -74 l2 -66 -60 -76 c-34 -41 -64 -87 -67 -101 -4 -16 1 -54 15 -97 23 -74
32 -169 19 -198 -29 -62 85 -88 145 -32 24 22 26 22 41 5 24 -26 21 -102 -4
-124 -17 -14 -20 -29 -20 -90 0 -63 3 -76 23 -94 52 -48 108 -56 151 -22 32
25 33 48 4 84 -20 26 -22 38 -20 143 1 63 3 116 4 117 2 1 22 5 45 9 37 5 42
3 48 -15 14 -44 8 -90 -15 -106 -20 -14 -22 -21 -15 -82 4 -36 11 -73 16 -82
10 -20 84 -42 129 -37 46 4 75 43 60 82 -5 15 -19 30 -30 33 -15 4 -20 14 -21
42 -5 214 -7 200 25 211 l29 10 -8 185 -7 185 45 0 c25 0 49 -4 52 -10 3 -5 9
-32 12 -59 5 -48 5 -49 -26 -56 -17 -3 -38 -16 -46 -28 -19 -27 -20 -86 -2
-93 10 -4 13 -19 9 -56 -9 -96 40 -292 76 -302 73 -20 163 -17 197 8 10 7 24
52 39 125 19 98 24 111 35 97 11 -13 11 -25 2 -59 -6 -23 -10 -74 -9 -114 2
-68 0 -72 -28 -96 -16 -13 -36 -27 -44 -30 -13 -4 -12 -6 1 -6 9 -1 19 -10 22
-21 7 -27 65 -50 127 -50 40 0 56 5 74 23 21 21 22 27 13 87 -14 102 -17 110
-32 110 -21 0 -26 15 -15 45 8 22 13 24 30 15 17 -9 20 -21 20 -71 0 -33 5
-70 12 -82 6 -12 14 -38 18 -57 5 -29 1 -38 -17 -53 -32 -26 -31 -71 2 -93 32
-21 133 -14 170 10 28 18 31 41 14 113 -18 76 -26 91 -51 95 -17 2 -24 11 -26
30 -3 22 4 32 38 54 22 15 43 38 47 52 9 39 -5 429 -20 514 -15 85 -16 87
-127 162 -64 43 -202 116 -217 116 -5 -1 -25 -10 -46 -21z m137 -48 c85 -44
206 -127 206 -142 0 -5 -15 -16 -33 -25 l-33 -16 -72 54 c-40 30 -106 72 -147
94 -74 39 -75 39 -54 57 31 25 49 22 133 -22z m-546 -27 c12 -8 22 -18 22 -22
0 -4 -42 -13 -92 -20 -51 -7 -127 -21 -168 -32 -41 -11 -83 -20 -93 -20 -22 0
-72 36 -60 43 21 13 279 61 353 66 9 1 26 -6 38 -15z m479 -31 c44 -27 108
-69 140 -94 50 -39 61 -53 66 -85 10 -61 8 -83 -10 -110 -15 -24 -18 -25 -29
-9 -8 10 -14 12 -19 5 -3 -5 -11 -8 -16 -5 -5 4 -9 1 -9 -5 0 -7 8 -9 20 -5
25 8 28 -16 4 -36 -13 -10 -17 -10 -24 0 -6 10 -12 11 -26 2 -13 -8 -14 -11
-4 -9 9 2 15 -1 15 -7 0 -5 -12 -10 -27 -10 -14 0 -24 -3 -22 -7 5 -8 -23 -16
-66 -21 -25 -2 -25 0 -33 93 -7 92 -40 301 -53 334 -9 25 4 20 93 -31z m-435
-233 c1 -121 2 -241 3 -267 l0 -48 -65 -18 c-71 -19 -291 -59 -297 -54 -9 10
-24 476 -16 507 9 32 13 35 81 52 91 23 218 46 260 47 l32 1 2 -220z m-388
-84 c3 -132 9 -254 12 -269 6 -27 5 -28 -14 -16 -25 15 -38 57 -23 72 15 15
14 37 -3 37 -24 0 -37 215 -13 239 10 11 9 13 -2 9 -8 -2 -30 -27 -49 -54 -31
-44 -34 -54 -29 -99 8 -79 24 -105 64 -105 35 0 45 -19 14 -27 -17 -4 -18 -7
-5 -31 8 -15 14 -38 13 -52 -1 -23 -1 -23 -15 8 -19 43 -23 40 -17 -8 5 -32 2
-40 -10 -40 -10 0 -13 6 -10 19 3 11 0 28 -6 38 -10 16 -11 15 -6 -7 3 -14 0
-33 -7 -43 -12 -16 -15 -16 -33 -3 -15 12 -17 18 -7 24 10 7 10 15 -2 43 -10
23 -11 39 -5 51 7 13 2 42 -16 100 -31 99 -29 111 53 211 58 71 58 73 54 126
l-4 53 29 -17 30 -17 7 -242z m746 205 c0 -17 -10 -37 -26 -52 -25 -23 -26
-27 -21 -111 4 -85 4 -88 -17 -88 -29 0 -46 -18 -46 -48 0 -15 -5 -22 -12 -19
-8 2 -12 18 -11 37 1 36 -13 29 -19 -10 -4 -23 -5 -23 -13 -6 -6 13 -3 30 8
50 l17 31 -25 -28 c-14 -15 -25 -22 -25 -15 0 22 29 57 61 73 27 14 29 20 29
71 0 63 17 103 57 132 33 24 43 20 43 -17z m-220 6 c32 -16 48 -50 56 -120 6
-49 3 -64 -17 -102 -23 -43 -23 -45 -6 -74 14 -24 15 -34 5 -58 l-11 -28 -7
35 c-6 29 -8 31 -9 9 -1 -27 -26 -57 -38 -45 -3 3 -2 21 3 39 6 17 8 40 6 50
-5 23 -33 22 -39 -3 -3 -11 -9 -20 -14 -20 -15 0 -10 48 7 64 15 15 22 18 54
20 22 1 26 96 5 136 -14 27 -20 30 -65 30 l-50 0 0 40 0 40 48 0 c26 0 58 -6
72 -13z m600 -74 c14 -91 26 -415 16 -465 -4 -22 -16 -39 -34 -51 l-29 -16 -6
170 c-7 169 -7 171 18 213 39 66 29 66 -14 0 -21 -32 -49 -69 -63 -81 -24 -23
-103 -45 -213 -60 -54 -7 -60 -10 -59 -30 1 -27 -21 -30 -35 -6 -6 11 -5 26 1
42 7 20 6 23 -2 15 -7 -7 -13 -24 -13 -38 -2 -34 -20 -28 -28 10 -4 16 -7 23
-8 16 -1 -17 -21 -5 -21 13 0 7 12 28 27 45 22 27 31 31 57 26 16 -4 38 -13
47 -22 15 -14 26 -14 76 -4 96 20 134 41 182 104 27 35 41 60 34 64 -6 4 -13
27 -17 53 -6 44 -6 46 26 61 18 9 36 17 39 17 4 1 12 -34 19 -76z m-70 -373
l0 -160 -130 87 c-123 82 -130 88 -130 120 0 29 3 33 26 33 16 0 23 -4 18 -12
-4 -7 -3 -8 4 -4 7 4 17 -3 24 -18 8 -18 15 -23 23 -16 7 5 15 7 18 3 4 -3 7
-1 7 6 0 8 -7 10 -19 6 -22 -7 -39 24 -19 37 18 11 38 10 38 -2 0 -5 5 -10 11
-10 5 0 7 6 3 13 -6 8 -3 8 9 -1 9 -8 19 -23 22 -33 5 -16 10 -18 20 -9 11 9
17 5 29 -17 18 -33 21 -25 4 12 -8 17 -17 24 -29 20 -12 -4 -20 1 -25 17 -6
20 -1 27 23 31 5 0 22 13 38 29 17 15 31 28 33 28 1 0 2 -72 2 -160z m-305
-42 c-9 -72 -34 -171 -46 -183 -15 -15 -153 -12 -173 4 -15 12 -44 96 -61 176
-5 24 -4 28 6 18 7 -7 19 -13 26 -13 7 0 13 6 13 13 0 8 24 13 83 14 45 1 96
6 112 11 47 16 47 15 40 -40z m385 -329 c17 -41 5 -60 -48 -78 -54 -20 -116
-6 -120 26 -3 23 30 53 59 53 9 0 30 7 45 15 41 21 50 19 64 -16z"/>
</g>
</svg>
