<?xml version="1.0" standalone="no"?>
<!DOCTYPE svg PUBLIC "-//W3C//DTD SVG 20010904//EN"
 "http://www.w3.org/TR/2001/REC-SVG-20010904/DTD/svg10.dtd">
<svg version="1.0" xmlns="http://www.w3.org/2000/svg"
 width="640.000000pt" height="400.000000pt" viewBox="0 0 640.000000 400.000000"
 preserveAspectRatio="xMidYMid meet">

<g transform="translate(0.000000,400.000000) scale(0.100000,-0.100000)"
fill="#000000" stroke="none">
<path d="M3296 3984 c-10 -26 -7 -254 4 -274 5 -10 44 -40 85 -66 l75 -47 0
-65 c0 -55 -4 -68 -23 -86 -22 -20 -24 -32 -19 -102 1 -12 11 -24 22 -27 17
-4 20 -15 22 -103 2 -80 6 -99 18 -99 12 0 16 20 20 100 3 55 8 93 12 85 4 -8
17 -41 28 -72 17 -45 31 -65 66 -90 l44 -31 0 -128 c0 -74 4 -130 10 -134 6
-3 10 -24 10 -45 0 -26 6 -42 17 -48 9 -6 14 -16 10 -25 -5 -12 -25 -5 -112
39 -106 54 -111 55 -177 37 -13 -3 -18 -14 -18 -39 0 -31 -2 -33 -19 -22 -30
19 -80 137 -74 174 6 39 -11 74 -37 74 -18 0 -20 7 -20 60 l0 61 73 -41 c41
-22 77 -40 80 -40 4 0 7 67 7 150 l0 149 -43 29 c-40 28 -312 182 -321 182 -9
0 -18 -192 -11 -247 l7 -59 79 -48 79 -47 0 -74 c0 -64 -3 -76 -20 -85 -16 -9
-20 -21 -20 -66 0 -47 3 -57 20 -61 18 -5 20 -14 20 -105 0 -97 0 -99 23 -96
21 3 22 9 27 98 l5 95 23 -67 c22 -65 38 -84 102 -131 19 -13 20 -15 4 -8 -12
6 -24 7 -28 4 -3 -3 -6 -70 -6 -147 l0 -141 46 -41 c43 -39 46 -44 40 -78 l-7
-36 -42 27 c-23 14 -75 41 -115 60 -66 30 -78 32 -113 23 -36 -10 -39 -14 -39
-46 0 -32 -2 -34 -21 -23 -31 16 -82 134 -75 173 7 37 -16 76 -45 76 -16 0
-19 7 -19 55 0 35 4 55 12 55 6 0 39 -16 74 -35 34 -19 65 -35 68 -35 3 0 6
69 6 154 l0 154 -108 65 c-59 35 -140 81 -179 101 l-72 36 -7 -45 c-3 -25 -5
-93 -2 -151 4 -119 -1 -111 112 -180 l51 -30 3 -68 c3 -61 1 -70 -21 -90 -20
-19 -24 -30 -21 -67 2 -30 10 -48 24 -58 18 -12 20 -24 20 -107 0 -87 1 -94
20 -94 19 0 20 7 20 95 0 52 4 95 8 95 4 0 18 -31 30 -69 21 -63 27 -72 77
-107 l55 -37 0 -165 c0 -138 3 -167 16 -176 9 -7 12 -18 9 -28 -6 -14 -17 -11
-87 23 -79 38 -89 39 -150 22 -13 -3 -18 -14 -18 -39 0 -31 -2 -33 -19 -22
-30 19 -80 137 -74 174 6 39 -11 74 -37 74 -18 0 -20 7 -20 55 0 30 2 55 5 55
3 0 37 -16 75 -35 38 -19 72 -35 75 -35 3 0 5 68 5 150 l0 150 -67 44 c-70 44
-287 166 -297 166 -3 0 -6 -69 -6 -153 l0 -152 80 -50 80 -50 0 -72 c0 -62 -3
-74 -20 -83 -15 -8 -20 -21 -20 -55 0 -25 -2 -45 -5 -45 -2 0 -20 7 -38 16
l-35 17 -183 -101 -184 -100 -3 -42 c-8 -102 38 -201 87 -185 20 6 21 3 21
-90 0 -53 -3 -95 -7 -93 -66 32 -74 40 -53 53 19 12 11 65 -14 88 -13 12 -31
37 -40 54 -18 35 -58 52 -85 36 -9 -5 -24 -26 -34 -46 -10 -20 -23 -37 -28
-37 -5 0 -32 11 -59 25 l-50 25 0 124 0 123 38 7 c20 3 57 6 81 6 31 0 90 18
185 56 l141 55 68 110 c41 65 65 114 61 121 -4 7 -43 63 -86 124 l-79 111
-137 46 c-131 44 -143 46 -282 51 -137 6 -149 5 -223 -20 -43 -14 -81 -24 -84
-21 -3 3 16 40 42 81 l47 76 -81 113 c-44 63 -86 119 -93 124 -7 6 -73 31
-146 57 l-134 46 -150 0 -150 0 -142 -46 -141 -45 -92 -125 -92 -125 57 -90
c31 -49 66 -101 77 -115 29 -36 299 -134 372 -134 l53 0 0 -120 c0 -66 -3
-120 -6 -120 -3 0 -170 95 -371 211 -200 116 -369 209 -375 207 -7 -3 128 -84
298 -183 170 -98 337 -194 371 -214 35 -20 63 -38 63 -41 0 -3 -41 -27 -90
-53 -79 -42 -93 -46 -113 -36 -12 7 -134 77 -270 156 -221 127 -293 164 -261
134 5 -5 97 -60 204 -121 107 -62 226 -131 264 -152 l68 -40 -70 -44 -70 -44
-7 -76 c-4 -42 -4 -136 0 -210 7 -126 9 -134 31 -149 13 -8 24 -22 24 -29 0
-8 12 -29 26 -46 24 -28 31 -31 63 -25 33 5 51 -2 173 -75 82 -48 140 -89 143
-101 14 -43 42 -56 113 -54 39 1 80 9 99 18 46 24 53 22 46 -15 -5 -26 -2 -35
20 -52 21 -17 30 -38 43 -100 l16 -79 -27 -87 c-16 -54 -25 -104 -23 -131 l3
-44 50 -3 c70 -4 120 28 120 78 0 29 -4 36 -30 44 -16 6 -32 11 -34 13 -2 1 7
30 20 65 22 63 23 64 56 60 29 -4 34 -9 44 -45 12 -44 10 -81 -11 -194 -15
-86 -9 -120 25 -129 55 -14 145 39 145 85 0 35 -17 51 -52 51 -15 0 -28 1 -28
3 0 1 7 24 15 51 8 27 15 64 15 83 0 18 2 33 5 33 3 0 41 -20 84 -45 57 -33
82 -54 91 -76 17 -40 34 -47 110 -45 54 2 78 9 141 42 l77 40 6 -50 c3 -28 6
-72 6 -98 0 -37 5 -51 21 -60 11 -7 28 -32 39 -55 19 -44 50 -61 89 -48 14 4
59 -17 157 -75 110 -64 142 -87 159 -117 l21 -38 74 -2 c74 -1 76 -1 185 60
61 33 147 84 193 113 74 49 82 57 83 86 3 88 -14 93 299 -88 256 -148 323
-183 294 -155 -5 6 -135 83 -289 171 -154 89 -284 165 -288 169 -4 4 -6 53 -5
109 l3 101 485 -279 c266 -154 489 -280 494 -280 24 0 -45 42 -501 305 -330
190 -483 283 -483 294 0 9 -7 26 -15 37 -11 17 -14 62 -14 224 1 187 2 205 21
230 10 15 21 45 22 68 2 22 11 48 20 57 9 9 16 29 16 44 0 23 5 29 38 37 43
11 44 21 10 120 -20 55 -21 66 -9 117 13 60 24 75 44 59 12 -10 40 -16 63 -13
18 2 34 49 34 98 0 49 18 123 31 123 4 0 11 -13 17 -28 5 -16 33 -46 61 -66
l51 -38 2 -76 c1 -43 1 -114 -1 -160 -2 -67 0 -87 14 -102 14 -15 16 -30 10
-78 -5 -44 -3 -69 10 -98 9 -23 12 -40 6 -42 -25 -8 -61 -45 -61 -62 0 -28 33
-41 93 -38 47 3 52 6 55 27 2 14 -4 54 -13 89 -15 53 -16 70 -6 103 7 21 16
39 22 39 5 0 25 -10 44 -22 34 -23 35 -24 35 -96 0 -52 6 -84 19 -110 l19 -38
-28 -11 c-38 -14 -52 -60 -25 -80 20 -14 74 -17 113 -7 29 8 28 32 -2 120 -22
61 -23 76 -14 115 16 64 27 73 67 53 32 -16 34 -16 54 5 17 16 22 34 23 74 0
29 9 83 19 119 17 65 17 68 -1 95 -10 15 -17 39 -15 51 1 13 -5 55 -14 94 -15
60 -16 76 -5 109 7 21 15 39 18 39 2 0 22 -10 43 -22 l39 -22 0 -73 c0 -44 6
-89 16 -113 9 -23 15 -42 13 -43 -2 -1 -13 -7 -23 -13 -57 -31 -44 -77 24 -82
61 -5 90 4 90 28 0 11 -11 52 -25 91 -22 64 -23 74 -12 120 14 54 33 81 45 63
4 -6 22 -15 40 -19 30 -6 33 -4 48 31 10 23 14 53 11 76 -4 28 0 44 14 62 10
13 19 36 19 50 0 24 1 24 33 14 17 -6 53 -27 80 -47 l47 -35 0 -167 c0 -140 2
-168 15 -173 12 -4 14 -18 9 -73 -5 -51 -2 -78 9 -105 16 -38 16 -38 -9 -44
-27 -7 -44 -31 -44 -62 0 -25 18 -32 78 -32 77 0 79 5 55 107 -15 66 -17 94
-10 113 17 41 23 43 67 20 l42 -22 -6 -58 c-6 -54 -1 -84 28 -151 5 -11 -1
-19 -19 -27 -38 -17 -49 -53 -23 -74 32 -28 138 -21 138 9 0 8 -11 49 -25 90
-24 70 -25 80 -14 130 12 52 33 78 48 56 3 -5 18 -13 33 -17 39 -9 60 27 63
107 1 34 8 75 14 90 19 49 13 91 -18 131 -42 52 -56 121 -36 168 l15 37 43
-26 43 -27 -4 -62 c-3 -47 1 -72 17 -109 25 -57 25 -55 6 -55 -21 0 -55 -36
-55 -60 0 -27 64 -46 116 -33 45 10 46 16 12 125 -19 60 -20 72 -9 122 9 42
17 56 30 56 10 0 21 -3 25 -7 4 -4 18 -9 31 -10 35 -5 55 30 55 99 0 47 4 59
20 68 17 9 20 23 22 103 l3 92 25 -70 c22 -61 32 -75 78 -109 l52 -39 0 -167
c0 -140 2 -169 15 -174 12 -4 14 -18 9 -73 -5 -51 -2 -78 9 -105 16 -38 16
-38 -9 -44 -41 -10 -62 -75 -28 -88 24 -9 107 -7 124 4 12 8 12 20 -7 97 -14
55 -18 92 -12 97 5 6 9 18 9 27 0 28 17 31 59 10 l39 -20 -4 -61 c-3 -54 4
-90 30 -151 5 -11 -1 -19 -19 -27 -38 -17 -49 -53 -23 -74 32 -28 138 -21 138
9 0 8 -11 49 -25 90 -24 70 -25 80 -14 130 12 52 33 78 48 56 3 -5 18 -13 33
-17 39 -9 60 27 63 107 1 34 8 75 14 90 21 52 14 94 -22 134 -57 64 -67 85
-67 135 0 45 -3 50 -42 79 -78 56 -237 130 -266 123 -61 -13 -62 -14 -62 -50
0 -31 -2 -33 -19 -22 -30 19 -80 137 -74 174 6 39 -11 74 -37 74 -18 0 -20 7
-20 60 0 33 2 60 4 60 2 0 35 -18 74 -40 38 -22 72 -40 76 -40 3 0 6 68 6 150
l0 150 -82 54 c-90 58 -277 161 -282 155 -5 -6 -10 -162 -8 -239 l2 -65 80
-45 80 -45 0 -77 c0 -67 -3 -79 -20 -88 -16 -9 -20 -21 -20 -61 0 -31 -4 -48
-10 -44 -5 3 -10 31 -10 61 0 52 -2 55 -42 85 -24 17 -88 53 -142 81 -91 46
-103 49 -140 42 -38 -8 -41 -12 -44 -46 -3 -35 -5 -37 -23 -25 -30 18 -82 135
-75 170 8 39 -9 75 -36 79 -21 3 -23 9 -26 61 -2 31 0 57 3 57 3 0 39 -18 80
-41 l74 -40 6 34 c4 19 5 87 3 151 -3 108 -5 119 -25 134 -52 39 -334 194
-341 188 -9 -10 -16 -228 -8 -270 5 -27 19 -40 86 -80 l80 -49 0 -73 c0 -64
-2 -73 -20 -79 -18 -6 -25 -17 -21 -38 1 -5 -3 -6 -9 -2 -5 3 -10 31 -10 61 0
52 -2 55 -42 85 -24 17 -88 53 -142 81 -91 46 -103 49 -140 42 -38 -8 -41 -12
-44 -46 -3 -35 -5 -37 -23 -25 -30 18 -82 135 -75 170 8 39 -9 75 -36 79 -20
3 -23 9 -26 56 -2 32 1 52 8 52 6 0 41 -16 79 -35 69 -34 69 -34 75 -12 9 35
7 243 -3 270 -15 40 -339 232 -359 213 -9 -10 -16 -208 -8 -260 6 -39 11 -45
86 -91 l80 -50 0 -72 c0 -40 -4 -73 -9 -73 -24 0 -38 -31 -35 -74 3 -52 9 -66
30 -66 8 0 14 -8 14 -17 0 -13 -9 -8 -35 17 -32 31 -35 39 -35 91 l0 58 -72
44 c-40 25 -103 60 -139 78 -57 27 -72 31 -112 25 -45 -7 -47 -8 -47 -42 0
-60 -32 -35 -76 59 -19 43 -24 67 -20 92 5 27 2 39 -14 55 -11 11 -27 20 -35
20 -12 0 -15 13 -15 55 0 30 2 55 5 55 3 0 38 -16 77 -36 56 -28 73 -33 79
-22 10 14 12 241 3 273 -6 22 -113 94 -254 169 -94 50 -105 53 -114 30z m120
-53 c50 -26 123 -69 162 -94 l72 -47 0 -135 c0 -74 -3 -135 -6 -135 -11 0
-178 93 -255 142 l-76 48 -7 67 c-7 68 2 203 13 203 3 0 47 -22 97 -49z m630
-325 c44 -24 117 -67 162 -96 l82 -52 0 -134 c0 -74 -3 -134 -7 -134 -14 1
-188 96 -261 143 l-72 47 0 135 c0 74 3 135 8 135 4 0 43 -20 88 -44z m-556
-102 c0 -43 -4 -74 -10 -74 -6 0 -10 34 -10 81 0 51 4 78 10 74 6 -3 10 -40
10 -81z m-286 -74 c200 -115 180 -89 181 -234 0 -69 -3 -128 -7 -132 -7 -7
-180 85 -285 152 l-53 34 0 130 c0 91 3 130 12 130 6 0 74 -36 152 -80z m270
-22 c16 -11 3 -18 -22 -11 -12 3 -22 11 -22 18 0 17 24 26 29 11 2 -6 9 -14
15 -18z m72 -23 c1 -63 43 -160 86 -195 24 -20 29 -30 22 -43 -9 -15 -13 -14
-45 9 -29 20 -41 40 -60 96 -13 39 -30 73 -36 75 -18 7 -16 40 2 47 8 3 15 13
14 23 0 11 -3 13 -6 6 -8 -22 -23 -14 -23 13 0 21 4 25 23 22 19 -3 22 -9 23
-53z m-66 -15 c0 -5 -9 -10 -19 -10 -11 0 -23 5 -26 10 -4 6 5 10 19 10 14 0
26 -4 26 -10z m-5 -30 c-3 -5 -12 -10 -20 -10 -8 0 -17 5 -20 10 -4 6 5 10 20
10 15 0 24 -4 20 -10z m15 -115 c0 -57 -4 -95 -10 -95 -6 0 -10 38 -10 95 0
57 4 95 10 95 6 0 10 -38 10 -95z m358 -10 c59 -30 118 -64 132 -74 l25 -19
-28 -7 c-21 -6 -40 1 -89 33 -35 21 -92 54 -127 72 -48 24 -60 34 -50 41 21
13 23 13 137 -46z m282 -39 c0 -41 -4 -78 -10 -81 -6 -4 -10 23 -10 74 0 47 4
81 10 81 6 0 10 -31 10 -74z m688 -59 l102 -60 0 -134 c0 -73 -3 -133 -7 -133
-11 0 -196 102 -265 146 l-68 44 0 136 0 136 68 -37 c37 -20 113 -64 170 -98z
m-1012 62 c126 -70 144 -87 144 -139 0 -22 -3 -40 -6 -40 -15 0 -44 22 -39 30
9 14 -17 61 -32 56 -7 -3 -17 4 -23 15 -6 11 -16 16 -22 13 -6 -4 -17 1 -24
11 -16 21 -55 29 -47 9 2 -7 11 -10 18 -8 7 3 18 -4 24 -15 7 -12 17 -18 26
-15 8 4 18 -1 21 -10 3 -9 14 -16 24 -16 17 0 36 -27 26 -37 -2 -3 -52 22
-110 54 -100 55 -106 60 -106 90 0 17 -3 39 -7 49 -10 26 21 15 133 -47z
m-589 -182 c-2 -23 -3 -1 -3 48 0 50 1 68 3 42 2 -26 2 -67 0 -90z m544 87
c112 -61 232 -135 241 -148 10 -14 10 -250 1 -259 -7 -8 -168 76 -265 139
l-68 44 0 135 c0 74 2 135 4 135 2 0 41 -21 87 -46z m246 -46 c-7 -4 8 -29 42
-68 l53 -61 -6 -67 c-4 -37 -8 -92 -9 -122 -3 -50 -19 -100 -33 -100 -3 0 -2
10 2 23 4 12 9 29 11 37 3 8 -5 0 -16 -19 -28 -42 -38 -34 -15 11 15 30 15 32
1 19 -15 -11 -17 -11 -17 2 0 9 5 19 11 23 8 4 7 9 -2 15 -11 7 -11 11 3 21
10 7 23 38 29 70 12 57 12 57 -21 95 -18 21 -44 45 -56 53 -20 12 -24 23 -24
68 0 45 3 54 23 61 19 7 23 5 29 -23 4 -19 2 -33 -5 -38z m173 57 c7 -9 10
-28 6 -48 -8 -42 49 -165 88 -190 23 -16 40 -47 17 -33 -5 4 -11 0 -14 -6 -3
-10 -12 -7 -33 8 -20 15 -37 42 -55 94 -14 41 -31 76 -37 78 -17 5 -15 32 3
38 8 4 14 16 14 28 -1 16 -2 17 -6 4 -7 -26 -23 -22 -23 5 0 38 18 48 40 22z
m-85 -5 c-3 -5 1 -10 9 -10 9 0 16 -4 16 -10 0 -12 -20 -13 -39 -1 -14 9 -7
31 10 31 6 0 7 -4 4 -10z m25 -50 c0 -5 -11 -10 -25 -10 -14 0 -25 5 -25 10 0
6 11 10 25 10 14 0 25 -4 25 -10z m0 -30 c0 -5 -12 -10 -26 -10 -14 0 -23 4
-19 10 3 6 15 10 26 10 10 0 19 -4 19 -10z m-1246 -51 c50 -29 121 -71 159
-95 l67 -44 0 -130 c0 -92 -3 -130 -12 -130 -15 0 -188 94 -265 144 l-63 41 0
132 c0 91 4 133 11 133 6 0 52 -23 103 -51z m1256 -64 c0 -57 -4 -95 -10 -95
-11 0 -14 172 -3 183 12 13 13 7 13 -88z m45 15 c12 -38 30 -67 60 -95 l42
-40 1 -124 c0 -102 3 -126 16 -133 11 -6 16 -23 16 -52 0 -29 5 -46 14 -49 11
-4 13 -17 9 -49 -3 -24 -7 -44 -8 -46 -2 -2 -23 9 -47 24 -23 15 -75 42 -115
60 -68 31 -75 32 -110 20 -34 -12 -38 -16 -35 -45 3 -30 -15 -45 -22 -18 -2 6
-14 44 -27 83 -21 65 -22 76 -10 128 7 30 16 58 20 61 5 2 23 -2 40 -11 18 -9
38 -13 47 -10 21 8 34 50 34 112 0 47 2 54 20 54 19 0 20 7 20 102 0 110 7
116 35 28z m-975 40 l20 -20 -23 0 c-29 0 -37 7 -30 26 7 18 9 18 33 -6z m76
-30 c2 -62 53 -171 93 -199 21 -15 31 -31 31 -48 l0 -25 -47 34 c-40 29 -49
43 -70 103 -13 39 -28 72 -33 73 -15 5 -12 33 7 54 9 10 13 21 9 25 -4 4 -11
1 -15 -6 -6 -10 -10 -10 -16 -2 -11 18 3 43 22 39 14 -2 18 -14 19 -48z m1187
-24 c40 -19 97 -50 127 -69 54 -35 54 -36 30 -45 -19 -8 -31 -6 -50 6 -14 8
-41 25 -60 37 -19 12 -65 39 -102 59 -38 20 -68 39 -68 41 0 15 61 0 123 -29z
m-1244 8 c2 -2 -10 -4 -27 -4 -18 0 -32 5 -32 10 0 9 47 4 59 -6z m1164 -25
c34 -17 92 -50 129 -72 70 -43 86 -69 76 -125 -3 -18 -15 -13 -132 54 -71 40
-130 75 -131 76 -5 7 -14 98 -10 98 3 0 34 -14 68 -31z m927 -10 c41 -22 112
-63 156 -91 l82 -51 7 -74 c7 -75 -1 -193 -13 -193 -4 1 -79 42 -167 93 l-160
93 -3 132 c-2 102 0 132 10 132 7 0 47 -19 88 -41z m-1265 -49 l-13 -55 -1 70
c-1 60 1 67 13 55 13 -13 13 -23 1 -70z m-3027 21 c18 -14 39 -36 48 -49 14
-22 14 -22 -23 -18 -21 2 -29 1 -18 -1 30 -7 43 -23 20 -24 -18 0 -18 -1 -3
-7 14 -6 4 -18 -52 -61 -73 -56 -246 -223 -307 -298 l-36 -44 -68 103 c-37 57
-64 106 -60 109 14 14 214 94 336 135 72 25 114 42 95 38 -50 -9 -216 -68
-323 -114 -50 -22 -92 -38 -93 -37 -1 1 34 50 77 110 l80 107 87 2 c76 2 79 2
27 6 l-60 4 110 38 c61 20 115 35 120 32 6 -3 25 -17 43 -31z m121 29 l76 -1
-30 -22 c-16 -12 -41 -32 -53 -45 -13 -13 -28 -22 -32 -20 -12 5 -100 88 -100
94 0 4 14 4 31 0 17 -3 66 -6 108 -6z m2068 -1 c-14 -8 -22 -8 -30 0 -8 8 -3
11 19 11 25 -1 27 -2 11 -11z m-1842 -34 l90 -34 -70 -2 c-66 -2 -64 -2 33 -9
57 -4 107 -11 111 -16 16 -18 141 -194 141 -199 0 -3 -30 10 -67 28 -86 43
-203 90 -210 84 -2 -3 13 -11 34 -17 21 -7 89 -37 151 -66 l114 -54 -23 -37
c-64 -105 -89 -141 -103 -146 -10 -4 -33 17 -71 62 -77 95 -200 210 -281 265
-65 43 -67 46 -39 47 l30 2 -27 4 c-16 2 -28 9 -28 14 0 5 -7 9 -15 9 -9 0
-12 -6 -9 -15 5 -11 -1 -15 -25 -15 -36 0 -41 16 -8 25 12 4 38 22 57 40 49
45 81 65 105 64 11 0 61 -15 110 -34z m3395 -60 c0 -41 -4 -77 -10 -80 -6 -4
-10 25 -10 80 0 55 4 84 10 80 6 -3 10 -39 10 -80z m-1543 -67 c-2 -29 -3 -8
-3 47 0 55 1 79 3 53 2 -26 2 -71 0 -100z m535 82 c42 -26 58 -41 58 -57 0
-23 -1 -23 -65 9 -57 29 -65 36 -65 61 0 33 -3 33 72 -13z m-209 -21 c89 -44
187 -102 187 -110 0 -4 -10 -9 -22 -12 -15 -4 -43 7 -92 38 -39 24 -97 56
-128 71 -56 27 -66 44 -27 44 11 0 48 -14 82 -31z m918 -54 c79 -47 151 -89
159 -94 12 -8 15 -34 15 -134 0 -69 -3 -128 -7 -132 -4 -4 -80 35 -170 87
l-163 94 -3 132 c-2 105 0 132 11 132 7 0 78 -38 158 -85z m-863 -37 l82 -49
0 -80 c0 -85 -6 -93 -44 -56 -13 13 -28 21 -34 19 -7 -2 -15 3 -18 12 -3 9
-15 16 -25 16 -11 0 -22 7 -25 15 -4 8 -14 15 -24 15 -10 0 -21 7 -24 16 -3 8
-11 12 -16 9 -6 -4 -22 1 -35 9 -23 15 -25 23 -25 96 l0 80 53 -26 c28 -14 89
-49 135 -76z m1055 65 c3 -16 0 -31 -6 -35 -7 -4 -2 -20 16 -45 15 -22 27 -46
27 -55 0 -9 9 -20 21 -23 19 -6 20 -13 16 -129 -3 -108 -18 -178 -34 -163 -2
3 0 14 6 25 20 37 11 48 -10 13 -11 -18 -23 -31 -26 -28 -3 3 2 16 11 29 23
32 19 48 -4 18 -24 -31 -28 -6 -5 28 14 20 14 21 0 16 -22 -9 -19 13 4 25 17
10 41 77 41 117 0 9 -25 41 -55 70 -52 51 -55 56 -55 103 0 47 7 58 36 60 7 1
14 -11 17 -26z m-908 -15 c26 -12 30 -24 16 -47 -13 -21 -51 4 -51 34 0 29 1
29 35 13z m92 -121 c-2 -23 -3 -1 -3 48 0 50 1 68 3 42 2 -26 2 -67 0 -90z
m-2759 111 c-25 -67 -59 -180 -56 -183 2 -3 17 36 33 86 37 114 49 125 73 68
11 -24 25 -61 31 -82 7 -21 15 -36 18 -34 2 3 -9 39 -25 81 -20 51 -26 76 -17
76 42 0 258 -189 364 -317 l43 -53 -29 -11 c-15 -5 -37 -21 -48 -34 -11 -12
-52 -35 -90 -49 -80 -29 -92 -31 -98 -13 -2 6 -3 5 -2 -4 2 -15 -17 -17 -154
-21 -86 -3 -157 -4 -159 -2 -2 1 4 39 13 84 9 45 15 84 12 86 -2 2 -11 -32
-20 -77 -10 -45 -19 -84 -21 -86 -4 -4 -275 93 -284 101 -12 13 210 240 332
340 69 55 92 68 84 44z m2827 -15 c25 -12 35 -23 35 -40 0 -28 0 -28 -44 -2
-21 12 -36 29 -36 40 0 23 1 23 45 2z m905 -8 c7 -9 10 -28 6 -48 -8 -41 49
-165 86 -189 23 -15 45 -68 28 -68 -4 0 -25 13 -47 29 -34 25 -45 41 -63 98
-12 37 -29 73 -37 80 -16 13 -11 43 7 43 5 0 9 10 9 23 -1 16 -2 18 -6 5 -7
-26 -23 -22 -23 5 0 38 18 48 40 22z m-1002 -44 c2 -32 -1 -46 -15 -56 -28
-21 -38 7 -23 61 16 55 34 52 38 -5z m917 39 c-3 -5 1 -10 9 -10 9 0 16 -4 16
-10 0 -12 -20 -13 -39 -1 -14 9 -7 31 10 31 6 0 7 -4 4 -10z m-753 -35 c0 -5
-5 -11 -11 -13 -6 -2 -11 4 -11 13 0 9 5 15 11 13 6 -2 11 -8 11 -13z m-101
-32 c-9 -16 -10 -14 -11 12 0 21 3 26 11 18 8 -8 8 -16 0 -30z m879 17 c0 -5
-11 -10 -25 -10 -14 0 -25 5 -25 10 0 6 11 10 25 10 14 0 25 -4 25 -10z
m-1000 -34 c0 -19 -5 -36 -11 -38 -7 -2 0 -17 15 -35 15 -18 27 -35 27 -38 -2
-19 1 -25 14 -25 10 0 15 -10 15 -31 l0 -32 -21 27 c-11 14 -35 34 -52 42
l-32 17 23 -25 c30 -33 32 -143 3 -179 -18 -22 -18 -21 -24 87 -4 60 -10 141
-13 181 -6 64 -5 72 12 76 39 10 44 7 44 -27z m173 23 c12 -7 23 -13 25 -14 2
-1 -2 -23 -9 -49 -10 -41 -9 -54 11 -107 28 -79 20 -86 -12 -12 -18 40 -24 69
-21 94 3 24 0 41 -11 52 -15 15 -22 47 -10 47 3 0 15 -5 27 -11z m-983 -89 c0
-47 -4 -80 -10 -80 -6 0 -10 33 -10 80 0 47 4 80 10 80 6 0 10 -33 10 -80z
m542 21 c59 -33 132 -76 163 -95 l55 -36 0 -130 c0 -92 -3 -130 -12 -130 -14
0 -134 65 -245 133 l-83 50 0 133 c0 74 3 134 8 134 4 0 56 -27 114 -59z
m1268 49 c0 -5 -12 -10 -26 -10 -14 0 -23 4 -19 10 3 6 15 10 26 10 10 0 19
-4 19 -10z m-910 -65 c0 -8 -24 -5 -39 4 -8 5 -11 16 -8 25 6 15 9 14 27 -4
11 -11 20 -22 20 -25z m59 31 c7 -9 10 -28 6 -48 -8 -44 35 -143 82 -184 24
-21 34 -37 31 -53 -3 -22 -4 -22 -45 9 -34 25 -46 44 -68 105 -15 41 -32 75
-36 75 -15 0 -10 38 6 44 8 3 15 13 15 23 -1 16 -2 16 -12 -2 -11 -19 -11 -19
-18 0 -14 39 14 61 39 31z m861 -81 c0 -57 -4 -95 -10 -95 -11 0 -14 172 -3
183 12 13 13 7 13 -88z m40 30 c22 -69 39 -95 90 -131 l50 -36 0 -165 c0 -146
2 -167 17 -179 10 -7 15 -15 12 -18 -3 -3 -59 21 -123 54 -65 34 -125 59 -134
56 -9 -2 -29 -7 -44 -10 -24 -6 -28 -11 -29 -44 l0 -37 -13 45 c-7 25 -19 64
-26 88 -17 55 1 152 29 152 10 0 21 -3 25 -7 4 -4 18 -9 31 -10 29 -4 55 29
55 69 0 18 5 28 15 28 12 0 15 18 15 102 0 105 7 115 30 43z m-106 27 c2 -4
-1 -33 -9 -63 l-13 -54 -1 63 c-1 55 8 77 23 54z m-862 -34 c-11 -11 -55 -1
-47 11 2 5 16 6 30 3 17 -3 23 -8 17 -14z m1261 -22 c40 -19 97 -50 127 -69
54 -35 54 -36 30 -45 -19 -8 -31 -6 -50 6 -14 8 -41 25 -60 37 -19 12 -65 39
-102 59 -38 20 -68 39 -68 41 0 15 61 0 123 -29z m294 -99 c-2 -23 -3 -1 -3
48 0 50 1 68 3 42 2 -26 2 -67 0 -90z m-2758 77 c36 -20 108 -62 159 -92 l92
-56 0 -133 c0 -88 -4 -133 -11 -133 -15 0 -202 105 -271 152 l-58 39 0 129 c0
92 3 130 12 130 6 0 41 -16 77 -36z m2384 5 c34 -17 92 -50 129 -72 58 -35 69
-47 74 -76 6 -31 -4 -412 -10 -419 -2 -1 -60 27 -130 64 l-126 66 0 211 c0
117 -3 222 -6 235 -8 28 -5 28 69 -9z m-1178 11 c-3 -5 -15 -10 -26 -10 -10 0
-19 5 -19 10 0 6 12 10 26 10 14 0 23 -4 19 -10z m553 -25 c38 -22 52 -36 52
-52 0 -29 -9 -29 -70 2 -44 22 -50 29 -50 56 0 17 3 29 8 27 4 -1 31 -16 60
-33z m-1481 -2 c-4 -3 1 -12 11 -19 16 -12 15 -13 -5 -14 -12 0 -25 5 -28 10
-8 12 2 30 17 30 6 0 8 -3 5 -7z m89 -48 c1 -60 43 -154 83 -187 30 -26 47
-68 27 -68 -6 0 -28 14 -48 30 -27 23 -42 47 -59 98 -12 37 -28 71 -35 75 -18
11 -18 33 1 41 8 3 15 13 14 23 0 11 -3 13 -6 6 -8 -22 -23 -14 -23 13 0 21 4
25 23 22 19 -3 22 -9 23 -53z m841 -87 c-2 -29 -3 -8 -3 47 0 55 1 79 3 53 2
-26 2 -71 0 -100z m43 100 c0 -5 -4 -8 -10 -8 -5 0 -10 10 -10 23 0 18 2 19
10 7 5 -8 10 -18 10 -22z m-98 -46 c-1 -23 -6 -51 -11 -64 -8 -18 -10 -7 -10
45 -1 51 2 68 12 64 7 -3 11 -19 9 -45z m-1944 -8 c28 -25 52 -50 52 -55 0 -4
-15 -6 -32 -4 -28 4 -30 4 -8 -4 28 -9 23 -13 -50 -31 -77 -20 -232 -71 -228
-76 3 -2 31 5 64 16 92 32 234 69 234 62 -1 -4 -27 -25 -58 -47 -31 -22 -125
-109 -209 -193 l-152 -153 -35 55 c-75 117 -86 136 -86 145 0 5 52 31 115 57
63 27 112 50 110 52 -2 2 -51 -16 -109 -41 -58 -25 -102 -39 -98 -33 4 7 39
56 77 109 l70 96 120 3 120 2 -95 4 -95 4 110 38 c61 21 115 39 120 39 6 1 34
-20 63 -45z m182 36 c0 -5 -4 -10 -9 -10 -4 0 -29 -19 -55 -42 l-48 -41 -51
51 -52 52 108 0 c65 0 107 -4 107 -10z m159 -71 l-94 -5 122 -2 123 -2 53 -72
c89 -123 102 -142 86 -135 -7 3 -67 29 -132 58 -65 28 -120 49 -123 47 -2 -3
17 -13 43 -23 74 -28 243 -107 243 -114 0 -3 -29 -50 -64 -104 l-63 -98 -57
71 c-84 103 -190 205 -279 268 -43 30 -76 56 -74 58 2 2 48 -7 102 -21 54 -14
100 -23 102 -21 3 3 -73 25 -182 51 l-30 8 25 8 c22 8 22 8 -7 5 -42 -3 -42
13 -1 45 80 61 81 61 196 20 l104 -36 -93 -6z m736 71 c18 -8 17 -9 -7 -9 -16
-1 -28 4 -28 9 0 12 8 12 35 0z m1280 -38 c90 -45 157 -91 150 -103 -11 -17
-38 -9 -119 40 -44 27 -101 59 -125 71 -33 16 -41 24 -30 31 18 11 37 5 124
-39z m272 -85 c-2 -23 -3 -1 -3 48 0 50 1 68 3 42 2 -26 2 -67 0 -90z m-658
-99 c-6 -16 -16 -28 -21 -28 -5 0 -4 9 2 19 5 11 10 26 10 33 -1 7 -8 1 -16
-14 -8 -16 -19 -28 -25 -28 -6 0 -3 10 5 22 23 32 19 47 -5 19 -28 -34 -36
-18 -9 20 l23 31 -22 -7 c-29 -9 -27 13 3 26 22 10 44 59 47 105 1 11 6 -24
10 -76 6 -66 5 -103 -2 -122z m92 186 c12 -32 10 -35 -19 -27 -21 5 -30 32
-15 46 13 13 24 7 34 -19z m492 13 c16 -11 17 -16 3 -54 -8 -23 -12 -44 -9
-47 12 -12 -12 -5 -30 8 -15 12 -17 22 -12 60 7 47 19 55 48 33z m187 -54 c0
-28 -3 -28 -51 -1 -36 20 -49 45 -33 61 4 3 24 -4 45 -16 27 -15 39 -29 39
-44z m-462 21 c37 -20 93 -53 124 -73 l58 -36 0 -205 c0 -113 -3 -215 -6 -227
l-6 -22 -52 30 c-28 17 -84 47 -123 67 l-73 36 0 166 c0 91 -3 195 -7 233 -4
50 -3 67 6 67 7 0 43 -16 79 -36z m-1197 17 c-8 -5 -20 -7 -28 -4 -21 8 -15
13 15 13 20 0 23 -3 13 -9z m1515 -87 c-7 -19 -36 -18 -36 1 0 9 8 32 17 53
l17 37 4 -39 c2 -21 1 -44 -2 -52z m847 59 c3 -16 1 -29 -4 -31 -17 -7 -9 -23
37 -72 l45 -49 -4 -128 c-3 -114 -18 -186 -34 -170 -2 3 0 14 6 25 20 37 11
48 -10 13 -11 -18 -23 -31 -26 -28 -3 3 2 16 11 29 25 36 19 46 -8 13 -35 -43
-44 -24 -10 21 26 33 26 36 7 26 -37 -20 -40 -13 -7 16 30 25 54 82 54 126 0
10 -16 34 -36 52 -40 38 -69 47 -36 11 21 -22 22 -30 16 -98 -4 -42 -13 -80
-21 -88 -8 -8 -12 -23 -9 -34 5 -22 -9 -67 -22 -67 -13 0 -2 444 12 452 21 14
34 8 39 -19z m87 7 l20 -20 -23 0 c-29 0 -37 7 -30 26 7 18 9 18 33 -6z m76
-30 c2 -62 53 -171 93 -199 21 -15 31 -31 31 -48 l0 -25 -47 34 c-40 29 -49
43 -70 103 -13 39 -28 72 -33 73 -15 5 -12 33 7 54 9 10 13 21 9 25 -4 4 -11
1 -15 -6 -6 -10 -10 -10 -16 -2 -11 18 3 43 22 39 14 -2 18 -14 19 -48z
m-2506 -60 c0 -53 -4 -90 -10 -90 -6 0 -10 37 -10 90 0 53 4 90 10 90 6 0 10
-37 10 -90z m1672 65 c0 -5 -5 -11 -11 -13 -6 -2 -11 4 -11 13 0 9 5 15 11 13
6 -2 11 -8 11 -13z m-661 -28 c20 -17 45 -37 54 -42 15 -9 17 -31 17 -177 1
-130 4 -168 15 -172 15 -6 18 -73 4 -95 -7 -11 -14 -10 -37 6 -16 11 -70 41
-120 66 -72 37 -97 45 -125 41 l-34 -6 -24 70 c-23 69 -23 71 -6 126 10 32 24
56 31 56 8 0 14 -4 14 -9 0 -5 12 -11 28 -14 35 -8 59 19 68 78 3 25 10 45 15
45 5 0 9 14 9 30 0 26 4 30 28 30 16 0 42 -13 63 -33z m563 24 c8 -12 -3 -41
-15 -41 -5 0 -9 11 -9 25 0 25 14 34 24 16z m875 -17 c2 -2 -10 -4 -27 -4 -18
0 -32 5 -32 10 0 9 47 4 59 -6z m-3446 -9 c1 -5 -13 -11 -30 -13 -31 -3 -42 6
-26 22 10 10 53 3 56 -9z m2647 -21 c0 -3 -5 -24 -10 -47 -9 -36 -7 -53 14
-114 14 -40 21 -73 15 -73 -17 0 -62 114 -65 165 -1 28 -5 63 -9 78 l-8 29 32
-16 c17 -9 31 -19 31 -22z m-1317 -10 c39 -20 97 -53 127 -72 l55 -35 -27 -9
c-22 -8 -34 -5 -60 14 -18 13 -75 46 -125 74 -51 28 -90 54 -86 58 13 13 46 5
116 -30z m2104 5 c-14 -8 -22 -8 -30 0 -8 8 -3 11 19 11 25 -1 27 -2 11 -11z
m-3977 -41 c-17 -24 -46 -64 -65 -89 l-35 -46 73 -113 73 -113 154 -58 c114
-42 169 -58 208 -58 l52 -1 0 -126 c0 -69 -3 -124 -7 -122 -58 28 -63 33 -57
47 4 9 8 25 9 36 1 11 5 30 9 41 11 35 -10 74 -49 90 -20 8 -40 12 -45 9 -5
-3 -19 4 -31 16 -17 17 -29 20 -62 15 -88 -12 -99 -8 -298 104 l-194 109 -3
120 -3 121 78 1 c62 0 92 6 148 29 39 16 71 29 73 29 2 1 -11 -18 -28 -41z
m490 37 c0 -2 -9 -27 -20 -55 -11 -28 -20 -56 -19 -63 0 -7 12 19 26 56 14 37
30 66 37 64 16 -5 68 -142 122 -319 26 -87 50 -156 52 -154 6 7 -85 300 -123
392 -23 59 -29 84 -20 84 23 0 132 -79 209 -151 95 -89 212 -228 200 -238 -5
-4 -63 -30 -129 -57 l-120 -48 -168 -4 -168 -4 6 44 5 43 -11 -43 c-6 -24 -14
-42 -18 -40 -4 2 -69 26 -144 53 -75 28 -137 54 -137 58 0 4 57 67 128 139
151 156 292 273 292 243z m1363 -52 c56 -31 113 -68 126 -81 l24 -24 -7 -211
c-4 -116 -9 -214 -12 -216 -3 -3 -20 3 -37 13 -18 10 -74 41 -124 68 l-93 50
0 213 c0 117 -3 220 -6 229 -11 29 25 17 129 -41z m232 43 c17 -12 18 -17 6
-54 -12 -36 -16 -40 -32 -31 -14 7 -19 21 -19 48 0 53 11 62 45 37z m885 -30
c0 -19 -5 -36 -12 -38 -7 -3 7 -25 34 -54 l46 -49 2 -85 c2 -174 1 -185 -15
-205 -15 -19 -15 -19 -10 10 5 28 5 29 -6 8 -7 -13 -16 -23 -21 -23 -11 0 -10
17 2 25 6 3 10 13 10 22 0 11 -7 7 -21 -11 -30 -38 -36 -25 -9 18 21 35 16 48
-8 24 -9 -9 -12 -9 -12 0 0 6 11 19 24 27 29 19 45 56 48 109 2 33 -3 43 -32
67 -38 32 -62 39 -37 11 24 -26 24 -164 1 -183 -10 -8 -14 -22 -11 -39 4 -17
-1 -34 -15 -50 l-20 -25 6 124 c3 68 6 173 6 232 0 111 0 111 43 118 4 0 7
-14 7 -33z m80 14 l20 -20 -23 0 c-29 0 -37 7 -30 26 7 18 9 18 33 -6z m76
-30 c2 -62 53 -171 93 -199 21 -15 31 -31 31 -48 l0 -25 -47 34 c-40 29 -49
43 -70 103 -13 39 -28 72 -33 73 -15 5 -12 33 7 54 9 10 13 21 9 25 -4 4 -11
1 -15 -6 -6 -10 -10 -10 -16 -2 -11 18 3 43 22 39 14 -2 18 -14 19 -48z m-126
-17 c0 -26 -2 -44 -4 -42 -8 9 -13 98 -5 93 5 -3 9 -26 9 -51z m960 47 c0 -5
-4 -10 -9 -10 -6 0 -13 5 -16 10 -3 6 1 10 9 10 9 0 16 -4 16 -10z m27 -132
c-2 -29 -3 -8 -3 47 0 55 1 79 3 53 2 -26 2 -71 0 -100z m-1860 -1 c-2 -23 -3
-1 -3 48 0 50 1 68 3 42 2 -26 2 -67 0 -90z m203 119 c0 -3 -4 -8 -10 -11 -5
-3 -10 -1 -10 4 0 6 5 11 10 11 6 0 10 -2 10 -4z m-125 -75 c-2 -20 -4 -41 -4
-47 -1 -7 -12 -9 -26 -6 -23 4 -25 8 -25 64 l0 59 29 -17 c26 -15 29 -22 26
-53z m-2495 -76 c0 -128 -1 -135 -20 -135 -19 0 -20 7 -20 135 0 128 1 135 20
135 19 0 20 -7 20 -135z m3359 119 c2 -2 -10 -4 -27 -4 -18 0 -32 5 -32 10 0
9 47 4 59 -6z m1244 -25 c89 -44 187 -102 187 -110 0 -4 -10 -9 -22 -12 -15
-4 -43 7 -92 38 -39 24 -97 56 -128 71 -56 27 -66 44 -27 44 11 0 48 -14 82
-31z m56 -92 l84 -50 -5 -218 c-2 -120 -8 -222 -11 -226 -4 -4 -24 3 -45 16
-20 12 -74 41 -119 64 l-83 41 0 102 c0 55 -3 163 -7 238 l-6 138 54 -27 c30
-15 92 -50 138 -78z m-2104 79 c16 -11 17 -18 7 -56 -9 -38 -8 -53 15 -117 14
-40 22 -80 19 -88 -9 -25 -51 -18 -64 10 -16 34 -15 35 7 35 19 0 19 2 -5 55
-17 39 -24 74 -24 115 0 64 9 73 45 46z m792 3 c-14 -8 -22 -8 -30 0 -8 8 -3
11 19 11 25 -1 27 -2 11 -11z m867 -7 c2 -4 -1 -33 -9 -63 l-13 -54 -1 63 c-1
55 8 77 23 54z m-1861 -39 c3 -16 1 -33 -3 -38 -5 -6 -5 -27 0 -48 8 -37 0
-54 -20 -42 -5 3 -10 2 -10 -2 0 -5 9 -14 20 -21 19 -12 20 -19 14 -90 -4 -42
-12 -84 -19 -92 -8 -8 -13 -32 -12 -53 1 -23 -5 -42 -13 -47 -8 -5 -15 -8 -16
-7 0 1 1 104 4 229 5 236 4 230 43 237 4 0 9 -11 12 -26z m1004 -115 c-2 -29
-3 -8 -3 47 0 55 1 79 3 53 2 -26 2 -71 0 -100z m35 80 c-9 -9 -12 -4 -11 23
0 32 1 33 11 11 8 -17 8 -26 0 -34z m-1785 -80 c-2 -24 -4 -5 -4 42 0 47 2 66
4 43 2 -24 2 -62 0 -85z m770 100 c-3 -8 -6 -5 -6 6 -1 11 2 17 5 13 3 -3 4
-12 1 -19z m1306 -39 c89 -44 187 -102 187 -110 0 -4 -10 -9 -22 -12 -15 -4
-43 7 -92 38 -39 24 -97 56 -128 71 -56 27 -66 44 -27 44 11 0 48 -14 82 -31z
m-1279 -17 c-20 -5 -39 12 -30 27 4 6 14 4 27 -7 17 -15 18 -17 3 -20z m80 23
c3 -8 3 -28 0 -44 -9 -41 47 -160 86 -186 21 -14 30 -28 30 -48 l0 -28 -45 32
c-38 27 -48 42 -66 98 -12 36 -28 71 -35 77 -18 15 -18 40 1 48 8 3 15 13 15
23 0 15 -2 16 -10 3 -9 -13 -11 -13 -19 -1 -5 8 -7 20 -4 28 7 18 39 17 47 -2z
m1255 -98 l84 -50 -5 -218 c-2 -120 -8 -222 -11 -226 -4 -4 -24 3 -45 16 -20
12 -74 41 -119 64 l-83 41 0 102 c0 55 -3 163 -7 238 l-6 138 54 -27 c30 -15
92 -50 138 -78z m-316 63 c6 -22 0 -25 -22 -11 -8 5 -11 16 -8 26 8 20 23 13
30 -15z m-128 -49 c-4 -28 -12 -54 -18 -58 -6 -4 -8 2 -4 18 4 13 7 44 7 69 0
32 3 41 11 33 7 -7 9 -29 4 -62z m1515 25 c0 -19 -5 -36 -12 -38 -6 -2 17 -35
50 -72 34 -37 62 -75 62 -85 -1 -9 -9 -40 -19 -70 -12 -33 -17 -68 -14 -88 6
-34 -12 -93 -29 -93 -5 0 -4 9 2 19 5 11 10 26 10 33 -1 7 -8 1 -16 -14 -8
-16 -19 -28 -25 -28 -6 0 -3 10 5 22 23 32 19 47 -5 19 -28 -34 -36 -18 -9 20
l23 31 -22 -7 c-29 -9 -27 13 3 26 17 8 28 25 36 58 7 25 14 51 15 58 6 17
-32 61 -68 79 l-32 17 23 -25 c32 -35 32 -143 0 -183 -16 -20 -19 -32 -11 -43
11 -19 -6 -62 -25 -62 -7 0 -11 4 -8 9 4 5 7 106 8 225 1 187 3 216 17 219 36
10 41 7 41 -27z m-2405 14 c18 -8 17 -9 -7 -9 -16 -1 -28 4 -28 9 0 12 8 12
35 0z m125 -52 c0 -5 -4 -8 -10 -8 -14 0 -32 39 -24 52 6 10 33 -25 34 -44z
m1384 19 c16 -12 16 -16 3 -47 -12 -27 -16 -30 -16 -14 -1 12 -8 27 -16 34
-35 29 -8 54 29 27z m-1507 -8 c-14 -8 -22 -8 -30 0 -8 8 -3 11 19 11 25 -1
27 -2 11 -11z m-817 -29 l20 -20 -23 0 c-29 0 -37 7 -30 26 7 18 9 18 33 -6z
m77 -30 c0 -25 11 -67 22 -93 26 -60 26 -60 1 -45 -11 7 -25 28 -31 45 -6 18
-15 33 -20 33 -15 0 -10 32 8 52 9 10 13 21 9 25 -4 4 -11 1 -15 -6 -6 -10
-10 -10 -16 -2 -11 18 3 43 22 39 14 -2 18 -14 20 -48z m750 -102 c-2 -29 -3
-8 -3 47 0 55 1 79 3 53 2 -26 2 -71 0 -100z m-2136 -12 l105 -59 -10 -33
c-14 -42 -31 -49 -64 -26 -64 45 -251 142 -273 142 -32 0 -193 -93 -197 -114
-4 -19 104 -91 227 -151 l82 -40 -5 -44 c-4 -25 -8 -46 -10 -49 -7 -7 -459
251 -511 292 -20 16 -20 16 5 36 14 10 88 55 165 98 121 69 145 79 176 75 21
-3 40 0 44 6 6 11 18 6 266 -133z m2166 82 c-2 -13 -4 -5 -4 17 -1 22 1 32 4
23 2 -10 2 -28 0 -40z m-58 -1 c-1 -18 -5 -43 -9 -57 -6 -19 -8 -9 -9 38 -1
40 3 61 9 57 6 -3 10 -21 9 -38z m1501 9 c0 -19 -5 -36 -12 -38 -6 -2 17 -35
50 -72 34 -37 62 -75 62 -85 -1 -9 -9 -40 -19 -70 -12 -33 -17 -68 -14 -88 6
-34 -12 -93 -29 -93 -5 0 -4 9 2 19 5 11 10 26 10 33 -1 7 -8 1 -16 -14 -8
-16 -19 -28 -25 -28 -6 0 -3 10 5 22 23 32 19 47 -5 19 -28 -34 -36 -18 -9 20
l23 31 -22 -7 c-29 -9 -27 13 3 26 17 8 28 25 36 58 7 25 14 51 15 58 6 17
-32 61 -68 79 l-32 17 23 -25 c32 -35 32 -143 0 -183 -16 -20 -19 -32 -11 -43
11 -19 -6 -62 -25 -62 -7 0 -11 4 -8 9 4 5 7 106 8 225 1 187 3 216 17 219 36
10 41 7 41 -27z m-2281 8 c2 -2 -10 -4 -27 -4 -18 0 -32 5 -32 10 0 9 47 4 59
-6z m1118 -14 c59 -25 203 -111 203 -121 0 -14 -41 -21 -55 -9 -8 6 -64 40
-124 74 -100 57 -122 76 -85 76 7 0 34 -9 61 -20z m1383 -18 c0 -4 -5 -24 -11
-45 -9 -33 -6 -50 16 -117 15 -44 24 -84 20 -90 -8 -12 -85 -13 -104 -1 -8 5
-11 16 -6 30 6 19 21 26 53 22 17 -3 15 14 -8 59 -14 28 -20 59 -20 110 l0 71
30 -16 c17 -9 30 -19 30 -23z m-2570 -21 c0 -4 -299 -170 -340 -188 -3 -2 -22
8 -44 21 l-38 23 173 95 174 95 38 -20 c20 -11 37 -23 37 -26z m1278 -73 l63
-40 -3 -218 c-2 -120 -6 -221 -9 -224 -3 -4 -61 22 -127 56 l-122 63 0 170 c0
94 -3 201 -7 238 l-6 69 74 -37 c40 -21 102 -55 137 -77z m186 38 c-14 -42
-14 -50 6 -121 12 -42 19 -80 15 -83 -3 -3 -18 6 -33 21 -14 15 -22 27 -16 27
7 0 4 25 -9 68 -14 50 -18 81 -13 115 l7 47 29 -15 29 -15 -15 -44z m-1407 53
c-14 -8 -22 -8 -30 0 -8 8 -3 11 19 11 25 -1 27 -2 11 -11z m1003 -19 c0 -5
-4 -10 -9 -10 -6 0 -13 5 -16 10 -3 6 1 10 9 10 9 0 16 -4 16 -10z m1314 -6
c3 -8 2 -12 -4 -9 -6 3 -10 10 -10 16 0 14 7 11 14 -7z m-2308 -9 c-3 -9 4
-20 21 -28 25 -14 22 -16 -156 -113 l-181 -98 0 -74 c0 -58 -3 -74 -17 -79
-30 -12 -61 39 -69 113 -4 38 -3 74 2 82 6 8 86 57 179 108 120 66 177 92 193
89 12 -3 22 -1 22 5 0 5 3 10 6 10 3 0 4 -7 0 -15z m3232 -81 l-13 -59 -3 54
c-4 63 3 90 19 74 8 -8 7 -28 -3 -69z m-4717 26 c44 -22 77 -45 74 -50 -3 -5
-12 -7 -20 -3 -8 3 -26 -5 -40 -18 -29 -28 -32 -72 -10 -125 14 -34 14 -36 -3
-30 -27 11 -218 118 -244 137 -21 16 -22 20 -7 34 12 12 155 94 167 95 1 0 39
-18 83 -40z m1812 -11 c89 -44 187 -102 187 -110 0 -4 -10 -9 -22 -12 -15 -4
-43 7 -92 38 -39 24 -97 56 -128 71 -56 27 -66 44 -27 44 11 0 48 -14 82 -31z
m472 -3 c20 -19 24 -29 19 -54 -4 -18 -13 -37 -22 -44 -13 -11 -15 -10 -9 5
19 47 19 53 3 33 -8 -10 -17 -24 -19 -30 -2 -6 -7 -8 -11 -4 -4 3 0 18 10 32
9 15 14 29 12 32 -3 2 -13 -7 -22 -21 -26 -39 -40 -29 -15 11 l22 36 -24 -6
-24 -7 24 20 c29 26 25 26 56 -3z m778 8 c11 -4 16 -12 12 -22 -18 -48 -15
-100 9 -167 23 -64 24 -71 9 -82 -22 -17 -74 -17 -96 0 -16 11 -16 14 -1 35
12 17 23 23 40 19 30 -5 30 -1 -1 65 -14 29 -25 65 -25 79 0 47 12 90 24 84 6
-3 19 -8 29 -11z m-1479 -15 c20 -12 36 -22 36 -24 0 -6 -337 -185 -349 -185
-6 0 -23 7 -37 16 -13 9 -27 14 -30 12 -3 -3 11 -15 31 -26 33 -20 35 -24 35
-77 0 -57 -12 -95 -30 -95 -6 0 -19 15 -30 33 -23 38 -28 159 -7 178 14 12
328 187 339 188 4 1 23 -8 42 -20z m284 -81 c73 -44 82 -53 82 -79 0 -37 -23
-39 -46 -3 -9 14 -22 23 -29 21 -6 -3 -17 3 -23 14 -7 10 -18 16 -26 13 -9 -3
-17 3 -21 15 -3 12 -11 21 -16 21 -6 0 -7 -6 -3 -12 4 -7 -2 -5 -13 5 -11 9
-23 14 -27 10 -4 -4 -4 1 0 12 7 17 5 18 -7 8 -23 -19 -59 10 -59 48 l0 29 53
-26 c28 -14 89 -49 135 -76z m97 80 c26 -12 30 -24 16 -46 -13 -20 -51 7 -51
35 0 27 1 27 35 11z m-1520 -32 c16 -16 31 -22 47 -19 44 8 102 -61 69 -81 -5
-3 -7 -15 -4 -26 3 -11 0 -27 -7 -35 -15 -18 -61 -20 -78 -3 -7 7 -35 12 -62
13 -43 0 -48 -2 -33 -13 10 -7 32 -11 50 -10 18 1 34 0 36 -2 2 -3 7 -42 10
-87 5 -65 3 -84 -9 -93 -19 -16 -108 -6 -140 15 -26 17 -29 44 -15 143 l7 52
-31 0 c-17 0 -39 6 -49 13 -23 17 -18 58 9 72 11 5 19 17 17 27 -2 9 7 23 20
32 28 20 33 20 53 0 15 -15 17 -15 31 5 20 28 49 27 79 -3z m243 -108 c-3
-110 -6 -133 -18 -133 -12 0 -15 23 -18 133 -2 127 -2 132 18 132 20 0 20 -5
18 -132z m2142 96 c0 -21 -4 -33 -10 -29 -25 15 -5 -15 50 -78 65 -74 69 -89
44 -158 -9 -24 -15 -65 -15 -91 2 -50 -12 -88 -31 -88 -9 0 -9 3 0 12 7 7 12
18 12 26 0 9 -7 6 -20 -9 -10 -13 -19 -19 -20 -12 0 6 4 14 9 17 5 3 11 16 14
28 5 20 3 20 -18 -7 -13 -16 -27 -26 -31 -22 -4 4 0 15 8 24 30 36 32 46 7 38
-22 -6 -21 -4 8 24 20 20 35 45 38 69 4 20 9 44 11 53 5 18 -73 95 -84 84 -4
-4 1 -12 11 -19 24 -18 25 -171 2 -180 -10 -4 -15 -17 -14 -38 2 -30 -14 -78
-27 -78 -10 0 9 455 20 462 24 17 36 7 36 -28z m-1113 -37 c-3 -10 -327 -190
-342 -190 -6 0 -9 -29 -7 -71 1 -39 -2 -77 -7 -85 -12 -18 -36 -8 -57 24 -21
32 -33 165 -15 165 7 0 10 3 7 8 -2 4 75 51 172 104 l176 96 38 -21 c21 -12
37 -26 35 -30z m341 32 l37 -22 -3 -67 c-3 -52 1 -78 16 -114 12 -25 17 -46
12 -46 -4 0 -27 21 -50 47 -38 43 -41 51 -38 97 2 42 -1 54 -19 68 -14 12 -19
25 -16 38 7 25 15 25 61 -1z m-2447 -70 c73 -45 194 -114 268 -155 l135 -74 1
-41 c1 -25 7 -46 17 -53 13 -10 17 -39 20 -159 3 -137 2 -148 -14 -143 -23 6
-327 179 -453 258 -70 44 -101 70 -106 88 -7 25 -12 360 -5 360 2 0 63 -37
137 -81z m474 20 l-7 -61 31 16 c39 21 40 6 1 -38 -30 -33 -31 -37 -28 -118
l3 -83 48 -3 c47 -3 47 -3 47 -39 l0 -36 -47 6 c-27 3 -60 10 -75 16 -25 9
-28 16 -28 53 0 24 4 69 10 101 8 50 6 63 -10 95 -23 46 -36 112 -22 112 6 0
13 -12 15 -27 3 -23 4 -21 6 9 2 53 21 59 22 6 l0 -43 15 48 c8 26 17 47 20
47 3 0 3 -27 -1 -61z m105 -21 c-22 -17 -23 -17 -36 -1 -11 15 -16 16 -33 5
-24 -14 -26 -8 -15 46 l6 30 51 -31 50 -30 -23 -19z m3614 25 c-13 -73 -23
-81 -23 -20 -1 45 2 57 14 57 13 0 15 -7 9 -37z m-2768 6 c33 -20 34 -23 34
-82 0 -34 -4 -68 -9 -76 -14 -21 -40 -5 -56 34 -15 34 -21 145 -9 145 4 0 22
-9 40 -21z m1117 -13 c16 -12 17 -19 6 -60 -10 -41 -9 -53 15 -117 34 -91 33
-99 -5 -99 -31 0 -31 0 -25 40 5 30 1 50 -14 80 -14 27 -20 59 -20 105 0 68 8
78 43 51z m2272 0 c17 -13 18 -17 5 -56 -12 -37 -12 -49 3 -105 21 -79 21
-101 1 -109 -27 -10 -69 -7 -89 8 -19 14 -19 14 0 36 13 14 28 20 42 17 27 -5
28 2 8 50 -8 19 -15 63 -15 98 0 78 8 88 45 61z m-2644 -13 c16 -10 29 -20 29
-24 0 -4 -76 -48 -170 -99 l-169 -91 -40 23 -39 23 167 92 c91 50 172 92 179
92 8 1 27 -7 43 -16z m239 -37 c0 -19 -5 -36 -11 -38 -6 -2 -1 -16 12 -32 l22
-29 -24 13 c-44 23 -59 42 -59 76 0 23 5 34 18 37 37 10 42 7 42 -27z m-1805
-8 c6 -13 24 -26 43 -30 46 -12 45 -49 -3 -67 -19 -6 -57 -28 -84 -47 -28 -18
-55 -34 -61 -34 -6 0 -10 26 -10 61 0 58 2 62 41 100 47 45 60 48 74 17z
m1666 -10 c22 -12 39 -24 39 -27 0 -5 -68 -43 -280 -156 l-75 -40 3 -65 c3
-78 -14 -114 -43 -90 -29 24 -45 75 -45 139 0 52 3 63 23 75 25 17 330 185
336 186 2 0 21 -10 42 -22z m2724 -32 c16 -11 17 -18 7 -56 -9 -38 -8 -53 14
-114 32 -91 31 -106 -3 -108 -77 -4 -101 8 -84 41 8 14 21 21 41 21 l29 0 -25
55 c-17 39 -24 74 -24 115 0 64 9 73 45 46z m-1100 -10 c17 -13 18 -17 5 -56
-12 -37 -12 -49 3 -105 21 -79 21 -101 1 -109 -27 -10 -69 -7 -89 8 -19 14
-19 14 0 36 13 14 28 20 42 17 27 -5 28 2 8 50 -8 19 -15 63 -15 98 0 78 8 88
45 61z m-1522 -20 l38 -23 -176 -96 -176 -96 -35 21 c-19 11 -34 23 -34 26 0
6 328 190 340 191 3 0 22 -10 43 -23z m882 -45 c-4 -25 -11 -50 -17 -56 -8 -7
-9 -4 -4 8 3 10 6 39 6 63 0 30 4 43 11 38 7 -4 8 -23 4 -53z m-2300 32 c19
-9 35 -19 35 -22 0 -6 -95 -61 -105 -61 -3 0 -5 23 -5 50 0 57 12 63 75 33z
m379 -15 c15 -21 14 -24 -12 -45 -30 -25 -50 -26 -65 -1 -8 12 -8 24 1 42 15
33 55 35 76 4z m-666 -17 c8 -5 12 -22 10 -44 l-3 -37 -43 26 -44 26 29 18
c33 22 34 22 51 11z m1807 -12 c20 -12 33 -25 28 -29 -27 -25 -346 -190 -356
-184 -9 5 -9 4 1 -7 14 -16 16 -97 2 -134 -14 -36 -40 -29 -62 15 -18 36 -25
144 -10 166 9 14 332 193 349 194 6 0 28 -10 48 -21z m-1319 -17 c36 -18 40
-24 36 -50 -2 -16 2 -35 10 -43 8 -8 22 -34 32 -58 16 -40 16 -46 1 -77 -17
-35 -58 -54 -122 -54 -34 0 -44 14 -18 24 8 3 15 11 15 19 0 7 13 23 30 35 38
29 56 87 35 119 -26 39 -73 57 -152 57 -59 0 -77 -4 -102 -22 -35 -26 -41 -27
-41 -8 0 8 28 30 63 48 74 40 147 44 213 10z m372 -336 c-3 -293 -4 -301 -23
-301 -20 0 -20 8 -23 324 l-2 325 25 -24 25 -24 -2 -300z m320 229 c3 -70 1
-75 -17 -75 -31 0 -51 49 -51 125 l0 67 33 -21 c31 -19 32 -23 35 -96z m2227
101 c16 -11 17 -18 7 -56 -9 -38 -8 -53 14 -114 32 -91 31 -106 -3 -108 -77
-4 -101 8 -84 41 8 14 21 21 41 21 l29 0 -25 55 c-17 39 -24 74 -24 115 0 64
9 73 45 46z m-2682 -28 c20 -27 20 -28 2 -48 -38 -42 -109 -5 -83 44 23 44 50
45 81 4z m-511 -174 c8 -32 11 -426 2 -447 -4 -12 -39 4 -155 71 l-149 87 0
46 c0 25 3 87 6 137 6 82 9 91 23 80 13 -10 13 -9 -1 8 -12 14 -19 47 -24 117
l-7 97 149 -85 c119 -68 150 -90 156 -111z m386 176 c31 -26 27 -64 -9 -68
-15 -2 -32 5 -44 18 -15 17 -16 24 -7 45 14 30 29 31 60 5z m312 -4 c0 -21 37
-48 62 -44 16 2 28 -5 41 -25 21 -34 44 -44 68 -28 16 9 19 8 19 -5 0 -8 14
-30 31 -47 36 -36 39 -32 -63 -92 l-57 -33 -15 23 c-8 13 -40 37 -71 55 l-55
31 0 83 c0 49 5 87 12 94 13 13 28 7 28 -12z m-1017 -28 c-5 -10 -57 -10 -67
-1 -4 4 8 15 26 24 31 16 33 16 39 1 4 -10 5 -20 2 -24z m1957 -23 c0 -73 -15
-91 -50 -60 -30 27 -26 79 8 104 15 11 30 21 35 21 4 0 7 -29 7 -65z m-1419
33 c21 -6 46 -19 55 -30 15 -16 16 -21 4 -44 -9 -17 -20 -24 -32 -21 -10 3
-16 2 -14 -2 3 -4 -6 -7 -20 -7 -16 0 -23 4 -20 13 3 7 1 13 -4 13 -6 0 -10
-5 -10 -11 0 -5 -4 -8 -9 -5 -5 4 -12 0 -14 -6 -5 -13 -11 27 -7 47 1 5 -8 1
-19 -9 -19 -17 -20 -17 -32 2 -7 11 -19 17 -29 15 -9 -2 -22 3 -29 11 -29 35
98 59 180 34z m1339 -358 l0 -340 -25 0 -25 0 0 328 c0 333 2 352 37 352 10 0
13 -68 13 -340z m513 329 c12 -7 23 -13 25 -14 2 -1 -4 -20 -13 -42 -15 -38
-15 -45 5 -123 12 -45 19 -84 17 -87 -12 -11 -75 -13 -101 -4 -27 11 -27 13
-13 34 8 12 25 23 38 24 13 0 27 1 31 2 4 1 -2 22 -12 47 -20 45 -25 108 -14
152 7 26 8 26 37 11z m-2033 -24 c38 -19 37 -26 -1 -48 -31 -17 -31 -17 -88
15 l-56 33 45 6 c25 3 51 7 58 7 7 1 26 -5 42 -13z m1130 -112 c0 -73 -6 -88
-33 -77 -23 8 -39 54 -45 128 l-5 68 41 -23 42 -24 0 -72z m326 34 c-2 -40 -5
-75 -5 -79 -1 -5 -7 -8 -13 -8 -10 0 -12 20 -10 72 3 84 8 102 22 93 6 -4 9
-35 6 -78z m-1009 59 c2 -2 -1 -15 -7 -30 -5 -15 -10 -38 -10 -51 0 -18 -7
-26 -25 -31 -36 -9 -55 2 -55 31 0 14 -7 39 -15 55 -15 28 -14 29 13 32 28 4
93 0 99 -6z m-347 -16 c0 -11 -7 -20 -15 -20 -18 0 -19 12 -3 28 16 16 18 15
18 -8z m1316 -26 c-3 -26 -6 -60 -6 -75 0 -16 -4 -29 -9 -29 -5 0 -37 17 -71
37 -60 35 -61 37 -38 49 14 8 27 9 34 3 6 -5 14 -6 17 -2 4 3 14 0 23 -8 16
-13 16 -12 5 9 -10 19 -15 21 -27 11 -9 -8 -14 -8 -14 -1 0 6 9 16 20 22 11 6
20 8 20 5 0 -4 7 1 16 9 28 28 37 19 30 -30z m-866 -121 l0 -113 -32 -20 c-18
-11 -65 -37 -104 -57 l-71 -37 -124 66 c-77 41 -129 74 -136 89 -7 13 -10 25
-8 27 1 2 21 -6 44 -17 52 -27 86 -26 152 2 75 32 86 28 100 -44 11 -55 23
-78 35 -66 3 3 8 31 11 62 4 39 11 59 22 62 52 19 66 69 31 113 -23 29 -23 31
-10 65 l10 26 40 -22 40 -23 0 -113z m-500 113 c0 -13 -5 -26 -12 -28 -12 -4
52 -53 111 -83 34 -17 51 -16 133 6 27 7 38 15 38 29 0 10 5 22 10 25 6 3 10
-1 10 -9 0 -11 10 -16 34 -16 46 0 66 9 66 28 0 11 3 13 10 6 15 -15 3 -39
-23 -52 -12 -6 -16 -11 -9 -11 7 -1 22 4 33 9 32 18 21 1 -13 -20 -36 -22 -34
-25 6 -10 39 15 31 1 -9 -16 -29 -12 -43 -12 -75 -3 -35 11 -45 9 -98 -15 -33
-14 -66 -26 -73 -26 -8 0 -45 16 -82 35 -76 39 -85 42 -67 20 19 -23 4 -47
-27 -43 -28 3 -28 4 -31 83 -3 73 -1 81 20 97 32 24 48 22 48 -6z m1510 -41
c0 -17 -6 -39 -12 -48 -11 -15 -13 -7 -15 50 -3 62 -1 66 12 49 8 -11 15 -34
15 -51z m-1949 49 l37 -6 1 -114 2 -113 -49 -25 c-27 -14 -52 -22 -56 -19 -3
4 -6 69 -6 145 0 153 -5 144 71 132z m603 -15 c-11 -18 -70 -39 -109 -39 -29
0 -35 4 -35 20 0 18 5 20 33 16 17 -3 48 -2 67 3 49 12 52 12 44 0z m1999 0
c22 -10 23 -13 14 -63 -8 -45 -6 -62 16 -127 14 -40 22 -77 18 -82 -18 -18
-121 -7 -121 13 0 17 32 40 56 40 29 0 29 1 5 48 -25 49 -35 103 -27 147 8 40
7 39 39 24z m-3169 -14 c11 -8 16 -18 12 -22 -3 -4 -16 3 -28 15 -25 25 -13
29 16 7z m1910 0 c4 -10 -1 -15 -16 -15 -17 0 -18 2 -8 15 7 8 14 15 15 15 2
0 5 -7 9 -15z m-273 -59 l51 -34 -45 -31 c-25 -17 -50 -31 -56 -31 -7 0 -11
26 -11 65 0 36 2 65 5 65 3 0 28 -15 56 -34z m631 13 l40 -21 -6 -56 c-3 -31
-2 -72 3 -89 5 -18 8 -33 5 -33 -2 0 -26 14 -54 31 -53 33 -53 33 -50 124 2
48 6 65 16 65 3 0 23 -9 46 -21z m-1147 1 c-3 -5 -18 -10 -33 -9 l-27 1 25 8
c35 11 42 11 35 0z m865 -33 l75 -43 3 -113 c3 -110 2 -113 -18 -108 -37 10
-331 190 -327 201 4 15 158 106 177 106 8 -1 49 -20 90 -43z m20 23 c0 -5 -5
-10 -11 -10 -5 0 -7 5 -4 10 3 6 8 10 11 10 2 0 4 -4 4 -10z m355 -44 c16 -11
17 -18 7 -56 -8 -34 -8 -52 3 -84 19 -54 19 -58 -6 -44 -30 19 -49 72 -49 139
0 63 9 72 45 45z m53 -98 l1 -103 -20 45 c-19 41 -19 51 -8 103 6 31 15 57 19
57 3 0 7 -46 8 -102z m-300 65 c9 -20 12 -108 12 -325 l0 -298 -25 0 -25 0 0
318 c0 175 3 322 7 325 11 12 18 8 31 -20z m-422 1 c-3 -9 -6 -51 -6 -95 l0
-79 -41 -25 c-71 -46 -69 -47 -69 53 l0 89 53 36 c58 40 72 45 63 21z m-330
-27 c2 -7 0 -24 -5 -38 -5 -13 -10 -17 -11 -9 0 8 -3 25 -6 38 -7 24 13 32 22
9z m-332 -22 c3 -13 11 -81 16 -151 l11 -128 -28 -22 c-15 -13 -32 -23 -36
-24 -5 0 -6 46 -3 103 4 90 4 94 -4 29 -6 -53 -13 -77 -27 -87 -10 -7 -20 -12
-22 -10 -2 2 0 72 4 154 7 137 9 151 26 151 13 0 19 -10 23 -42 11 -84 15 -92
10 -20 -3 57 -1 72 10 72 8 0 17 -11 20 -25z m787 -51 l109 -66 0 -49 0 -50
-32 17 c-18 10 -50 28 -70 42 l-37 24 -36 -22 c-20 -12 -37 -21 -39 -19 -6 8
-15 79 -9 79 3 0 18 -9 35 -21 16 -12 31 -19 34 -17 2 3 -14 17 -36 32 -37 24
-40 30 -40 71 0 25 3 45 6 45 3 0 55 -30 115 -66z m412 14 c40 -22 92 -54 115
-71 l44 -29 -29 -20 c-15 -10 -57 -34 -93 -53 -61 -31 -68 -32 -98 -20 l-32
14 0 111 c0 72 4 110 11 110 6 0 43 -19 82 -42z m-1058 -52 l110 -59 0 -192 0
-193 -50 25 c-27 14 -101 55 -162 90 -103 59 -113 67 -113 94 0 16 4 29 9 29
5 0 7 -9 4 -20 -4 -16 0 -20 21 -20 15 0 29 7 32 15 4 8 12 15 20 15 7 0 17
12 20 26 7 26 -1 161 -12 223 -4 18 -3 32 2 30 5 -2 59 -31 119 -63z m-760 24
c10 -16 -12 -12 -29 6 -9 8 -16 18 -16 20 0 7 38 -15 45 -26z m1095 -76 c0
-47 -5 -94 -10 -105 -6 -10 -14 -61 -18 -111 l-7 -93 -69 -37 c-107 -59 -101
-66 -104 107 -2 83 0 168 3 190 7 39 10 42 98 87 51 26 95 47 100 48 4 0 7
-39 7 -86z m558 -97 c2 -29 -1 -47 -8 -47 -5 0 -35 14 -65 31 l-55 31 0 50 0
50 63 -34 c61 -34 62 -35 65 -81z m-378 64 c0 -11 12 -29 28 -41 17 -14 20
-20 8 -16 -18 6 -116 -40 -116 -55 0 -18 125 -89 158 -89 10 0 40 14 66 30
l48 31 54 -31 c30 -18 54 -34 54 -36 0 -3 -4 -3 -10 1 -10 6 -105 -38 -115
-54 -3 -6 27 -29 66 -51 59 -35 76 -41 105 -35 33 6 34 5 34 -25 0 -16 -4 -30
-8 -30 -19 0 -445 241 -487 275 -14 11 -16 18 -7 21 6 3 12 19 12 35 0 24 8
35 47 59 55 35 63 37 63 11z m248 -61 l132 -75 0 -44 c0 -38 -2 -43 -19 -38
-28 7 -331 189 -331 198 0 12 52 39 70 36 9 -1 75 -36 148 -77z m459 -27 c-5
-85 -9 -100 -28 -116 -41 -33 -148 -89 -159 -82 -11 7 -14 124 -4 172 5 25 17
35 63 57 31 15 68 36 81 47 49 37 53 28 47 -78z m-1677 67 l40 -20 0 -66 c0
-45 -7 -82 -24 -122 -34 -81 -39 -102 -27 -102 6 0 11 7 11 15 0 24 27 29 55
11 31 -21 31 -31 -1 -61 -34 -31 -100 -43 -122 -21 -15 15 -15 23 8 104 25 89
31 178 17 245 -4 20 -5 37 -2 37 3 0 24 -9 45 -20z m94 -55 c11 -8 18 -17 15
-19 -2 -3 -15 4 -29 14 -14 11 -20 20 -15 19 6 0 19 -6 29 -14z m979 -10 c40
-26 33 -30 -9 -6 -54 32 -55 25 -2 -9 51 -32 63 -36 52 -19 -4 8 0 8 15 0 25
-14 28 -23 4 -14 -10 4 -14 2 -10 -4 8 -13 -52 -53 -78 -53 -17 0 -145 66
-145 75 0 2 19 15 41 28 47 29 91 29 132 2z m378 15 c14 -8 19 -21 19 -55 0
-45 -5 -50 -34 -39 -12 4 -16 20 -16 55 0 53 1 54 31 39z m-1361 -45 c14 -16
10 -18 -14 -9 -9 3 -16 10 -16 15 0 14 16 11 30 -6z m87 -7 c48 -28 49 -30 57
-87 5 -35 0 -68 -19 -131 -29 -97 -28 -90 -15 -90 6 0 10 6 10 14 0 21 17 29
44 22 77 -19 8 -106 -84 -106 -29 0 -30 1 -30 50 0 27 7 83 16 124 16 71 16
79 -1 138 -9 34 -19 68 -22 75 -7 18 0 16 44 -9z m724 -51 c121 -74 354 -205
419 -237 l45 -22 0 -194 c0 -107 -2 -194 -3 -194 -13 0 -511 291 -557 326 -18
14 -20 29 -23 199 -3 117 0 185 6 185 5 0 56 -28 113 -63z m561 -62 c4 -27 5
-51 3 -53 -2 -2 -13 1 -24 8 -17 8 -21 20 -21 56 0 38 3 45 17 42 13 -2 20
-17 25 -53z m255 19 c11 -10 2 -19 -49 -52 -70 -44 -231 -132 -241 -132 -4 0
-7 25 -7 56 0 50 2 55 18 49 47 -21 68 -16 152 35 47 27 89 57 95 65 7 11 11
12 14 3 2 -7 10 -18 18 -24z m-389 -30 c3 3 1 6 -4 6 -6 0 -19 7 -30 15 -16
14 -15 14 14 0 18 -9 30 -20 27 -25 -3 -5 -1 -11 5 -15 5 -3 10 -17 10 -30 0
-24 -25 -45 -54 -45 -24 0 -137 70 -131 81 4 5 23 18 43 28 36 19 37 19 75 -1
22 -11 42 -17 45 -14z m435 -357 c-18 -19 -237 -153 -321 -196 -23 -12 -47
-19 -52 -16 -11 7 -14 315 -4 352 4 16 39 40 118 82 61 33 147 82 191 110 l80
50 3 -181 c2 -162 1 -183 -15 -201z m-1266 247 c-7 -7 -37 7 -37 17 0 6 9 5
21 -1 11 -7 19 -14 16 -16z m398 -224 c3 -6 0 -10 -7 -10 -15 0 -38 19 -38 32
0 10 36 -8 45 -22z m391 -225 c16 -12 16 -14 3 -15 -9 0 -22 7 -29 15 -16 19
0 19 26 0z"/>
<path d="M3362 3888 c-15 -15 -15 -32 -1 -77 25 -78 32 -91 53 -97 11 -3 39
-23 61 -43 138 -129 154 -122 77 30 -27 51 -52 107 -56 122 -4 17 -17 32 -34
38 -15 6 -39 17 -54 25 -32 17 -31 17 -46 2z m46 -51 c4 -42 -10 -48 -33 -13
-18 27 -10 58 14 54 11 -2 17 -16 19 -41z m72 -2 c19 -23 8 -50 -20 -50 -21 0
-26 5 -28 33 -3 26 0 32 16 32 11 0 25 -7 32 -15z m-45 -62 c16 -22 8 -43 -16
-43 -18 0 -39 27 -39 49 0 17 42 13 55 -6z m110 -83 c37 -74 39 -80 27 -80
-12 0 -122 100 -122 111 0 15 40 50 51 44 5 -4 25 -38 44 -75z"/>
<path d="M3997 3533 c-13 -13 -7 -50 17 -99 13 -27 26 -56 29 -65 6 -19 84
-59 115 -59 13 0 22 6 22 15 0 8 6 15 14 15 24 0 46 30 46 62 0 59 -112 137
-196 138 -22 0 -44 -3 -47 -7z m124 -30 c30 -16 53 -33 52 -40 -2 -7 3 -10 11
-7 7 3 21 -7 30 -21 14 -21 15 -29 6 -41 -7 -7 -17 -11 -24 -7 -6 4 -15 8 -21
9 -5 0 -16 2 -23 2 -7 1 -11 6 -8 11 4 5 -3 7 -14 4 -23 -6 -53 14 -43 30 4 6
0 8 -10 4 -10 -3 -17 -2 -17 4 0 5 -11 15 -25 21 -24 11 -33 37 -18 51 13 14
51 6 104 -20z m-11 -112 c25 -11 58 -21 73 -21 16 0 26 -4 22 -10 -18 -30
-133 13 -164 60 -15 24 -15 25 5 8 10 -9 40 -26 64 -37z m37 -57 c-3 -3 -12
-4 -19 -1 -8 3 -5 6 6 6 11 1 17 -2 13 -5z"/>
<path d="M3097 3413 c-10 -17 -20 -69 -18 -88 4 -28 48 -83 84 -105 51 -31 98
-34 145 -10 66 34 52 69 -40 99 -20 7 -52 30 -72 51 -46 51 -87 73 -99 53z
m33 -23 c0 -5 -7 -10 -16 -10 -8 0 -12 5 -9 10 3 6 10 10 16 10 5 0 9 -4 9
-10z m27 -31 c2 -17 -1 -18 -13 -8 -13 11 -10 20 11 29 1 0 1 -9 2 -21z m28
-9 c3 -5 1 -10 -4 -10 -6 0 -11 5 -11 10 0 6 2 10 4 10 3 0 8 -4 11 -10z m-22
-45 c27 -27 56 -47 76 -51 17 -4 36 -15 42 -25 9 -17 6 -19 -34 -19 -52 0
-100 29 -134 79 -49 72 -14 83 50 16z m32 15 c4 -6 11 -8 16 -5 5 3 6 -1 3 -9
-4 -11 0 -13 15 -9 13 3 23 0 27 -10 3 -9 13 -13 25 -10 12 3 21 -1 25 -11 8
-20 -4 -35 -14 -20 -4 6 -26 18 -50 27 -51 20 -96 57 -69 57 8 0 19 -5 22 -10z"/>
<path d="M4623 3144 c-3 -8 0 -34 7 -57 7 -23 16 -53 20 -67 3 -14 16 -30 27
-36 12 -5 53 -37 93 -69 39 -33 77 -63 85 -68 27 -15 17 21 -34 121 -27 54
-52 110 -55 125 -4 18 -16 32 -34 38 -15 6 -35 15 -44 20 -27 14 -58 11 -65
-7z m60 -16 c-2 -5 -3 -19 -3 -33 0 -33 -28 -33 -40 1 -6 14 -7 30 -4 35 7 12
50 8 47 -3z m61 -24 c19 -18 20 -36 4 -52 -19 -19 -48 4 -48 38 0 34 19 40 44
14z m-37 -65 c16 -16 5 -39 -18 -39 -16 0 -39 26 -39 44 0 11 46 6 57 -5z
m107 -83 c20 -41 36 -78 36 -81 0 -8 -77 51 -107 83 -13 13 -23 27 -23 32 0
13 42 50 50 45 4 -2 24 -38 44 -79z"/>
<path d="M3725 3160 c-3 -6 1 -7 9 -4 18 7 21 14 7 14 -6 0 -13 -4 -16 -10z"/>
<path d="M3723 3043 c-22 -8 -15 -63 18 -151 5 -12 17 -25 26 -29 10 -3 43
-27 73 -53 70 -59 109 -85 117 -76 4 4 -16 52 -45 109 -28 56 -54 115 -58 130
-4 18 -17 33 -33 39 -14 6 -37 15 -51 21 -34 15 -33 15 -47 10z m31 -19 c17
-7 23 -74 7 -74 -27 0 -53 55 -34 73 8 8 8 8 27 1z m84 -61 c3 -28 0 -33 -17
-33 -23 0 -45 34 -37 56 4 9 15 14 28 12 18 -2 24 -11 26 -35z m-44 -45 c8
-13 7 -21 -2 -30 -17 -17 -46 1 -50 31 -3 18 1 22 19 19 12 -2 27 -11 33 -20z
m105 -78 c23 -44 38 -80 33 -80 -19 0 -122 93 -122 111 0 18 25 49 39 49 4 0
27 -36 50 -80z"/>
<path d="M2807 2893 c-15 -14 -6 -72 17 -106 13 -19 26 -43 28 -53 4 -21 73
-64 104 -64 12 0 24 7 28 15 3 8 12 15 20 15 18 0 46 38 46 62 0 27 -58 87
-111 114 -45 23 -117 32 -132 17z m124 -28 c80 -42 128 -115 75 -115 -30 0
-88 24 -81 33 3 4 0 3 -7 -3 -8 -6 -16 -6 -25 2 -11 9 -10 13 4 24 14 10 14
12 3 11 -8 -2 -21 -7 -29 -11 -10 -6 -12 -5 -7 2 4 7 2 12 -4 12 -6 0 -8 5 -5
10 4 6 3 10 -2 9 -28 -5 -50 21 -37 43 8 13 76 2 115 -17z m-67 -84 c10 -15
95 -51 121 -51 15 0 24 -4 20 -10 -10 -16 -52 -12 -93 9 -39 20 -82 61 -64 61
6 0 13 -4 16 -9z m74 -81 c22 -7 23 -8 6 -9 -11 -1 -29 6 -40 15 -10 8 -13 12
-6 9 8 -4 26 -11 40 -15z"/>
<path d="M2918 2832 c8 -5 12 -11 11 -13 -2 -2 2 -13 9 -24 6 -11 12 -15 12
-9 0 6 -3 14 -7 18 -5 4 -8 13 -8 19 0 5 -7 12 -15 14 -12 4 -12 3 -2 -5z"/>
<path d="M4364 2828 c-4 -7 -3 -8 4 -4 6 3 16 -3 22 -14 7 -12 18 -19 26 -16
7 3 18 -3 24 -14 6 -11 17 -17 24 -14 9 3 17 -3 21 -16 5 -15 12 -19 25 -15
13 4 20 0 25 -15 4 -12 9 -19 11 -17 3 2 0 16 -7 29 -7 17 -17 24 -29 21 -12
-3 -20 2 -25 17 -5 16 -10 19 -20 10 -10 -8 -15 -6 -20 10 -5 15 -12 19 -25
15 -13 -4 -20 0 -25 15 -7 22 -20 26 -31 8z"/>
<path d="M5264 2803 c-3 -10 -10 -28 -15 -40 -24 -62 84 -172 168 -173 39 0
104 40 101 62 -3 20 -20 31 -98 67 -25 11 -54 34 -65 50 -30 46 -81 65 -91 34z
m36 -12 c0 -12 -20 -25 -27 -18 -7 7 6 27 18 27 5 0 9 -4 9 -9z m29 -18 c-4
-24 3 -43 15 -43 7 0 21 -10 30 -22 9 -13 14 -17 10 -10 -5 11 -2 12 14 3 12
-6 23 -15 26 -20 4 -5 14 -7 25 -4 18 5 38 -24 25 -36 -4 -3 -9 0 -11 7 -3 6
-13 12 -23 12 -10 0 -22 5 -25 10 -4 6 -11 8 -16 4 -6 -3 -31 15 -56 41 -34
36 -42 50 -32 56 17 11 19 11 18 2z m4 -68 c27 -27 56 -47 76 -51 37 -8 61
-40 33 -46 -51 -11 -120 24 -159 82 -49 71 -14 82 50 15z"/>
<path d="M908 2783 c18 -2 45 -2 60 0 15 2 0 4 -33 4 -33 0 -45 -2 -27 -4z"/>
<path d="M998 2733 c7 -3 16 -2 19 1 4 3 -2 6 -13 5 -11 0 -14 -3 -6 -6z"/>
<path d="M1243 2783 c15 -2 37 -2 50 0 12 2 0 4 -28 4 -27 0 -38 -2 -22 -4z"/>
<path d="M1173 2773 c9 -2 23 -2 30 0 6 3 -1 5 -18 5 -16 0 -22 -2 -12 -5z"/>
<path d="M1270 2720 c36 -11 70 -19 75 -19 17 2 -99 38 -120 38 -11 0 9 -9 45
-19z"/>
<path d="M4363 2689 c-31 -11 -30 -52 2 -108 14 -23 25 -49 25 -56 0 -17 58
-53 98 -61 24 -5 33 -2 38 10 3 9 12 16 19 16 20 0 45 35 45 63 0 36 -42 82
-103 111 -65 30 -96 37 -124 25z m108 -36 c30 -16 53 -33 52 -40 -2 -7 3 -10
11 -7 15 6 50 -48 39 -60 -15 -15 -88 -1 -77 15 3 5 -2 6 -10 3 -19 -7 -53 11
-93 49 -70 66 -22 90 78 40z m49 -131 c39 -7 42 -9 22 -16 -42 -14 -130 23
-152 65 -8 14 0 12 38 -11 26 -17 68 -34 92 -38z m-11 -38 c10 -9 -35 -3 -49
6 -11 8 -7 9 15 4 17 -4 32 -8 34 -10z"/>
<path d="M4420 2637 c0 -2 6 -10 14 -16 11 -9 16 -9 22 1 4 7 4 10 -1 6 -4 -4
-14 -3 -22 3 -7 6 -13 9 -13 6z"/>
<path d="M4410 2611 c0 -10 19 -25 25 -20 1 2 -3 10 -11 17 -8 7 -14 8 -14 3z"/>
<path d="M3460 2695 c-11 -13 -10 -14 4 -9 10 4 18 0 22 -11 4 -9 13 -14 20
-11 8 3 19 -4 25 -15 6 -12 17 -18 25 -15 7 3 18 -3 24 -14 6 -11 17 -17 24
-14 9 3 17 -3 21 -16 4 -12 9 -19 12 -17 9 10 -19 49 -31 44 -7 -3 -18 3 -24
14 -7 10 -18 16 -26 13 -9 -3 -17 3 -21 16 -4 13 -12 19 -21 16 -7 -3 -20 4
-27 15 -13 17 -16 18 -27 4z"/>
<path d="M3490 2627 c68 -46 90 -59 90 -55 0 7 -108 78 -117 78 -4 0 8 -11 27
-23z"/>
<path d="M3590 2566 c0 -3 9 -10 20 -16 11 -6 20 -8 20 -6 0 3 -9 10 -20 16
-11 6 -20 8 -20 6z"/>
<path d="M1182 2555 c0 -5 6 -26 13 -45 7 -19 14 -28 14 -20 0 8 -6 29 -14 45
-7 17 -13 26 -13 20z"/>
<path d="M1000 2470 c-7 -28 -10 -53 -8 -55 3 -3 10 18 16 47 7 28 11 53 8 55
-2 2 -9 -19 -16 -47z"/>
<path d="M1211 2465 c0 -5 12 -50 28 -100 16 -49 29 -83 29 -75 0 18 -56 189
-57 175z"/>
<path d="M3400 2481 c-15 -46 -8 -71 32 -117 58 -66 123 -84 188 -51 24 12 45
27 47 34 6 17 -37 52 -78 63 -22 6 -57 30 -87 60 -62 61 -84 64 -102 11z m50
9 c0 -5 -7 -10 -15 -10 -8 0 -15 5 -15 10 0 6 7 10 15 10 8 0 15 -4 15 -10z
m27 -30 c2 -23 -12 -27 -20 -6 -3 8 -1 17 6 20 7 2 12 5 12 5 1 1 1 -8 2 -19z
m-6 -45 c24 -26 58 -50 83 -58 51 -17 62 -47 16 -47 -42 0 -90 22 -122 56 -41
44 -55 94 -27 94 4 0 27 -20 50 -45z m46 -5 c3 -11 10 -17 15 -14 5 4 20 2 31
-4 12 -6 37 -16 55 -24 36 -15 42 -28 12 -25 -11 1 -20 4 -20 8 0 4 -20 13
-45 20 -51 15 -103 59 -71 59 10 0 20 -9 23 -20z"/>
<path d="M2591 2412 c-16 -29 20 -143 52 -162 14 -8 60 -43 102 -77 42 -35 80
-63 85 -63 12 0 -18 78 -63 160 -19 36 -38 77 -41 92 -4 19 -15 30 -34 34 -15
4 -36 13 -47 20 -26 19 -42 17 -54 -4z m56 -39 c1 -26 -3 -33 -17 -33 -19 0
-30 19 -30 52 0 14 6 19 23 16 17 -2 22 -10 24 -35z m54 7 c23 -13 26 -58 4
-66 -21 -8 -45 14 -45 41 0 35 10 41 41 25z m-27 -82 c8 -13 7 -21 -2 -30 -17
-17 -46 1 -50 31 -3 18 1 22 19 19 12 -2 27 -11 33 -20z m100 -71 c20 -41 36
-77 36 -81 0 -8 -64 39 -109 81 -23 21 -24 22 -7 47 9 14 23 26 30 26 8 0 30
-33 50 -73z"/>
<path d="M4994 2428 c-4 -7 -3 -8 4 -4 6 3 16 -3 22 -14 7 -12 18 -19 26 -16
7 3 18 -3 24 -14 6 -11 17 -17 24 -14 9 3 17 -3 21 -16 5 -15 12 -19 25 -15
13 4 20 0 25 -15 4 -12 9 -19 11 -17 3 2 0 16 -7 29 -7 17 -17 24 -29 21 -12
-3 -20 2 -25 17 -5 16 -10 19 -20 10 -10 -8 -15 -6 -20 10 -5 15 -12 19 -25
15 -13 -4 -20 0 -25 15 -7 22 -20 26 -31 8z"/>
<path d="M4990 2387 c0 -5 95 -69 130 -87 39 -20 20 -4 -46 38 -79 51 -84 54
-84 49z"/>
<path d="M4995 2320 c-3 -6 1 -7 9 -4 18 7 21 14 7 14 -6 0 -13 -4 -16 -10z"/>
<path d="M5024 2298 c2 -7 10 -12 19 -10 9 1 21 -6 27 -17 6 -12 16 -18 25
-15 8 4 18 -1 21 -10 3 -9 12 -15 20 -14 7 2 20 -6 29 -17 14 -19 15 -18 3 8
-6 16 -17 26 -25 23 -7 -3 -19 4 -27 15 -10 15 -16 17 -21 8 -6 -8 -12 -3 -22
15 -11 21 -17 25 -28 16 -9 -8 -15 -8 -18 0 -3 6 -4 5 -3 -2z"/>
<path d="M4995 2260 c-3 -6 1 -7 9 -4 18 7 21 14 7 14 -6 0 -13 -4 -16 -10z"/>
<path d="M5026 2237 c3 -10 9 -15 12 -12 3 3 0 11 -7 18 -10 9 -11 8 -5 -6z"/>
<path d="M5066 2216 c9 -14 22 -22 30 -19 7 3 17 -2 20 -11 3 -9 13 -16 21
-16 9 0 22 -8 30 -17 12 -16 12 -14 1 10 -7 16 -17 26 -25 23 -7 -3 -17 3 -23
14 -6 11 -16 17 -25 14 -8 -4 -18 1 -21 10 -3 9 -10 16 -15 16 -5 0 -2 -11 7
-24z"/>
<path d="M5005 2210 c7 -12 155 -104 159 -99 2 2 -34 27 -81 56 -46 28 -81 48
-78 43z"/>
<path d="M5000 2160 c-13 -8 -13 -10 2 -10 9 0 20 -9 23 -20 4 -11 11 -17 17
-14 6 4 17 -1 24 -11 7 -10 20 -15 28 -12 9 4 17 -1 21 -14 7 -22 14 -23 35
-8 13 9 12 10 -2 5 -11 -3 -22 2 -28 14 -6 11 -17 17 -24 14 -8 -3 -19 3 -25
15 -6 11 -17 18 -24 15 -8 -3 -18 4 -23 15 -7 15 -13 18 -24 11z"/>
<path d="M4995 2090 c-3 -5 0 -7 9 -4 9 3 17 -3 21 -16 4 -13 12 -19 21 -16 8
3 17 -1 20 -9 7 -18 30 -20 40 -3 5 8 2 9 -9 5 -11 -4 -20 1 -27 13 -6 11 -16
17 -24 14 -7 -3 -16 2 -19 10 -7 18 -23 21 -32 6z"/>
<path d="M5166 2047 c3 -10 9 -15 12 -12 3 3 0 11 -7 18 -10 9 -11 8 -5 -6z"/>
<path d="M5110 2025 c0 -20 17 -38 24 -26 11 17 24 13 31 -10 4 -11 9 -18 12
-16 11 12 -19 48 -34 42 -9 -3 -20 0 -25 7 -4 7 -8 9 -8 3z"/>
<path d="M1768 2323 c12 -2 30 -2 40 0 9 3 -1 5 -23 4 -22 0 -30 -2 -17 -4z"/>
<path d="M2023 2323 c9 -2 25 -2 35 0 9 3 1 5 -18 5 -19 0 -27 -2 -17 -5z"/>
<path d="M4074 2308 c-5 -8 -2 -9 9 -5 10 4 20 0 26 -10 11 -20 51 -26 44 -7
-2 7 -11 10 -19 7 -7 -3 -17 2 -20 11 -7 19 -30 21 -40 4z"/>
<path d="M4080 2267 c0 -5 104 -73 148 -96 45 -24 20 -2 -35 31 -32 19 -70 42
-85 52 -16 10 -28 16 -28 13z"/>
<path d="M4170 2259 c-13 -9 -12 -10 2 -5 11 3 21 -2 28 -14 10 -18 50 -24 50
-7 0 5 -9 6 -19 2 -14 -4 -21 0 -26 15 -7 23 -14 24 -35 9z"/>
<path d="M4081 2206 c-12 -14 -12 -16 2 -10 10 3 20 -2 27 -16 9 -16 14 -19
25 -10 10 9 15 6 20 -9 3 -12 15 -21 25 -21 10 0 21 -7 24 -15 3 -9 12 -15 20
-13 8 2 22 -6 31 -17 14 -19 15 -18 3 8 -8 19 -16 26 -29 22 -12 -4 -20 1 -24
15 -4 13 -12 19 -21 16 -7 -3 -18 4 -24 15 -6 11 -17 18 -25 17 -8 -2 -20 5
-27 15 -13 17 -15 17 -27 3z"/>
<path d="M4080 2146 c-11 -14 -10 -16 3 -10 10 3 20 -2 26 -15 7 -12 17 -18
26 -15 9 4 18 -1 21 -11 4 -9 13 -14 20 -11 8 3 18 -4 24 -15 6 -11 17 -18 25
-17 8 2 21 -6 30 -17 14 -19 15 -18 3 8 -8 19 -16 26 -29 22 -12 -4 -20 1 -24
15 -4 13 -12 19 -21 16 -7 -3 -18 4 -24 15 -6 11 -16 17 -22 13 -6 -4 -18 3
-28 15 -15 20 -18 21 -30 7z"/>
<path d="M4095 2090 c7 -11 156 -102 160 -98 2 2 -34 27 -81 55 -46 29 -82 48
-79 43z"/>
<path d="M4086 2042 c-3 -5 1 -9 9 -9 8 0 15 4 15 9 0 4 -4 8 -9 8 -6 0 -12
-4 -15 -8z"/>
<path d="M4116 2008 c4 -5 12 -7 19 -4 8 3 17 -4 20 -15 5 -14 12 -18 25 -14
13 4 20 0 25 -15 4 -11 13 -19 20 -18 8 2 21 -6 30 -17 14 -19 15 -19 4 8 -7
15 -20 27 -30 27 -10 0 -21 9 -24 21 -5 15 -10 17 -20 9 -10 -8 -16 -7 -23 6
-5 10 -19 18 -30 19 -12 1 -19 -2 -16 -7z"/>
<path d="M4085 1980 c-5 -8 -4 -11 2 -7 6 4 15 -5 21 -18 7 -16 17 -23 27 -19
9 4 17 -1 21 -10 3 -9 12 -15 20 -14 7 2 19 -6 27 -16 11 -16 17 -17 33 -7 18
11 18 12 -3 6 -16 -4 -23 -1 -28 15 -4 13 -12 19 -21 16 -7 -3 -20 4 -27 14
-8 11 -17 17 -21 13 -4 -4 -15 3 -25 16 -14 18 -20 21 -26 11z"/>
<path d="M1840 2129 c0 -2 -14 -57 -30 -123 -17 -65 -30 -126 -29 -135 0 -9
16 45 34 119 19 74 32 136 30 139 -3 2 -5 2 -5 0z"/>
<path d="M3180 2200 c-13 -8 -13 -10 1 -10 9 0 19 -6 22 -14 3 -8 15 -14 26
-13 11 0 18 5 15 9 -3 4 -10 5 -18 2 -7 -3 -17 4 -22 15 -7 15 -13 18 -24 11z"/>
<path d="M3180 2147 c0 -5 104 -73 148 -96 45 -24 20 -2 -35 31 -32 19 -70 42
-85 52 -16 10 -28 16 -28 13z"/>
<path d="M3256 2138 c3 -4 11 -5 18 -2 9 3 17 -3 21 -15 7 -24 13 -25 35 -10
13 9 12 10 -2 5 -11 -3 -21 2 -28 14 -5 10 -19 18 -29 17 -11 0 -18 -5 -15 -9z"/>
<path d="M3174 2088 c-4 -7 -3 -8 4 -4 6 3 16 -3 22 -14 7 -12 18 -19 26 -16
7 3 18 -3 24 -14 6 -11 17 -17 24 -14 9 3 17 -3 21 -16 5 -15 12 -19 25 -15
13 4 20 0 25 -15 4 -12 9 -19 12 -17 10 10 -18 47 -36 47 -11 0 -22 7 -25 16
-3 9 -13 14 -21 11 -8 -4 -16 2 -20 14 -5 14 -13 19 -26 16 -12 -3 -20 2 -24
14 -7 21 -20 25 -31 7z"/>
<path d="M3340 2091 c0 -6 4 -13 10 -16 6 -3 7 1 4 9 -7 18 -14 21 -14 7z"/>
<path d="M3174 2028 c-4 -7 -3 -8 4 -4 6 3 16 -3 22 -14 7 -12 18 -19 26 -16
7 3 18 -3 24 -14 6 -11 17 -17 24 -14 9 3 17 -3 21 -16 5 -15 12 -19 25 -15
13 4 20 0 25 -15 4 -12 9 -19 11 -17 3 2 -1 16 -7 31 -9 19 -15 23 -25 15 -9
-8 -16 -5 -24 11 -6 12 -18 19 -25 16 -8 -3 -17 3 -20 15 -5 14 -12 18 -25 14
-13 -4 -20 0 -25 15 -7 22 -20 26 -31 8z"/>
<path d="M3170 1987 c0 -3 28 -23 63 -44 84 -53 87 -55 87 -49 0 2 -24 19 -52
37 -29 17 -63 38 -75 47 -13 8 -23 12 -23 9z"/>
<path d="M3175 1920 c-3 -6 1 -7 9 -4 18 7 21 14 7 14 -6 0 -13 -4 -16 -10z"/>
<path d="M3207 1894 c2 -7 11 -10 18 -8 7 3 18 -4 24 -15 7 -11 17 -18 25 -15
8 3 19 -4 26 -16 6 -11 16 -18 21 -14 6 3 17 -2 25 -12 13 -17 13 -16 3 8 -7
15 -17 24 -24 21 -8 -2 -19 5 -25 17 -6 11 -16 17 -22 14 -6 -4 -16 0 -22 8
-15 20 -56 30 -49 12z"/>
<path d="M3174 1858 c-4 -7 -3 -8 4 -4 6 3 16 -2 22 -13 5 -11 19 -19 29 -18
11 0 18 5 15 9 -3 4 -11 5 -18 2 -9 -3 -17 3 -21 15 -7 23 -20 27 -31 9z"/>
<path d="M3267 1812 c-9 -2 -15 -7 -12 -12 3 -5 12 -7 19 -4 9 3 17 -3 21 -16
5 -15 12 -19 25 -15 12 4 22 -1 29 -12 6 -10 10 -13 10 -8 0 6 -5 18 -13 27
-9 12 -16 14 -23 7 -8 -8 -15 -4 -25 13 -8 15 -20 22 -31 20z"/>
<path d="M5630 2095 c-11 -13 -10 -14 4 -9 10 4 18 0 22 -11 4 -9 13 -14 20
-11 8 3 19 -4 25 -15 6 -12 17 -18 25 -15 7 3 18 -3 24 -14 6 -11 17 -17 24
-14 9 3 17 -3 21 -16 4 -12 9 -19 12 -17 9 10 -19 49 -31 44 -7 -3 -18 3 -24
14 -7 10 -18 16 -26 13 -9 -3 -17 3 -21 16 -4 13 -12 19 -21 16 -7 -3 -20 4
-27 15 -13 17 -16 18 -27 4z"/>
<path d="M5660 2027 c68 -46 90 -59 90 -55 0 7 -108 78 -117 78 -4 0 8 -11 27
-23z"/>
<path d="M5630 1988 c-12 -8 -12 -9 2 -5 9 3 19 1 22 -6 3 -9 5 -9 5 0 1 18
-13 23 -29 11z"/>
<path d="M5670 1959 c-13 -9 -12 -10 2 -5 11 3 22 -2 29 -15 6 -12 17 -18 25
-15 7 3 18 -4 24 -15 6 -11 16 -16 22 -13 6 4 17 -1 25 -11 7 -11 13 -15 13
-9 -1 17 -25 41 -37 37 -7 -3 -16 3 -19 11 -4 11 -13 14 -24 11 -13 -4 -20 1
-25 15 -7 23 -14 24 -35 9z"/>
<path d="M5760 1966 c0 -3 9 -10 20 -16 11 -6 20 -8 20 -6 0 3 -9 10 -20 16
-11 6 -20 8 -20 6z"/>
<path d="M5630 1929 c-13 -9 -12 -10 2 -5 11 3 19 -2 23 -15 7 -22 13 -23 35
-8 13 8 13 9 -2 7 -9 -2 -23 5 -30 14 -10 13 -17 15 -28 7z"/>
<path d="M5706 1877 c3 -10 13 -16 20 -13 7 3 18 -2 23 -11 11 -20 51 -26 44
-6 -4 10 -9 11 -18 3 -10 -8 -15 -6 -20 10 -4 12 -13 19 -20 17 -7 -3 -18 0
-24 6 -9 9 -11 8 -5 -6z"/>
<path d="M5640 1877 c0 -5 95 -69 130 -87 39 -20 20 -4 -46 38 -79 51 -84 54
-84 49z"/>
<path d="M5625 1820 c-3 -5 0 -7 9 -4 9 3 17 -2 21 -15 7 -24 13 -25 35 -10
13 9 12 10 -2 5 -11 -3 -22 2 -28 14 -12 22 -25 26 -35 10z"/>
<path d="M5700 1769 c0 -13 18 -20 25 -9 4 6 12 7 18 4 7 -4 9 -3 4 1 -10 11
-47 14 -47 4z"/>
<path d="M5625 1760 c-3 -5 0 -7 9 -4 9 3 17 -3 21 -16 4 -13 12 -19 21 -16 7
3 18 -3 24 -14 6 -11 17 -17 24 -14 8 3 19 -4 26 -16 6 -11 15 -18 21 -14 5 3
17 0 26 -8 15 -12 15 -11 4 10 -9 17 -16 21 -25 13 -10 -8 -16 -5 -24 14 -7
16 -17 23 -27 19 -9 -4 -17 1 -21 11 -4 9 -13 14 -20 11 -8 -3 -18 4 -24 14
-12 22 -25 26 -35 10z"/>
<path d="M5753 1736 c2 -6 11 -11 21 -11 9 0 21 -7 26 -15 5 -8 10 -10 10 -5
0 20 -19 39 -39 40 -12 1 -20 -3 -18 -9z"/>
<path d="M4710 1985 c-11 -13 -10 -14 4 -9 10 4 18 0 22 -11 4 -9 13 -14 20
-11 8 3 19 -4 25 -15 6 -12 17 -18 25 -15 7 3 18 -3 24 -14 6 -11 17 -17 24
-14 9 3 17 -3 21 -16 4 -12 9 -19 12 -17 9 10 -19 49 -31 44 -7 -3 -18 3 -24
14 -7 10 -18 16 -26 13 -9 -3 -17 3 -21 16 -4 13 -12 19 -21 16 -7 -3 -20 4
-27 15 -13 17 -16 18 -27 4z"/>
<path d="M4740 1917 c68 -46 90 -59 90 -55 0 7 -108 78 -117 78 -4 0 8 -11 27
-23z"/>
<path d="M4710 1878 c-12 -8 -12 -9 2 -5 9 3 19 1 22 -6 3 -9 5 -9 5 0 1 18
-13 23 -29 11z"/>
<path d="M4750 1849 c-13 -9 -12 -10 2 -5 11 3 22 -2 29 -15 6 -12 17 -18 25
-15 7 3 18 -4 24 -15 6 -11 16 -16 22 -13 6 4 17 -1 25 -11 7 -11 13 -15 13
-9 -1 17 -25 41 -37 37 -7 -3 -16 3 -19 11 -4 11 -13 14 -24 11 -13 -4 -20 1
-25 15 -7 23 -14 24 -35 9z"/>
<path d="M4840 1856 c0 -3 9 -10 20 -16 11 -6 20 -8 20 -6 0 3 -9 10 -20 16
-11 6 -20 8 -20 6z"/>
<path d="M4710 1819 c-13 -9 -12 -10 2 -5 11 3 19 -2 23 -15 7 -22 13 -23 35
-8 13 8 13 9 -2 7 -9 -2 -23 5 -30 14 -10 13 -17 15 -28 7z"/>
<path d="M4786 1767 c3 -10 13 -16 20 -13 7 3 18 -2 23 -11 11 -20 51 -26 44
-6 -4 10 -9 11 -18 3 -10 -8 -15 -6 -20 10 -4 12 -13 19 -20 17 -7 -3 -18 0
-24 6 -9 9 -11 8 -5 -6z"/>
<path d="M4720 1767 c0 -5 95 -69 130 -87 39 -20 20 -4 -46 38 -79 51 -84 54
-84 49z"/>
<path d="M4705 1710 c-3 -5 0 -7 9 -4 9 3 17 -2 21 -15 7 -24 13 -25 35 -10
13 9 12 10 -2 5 -11 -3 -22 2 -28 14 -12 22 -25 26 -35 10z"/>
<path d="M4780 1659 c0 -13 18 -20 25 -9 4 6 12 7 18 4 7 -4 9 -3 4 1 -10 11
-47 14 -47 4z"/>
<path d="M4705 1650 c-3 -5 0 -7 9 -4 9 3 17 -3 21 -16 4 -13 12 -19 21 -16 7
3 18 -3 24 -14 6 -11 17 -17 24 -14 8 3 19 -4 26 -16 6 -11 15 -18 21 -14 5 3
17 0 26 -8 15 -12 15 -11 4 10 -9 17 -16 21 -25 13 -10 -8 -16 -5 -24 14 -7
16 -17 23 -27 19 -9 -4 -17 1 -21 11 -4 9 -13 14 -20 11 -8 -3 -18 4 -24 14
-12 22 -25 26 -35 10z"/>
<path d="M4833 1626 c2 -6 11 -11 21 -11 9 0 21 -7 26 -15 5 -8 10 -10 10 -5
0 20 -19 39 -39 40 -12 1 -20 -3 -18 -9z"/>
<path d="M3769 1804 c-12 -15 -12 -16 0 -9 9 5 18 2 27 -10 7 -10 20 -15 28
-12 9 4 17 -2 21 -14 4 -12 13 -18 21 -15 8 3 19 -4 25 -15 6 -12 17 -18 25
-15 7 3 18 -3 23 -12 6 -9 10 -12 11 -7 0 20 -17 36 -32 30 -11 -4 -18 1 -23
15 -4 13 -12 19 -21 16 -7 -3 -18 4 -24 15 -6 11 -16 17 -22 13 -6 -4 -18 3
-28 15 -15 21 -17 22 -31 5z"/>
<path d="M3785 1750 c7 -11 156 -102 160 -98 2 2 -34 27 -81 55 -46 29 -82 48
-79 43z"/>
<path d="M3775 1700 c-5 -8 -4 -11 3 -6 6 3 13 -3 17 -14 5 -15 12 -19 25 -15
13 4 20 0 25 -15 7 -23 14 -24 35 -9 13 9 12 10 -2 5 -11 -3 -22 2 -28 15 -6
11 -17 18 -25 17 -8 -2 -20 6 -28 16 -11 15 -16 16 -22 6z"/>
<path d="M3776 1642 c-3 -5 1 -9 9 -9 8 0 12 4 9 9 -3 4 -7 8 -9 8 -2 0 -6 -4
-9 -8z"/>
<path d="M3897 1614 c2 -7 11 -10 18 -8 7 3 20 -5 29 -18 9 -12 16 -18 16 -13
-1 18 -24 41 -47 47 -15 4 -20 2 -16 -8z"/>
<path d="M3806 1608 c4 -5 12 -7 19 -4 8 3 17 -4 20 -15 5 -14 12 -18 25 -14
13 4 20 0 25 -15 4 -11 11 -17 17 -14 6 4 19 -4 30 -17 l19 -24 -12 28 c-7 15
-20 27 -30 27 -9 0 -20 7 -23 16 -3 9 -13 14 -21 10 -8 -3 -19 2 -24 11 -5 9
-18 17 -29 18 -12 1 -19 -2 -16 -7z"/>
<path d="M3792 1578 c30 -25 108 -71 108 -64 0 2 -30 22 -67 45 -38 23 -56 31
-41 19z"/>
<path d="M3764 1528 c-5 -8 -2 -9 9 -5 11 4 20 -1 27 -13 6 -11 17 -17 24 -14
9 3 17 -3 21 -16 5 -15 12 -19 25 -15 13 4 20 0 25 -14 4 -13 12 -17 25 -14
11 3 17 9 15 14 -3 4 -12 6 -19 3 -8 -3 -17 3 -21 15 -4 12 -12 18 -21 14 -8
-3 -21 2 -28 12 -7 10 -18 15 -24 11 -6 -3 -13 3 -17 14 -7 22 -30 27 -41 8z"/>
<path d="M3910 1506 c0 -3 9 -10 20 -16 11 -6 20 -8 20 -6 0 3 -9 10 -20 16
-11 6 -20 8 -20 6z"/>
<path d="M3770 1469 c-13 -9 -12 -10 2 -5 11 3 22 -2 29 -15 6 -12 17 -18 25
-15 8 3 14 2 14 -2 1 -18 18 -32 33 -26 23 9 21 27 -2 19 -12 -3 -21 0 -25 11
-3 9 -13 14 -21 11 -8 -4 -16 2 -20 14 -7 22 -14 23 -35 8z"/>
<path d="M3893 1390 c2 -8 12 -14 21 -12 10 2 24 -5 32 -15 13 -16 13 -15 3
10 -13 29 -24 34 -35 16 -4 -8 -9 -7 -16 2 -8 11 -9 11 -5 -1z"/>
<path d="M1140 1655 c33 -19 50 -18 26 0 -11 8 -27 15 -35 15 -10 -1 -7 -6 9
-15z"/>
<path d="M837 1514 c-12 -12 -8 -51 9 -91 9 -21 22 -53 30 -70 9 -21 23 -35
40 -39 15 -4 61 -32 103 -62 111 -80 141 -90 127 -44 -4 11 -36 64 -71 118
-36 54 -65 103 -65 110 0 24 -36 55 -75 65 -69 18 -90 21 -98 13z m68 -56 c2
-31 -2 -38 -16 -38 -23 0 -53 44 -45 66 4 10 15 14 32 12 23 -3 27 -8 29 -40z
m82 -7 c14 -30 0 -64 -25 -59 -22 4 -47 51 -39 72 10 25 49 16 64 -13z m-47
-66 c17 -20 8 -49 -16 -53 -23 -3 -38 11 -48 46 -7 19 -4 22 22 22 16 0 35 -7
42 -15z m106 -43 c58 -86 85 -134 81 -138 -3 -3 -40 19 -83 48 -87 59 -99 83
-63 117 13 12 25 21 28 21 3 0 20 -22 37 -48z"/>
<path d="M1485 1293 c6 -6 33 -23 60 -38 28 -16 46 -24 40 -18 -5 6 -32 23
-60 38 -27 16 -45 24 -40 18z"/>
<path d="M1525 1218 c-5 -15 -1 -45 7 -53 3 -3 2 -23 -2 -45 -4 -22 -3 -37 1
-34 5 3 9 15 9 28 0 31 7 36 43 25 17 -5 33 -6 36 -3 3 2 -5 7 -17 11 -28 7
-28 18 0 37 12 9 19 16 14 16 -4 0 -21 -9 -36 -20 -29 -20 -29 -20 -39 -1 -17
30 -13 44 9 38 11 -3 18 -1 14 4 -8 13 -34 11 -39 -3z"/>
<path d="M1600 1225 c0 -2 18 -14 40 -25 22 -11 40 -18 40 -15 0 2 -18 14 -40
25 -22 11 -40 18 -40 15z"/>
<path d="M1470 1206 c0 -3 9 -10 20 -16 11 -6 20 -8 20 -6 0 3 -9 10 -20 16
-11 6 -20 8 -20 6z"/>
<path d="M1626 1163 c-6 -14 -5 -15 5 -6 7 7 10 15 7 18 -3 3 -9 -2 -12 -12z"/>
<path d="M1585 1110 c10 -11 20 -20 23 -20 3 0 -3 9 -13 20 -10 11 -20 20 -23
20 -3 0 3 -9 13 -20z"/>
<path d="M1470 1086 c0 -3 26 -19 58 -35 31 -17 77 -42 102 -56 29 -17 36 -19
20 -6 -29 23 -180 105 -180 97z"/>
<path d="M1830 1350 c-9 -6 -10 -10 -3 -10 6 0 15 5 18 10 8 12 4 12 -15 0z"/>
<path d="M1933 1322 c-1 -22 0 -24 9 -8 6 10 6 22 2 26 -5 5 -10 -3 -11 -18z"/>
<path d="M2481 766 c2 -2 15 -9 29 -16 23 -12 24 -12 11 3 -7 10 -20 17 -29
17 -8 0 -13 -2 -11 -4z"/>
<path d="M2411 618 c-35 -96 -35 -94 -16 -144 40 -105 158 -189 267 -189 41 0
62 5 77 19 12 11 31 24 44 30 12 7 23 23 25 37 4 32 -45 72 -109 89 -62 16
-112 52 -149 106 -47 67 -122 95 -139 52z m59 -17 c16 -32 12 -41 -20 -41 -25
0 -30 4 -30 23 0 41 31 52 50 18z m72 -51 c42 -56 86 -86 155 -106 29 -8 53
-19 53 -24 0 -13 -68 -6 -82 8 -7 7 -26 12 -43 12 -22 0 -33 6 -40 23 -6 12
-19 23 -30 25 -12 2 -29 21 -43 50 -38 79 -25 84 30 12z m-43 -65 c44 -59 86
-88 148 -104 70 -19 98 -64 47 -77 -57 -14 -156 18 -213 69 -39 36 -81 109
-81 142 0 29 2 31 30 27 21 -3 40 -19 69 -57z m8 40 c9 -25 -4 -29 -17 -6 -7
15 -7 21 0 21 6 0 13 -7 17 -15z m54 -55 c10 -6 19 -18 19 -28 -1 -16 -2 -16
-14 1 -7 9 -18 17 -25 17 -6 0 -11 5 -11 10 0 13 6 13 31 0z m94 -56 c9 -9 13
-19 10 -22 -3 -3 -11 0 -17 6 -7 7 -21 12 -32 12 -17 0 -18 2 -6 10 21 13 26
13 45 -6z m78 -32 c11 -12 13 -22 7 -32 -8 -12 -10 -12 -10 3 0 11 -9 21 -20
24 -11 3 -17 9 -14 14 8 14 19 11 37 -9z m64 2 c4 -11 -26 -49 -32 -42 -1 2
-5 16 -9 31 -6 25 -4 28 15 25 12 -2 24 -8 26 -14z"/>
<path d="M2741 616 c2 -2 15 -9 29 -15 24 -11 24 -11 6 3 -16 13 -49 24 -35
12z"/>
</g>
</svg>
